<svg width="64" height="64" viewBox="0 0 64 64" fill="none" xmlns="http://www.w3.org/2000/svg">
<path d="M62.3279 8.46725L48.0583 30.915L41.5632 41.1416L39.2997 44.6876C38.414 46.1124 36.905 47.0622 35.1993 47.2838C34.9368 47.3155 34.6744 47.3471 34.412 47.3471C32.9686 47.3471 31.5908 46.8406 30.5083 45.8591L14.7626 31.8332C12.4335 29.7435 12.2695 26.2292 14.4345 23.9812C16.5996 21.7333 20.2408 21.575 22.5698 23.6646L33.1654 33.0996L33.231 33.0046L39.6934 22.8097L52.5196 2.6416C54.1926 0.0453898 57.7354 -0.7778 60.4253 0.805257C63.148 2.41998 64.0009 5.83938 62.3279 8.46725Z" fill="#02A9CE"/>
<path d="M48.0925 30.9149L41.5974 41.1414L33.2652 33.0995L33.2324 33.0362L39.7276 22.8413L48.0925 30.9149Z" fill="url(#paint0_linear)"/>
<path d="M58.8826 16.4133L55.9959 20.9725C57.9969 24.6135 59.1122 28.7611 59.1122 33.162C59.1122 37.278 58.1281 41.1406 56.3895 44.5917C54.1261 49.0559 50.6161 52.7919 46.286 55.3881C42.1527 57.8894 37.2322 59.3141 32.0164 59.3141C17.0579 59.3141 4.92055 47.5678 4.92055 33.162C4.92055 32.6238 4.92055 32.0855 4.98616 31.5473C5.15018 29.0144 5.67504 26.5765 6.52794 24.2969C7.18401 22.5555 8.0041 20.9092 8.98821 19.3578C11.6781 15.1785 15.5818 11.7591 20.1743 9.60613C23.7171 7.92809 27.7519 6.97825 31.9836 6.97825C37.0026 6.97825 41.6935 8.30802 45.7283 10.5876L48.287 6.56666C43.4977 3.81214 37.9539 2.26074 31.9836 2.26074C26.3742 2.26074 21.0928 3.65383 16.5003 6.1234C12.039 8.49799 8.23373 11.8857 5.37981 15.97C2.00102 20.8775 0 26.7981 0 33.1304C0 50.1641 14.368 64 31.9836 64C38.5771 64 44.7114 62.0686 49.796 58.7759C53.9949 56.053 57.5049 52.3487 59.9979 48.0428C62.5566 43.6102 64 38.5128 64 33.0987C64 26.9881 62.0974 21.2258 58.8826 16.4133Z" fill="#02A9CE"/>
<defs>
<linearGradient id="paint0_linear" x1="39.4302" y1="33.3729" x2="34.8248" y2="38.9304" gradientUnits="userSpaceOnUse">
<stop stop-opacity="0"/>
<stop offset="0.0932151" stop-opacity="0.0279645"/>
<stop offset="1" stop-opacity="0.3"/>
</linearGradient>
</defs>
</svg>
