<svg width="115" height="125" viewBox="0 0 115 125" fill="none" xmlns="http://www.w3.org/2000/svg">
<g opacity="0.75">
<path opacity="0.75" d="M108.346 81.4489H8.33789V17.7861C8.33789 15.4773 10.2043 13.6099 12.5119 13.6099H104.205C106.513 13.6099 108.38 15.4773 108.38 17.7861V81.4489H108.346Z" fill="#B0BEC5"/>
<path opacity="0.75" d="M109.602 87.0515H7.08299C4.60571 87.0515 2.60352 85.0483 2.60352 82.5697V81.4492H114.081V82.5697C114.081 85.0483 112.079 87.0515 109.602 87.0515Z" fill="#B0BEC5"/>
<path opacity="0.75" d="M103.595 18.8726H11.2227V76.186H103.595V18.8726Z" fill="#B0BEC5"/>
<path opacity="0.75" d="M69.6603 84.2334H47.0593C45.668 84.2334 44.582 83.1129 44.582 81.7548V81.4492H72.1715V81.7548C72.1376 83.1129 71.0517 84.2334 69.6603 84.2334Z" fill="#B0BEC5"/>
</g>
<path d="M107.328 80.4308H7.32031V16.7681C7.32031 14.4592 9.18676 12.5918 11.4944 12.5918H103.188C105.495 12.5918 107.362 14.4592 107.362 16.7681V80.4308H107.328Z" fill="#455A64"/>
<path d="M108.584 86.0335H6.06541C3.58813 86.0335 1.58594 84.0302 1.58594 81.5516V80.4312H113.064V81.5516C113.064 84.0302 111.062 86.0335 108.584 86.0335Z" fill="#ECEFF1"/>
<path d="M102.577 17.8545H10.2051V75.168H102.577V17.8545Z" fill="#DDF6FF"/>
<path d="M68.6427 83.2153H46.0417C44.6504 83.2153 43.5645 82.0949 43.5645 80.7367V80.4312H71.154V80.7367C71.12 82.0949 70.0341 83.2153 68.6427 83.2153Z" fill="#B0BEC5"/>
<path d="M68.1679 70.9241H46.5171C44.8203 70.9241 43.4629 69.566 43.4629 67.8683V64.2013C43.4629 62.5036 44.8203 61.1455 46.5171 61.1455H68.1679C69.8647 61.1455 71.2221 62.5036 71.2221 64.2013V67.8683C71.2221 69.566 69.8307 70.9241 68.1679 70.9241Z" fill="#FD6F32"/>
<path d="M73.4951 54.1171H71.9001C71.3572 54.1171 70.916 53.6757 70.916 53.1324V22.4724C70.916 21.9292 71.3572 21.4878 71.9001 21.4878H73.4951C74.0381 21.4878 74.4792 21.9292 74.4792 22.4724V53.1324C74.4792 53.6417 74.0381 54.1171 73.4951 54.1171Z" fill="#455A64"/>
<path d="M111.638 50.6877H73.0195V24.917H111.638C112.622 24.917 113.437 25.7319 113.437 26.7165V48.9221C113.403 49.8728 112.622 50.6877 111.638 50.6877Z" fill="#ECEFF1"/>
<path d="M113.403 39.2114H73.0195V45.391H113.403V39.2114Z" fill="#B0BEC5"/>
<path d="M109.983 33.6073C111.074 31.9689 110.632 29.7553 108.994 28.6632C107.357 27.571 105.144 28.0137 104.053 29.6521C102.961 31.2905 103.404 33.504 105.041 34.5962C106.679 35.6884 108.891 35.2456 109.983 33.6073Z" fill="#FD6F32"/>
<path d="M104.601 35.0057C106.46 34.3575 107.441 32.3248 106.793 30.4656C106.145 28.6063 104.114 27.6245 102.255 28.2727C100.397 28.9208 99.4158 30.9535 100.064 32.8128C100.711 34.6721 102.743 35.6539 104.601 35.0057Z" fill="#02A9CE"/>
<path d="M74.7842 24.917H73.0195V50.6877H74.7842V24.917Z" fill="#CFD8DC"/>
<path d="M72.6816 23.9668V51.4691" stroke="#37474F" stroke-width="3" stroke-miterlimit="10" stroke-linecap="round" stroke-linejoin="round"/>
<path d="M64.9821 23.6604C67.9893 23.6604 70.4271 21.2213 70.4271 18.2125C70.4271 15.2037 67.9893 12.7646 64.9821 12.7646C61.9749 12.7646 59.5371 15.2037 59.5371 18.2125C59.5371 21.2213 61.9749 23.6604 64.9821 23.6604Z" fill="#FD6F32"/>
<path d="M69.4875 18.8988C69.8665 16.4159 68.1621 14.0956 65.6805 13.7163C63.1989 13.3371 60.8799 15.0424 60.5008 17.5253C60.1218 20.0082 61.8262 22.3285 64.3078 22.7077C66.7893 23.087 69.1084 21.3817 69.4875 18.8988Z" fill="#FD6F32"/>
<path d="M65.6096 19.4524C65.6096 19.3027 65.5692 19.184 65.4882 19.0964C65.4091 19.0069 65.2736 18.9247 65.0818 18.8499C64.89 18.775 64.7247 18.7011 64.5857 18.628C64.4467 18.5531 64.3271 18.4682 64.2268 18.3733C64.1282 18.2765 64.0508 18.1633 63.9945 18.0337C63.94 17.904 63.9127 17.7497 63.9127 17.5708C63.9127 17.2622 64.0077 17.0093 64.1977 16.8121C64.3878 16.6149 64.6402 16.4999 64.9551 16.467V15.8809H65.3774V16.4752C65.6888 16.5209 65.9325 16.656 66.1084 16.8806C66.2843 17.1033 66.3723 17.3928 66.3723 17.7488H65.6096C65.6096 17.5297 65.5656 17.3663 65.4777 17.2585C65.3915 17.149 65.2753 17.0942 65.1293 17.0942C64.9851 17.0942 64.8733 17.1371 64.7942 17.2229C64.715 17.3069 64.6754 17.4238 64.6754 17.5735C64.6754 17.7123 64.7141 17.8237 64.7915 17.9077C64.8689 17.9917 65.0123 18.0775 65.2217 18.1651C65.4328 18.2528 65.6061 18.3359 65.7416 18.4144C65.877 18.4911 65.9914 18.5787 66.0847 18.6773C66.1779 18.7741 66.2492 18.8855 66.2984 19.0115C66.3477 19.1356 66.3723 19.2808 66.3723 19.447C66.3723 19.7574 66.2791 20.0093 66.0926 20.2029C65.9061 20.3965 65.6492 20.5106 65.322 20.5453V21.0903H64.9024V20.548C64.5417 20.5078 64.262 20.3755 64.0632 20.1509C63.8661 19.9244 63.7676 19.6241 63.7676 19.2498H64.5303C64.5303 19.467 64.5795 19.6341 64.678 19.751C64.7783 19.866 64.9217 19.9235 65.1082 19.9235C65.263 19.9235 65.3853 19.8815 65.475 19.7975C65.5648 19.7117 65.6096 19.5967 65.6096 19.4524Z" fill="white"/>
<path d="M72.5899 18.3584C76.7785 18.3584 80.174 14.961 80.174 10.7702C80.174 6.57944 76.7785 3.18213 72.5899 3.18213C68.4014 3.18213 65.0059 6.57944 65.0059 10.7702C65.0059 14.961 68.4014 18.3584 72.5899 18.3584Z" fill="#FD6F32"/>
<path d="M78.8362 11.7891C79.4021 8.3293 77.0576 5.06557 73.5996 4.49939C70.1416 3.93321 66.8796 6.27898 66.3137 9.73882C65.7478 13.1987 68.0923 16.4624 71.5503 17.0286C75.0083 17.5948 78.2703 15.249 78.8362 11.7891Z" fill="#FD6F32"/>
<path d="M73.8271 12.4655C73.8271 12.2128 73.7563 12.0126 73.6147 11.8647C73.4761 11.7137 73.239 11.575 72.9034 11.4487C72.5678 11.3223 72.2784 11.1975 72.0352 11.0743C71.792 10.948 71.5826 10.8047 71.4071 10.6445C71.2347 10.4811 71.0992 10.2901 71.0007 10.0713C70.9052 9.85256 70.8575 9.59219 70.8575 9.29022C70.8575 8.76948 71.0238 8.34272 71.3563 8.00994C71.6888 7.67716 72.1306 7.48304 72.6818 7.42757V6.43848H73.4207V7.44144C73.9656 7.51847 74.3921 7.74649 74.7 8.12549C75.0078 8.50141 75.1618 8.9898 75.1618 9.59065H73.8271C73.8271 9.22089 73.7501 8.94512 73.5962 8.76332C73.4453 8.57844 73.2421 8.486 72.9866 8.486C72.7341 8.486 72.5386 8.55841 72.4 8.70323C72.2615 8.84497 72.1922 9.04218 72.1922 9.29484C72.1922 9.52902 72.26 9.71698 72.3954 9.85872C72.5309 10.0005 72.7818 10.1453 73.1482 10.2932C73.5177 10.4411 73.8209 10.5813 74.058 10.7138C74.2951 10.8432 74.4952 10.9911 74.6584 11.1575C74.8216 11.3208 74.9463 11.5088 75.0325 11.7214C75.1187 11.9309 75.1618 12.1759 75.1618 12.4563C75.1618 12.9801 74.9986 13.4053 74.6722 13.7319C74.3459 14.0585 73.8964 14.2511 73.3237 14.3097V15.2294H72.5894V14.3143C71.9582 14.2465 71.4687 14.0231 71.1208 13.6441C70.7759 13.262 70.6035 12.7551 70.6035 12.1235H71.9382C71.9382 12.4902 72.0244 12.7721 72.1968 12.9693C72.3723 13.1634 72.6233 13.2605 72.9496 13.2605C73.2206 13.2605 73.4345 13.1896 73.5916 13.0479C73.7486 12.903 73.8271 12.7089 73.8271 12.4655Z" fill="white"/>
<path d="M50.4457 46.8182H48.8H47.1544H45.5088H43.8632H42.2175H40.5719H38.9263H37.2806H35.6014H33.9558H32.3102H30.6645H29.0189H27.3733H25.7277H24.082V43.8777V40.9373V37.9968V35.0563V32.1159V29.1754V26.2349V23.2945V20.354V17.4135V14.4731V11.5326V8.59216V5.6517V2.74285V0.37151C24.082 0.181803 24.3507 0.0869491 24.4515 0.245038L25.7277 1.69946L27.1046 0.118567C27.239 -0.0395224 27.5076 -0.0395224 27.642 0.118567L29.0189 1.69946L30.3959 0.118567C30.5302 -0.0395224 30.7989 -0.0395224 30.9332 0.118567L32.3102 1.69946L33.6871 0.118567C33.8215 -0.0395224 34.0901 -0.0395224 34.2245 0.118567L35.6014 1.69946L36.9784 0.118567C37.1127 -0.0395224 37.3814 -0.0395224 37.5157 0.118567L38.8927 1.69946L40.2696 0.118567C40.404 -0.0395224 40.6727 -0.0395224 40.807 0.118567L42.1839 1.69946L43.5609 0.118567C43.6952 -0.0395224 43.9639 -0.0395224 44.0982 0.118567L45.4752 1.69946L46.8522 0.118567C46.9865 -0.0395224 47.2552 -0.0395224 47.3895 0.118567L48.7665 1.69946L50.0427 0.245038C50.177 0.0869491 50.4121 0.181803 50.4121 0.37151V2.74285V5.68331V8.62378V11.5642V14.5047V17.4452V20.3856V23.2945V26.2349V29.1754V32.1159V35.0563V37.9968V40.9373V43.8777V46.8182H50.4457Z" fill="#ECEFF1"/>
<path d="M50.6225 43.0825H23.9492V46.6137H50.6225V43.0825Z" fill="#CFD8DC"/>
<path d="M27.6484 16.6328H46.9238" stroke="#CFD8DC" stroke-width="2" stroke-miterlimit="10" stroke-linecap="round" stroke-linejoin="round"/>
<path d="M27.6484 19.7222H46.9238" stroke="#CFD8DC" stroke-width="2" stroke-miterlimit="10" stroke-linecap="round" stroke-linejoin="round"/>
<path d="M27.6484 22.7783H46.9238" stroke="#CFD8DC" stroke-width="2" stroke-miterlimit="10" stroke-linecap="round" stroke-linejoin="round"/>
<path d="M27.6484 25.8682H46.9238" stroke="#CFD8DC" stroke-width="2" stroke-miterlimit="10" stroke-linecap="round" stroke-linejoin="round"/>
<path d="M27.6484 28.9575H46.9238" stroke="#CFD8DC" stroke-width="2" stroke-miterlimit="10" stroke-linecap="round" stroke-linejoin="round"/>
<path d="M27.6484 32.0137H46.9238" stroke="#CFD8DC" stroke-width="2" stroke-miterlimit="10" stroke-linecap="round" stroke-linejoin="round"/>
<path d="M27.6484 35.1035H35.4536" stroke="#CFD8DC" stroke-width="2" stroke-miterlimit="10" stroke-linecap="round" stroke-linejoin="round"/>
<g opacity="0.5">
<path opacity="0.36" d="M29.4138 54.9662C36.2546 54.9662 41.8002 49.4177 41.8002 42.5732C41.8002 35.7287 36.2546 30.1802 29.4138 30.1802C22.5729 30.1802 17.0273 35.7287 17.0273 42.5732C17.0273 49.4177 22.5729 54.9662 29.4138 54.9662Z" fill="#02A9CE"/>
<path d="M40.681 31.3007C34.4708 25.0873 24.3581 25.0873 18.1479 31.3007C11.9377 37.5142 11.9377 47.6324 18.1479 53.8458C24.3581 60.0593 34.4708 60.0593 40.681 53.8458C46.8912 47.6324 46.8912 37.5142 40.681 31.3007ZM20.6591 51.3333C15.8403 46.5119 15.8403 38.6686 20.6591 33.8133C25.4779 28.9919 33.317 28.9919 38.1698 33.8133C43.0225 38.6347 42.9886 46.4779 38.1698 51.3333C33.317 56.1547 25.4779 56.1547 20.6591 51.3333Z" fill="#455A64"/>
<path d="M39.0862 32.8965C33.7583 27.5658 25.1048 27.5658 19.743 32.8965C14.3812 38.2272 14.4151 46.8853 19.743 52.2499C25.0709 57.6146 33.7244 57.5806 39.0862 52.2499C44.448 46.9192 44.4141 38.2611 39.0862 32.8965ZM20.6593 51.3332C15.8404 46.5118 15.8404 38.6685 20.6593 33.8132C25.4781 28.9918 33.3172 28.9918 38.1699 33.8132C43.0227 38.6346 42.9888 46.4779 38.1699 51.3332C33.3172 56.1546 25.4781 56.1546 20.6593 51.3332Z" fill="#78909C"/>
<path d="M20.5115 53.3718L18.5918 51.4512L14.6325 55.4126L16.5522 57.3332L20.5115 53.3718Z" fill="#455A64"/>
</g>
<path d="M0.738096 71.264C-0.246032 70.2793 -0.246032 68.6835 0.738096 67.6988L14.3462 54.0835L17.9094 57.6486L4.30132 71.264C3.31719 72.2486 1.72222 72.2486 0.738096 71.264Z" fill="#02A9CE"/>
<path d="M61.5837 78.0203C62.8393 78.0203 63.8234 79.0389 63.8234 80.2613V86.7124C63.8234 86.8822 63.9592 87.0519 64.1628 87.0519C64.3325 87.0519 64.5021 86.9161 64.5021 86.7124V65.3557C64.5021 64.0994 65.5202 63.1147 66.7419 63.1147C67.9975 63.1147 68.9816 64.1334 68.9816 65.3557V79.0729C68.9816 79.2426 69.1174 79.4124 69.321 79.4124C69.4907 79.4124 69.6603 79.2766 69.6603 79.0729V75.2022C69.6603 74.4552 70.2712 73.8101 71.0517 73.8101H72.8163C73.5629 73.8101 74.2077 74.4213 74.2077 75.2022V79.0729C74.2077 79.2426 74.3434 79.4124 74.547 79.4124C74.7167 79.4124 74.8864 79.2766 74.8864 79.0729V76.1189C74.8864 75.372 75.4972 74.7268 76.2777 74.7268H78.0424C78.789 74.7268 79.4337 75.338 79.4337 76.1189V79.0729C79.4337 79.2426 79.5695 79.4124 79.7731 79.4124C79.9428 79.4124 80.1124 79.2766 80.1124 79.0729V77.1036C80.1124 76.3566 80.7233 75.7115 81.5038 75.7115H83.6757C84.2186 75.7115 84.6259 76.1529 84.6259 76.6622L84.9652 91.6696C84.9652 93.2994 84.4222 94.8952 83.4042 96.1854L82.4201 97.4417V107.458H65.7917V101.244L61.5837 97.5775C60.2263 96.3892 59.4458 94.6915 59.4458 92.892V80.1933C59.31 79.0389 60.3281 78.0203 61.5837 78.0203Z" fill="#F1CB83"/>
<path d="M66.7417 63.5225C65.7915 63.5225 65.0449 64.2694 65.0449 65.2201V67.0876C65.0449 67.495 65.3843 67.8006 65.7576 67.8006H67.6919C68.0991 67.8006 68.4045 67.4611 68.4045 67.0876V65.2201C68.4385 64.2694 67.6919 63.5225 66.7417 63.5225Z" fill="#FBE9E7"/>
<path d="M60.1921 78.4956C59.6831 78.903 59.3438 79.5482 59.3438 80.2612V83.1812H61.2441C61.5496 83.1812 61.7871 82.9435 61.7871 82.6379V80.0235C61.7532 79.2086 61.0405 78.4956 60.1921 78.4956Z" fill="#FBE9E7"/>
<path d="M65.6627 109.792H82.291V103.783H65.6627V109.792Z" fill="white"/>
<path d="M64.5375 125H83.1738V105.909H64.5375V125Z" fill="#02A9CE"/>
<path d="M80.3499 111.635C81.0058 111.635 81.5376 111.103 81.5376 110.446C81.5376 109.79 81.0058 109.258 80.3499 109.258C79.6939 109.258 79.1621 109.79 79.1621 110.446C79.1621 111.103 79.6939 111.635 80.3499 111.635Z" fill="white"/>
<path d="M80.3499 115.641C81.0058 115.641 81.5376 115.109 81.5376 114.453C81.5376 113.796 81.0058 113.264 80.3499 113.264C79.6939 113.264 79.1621 113.796 79.1621 114.453C79.1621 115.109 79.6939 115.641 80.3499 115.641Z" fill="white"/>
<path d="M33.0862 8.59168C33.0862 7.51106 32.3433 6.81836 31.1918 6.81836H28.6289V13.182H31.3776C32.6498 13.182 33.4205 12.2861 33.4205 11.2332C33.4205 10.7067 33.0583 10.0048 32.2133 9.78313C32.8819 9.53376 33.0862 9.0073 33.0862 8.59168ZM29.994 9.33056V8.00981H31.0526C31.4519 8.00981 31.6561 8.27766 31.6561 8.6748C31.6561 9.05348 31.424 9.33056 31.0618 9.33056H29.994ZM31.2754 10.4481C31.7583 10.4481 31.9904 10.8453 31.9904 11.2055C31.9904 11.5842 31.7583 11.9905 31.3033 11.9905H29.994V10.4481H31.2754Z" fill="black"/>
<path d="M34.5415 6.81836V13.182H35.8973V6.81836H34.5415Z" fill="black"/>
<path d="M37.398 13.182H41.1589V11.9905H38.7631V6.81836H37.398V13.182Z" fill="black"/>
<path d="M42.1408 13.182H45.9016V11.9905H43.5058V6.81836H42.1408V13.182Z" fill="black"/>
<path d="M52.2242 64.288C52.6706 64.288 52.8859 64.7511 52.8859 65.1199C52.8859 65.4972 52.6467 65.9518 52.1923 65.9518H51.164V64.288H52.2242ZM49.9922 69.0907H51.164V67.0496H52.2481C53.4997 67.0496 54.0577 66.1062 54.0577 65.1199C54.0577 64.1508 53.4997 63.1816 52.2481 63.1816H49.9922V69.0907Z" fill="white"/>
<path d="M56.0586 66.6036L56.6166 64.5453L57.1986 66.6036H56.0586ZM57.5732 67.6928L58.0595 69.0907H59.2871L57.2544 63.1816H55.9869L53.9462 69.0907H55.1897L55.676 67.6928H57.5732Z" fill="white"/>
<path d="M61.9547 69.0907V66.4321L64.0831 63.1816H62.696L61.3568 65.3943L60.0335 63.1816H58.6465L60.7669 66.4149V69.0907H61.9547Z" fill="white"/>
<path d="M79.8413 28.9937C79.8413 28.2218 79.3362 27.7271 78.5532 27.7271H76.8105V32.2725H78.6795C79.5446 32.2725 80.0686 31.6326 80.0686 30.8805C80.0686 30.5045 79.8224 30.0031 79.2478 29.8447C79.7024 29.6666 79.8413 29.2906 79.8413 28.9937ZM77.7387 29.5215V28.5781H78.4585C78.73 28.5781 78.8689 28.7694 78.8689 29.0531C78.8689 29.3236 78.7111 29.5215 78.4648 29.5215H77.7387ZM78.6101 30.3197C78.9384 30.3197 79.0963 30.6034 79.0963 30.8607C79.0963 31.1312 78.9384 31.4215 78.629 31.4215H77.7387V30.3197H78.6101Z" fill="black"/>
<path d="M81.9548 30.3593L82.3968 28.776L82.8577 30.3593H81.9548ZM83.1545 31.1972L83.5396 32.2725H84.512L82.9019 27.7271H81.8979L80.2815 32.2725H81.2665L81.6517 31.1972H83.1545Z" fill="black"/>
<path d="M88.2574 27.7271H87.3292V30.4451L85.8391 27.7271H84.993V32.2725H85.9149V29.5215L87.4302 32.2725H88.2574V27.7271Z" fill="black"/>
<path d="M90.6802 29.9767L92.3282 27.7271H91.2421L90.2129 29.218V27.7271H89.2784V32.2725H90.2129V30.7288L91.52 32.2725H92.7196L90.6802 29.9767Z" fill="black"/>
<path d="M78.5124 44.0423H77.7366V41.3345L76.8105 41.5946V41.0234L78.4292 40.4983H78.5124V44.0423Z" fill="white"/>
<path d="M82.4637 44.0423H79.7848V43.5611L81.0491 42.3408C81.2227 42.1691 81.3506 42.0192 81.433 41.8911C81.5171 41.7631 81.5591 41.6416 81.5591 41.5265C81.5591 41.3694 81.5153 41.2462 81.4276 41.1571C81.3399 41.0663 81.2146 41.0209 81.0518 41.0209C80.8764 41.0209 80.7377 41.076 80.6357 41.1862C80.5355 41.2948 80.4854 41.4382 80.4854 41.6165H79.7069C79.7069 41.401 79.7633 41.2041 79.876 41.0258C79.9906 40.8476 80.1516 40.7082 80.3592 40.6077C80.5668 40.5056 80.8021 40.4546 81.0652 40.4546C81.4678 40.4546 81.7801 40.5421 82.002 40.7171C82.2257 40.8921 82.3376 41.1392 82.3376 41.4585C82.3376 41.6335 82.2875 41.8117 82.1872 41.9932C82.087 42.1747 81.9152 42.3862 81.6719 42.6277L80.7833 43.476H82.4637V44.0423Z" fill="white"/>
<path d="M83.7307 41.9616H84.1441C84.341 41.9616 84.4868 41.9171 84.5817 41.8279C84.6765 41.7388 84.7239 41.6205 84.7239 41.4731C84.7239 41.3305 84.6765 41.2195 84.5817 41.1401C84.4886 41.0607 84.3598 41.0209 84.1951 41.0209C84.0466 41.0209 83.9222 41.0582 83.822 41.1328C83.7218 41.2057 83.6717 41.3013 83.6717 41.4196H82.8959C82.8959 41.2349 82.9505 41.0696 83.0597 40.9237C83.1706 40.7763 83.3245 40.6612 83.5214 40.5786C83.72 40.4959 83.9383 40.4546 84.1763 40.4546C84.5897 40.4546 84.9136 40.5445 85.1481 40.7244C85.3825 40.9027 85.4997 41.149 85.4997 41.4633C85.4997 41.6254 85.4451 41.7745 85.336 41.9106C85.2268 42.0467 85.0836 42.1512 84.9065 42.2242C85.1266 42.2955 85.2903 42.4024 85.3977 42.545C85.5069 42.6876 85.5614 42.8561 85.5614 43.0506C85.5614 43.365 85.4344 43.617 85.1803 43.8066C84.9279 43.9962 84.5933 44.091 84.1763 44.091C83.7862 44.091 83.4668 43.9978 83.218 43.8114C82.9711 43.6251 82.8476 43.3788 82.8476 43.0725H83.6234C83.6234 43.2054 83.6779 43.3139 83.7871 43.3982C83.8981 43.4825 84.0341 43.5246 84.1951 43.5246C84.3794 43.5246 84.5235 43.4808 84.6273 43.3933C84.7329 43.3042 84.7857 43.1867 84.7857 43.0409C84.7857 42.6876 84.5709 42.511 84.1414 42.511H83.7307V41.9616Z" fill="white"/>
<path d="M88.3934 42.7103H88.8363V43.2767H88.3934V44.0423H87.6176V43.2767H86.0151L85.9802 42.8343L87.6096 40.5032H88.3934V42.7103ZM86.7533 42.7103H87.6176V41.4609L87.5666 41.5411L86.7533 42.7103Z" fill="white"/>
<path d="M89.3705 42.3019L89.596 40.5032H91.7864V41.089H90.2322L90.1355 41.8498C90.3199 41.7607 90.5158 41.7161 90.7234 41.7161C91.0956 41.7161 91.3873 41.8207 91.5985 42.0297C91.8097 42.2387 91.9152 42.5312 91.9152 42.9072C91.9152 43.1357 91.8615 43.3407 91.7542 43.5222C91.6486 43.702 91.4965 43.8422 91.2978 43.9427C91.0992 44.0415 90.8648 44.091 90.5945 44.091C90.3583 44.091 90.1391 44.048 89.9369 43.9621C89.7347 43.8746 89.5745 43.7523 89.4564 43.5951C89.3401 43.4379 89.2783 43.2588 89.2712 43.0579H90.0389C90.055 43.2054 90.1114 43.3204 90.208 43.4031C90.3064 43.4841 90.4344 43.5246 90.5919 43.5246C90.7672 43.5246 90.9023 43.4679 90.9972 43.3544C91.092 43.2394 91.1395 43.0773 91.1395 42.8683C91.1395 42.6674 91.0849 42.5134 90.9757 42.4065C90.8666 42.2995 90.7118 42.246 90.5113 42.246C90.327 42.246 90.1776 42.2898 90.0631 42.3773L89.9879 42.4405L89.3705 42.3019Z" fill="white"/>
<path d="M94.5163 40.4667V41.0453H94.4412C94.0904 41.0501 93.8077 41.1328 93.5929 41.2932C93.38 41.4536 93.252 41.6764 93.2091 41.9616C93.4167 41.7704 93.6788 41.6748 93.9956 41.6748C94.3356 41.6748 94.6058 41.785 94.8063 42.0054C95.0067 42.2258 95.1069 42.5158 95.1069 42.8756C95.1069 43.1057 95.0514 43.3139 94.9405 43.5003C94.8313 43.6866 94.6756 43.8317 94.4734 43.9354C94.273 44.0391 94.0457 44.091 93.7916 44.091C93.38 44.091 93.0471 43.9613 92.793 43.702C92.5407 43.4428 92.4145 43.0968 92.4145 42.6641V42.4113C92.4145 42.0273 92.4942 41.6886 92.6534 41.3953C92.8145 41.1004 93.0444 40.8727 93.3433 40.7122C93.6439 40.5502 93.992 40.4684 94.3875 40.4667H94.5163ZM93.7594 42.2387C93.6341 42.2387 93.5205 42.2687 93.4185 42.3287C93.3165 42.387 93.2413 42.4648 93.193 42.562V42.7759C93.193 43.0109 93.244 43.1948 93.346 43.3277C93.448 43.459 93.5911 43.5246 93.7755 43.5246C93.9419 43.5246 94.0761 43.4654 94.1781 43.3472C94.2819 43.2272 94.3338 43.0725 94.3338 42.8829C94.3338 42.69 94.2819 42.5345 94.1781 42.4162C94.0743 42.2979 93.9347 42.2387 93.7594 42.2387Z" fill="white"/>
<path d="M98.2261 40.897L96.7148 44.0423H95.8961L97.41 41.072H95.4666V40.5032H98.2261V40.897Z" fill="white"/>
<path d="M101.273 41.4439C101.273 41.6157 101.225 41.768 101.131 41.9009C101.036 42.0338 100.905 42.1399 100.739 42.2193C100.928 42.3019 101.079 42.4162 101.19 42.562C101.301 42.7063 101.356 42.8764 101.356 43.0725C101.356 43.3869 101.238 43.6356 101.002 43.8187C100.765 44.0002 100.444 44.091 100.038 44.091C99.6318 44.091 99.3097 43.9994 99.0716 43.8163C98.8336 43.6332 98.7146 43.3852 98.7146 43.0725C98.7146 42.8764 98.7701 42.7054 98.8811 42.5596C98.992 42.4138 99.1414 42.3003 99.3293 42.2193C99.1629 42.1399 99.0323 42.0338 98.9374 41.9009C98.8444 41.768 98.7978 41.6157 98.7978 41.4439C98.7978 41.1425 98.9088 40.9027 99.1307 40.7244C99.3526 40.5445 99.6541 40.4546 100.035 40.4546C100.415 40.4546 100.715 40.5437 100.937 40.722C101.161 40.8986 101.273 41.1392 101.273 41.4439ZM100.578 43.0214C100.578 42.8675 100.528 42.7443 100.43 42.652C100.331 42.5596 100.199 42.5134 100.033 42.5134C99.868 42.5134 99.7365 42.5596 99.638 42.652C99.5396 42.7427 99.4904 42.8659 99.4904 43.0214C99.4904 43.1721 99.5387 43.2937 99.6354 43.386C99.732 43.4784 99.8662 43.5246 100.038 43.5246C100.206 43.5246 100.338 43.48 100.433 43.3909C100.529 43.3018 100.578 43.1786 100.578 43.0214ZM100.497 41.4779C100.497 41.3402 100.457 41.23 100.376 41.1473C100.296 41.0631 100.182 41.0209 100.035 41.0209C99.8904 41.0209 99.7776 41.0615 99.6971 41.1425C99.6166 41.2235 99.5763 41.3353 99.5763 41.4779C99.5763 41.6189 99.6166 41.7323 99.6971 41.8182C99.7776 41.9041 99.8913 41.9471 100.038 41.9471C100.185 41.9471 100.297 41.9041 100.376 41.8182C100.457 41.7323 100.497 41.6189 100.497 41.4779Z" fill="white"/>
</svg>
