<svg width="183" height="120" viewBox="0 0 183 120" fill="none" xmlns="http://www.w3.org/2000/svg">
    <g opacity="0.46">
        <path opacity="0.2" d="M132.769 120C134.271 120 135.488 118.782 135.488 117.28C135.488 115.778 134.271 114.561 132.769 114.561C131.266 114.561 130.049 115.778 130.049 117.28C130.049 118.782 131.266 120 132.769 120Z" fill="#0A0705"/>
        <path opacity="0.23" d="M180.464 103.383C179.934 103.184 179.37 103.084 178.806 103.084L5.27402 103.151C3.44981 103.151 1.95728 104.544 2.02361 106.401C2.05678 107.927 3.38348 109.121 4.90918 109.121H77.2806C78.8063 109.121 80.0666 110.182 80.0666 111.708C80.0334 113.234 78.8063 114.196 77.2806 114.196H72.4381C71.4099 114.196 70.4481 114.693 69.851 115.522C69.4199 116.086 69.2209 116.55 69.2872 117.313C69.453 118.773 70.7134 119.834 72.1728 119.834H124.279C125.672 119.834 126.932 118.806 127.098 117.413C127.231 116.385 126.8 115.555 126.136 114.958C125.539 114.428 124.776 114.196 124.013 114.196H115.091C113.566 114.196 112.305 113.201 112.305 111.675C112.305 110.149 113.566 109.121 115.091 109.121H178.972C180.829 109.121 182.322 107.695 182.156 105.771C182.023 104.677 181.36 103.847 180.464 103.383Z" fill="#0A0705"/>
    </g>
    <path d="M137.777 26.501L144.941 26.5673C145.438 26.5673 145.903 26.899 146.102 27.4297L153.929 48.5573C154.294 49.5192 153.631 50.5805 152.702 50.5805H137.213C136.483 50.5805 135.919 49.9504 135.953 49.1543L136.483 27.9272C136.45 27.1312 137.047 26.501 137.777 26.501Z" fill="#BDDFE0"/>
    <path d="M108.558 80.332C103.616 80.332 99.4366 86.1363 99.2707 93.3005C99.1049 100.465 102.986 105.871 107.927 105.871C112.869 105.871 117.015 100.465 117.214 93.3005C117.38 86.1363 113.5 80.332 108.558 80.332Z" fill="#323231"/>
    <path d="M107.928 105.904H115.623L116.253 80.3315H108.558L107.928 105.904Z" fill="#323231"/>
    <path d="M116.253 80.3315C111.311 80.3315 107.132 86.1358 106.966 93.3C106.8 100.464 110.681 105.87 115.623 105.87C120.565 105.87 124.711 100.464 124.91 93.3C125.075 86.1358 121.195 80.3315 116.253 80.3315Z" fill="#414141"/>
    <path d="M121.967 93.5695C122.196 88.7389 119.682 84.6948 116.352 84.5367C113.022 84.3786 110.137 88.1665 109.907 92.9971C109.678 97.8277 112.192 101.872 115.522 102.03C118.852 102.188 121.738 98.4001 121.967 93.5695Z" fill="#282828"/>
    <path d="M163.98 88.9219H116.019C114.693 88.9219 113.565 90.0164 113.532 91.3431L113.432 94.7925C113.399 96.1192 114.461 97.2137 115.787 97.2137H163.747C165.074 97.2137 166.202 96.1192 166.235 94.7925L166.334 91.3431C166.401 90.0164 165.339 88.9219 163.98 88.9219Z" fill="#353535"/>
    <path d="M36.3838 80.332C31.4419 80.332 27.2959 86.07 27.0969 93.1678C26.9311 100.266 30.8117 105.606 35.7536 105.606C40.6956 105.606 44.8415 100.233 45.0405 93.1678C45.2063 86.07 41.3258 80.332 36.3838 80.332Z" fill="#323231"/>
    <path d="M35.7539 105.605H43.4819L44.0789 80.3315H36.3841L35.7539 105.605Z" fill="#323231"/>
    <path d="M44.0791 80.3315C39.1372 80.3315 34.9912 86.0695 34.7922 93.1673C34.6264 100.265 38.507 105.605 43.4489 105.605C48.3909 105.605 52.5368 100.232 52.7358 93.1673C52.9017 86.0695 49.0542 80.3315 44.0791 80.3315Z" fill="#414141"/>
    <path d="M49.8136 93.4466C50.0451 88.6714 47.5334 84.6694 44.2035 84.508C40.8737 84.3465 37.9866 88.0868 37.7551 92.862C37.5236 97.6372 40.0353 101.639 43.3652 101.801C46.695 101.962 49.5821 98.2218 49.8136 93.4466Z" fill="#282828"/>
    <path d="M138.474 95.887H66.0359C64.4107 95.887 63.1172 94.5603 63.1172 92.9683V72.7693C63.1172 71.1441 64.4439 69.8506 66.0359 69.8506H138.474C140.099 69.8506 141.392 71.1773 141.392 72.7693V92.9683C141.392 94.5603 140.099 95.887 138.474 95.887Z" fill="#353535"/>
    <path d="M91.0773 88.9219H43.1171C41.7904 88.9219 40.6627 90.0164 40.6296 91.3431L40.5301 94.7925C40.4969 96.1192 41.5582 97.2137 42.8849 97.2137H90.8782C92.2049 97.2137 93.3326 96.1192 93.3658 94.7925L93.4653 91.3431C93.4653 90.0164 92.4039 88.9219 91.0773 88.9219Z" fill="#353535"/>
    <path d="M128.988 90.2485H172.703C172.637 87.1307 167.197 71.6747 166.7 68.5901C166.268 65.9699 132.703 75.5221 131.244 73.6648C130.713 73.0014 130.381 72.3049 130.182 71.6084C129.817 70.8455 129.419 70.0827 129.021 69.353V90.2485H128.988Z" fill="#2B2B2B"/>
    <path d="M146.898 31.1771L147.23 31.0444L147.628 32.2716L147.296 32.4043C146.467 32.7028 146.036 33.6315 146.301 34.4275L147.86 38.9383C147.992 39.3363 148.291 39.668 148.689 39.8338C149.087 39.9996 149.518 39.9996 149.916 39.8338L150.115 39.7343L150.513 40.9615L150.347 41.0278C149.85 41.2268 149.352 41.2932 148.855 41.2268C148.589 41.1937 148.357 41.1273 148.092 40.9947C147.362 40.663 146.832 40.0991 146.599 39.3363L145.041 34.8255C144.609 33.3662 145.405 31.7078 146.898 31.1771Z" fill="#565656"/>
    <path d="M173.432 60.6635L163.913 54.1958C162.984 53.632 161.989 52.5375 161.657 51.9736L147.826 16.3186C146.533 14.1627 144.211 12.5375 141.691 12.5375L128.026 12.4712L126.334 90.2157H146.699L147.263 90.083C147.495 88.7563 148.258 87.695 149.153 86.5673C150.115 85.3069 150.977 83.9802 152.072 82.8193C154.46 80.2986 157.677 78.4744 161.16 78.2422C166.002 77.9106 171.707 81.36 172.669 90.1825L176.848 90.0498L177.412 67.496C177.511 64.6768 175.753 62.4214 173.432 60.6635ZM153.763 49.7182C153.763 49.7846 153.763 49.8509 153.73 49.9172C153.73 49.9504 153.697 49.9836 153.697 50.0167C153.598 50.1826 153.399 50.2489 153.233 50.2821C152.304 50.4811 151.342 50.3484 150.414 50.4479C149.286 50.5474 148.158 50.5806 147.03 50.6138C144.808 50.6469 142.619 50.6138 140.397 50.5474C139.767 50.5143 139.137 50.5143 138.506 50.4811C137.943 50.4811 136.782 50.2489 136.45 49.7846C136.251 49.5192 136.218 49.1212 136.218 48.7895C136.218 46.7663 136.218 44.7431 136.218 42.7199C136.218 41.1942 136.351 39.6685 136.417 38.1428C136.483 36.6171 136.284 35.1246 136.351 33.5989C136.45 32.0068 136.55 30.4479 136.682 28.8559C136.749 27.9604 136.914 26.9322 137.71 26.501C138.108 26.302 138.573 26.302 139.004 26.302C140.331 26.302 141.691 26.302 143.017 26.3352C143.614 26.3352 144.244 26.3352 144.808 26.501C146.201 26.8659 146.632 28.1926 147.097 29.4529C147.395 30.2821 147.627 31.1776 147.826 32.04C148.788 35.6884 150.049 39.2042 151.641 42.6204C152.702 44.8426 153.929 47.1975 153.763 49.7182Z" fill="#FD6F32"/>
    <path d="M87.8675 93.3538C88.1992 86.364 84.5671 80.5126 79.7548 80.2842C74.9425 80.0557 70.7723 85.5369 70.4406 92.5266C70.1088 99.5163 73.741 105.368 78.5533 105.596C83.3656 105.825 87.5357 100.344 87.8675 93.3538Z" fill="#323231"/>
    <path d="M78.8398 105.605H86.3689L86.999 80.2983H79.47L78.8398 105.605Z" fill="#323231"/>
    <path d="M95.3811 93.3728C95.7129 86.3831 92.0807 80.5316 87.2684 80.3032C82.4561 80.0748 78.286 85.5559 77.9542 92.5456C77.6225 99.5354 81.2547 105.387 86.067 105.615C90.8793 105.844 95.0494 100.363 95.3811 93.3728Z" fill="#414141"/>
    <path d="M92.5329 93.2374C92.7561 88.5349 90.3116 84.5981 87.0729 84.4444C83.8342 84.2906 81.0278 87.9781 80.8046 92.6807C80.5813 97.3832 83.0259 101.32 86.2646 101.474C89.5033 101.627 92.3097 97.9399 92.5329 93.2374Z" fill="#323231"/>
    <path d="M91.3718 93.1822C91.5508 89.4129 89.5895 86.2572 86.9912 86.1339C84.3929 86.0106 82.1416 88.9662 81.9626 92.7356C81.7837 96.5049 83.745 99.6605 86.3433 99.7839C88.9416 99.9072 91.1929 96.9515 91.3718 93.1822Z" fill="#C8CAC4"/>
    <path d="M91.3718 93.1822C91.5508 89.4129 89.5895 86.2572 86.9912 86.1339C84.3929 86.0106 82.1416 88.9662 81.9626 92.7356C81.7837 96.5049 83.745 99.6605 86.3433 99.7839C88.9416 99.9072 91.1929 96.9515 91.3718 93.1822Z" fill="#C8CAC4"/>
    <path d="M87.0313 87.0645C86.5006 87.0645 86.0031 87.1971 85.5387 87.4625C87.0313 88.3248 88.0595 90.4475 87.9931 92.9683C87.9268 95.4558 86.7991 97.6117 85.2402 98.4741C85.7046 98.7394 86.1689 98.8721 86.6996 98.8721C88.955 98.8721 90.8455 96.2187 90.9119 92.9683C91.0445 89.6847 89.2867 87.0645 87.0313 87.0645Z" fill="#8C8C8C"/>
    <path d="M84.6432 90.083C83.5155 90.083 82.5868 91.3765 82.5205 93.0017C82.4873 94.5938 83.3496 95.9205 84.4773 95.9205C85.605 95.9205 86.5337 94.6269 86.6001 93.0017C86.6664 91.3765 85.7709 90.083 84.6432 90.083Z" fill="#414141"/>
    <path d="M81.9902 93.8311C82.0234 94.1959 82.0566 94.5276 82.1229 94.8592C82.2887 94.7929 82.3882 94.5939 82.4214 94.3617C82.3882 94.0632 82.2224 93.8311 81.9902 93.8311Z" fill="#414141"/>
    <path d="M82.1561 91.3101C82.0898 91.6417 82.0234 92.0066 82.0234 92.3383C82.2556 92.3383 82.4546 92.1061 82.4546 91.8076C82.4546 91.5754 82.3219 91.3764 82.1561 91.3101Z" fill="#414141"/>
    <path d="M83.2495 89.3862C83.0174 89.3862 82.8184 89.6184 82.8184 89.9169C82.8184 90.2154 82.9842 90.4476 83.2164 90.4476C83.4485 90.4476 83.6475 90.2154 83.6475 89.9169C83.6807 89.6516 83.4817 89.3862 83.2495 89.3862Z" fill="#414141"/>
    <path d="M84.6441 88.5903C84.4119 88.5903 84.2129 88.8225 84.2129 89.121C84.2129 89.4195 84.3787 89.6517 84.6109 89.6517C84.8431 89.6517 85.0421 89.4195 85.0421 89.121C85.0752 88.8557 84.9094 88.5903 84.6441 88.5903Z" fill="#414141"/>
    <path d="M86.2359 89.5522C86.0037 89.5522 85.8047 89.7844 85.8047 90.0829C85.8047 90.3814 85.9705 90.6136 86.2027 90.6136C86.4349 90.6136 86.6339 90.3814 86.6339 90.0829C86.6339 89.7844 86.468 89.5522 86.2359 89.5522Z" fill="#414141"/>
    <path d="M87.0308 91.2764C86.7986 91.2764 86.5996 91.5085 86.5996 91.807C86.5996 92.1055 86.7654 92.3377 86.9976 92.3377C87.2298 92.3377 87.4288 92.1055 87.4288 91.807C87.462 91.5085 87.263 91.2764 87.0308 91.2764Z" fill="#414141"/>
    <path d="M86.9644 93.7979C86.7322 93.7979 86.5332 94.03 86.5332 94.3285C86.5332 94.627 86.699 94.8592 86.9312 94.8592C87.1634 94.8592 87.3624 94.627 87.3624 94.3285C87.3956 94.0632 87.1966 93.7979 86.9644 93.7979Z" fill="#414141"/>
    <path d="M85.9702 95.6885C85.7381 95.6885 85.5391 95.9207 85.5391 96.2192C85.5391 96.5177 85.7049 96.7498 85.9371 96.7498C86.1692 96.7498 86.3682 96.5177 86.3682 96.2192C86.3682 95.9207 86.2024 95.6885 85.9702 95.6885Z" fill="#414141"/>
    <path d="M84.3452 96.4839C84.1131 96.4839 83.9141 96.7161 83.9141 97.0146C83.9141 97.3131 84.0799 97.5452 84.3121 97.5452C84.5442 97.5452 84.7432 97.3131 84.7432 97.0146C84.7764 96.7161 84.5774 96.4839 84.3452 96.4839Z" fill="#414141"/>
    <path d="M82.8863 95.6885C82.6541 95.6885 82.4551 95.9207 82.4551 96.2192C82.5214 96.385 82.5877 96.5177 82.6209 96.6835C82.6873 96.7498 82.7536 96.783 82.8531 96.783C83.0853 96.783 83.2843 96.5508 83.2843 96.2523C83.3174 95.9207 83.1184 95.6885 82.8863 95.6885Z" fill="#414141"/>
    <path opacity="0.25" d="M86.866 86.1357C84.2789 86.1357 82.0899 89.1871 81.9904 92.9682C81.9572 94.6598 82.322 96.1855 83.0186 97.3795C85.1081 95.1241 88.3917 92.8687 91.3767 93.3994C91.3767 93.2667 91.4099 93.1009 91.4099 92.9682C91.4763 89.1871 89.453 86.1357 86.866 86.1357Z" fill="black"/>
    <path d="M164.406 93.53C164.748 86.4678 161.036 80.5496 156.114 80.3114C151.193 80.0732 146.926 85.6051 146.584 92.6673C146.242 99.7295 149.955 105.648 154.876 105.886C159.798 106.124 164.065 100.592 164.406 93.53Z" fill="#323231"/>
    <path d="M155.158 105.903H162.853L163.483 80.2979H155.822L155.158 105.903Z" fill="#323231"/>
    <path d="M172.088 93.5173C172.43 86.4551 168.717 80.5369 163.796 80.2987C158.874 80.0605 154.607 85.5924 154.265 92.6546C153.924 99.7168 157.636 105.635 162.558 105.873C167.479 106.111 171.746 100.58 172.088 93.5173Z" fill="#414141"/>
    <path d="M169.173 93.376C169.403 88.619 166.905 84.6328 163.594 84.4726C160.282 84.3123 157.411 88.0386 157.181 92.7955C156.95 97.5524 159.448 101.539 162.76 101.699C166.071 101.859 168.943 98.1329 169.173 93.376Z" fill="#323231"/>
    <path d="M167.982 93.3182C168.166 89.5126 166.165 86.3235 163.512 86.1951C160.859 86.0667 158.559 89.0476 158.375 92.8531C158.19 96.6587 160.192 99.8478 162.845 99.9762C165.497 100.105 167.797 97.1237 167.982 93.3182Z" fill="#C8CAC4"/>
    <path d="M167.516 93.296C167.682 89.8747 165.873 87.0071 163.477 86.8911C161.08 86.7751 159.003 89.4546 158.837 92.8759C158.671 96.2973 160.48 99.1648 162.877 99.2809C165.274 99.3969 167.351 96.7174 167.516 93.296Z" fill="#C8CAC4"/>
    <path d="M163.315 86.8984C163.116 86.8984 162.917 86.9316 162.752 86.9648C164.874 87.3628 166.433 89.9498 166.367 93.1008C166.301 96.2517 164.576 98.8387 162.453 99.2367C162.652 99.2699 162.818 99.3031 163.017 99.3031C165.405 99.3031 167.428 96.517 167.495 93.1008C167.594 89.6513 165.704 86.8984 163.315 86.8984Z" fill="#AFAFAD"/>
    <path d="M161.857 87.2966C161.327 87.5287 160.962 87.9931 161.061 88.3579C161.161 88.7228 161.658 88.8223 162.222 88.6233C162.753 88.3911 163.118 87.9267 163.018 87.5619C162.919 87.1971 162.388 87.0976 161.857 87.2966Z" fill="#414141"/>
    <path d="M159.503 92.106C159.105 92.106 158.74 92.6366 158.74 93.3C158.74 93.9633 159.039 94.494 159.47 94.494C159.868 94.494 160.233 93.9633 160.233 93.3C160.233 92.6366 159.934 92.106 159.503 92.106Z" fill="#414141"/>
    <path d="M162.089 97.6446C161.558 97.4456 160.994 97.6114 160.895 98.0426C160.762 98.4738 161.127 98.9713 161.657 99.1703C162.188 99.3693 162.752 99.2035 162.851 98.7723C162.951 98.3411 162.619 97.8436 162.089 97.6446Z" fill="#414141"/>
    <path d="M165.837 96.2516C165.538 96.7823 165.373 97.313 165.505 97.4125C165.638 97.5451 166.003 97.2135 166.334 96.6828C166.633 96.1521 166.799 95.6214 166.666 95.5219C166.533 95.3893 166.169 95.7209 165.837 96.2516Z" fill="#414141"/>
    <path d="M165.903 88.7886C165.771 88.8881 165.87 89.3856 166.102 89.8831C166.334 90.3806 166.633 90.7123 166.766 90.646C166.898 90.5465 166.799 90.049 166.567 89.5514C166.334 89.0208 166.036 88.6891 165.903 88.7886Z" fill="#414141"/>
    <path d="M163.581 90.5137C162.553 90.5137 161.724 91.6745 161.69 93.1007C161.657 94.5269 162.453 95.6878 163.448 95.6878C164.477 95.6878 165.306 94.5269 165.339 93.1007C165.372 91.6745 164.576 90.5137 163.581 90.5137Z" fill="#414141"/>
    <path d="M161.16 93.8638C160.961 93.8638 160.762 94.0628 160.762 94.3281C160.762 94.5935 160.928 94.7925 161.127 94.7925C161.326 94.7925 161.525 94.5935 161.525 94.3281C161.558 94.0628 161.392 93.8638 161.16 93.8638Z" fill="#414141"/>
    <path d="M161.226 91.6079C161.027 91.6079 160.828 91.8069 160.828 92.0723C160.828 92.3376 160.994 92.5366 161.193 92.5366C161.392 92.5366 161.591 92.3376 161.591 92.0723C161.624 91.8069 161.458 91.6079 161.226 91.6079Z" fill="#414141"/>
    <path d="M162.32 89.9165C162.121 89.9165 161.922 90.1155 161.922 90.3808C161.922 90.6462 162.088 90.8452 162.287 90.8452C162.486 90.8452 162.685 90.6462 162.685 90.3808C162.685 90.1487 162.519 89.9165 162.32 89.9165Z" fill="#414141"/>
    <path d="M163.582 89.2202C163.383 89.2202 163.184 89.4192 163.184 89.6846C163.184 89.9499 163.349 90.1489 163.548 90.1489C163.747 90.1489 163.946 89.9499 163.946 89.6846C163.946 89.4192 163.781 89.2202 163.582 89.2202Z" fill="#414141"/>
    <path d="M165.007 90.0493C164.808 90.0493 164.609 90.2483 164.609 90.5137C164.609 90.779 164.775 90.978 164.974 90.978C165.173 90.978 165.372 90.779 165.372 90.5137C165.372 90.2483 165.206 90.0493 165.007 90.0493Z" fill="#414141"/>
    <path d="M165.736 91.6079C165.537 91.6079 165.338 91.8069 165.338 92.0723C165.338 92.3376 165.504 92.5366 165.703 92.5366C165.902 92.5366 166.101 92.3376 166.101 92.0723C166.101 91.8069 165.935 91.6079 165.736 91.6079Z" fill="#414141"/>
    <path d="M165.669 93.8638C165.47 93.8638 165.271 94.0628 165.271 94.3281C165.271 94.5935 165.437 94.7925 165.636 94.7925C165.835 94.7925 166.034 94.5935 166.034 94.3281C166.034 94.0628 165.869 93.8638 165.669 93.8638Z" fill="#414141"/>
    <path d="M164.775 95.522C164.576 95.522 164.377 95.721 164.377 95.9863C164.377 96.2517 164.543 96.4507 164.742 96.4507C164.941 96.4507 165.14 96.2517 165.14 95.9863C165.14 95.721 164.974 95.522 164.775 95.522Z" fill="#414141"/>
    <path d="M163.316 96.252C163.117 96.252 162.918 96.451 162.918 96.7163C162.918 96.9816 163.084 97.1806 163.283 97.1806C163.482 97.1806 163.681 96.9816 163.681 96.7163C163.681 96.451 163.515 96.252 163.316 96.252Z" fill="#414141"/>
    <path d="M161.988 95.522C161.789 95.522 161.59 95.721 161.59 95.9863C161.59 96.2517 161.756 96.4507 161.955 96.4507C162.154 96.4507 162.353 96.2517 162.353 95.9863C162.353 95.7541 162.187 95.522 161.988 95.522Z" fill="#414141"/>
    <path d="M177.744 83.6816H174.46C174.062 83.6816 173.73 84.0133 173.73 84.4113L173.564 91.4097C173.564 91.8077 173.863 92.1393 174.261 92.1393L177.113 92.1062C178.407 92.1062 179.468 91.078 179.501 89.7845L179.601 85.6054C179.634 84.544 178.805 83.6816 177.744 83.6816Z" fill="#474747"/>
    <path d="M177.744 83.6816H174.46C174.062 83.6816 173.73 84.0133 173.73 84.4113L173.564 91.4097C173.564 91.8077 173.863 92.1393 174.261 92.1393L177.113 92.1062C178.407 92.1062 179.468 91.078 179.501 89.7845L179.601 85.6054C179.634 84.544 178.805 83.6816 177.744 83.6816Z" fill="#474747"/>
    <path d="M175.322 83.6816H174.46C174.062 83.6816 173.73 84.0133 173.73 84.4113L173.564 91.4097C173.564 91.8077 173.863 92.1393 174.261 92.1393H175.057C175.455 92.1393 175.82 91.8077 175.82 91.3765L175.986 84.4113C176.019 83.9801 175.687 83.6816 175.322 83.6816Z" fill="#3D3D3D"/>
    <path d="M153.598 47.7939H135.919L135.886 49.1538C135.853 49.9498 136.417 50.58 137.147 50.58H152.636C153.564 50.58 154.228 49.5186 153.863 48.5568L153.598 47.7939Z" fill="#6D6D6D"/>
    <path d="M136.184 57.1475H136.649C137.146 57.1475 137.544 57.5455 137.511 58.0098L137.345 64.2785C137.345 64.7428 136.914 65.1408 136.417 65.1408H135.985C135.488 65.1408 135.09 64.7428 135.123 64.2785L135.289 58.0098C135.289 57.5455 135.687 57.1475 136.184 57.1475Z" fill="#3D3D3D"/>
    <path d="M152.637 51.2767H137.148C136.617 51.2767 136.152 51.0777 135.788 50.6797C135.39 50.2817 135.157 49.6847 135.191 49.0877L135.721 27.8605C135.754 26.6665 136.65 25.7378 137.778 25.7378C137.778 25.7378 137.778 25.7378 137.811 25.7378L144.942 25.8705C145.738 25.8705 146.468 26.4011 146.766 27.1972L154.594 48.3248C154.859 49.0213 154.759 49.7842 154.328 50.4144C153.897 50.9782 153.3 51.2767 152.637 51.2767ZM137.778 27.1972C137.446 27.1972 137.148 27.5288 137.148 27.96L136.617 49.1872C136.617 49.4194 136.683 49.6184 136.816 49.751C136.882 49.8174 137.015 49.9169 137.181 49.9169H152.67C152.902 49.9169 153.068 49.751 153.134 49.6515C153.3 49.4193 153.333 49.1208 153.234 48.8555L145.406 27.7278C145.307 27.4957 145.141 27.3298 144.909 27.3298L137.778 27.1972Z" fill="#3A3A3A"/>
    <path d="M174.096 71.5423L174.726 79.7015C174.759 80 174.991 80.199 175.257 80.199H177.578C177.877 80.199 178.142 79.9668 178.142 79.6351L178.341 71.476C178.341 71.1774 178.109 70.9121 177.81 70.9121H174.66C174.361 70.9453 174.096 71.2106 174.096 71.5423Z" fill="#3D3D3D"/>
    <path d="M175.821 72.67L176.252 78.4412C176.285 78.607 176.418 78.7397 176.617 78.7397H178.109C178.308 78.7397 178.474 78.607 178.474 78.408L178.607 72.6369C178.607 72.471 178.441 72.3052 178.242 72.3052H176.152C175.953 72.3052 175.787 72.471 175.821 72.67Z" fill="#EA5615"/>
    <path d="M163.185 47.562H159.105C158.309 47.562 157.646 48.358 157.613 49.3531V49.4526C157.579 50.4144 158.21 51.2436 159.006 51.2436H163.085C163.881 51.2436 164.545 50.4476 164.578 49.4526V49.3531C164.611 48.358 163.981 47.562 163.185 47.562Z" fill="#303030"/>
    <path d="M169.817 43.582H163.25C162.587 43.582 162.056 44.3117 162.023 45.2404L161.923 49.5853C161.89 50.4809 162.421 51.2437 163.051 51.2437H169.618C170.282 51.2437 170.812 50.514 170.845 49.5853L170.945 45.2404C170.978 44.3117 170.447 43.582 169.817 43.582Z" fill="#303030"/>
    <path d="M167.993 43.582H161.426C160.762 43.582 160.232 44.3117 160.199 45.2404L160.099 49.5853C160.066 50.4809 160.597 51.2437 161.227 51.2437H167.794C168.457 51.2437 168.988 50.514 169.021 49.5853L169.121 45.2404C169.154 44.3117 168.656 43.582 167.993 43.582Z" fill="#3D3D3D"/>
    <path d="M168.324 49.9169L168.457 44.9086C168.457 44.5769 168.224 44.3447 167.893 44.3447H161.525C161.193 44.3447 160.928 44.6101 160.928 44.9086L160.795 49.9169C160.795 50.2485 161.027 50.4807 161.359 50.4807H167.694C168.025 50.4807 168.291 50.2485 168.324 49.9169Z" fill="#BDDFE0"/>
    <path opacity="0.21" d="M168.39 46.1357L168.423 44.8754C168.423 44.5437 168.191 44.3115 167.86 44.3115H165.04L160.828 49.0545L160.795 49.9168C160.795 50.2485 161.027 50.4807 161.359 50.4807H164.145L168.39 46.1357Z" fill="white"/>
    <path opacity="0.4" d="M151.078 40.9288L138.342 26.501H137.778C137.048 26.501 136.451 27.1312 136.418 27.9272L136.252 35.2572L148.922 50.5805H152.67C153.599 50.5805 154.262 49.5192 153.897 48.5573L151.078 40.9288Z" fill="white"/>
    <path d="M163.548 74.7261H166.832C167.263 74.7261 167.594 74.3613 167.594 73.9633V71.9069C167.594 71.4757 167.23 71.144 166.832 71.144H163.548C163.117 71.144 162.785 71.5089 162.785 71.9069V73.9633C162.785 74.3613 163.15 74.7261 163.548 74.7261Z" fill="#3D3D3D"/>
    <path d="M164.111 74.7261H167.394C167.825 74.7261 168.157 74.3613 168.157 73.9633V71.9069C168.157 71.4757 167.825 71.144 167.394 71.144H164.111C163.679 71.144 163.348 71.5089 163.348 71.9069V73.9633C163.348 74.3613 163.712 74.7261 164.111 74.7261Z" fill="#474747"/>
    <path d="M164.775 73.8973H166.765C167.063 73.8973 167.296 73.6651 167.296 73.3666V72.4379C167.296 72.1394 167.063 71.9072 166.765 71.9072H164.775C164.476 71.9072 164.244 72.1394 164.244 72.4379V73.3666C164.244 73.6651 164.476 73.8973 164.775 73.8973Z" fill="#EA5615"/>
    <path d="M110.548 91.2438H151.045C151.51 91.2438 151.875 90.879 151.875 90.4146V89.9503C151.875 89.4859 151.51 89.1211 151.045 89.1211H110.548C110.084 89.1211 109.719 89.4859 109.719 89.9503V90.4146C109.686 90.879 110.084 91.2438 110.548 91.2438Z" fill="#3F3F3F"/>
    <path d="M130.348 0.0664062H62.6862C60.9947 0.0664062 63.3496 1.3931 63.2833 3.05148L61.5917 87.7943C61.5254 89.5853 60.3314 90.9452 62.1224 90.9452C64.0461 90.9452 65.9698 90.3482 67.8935 90.4477C69.9167 90.5472 72.0726 89.7512 72.935 87.728C73.2667 86.9651 73.333 86.1028 73.6647 85.3399C74.0295 84.4775 74.726 83.8142 75.3894 83.1509C76.9814 81.592 78.6398 79.9999 80.6298 79.0049C82.6199 78.0099 84.8753 77.6782 87.0975 77.5124C89.187 77.3466 91.4092 77.3466 93.2998 78.3084C93.6646 78.5074 94.0295 78.7396 94.2617 79.0713C94.4607 79.3366 94.5602 79.6683 94.6597 79.9999C95.2235 81.592 96.2517 82.985 97.2799 84.3449C98.3744 85.8043 99.5021 87.2636 100.961 88.3581C103.549 90.2819 106.335 89.5853 109.32 89.7843C115.588 90.1824 121.824 90.5472 128.092 90.9452C129.784 90.9452 131.144 89.6185 131.177 87.9601L133.532 3.34998C133.565 1.59211 132.139 0.0664062 130.348 0.0664062Z" fill="#BFBFBF"/>
    <path d="M60.2976 90.8788H4.47681C2.8516 90.8788 1.82341 89.5521 1.88975 87.8937L4.31097 5.77114C4.41047 2.55389 7.0307 0 10.2479 0H70.48C70.48 0 65.4386 1.59204 65.4386 5.8043L63.0505 88.1922C63.0173 89.6848 61.7902 90.8788 60.2976 90.8788Z" fill="#CCCCCC"/>
    <path d="M7.82876 5.67139L5.77238 87.2965C5.73921 88.7227 6.63473 89.9167 8.06093 89.9167H57.0492C58.3759 89.9167 59.4373 88.8553 59.5036 87.5618L61.7922 5.70455H7.82876V5.67139Z" fill="#B2B2B2"/>
    <path d="M59.4024 88.5902L61.3592 29.4194H9.22002L7.76066 87.2635C7.72749 88.6897 8.62301 89.8837 10.0492 89.8837H59.0375C60.3311 89.8837 60.9944 89.9169 59.4024 88.5902Z" fill="#5B5B5B"/>
    <path opacity="0.45" d="M59.403 88.5902L61.3599 29.4194L9.1875 31.0778L59.0382 89.8837C60.3317 89.8837 60.9951 89.9169 59.403 88.5902Z" fill="#424242"/>
    <path d="M61.4585 31.0777L62.1219 5.67139H8.95444L8.35742 31.0777H61.4585Z" fill="#C1C1C1"/>
    <path d="M7.82812 5.67139L8.85632 6.96492L62.1232 7.09759V5.67139H7.82812Z" fill="#B2B2B2"/>
    <path d="M61.8897 13.1674L8.35742 13.1342V11.708L61.956 11.7412L61.8897 13.1674Z" fill="#B2B2B2"/>
    <path d="M61.757 19.2704L8.35742 19.2373V17.8442H61.8233L61.757 19.2704Z" fill="#B2B2B2"/>
    <path d="M61.6907 25.373H8.35742V23.9468H61.757L61.6907 25.373Z" fill="#B2B2B2"/>
    <path d="M37.9774 28.9222H29.0554C28.7901 28.9222 28.5579 28.69 28.5911 28.4247L28.6574 27.8277C28.6906 27.5955 28.8896 27.3965 29.1217 27.3965H38.0106C38.276 27.3965 38.5081 27.6287 38.475 27.894L38.4086 28.491C38.4086 28.7232 38.2096 28.9222 37.9774 28.9222Z" fill="#B2B2B2"/>
    <path d="M57.6785 88.6899L53.7316 80.0995C52.4381 77.2803 49.6188 75.4893 46.5343 75.4893H36.1197C33.3336 75.4893 30.7466 76.9486 29.3204 79.3035L23.9141 88.1924L50.3485 89.2206C50.2159 89.0879 57.9439 88.9221 57.6785 88.6899Z" fill="#7A7A7A"/>
    <path d="M36.0528 79.3699L30.6465 88.2256L52.6033 89.088C54.8256 88.9885 57.8438 88.8558 57.6779 88.7231L53.731 80.1328C52.4375 77.3135 49.6183 75.5557 46.5337 75.5557H42.8521C40.066 75.5557 37.479 76.9819 36.0528 79.3699Z" fill="#707070"/>
    <path d="M3.15114 84.3449H1.2606C0.763086 84.3449 0.331909 83.9469 0.365077 83.4825L0.928923 68.9552C0.962091 68.4909 1.32693 68.1592 1.82444 68.1592H3.71499C4.2125 68.1592 4.64368 68.5572 4.61051 69.0215L4.04666 83.5489C4.0135 83.9801 3.61549 84.3449 3.15114 84.3449Z" fill="#EFEFEF"/>
    <path d="M65.7369 84.3449H61.8895C61.392 84.3449 60.9608 83.9469 60.994 83.4825L61.5578 68.9552C61.591 68.4909 61.9558 68.1592 62.4534 68.1592H66.3008C66.7983 68.1592 67.2295 68.5572 67.1963 69.0215L66.6324 83.5489C66.6324 83.9801 66.2344 84.3449 65.7369 84.3449Z" fill="white"/>
    <path d="M66.3013 68.126H63.7474L63.1836 84.3449H65.7707C66.2682 84.3449 66.6662 83.98 66.6662 83.5488L67.23 69.0215C67.1969 68.524 66.7988 68.126 66.3013 68.126Z" fill="#F4F4F4"/>
    <path d="M67.1307 71.0447L67.197 69.0215C67.2302 68.5572 66.799 68.1592 66.3015 68.1592H62.454C61.9565 68.1592 61.5585 68.524 61.5585 68.9552L61.4922 71.0447H67.1307Z" fill="#EA5615"/>
    <path d="M61.0603 81.2271L60.9608 83.4824C60.9276 83.9468 61.3588 84.3448 61.8563 84.3448H65.7037C66.2012 84.3448 66.5992 83.9799 66.5992 83.5488L66.6987 81.2602H61.0603V81.2271Z" fill="#EA5615"/>
    <path d="M65.7369 84.3449H61.8895C61.392 84.3449 60.9608 83.9469 60.994 83.4825L61.5578 68.9552C61.591 68.4909 61.9558 68.1592 62.4534 68.1592H66.3008C66.7983 68.1592 67.2295 68.5572 67.1963 69.0215L66.6324 83.5489C66.6324 83.9801 66.2344 84.3449 65.7369 84.3449Z" stroke="#515151" stroke-width="4" stroke-miterlimit="10"/>
    <path d="M4.50971 71.1442L4.57605 68.9883C4.60921 68.524 4.17804 68.126 3.68053 68.126H1.78998C1.29247 68.126 0.89446 68.4908 0.89446 68.922L0.828125 71.111H4.50971V71.1442Z" fill="#EA5615"/>
    <path d="M54.7594 52.8359L54.4277 61.8575H60.2652L60.5637 52.8691L54.7594 52.8359Z" fill="#EEB483"/>
    <path d="M58.1757 62.1892L47.1641 62.156L47.5289 52.8359L58.3415 52.8691L58.1757 62.1892Z" fill="#EFC094"/>
    <path d="M0.431376 81.1606L0.331874 83.4824C0.298706 83.9467 0.729883 84.3447 1.22739 84.3447H3.11794C3.61545 84.3447 4.01346 83.9799 4.01346 83.5487L4.11296 81.1938H0.431376V81.1606Z" fill="#EA5615"/>
    <path d="M4.37768 67.1976C4.17868 67.0649 3.91334 67.0317 3.648 67.0317H2.48714C2.18863 67.0317 1.92329 67.2971 1.92329 67.5956V67.6287C1.92329 67.9273 2.15547 68.1594 2.45397 68.1594H3.68117C3.78067 68.1594 3.847 68.1926 3.91334 68.2589C3.97967 68.3253 4.01284 68.4248 4.01284 68.4911L3.48216 84.0135C3.48216 84.2125 3.38266 84.2788 3.18366 84.2788H1.85696C1.62479 84.2788 1.42578 84.4778 1.42578 84.71C1.42578 84.8095 1.42578 84.9422 1.42578 85.0748C1.42578 85.3733 1.65795 85.5392 1.95646 85.506H3.15049C3.94651 85.506 4.57669 84.8758 4.60986 84.0798L5.1737 68.5574C5.1737 67.9936 4.90836 67.4961 4.37768 67.1976Z" fill="#515151"/>
    <path d="M44.4453 61.2935V87.8274H59.4038L60.2994 61.2935H44.4453Z" fill="#EEB483"/>
    <path opacity="0.22" d="M50.5488 61.2935L59.9352 71.8075L60.3001 61.2935H50.5488Z" fill="#424242"/>
    <path d="M49.6857 88.0933H29.8516L30.1169 61.3271H49.6857V88.0933Z" fill="#EFC094"/>
    <path opacity="0.09" d="M30.1481 71.9072L30.0154 72.1062L29.8496 87.8608L49.7169 87.9271L49.6837 79.4031L43.4483 71.9736L30.1481 71.9072Z" fill="#424242"/>
    <path d="M43.3503 87.7281L25.8711 87.6618L26.4018 71.9072L43.3172 71.9736L43.3503 87.7281Z" fill="#EEB483"/>
    <path d="M31.7412 88.2587L14.5273 88.1592L15.0912 71.874L32.0066 71.9404L31.7412 88.2587Z" fill="#EFC094"/>
    <path d="M132.703 88.524C132.703 87.8606 132.172 87.2968 131.476 87.2968L102.189 87.2305C101.492 87.2305 100.929 86.8325 100.73 86.2023L98.5405 79.9336C97.5786 77.2139 95.0911 75.456 92.2055 75.456L81.9568 75.4229C79.3034 75.4229 76.7826 76.9154 75.3896 79.3366L71.2437 86.6003C70.8457 87.2968 70.1492 87.728 69.4526 87.728L1.2272 87.6285C0.563847 87.6285 0 88.1592 0 88.8557V90.3814C0 91.0447 0.530679 91.6086 1.2272 91.6086L69.4526 91.7412C71.5754 91.7412 73.5986 90.5472 74.6931 88.6235L78.839 81.3598C79.5024 80.199 80.7296 79.4361 81.9568 79.4361L92.2055 79.4693C93.4327 79.4693 94.4277 80.1658 94.8257 81.2935L97.0148 87.5621C97.8108 89.7844 99.834 91.2437 102.222 91.2437L131.509 91.3101C132.172 91.3101 132.736 90.7794 132.736 90.0829V88.524H132.703Z" fill="#B2B2B2"/>
    <path d="M131.508 87.2968L102.221 87.2305C101.525 87.2305 100.961 86.8325 100.762 86.2023L98.573 79.9336C97.6111 77.2139 95.1236 75.456 92.238 75.456L81.9892 75.4229C79.3358 75.4229 76.8151 76.9154 75.4221 79.3366L71.2762 86.6003C70.8781 87.2968 70.1816 87.728 69.4851 87.728H62.5531C61.7571 87.728 61.0938 88.3913 61.0938 89.1873V90.4145C61.0938 91.1111 61.6576 91.6749 62.3541 91.6749H69.4851C71.6078 91.6749 73.631 90.4809 74.7256 88.5572L78.8715 81.2935C79.5349 80.1326 80.762 79.3698 81.9892 79.3698L92.238 79.4029C93.4652 79.4029 94.4602 80.0995 94.8582 81.2272L97.0473 87.4958C97.8433 89.718 99.8665 91.1774 102.255 91.1774L131.541 91.2437C132.205 91.2437 132.769 90.713 132.769 90.0165V88.4908C132.702 87.8606 132.172 87.2968 131.508 87.2968Z" fill="#A5A5A5"/>
    <path d="M124.776 20.9952H73.7647C73.3004 20.9952 72.9023 20.5972 72.9023 20.1329C72.9023 19.6685 73.3004 19.2705 73.7647 19.2705H124.776C125.241 19.2705 125.639 19.6685 125.639 20.1329C125.639 20.5972 125.241 20.9952 124.776 20.9952Z" fill="#CCCCCC"/>
    <path d="M123.649 59.2042H72.6045C72.1402 59.2042 71.7422 58.8062 71.7422 58.3418C71.7422 57.8775 72.1402 57.4795 72.6045 57.4795H123.616C124.08 57.4795 124.478 57.8775 124.478 58.3418C124.478 58.8062 124.114 59.2042 123.649 59.2042Z" fill="#CCCCCC"/>
    <path d="M88.092 32.5371C88.092 32.5371 73.8631 49.0877 75.2562 54.1623C76.6492 59.2369 85.5381 47.761 85.5381 47.761L88.092 32.5371Z" fill="#D58A73"/>
    <path d="M92.9681 30.1824C92.9681 30.1824 85.4722 29.8508 81.459 39.8342L86.0693 44.6103L87.595 39.1045C87.5618 39.1045 91.1107 32.7695 92.9681 30.1824Z" fill="#02A9CE"/>
    <path d="M109.153 34.3611C108.689 31.9399 106.168 30.58 103.979 30.0825C102.288 29.6845 100.53 29.7177 98.8051 29.7508C97.9428 29.784 97.0804 29.8172 96.1849 29.8172C95.1899 29.8172 94.1617 29.8503 93.1998 30.1157C92.1384 30.381 91.2761 30.9449 90.4137 31.6082C89.3856 32.4042 88.49 33.3661 87.8267 34.4938C87.3955 35.2235 87.0307 36.0526 86.7985 36.8818C84.4436 44.9747 88.5232 63.0841 88.5232 63.0841C95.82 65.0078 112.006 60.1322 106.832 63.0841C106.798 63.0178 110.546 41.6911 109.153 34.3611Z" fill="#02A9CE"/>
    <path d="M109.153 34.3612C108.921 33.134 108.158 32.1721 107.196 31.4756C107.196 35.1903 106.765 38.9051 103.481 41.2268C100.761 43.1174 97.1462 43.3495 93.9621 43.0179C91.2755 42.7525 88.3236 41.8902 86.2341 40.066C85.3717 48.9548 88.5558 63.051 88.5558 63.051C93.9289 64.4772 104.045 62.2218 107.03 62.0891C107.66 57.8437 110.347 40.7625 109.153 34.3612Z" fill="#02A9CE"/>
    <path d="M106.799 63.0181C106.799 63.0181 106.865 62.6865 106.965 62.0563C108.059 62.0231 108.192 62.2553 106.799 63.0181Z" fill="#CFCFCF"/>
    <path d="M87.8254 69.3527C88.1239 71.7407 106.267 69.22 106.267 69.22L108.621 56.749L86.366 56.2184C86.3329 56.1852 87.3279 65.2067 87.8254 69.3527Z" fill="#596273"/>
    <path d="M95.3556 100.928C92.9343 101.26 90.5463 101.625 88.1251 101.757C86.2677 77.3793 86.4335 55.4225 86.3672 56.1853L95.1897 65.7707C95.3887 65.0742 93.7967 75.6878 95.3556 100.928Z" fill="#596273"/>
    <path d="M107.527 82.4874C104.708 83.3166 101.889 84.1126 99.0695 84.9418C97.7428 67.8937 100.429 62.8191 100.396 62.9186L108.589 56.7163C108.622 56.7163 106.963 65.8374 107.527 82.4874Z" fill="#596273"/>
    <path d="M90.6132 81.6583C92.4705 81.592 93.7972 80.1658 94.6596 78.6069C94.6264 84.3117 96.0195 96.451 96.0195 108.192C93.5982 108.524 90.2815 107.728 87.8603 107.894C87.2964 100.332 87.1637 86.5671 86.8652 79.8673C87.7939 80.9287 88.988 81.7247 90.6132 81.6583Z" fill="#596273"/>
    <path d="M102.287 81.7906C104.51 81.9897 106.334 81.1273 107.461 79.6348C107.561 86.1356 109.319 98.5734 109.319 107.23C107.229 107.429 102.553 107.462 102.088 107.495C100.198 99.2036 99.0037 86.0029 98.8379 80.3313C99.7002 81.0941 100.961 81.658 102.287 81.7906Z" fill="#596273"/>
    <path d="M86.8984 57.5787L89.4523 44.0464H102.487L104.278 58.7396L86.8984 57.5787Z" fill="#596E9E"/>
    <path d="M91.3748 30.3481C89.5174 34.9916 89.3848 42.7527 89.3848 43.0844L91.8392 42.8854C91.7397 40.3647 91.8392 32.902 94.194 29.8506C93.597 29.7843 92.0382 29.8506 91.3748 30.3481Z" fill="#596273"/>
    <path d="M102.619 29.8835C100.131 34.4937 100.363 44.046 100.363 44.046H102.552C102.453 40.3975 102.751 33.5982 104.874 30.381C104.509 29.9498 103.448 29.784 102.619 29.8835Z" fill="#596273"/>
    <path d="M91.3096 46.0361C91.3096 46.0361 87.9266 54.3612 94.9581 54.129C101.99 53.8968 99.9 46.0361 99.9 46.0361H91.3096Z" fill="#596273"/>
    <path d="M101.558 107.529L102.619 112.073L109.286 111.409L109.883 107.297C109.916 106.965 109.651 106.7 109.352 106.733C108.059 106.865 104.974 107.131 101.956 107.064C101.69 107.064 101.491 107.297 101.558 107.529Z" fill="#596E9E"/>
    <path d="M108.921 110.779C108.523 110.249 107.992 109.817 107.329 109.651C106.997 109.552 106.632 109.519 106.3 109.552C104.642 109.651 102.552 110.945 102.619 112.736C102.652 114.162 102.42 115.423 102.254 117.114L110.479 117.446C110.247 115.754 110.181 113.996 109.717 112.371C109.551 111.841 109.352 111.31 108.987 110.879C108.954 110.846 108.921 110.812 108.921 110.779Z" fill="#AFAFAF"/>
    <path d="M104.443 114.494C104.443 114.494 102.917 109.917 106.532 109.95C110.147 109.983 108.854 114.361 108.854 114.361L104.443 114.494Z" fill="#AFAFAF"/>
    <path d="M104.443 113.3C104.344 114.096 108.556 113.598 108.556 113.167C108.523 112.703 104.509 112.47 104.443 113.3Z" fill="#777777"/>
    <path d="M95.588 111.011C95.3889 110.812 95.1236 110.646 94.8251 110.646C94.5929 110.646 94.3608 110.779 94.1286 110.879C93.0672 111.376 91.9064 111.641 90.7123 111.608C90.3807 111.608 90.049 111.575 89.8168 111.376C89.6841 111.243 89.5846 111.078 89.4851 110.912C89.1203 110.414 88.5233 110.083 87.8931 110.083C87.0307 110.083 86.5996 110.58 86.0689 111.144C83.2165 114.195 80.1651 112.67 79.6676 114.361C79.4022 115.29 79.3359 115.688 79.3027 115.887C79.3691 115.92 79.4022 115.986 79.4354 116.019C79.8666 116.351 80.7621 116.484 81.2596 116.617C82.0888 116.849 82.918 117.081 83.7472 117.247C85.2397 117.512 86.8317 117.114 88.3243 116.882C90.7123 116.517 93.1004 116.252 95.5216 116.185C95.6211 116.185 95.8201 113.996 95.8533 113.797C95.9196 113.001 96.1186 112.039 95.7206 111.277C95.7206 111.21 95.6543 111.078 95.588 111.011Z" fill="#AFAFAF"/>
    <path d="M88.5899 116.351C85.8038 117.048 82.1222 116.915 79.502 115.522C79.3362 115.456 79.1703 115.522 79.1372 115.688C79.0708 116.053 79.104 116.053 79.104 116.053C79.104 116.053 80.4307 117.744 85.041 117.744C88.2582 117.744 89.6512 117.379 90.2151 117.114C90.3809 117.048 90.5799 117.147 90.6131 117.346C90.6463 117.545 90.8121 117.678 90.9779 117.678L95.2234 117.545C95.4224 117.545 95.8204 117.412 95.8536 117.213C95.9199 116.815 95.9531 116.086 95.9862 115.422C95.9862 115.29 95.8867 115.157 95.7209 115.19C94.4937 115.19 90.1819 115.92 88.5899 116.351Z" fill="#777777"/>
    <path d="M102.287 116.351C102.287 116.351 102.055 114.03 106.5 113.797C110.944 113.565 110.48 116.484 110.48 116.484L102.287 116.351Z" fill="#B7B7B7"/>
    <path d="M101.922 116.816V117.28C101.922 117.645 102.287 117.877 102.618 117.844L110.313 117.579C110.711 117.579 111.01 117.214 111.01 116.882C111.01 116.352 110.91 115.987 110.512 115.987C108.522 115.92 103.448 116.186 102.254 116.219C101.988 116.219 101.955 116.484 101.922 116.816Z" fill="#777777"/>
    <path d="M87.1973 107.761V110.083C87.1973 110.083 89.4527 112.272 92.4046 112.04C95.3565 111.807 95.7876 111.31 95.7876 111.31L96.4841 108.159C96.5505 107.894 96.3515 107.661 96.0861 107.661C94.5936 107.728 90.2818 107.794 87.7611 107.33C87.4626 107.297 87.1973 107.496 87.1973 107.761Z" fill="#596E9E"/>
    <path d="M83.9776 114.759C84.6409 114.494 84.2429 113.2 84.0771 112.669C83.7454 112.835 83.4137 112.935 83.1152 113.034C83.1484 113.664 83.3142 115.024 83.9776 114.759Z" fill="#777777"/>
    <path d="M85.6357 114.063C86.2659 113.897 85.5694 112.404 85.304 111.874C85.105 112.039 84.8728 112.205 84.6738 112.338C84.7402 112.869 85.0055 114.228 85.6357 114.063Z" fill="#777777"/>
    <path d="M85.9004 111.343C86.0662 111.641 86.9617 113.233 87.5256 112.736C87.9899 112.304 86.9949 111.243 86.4974 110.712C86.3647 110.845 86.2321 110.978 86.0662 111.144C86.0331 111.21 85.9667 111.276 85.9004 111.343Z" fill="#777777"/>
    <path d="M104.443 111.874C104.344 112.67 108.556 112.172 108.556 111.741C108.556 111.31 104.509 111.045 104.443 111.874Z" fill="#777777"/>
    <path d="M94.9253 30.9451C94.9253 32.0396 96.451 32.4708 97.5123 32.4708C98.9054 32.4708 100.929 31.7411 100.696 30.2817L99.8672 25.2403C99.7677 24.2121 98.7063 23.416 97.4792 23.4824L96.9153 23.5155C95.6881 23.5819 94.7926 24.4774 94.8589 25.5056L94.9253 30.9451Z" fill="#DE8F78"/>
    <path d="M88.6547 17.0476C89.5171 16.915 90.3462 17.7441 90.5121 18.905C90.6779 20.0659 90.1141 21.0941 89.2517 21.2267C88.3894 21.3594 87.5602 20.5302 87.3943 19.3694C87.2617 18.2085 87.8255 17.1471 88.6547 17.0476Z" fill="#DE8F78"/>
    <path d="M95.7876 7.56181L98.6732 7.59498C102.487 7.62815 105.572 11.9068 105.506 15.6878L105.473 20.9283C105.439 24.7426 102.288 27.794 98.4742 27.7608L95.5886 27.7276C91.7744 27.6945 88.723 24.5435 88.7561 20.7293L88.8225 15.522C88.8556 11.6746 92.0065 7.49548 95.7876 7.56181Z" fill="#E39F83"/>
    <path d="M106.499 16.9485C107.329 17.2138 107.727 18.3083 107.395 19.4029C107.063 20.4974 106.101 21.1939 105.272 20.9617C104.443 20.6964 104.045 19.6019 104.377 18.5073C104.741 17.3796 105.703 16.6831 106.499 16.9485Z" fill="#E39F83"/>
    <path d="M96.7493 26.8983C101.426 26.832 104.146 23.8469 104.809 19.5683C105.041 19.6015 105.273 19.6015 105.505 19.5683C106.268 19.502 107.131 18.905 107.462 18.1753C107.529 18.5401 107.496 18.9713 107.396 19.4025C107.064 20.4307 106.235 21.094 105.472 20.9945C105.406 24.7756 102.255 27.827 98.474 27.7607L95.5884 27.7275C92.139 27.6944 89.3198 25.1073 88.8223 21.7905C90.0826 24.3776 91.4757 26.9978 96.7493 26.8983Z" fill="#DE8F78"/>
    <path d="M93.5316 21.7905L99.2696 21.8569C99.6013 21.8569 99.8335 22.2549 99.7008 22.6197C99.1038 24.2449 97.8434 25.3394 96.4172 25.3394C94.991 25.3394 93.7306 24.1786 93.1005 22.5534C92.9678 22.1554 93.2 21.7905 93.5316 21.7905Z" fill="white"/>
    <path d="M93.1002 16.2518C93.5977 16.484 93.7636 17.3463 93.4651 18.1755C93.1666 19.0047 92.5032 19.5354 92.0057 19.3032C91.5082 19.071 91.3423 18.2087 91.6409 17.3795C91.9394 16.5171 92.5695 16.0196 93.1002 16.2518Z" fill="#342720"/>
    <path opacity="0.08" d="M93.3324 18.4741C93.0007 19.1374 92.4369 19.5023 92.0057 19.3033C91.5082 19.0711 91.3423 18.2087 91.6409 17.3796C91.7404 17.081 91.9062 16.8157 92.072 16.6167C92.271 16.9815 93.1334 18.2087 93.3324 18.4741Z" fill="white"/>
    <path d="M101.258 16.5174C101.756 16.7496 101.922 17.6119 101.623 18.4411C101.325 19.2703 100.661 19.801 100.164 19.5688C99.6664 19.3366 99.5005 18.4743 99.7991 17.6451C100.098 16.8159 100.761 16.3184 101.258 16.5174Z" fill="#342720"/>
    <path opacity="0.08" d="M101.524 18.7397C101.192 19.403 100.628 19.7679 100.197 19.5689C99.6996 19.3367 99.5337 18.4744 99.8323 17.6452C99.9318 17.3467 100.098 17.0813 100.263 16.8823C100.462 17.2803 101.325 18.5075 101.524 18.7397Z" fill="white"/>
    <path d="M88.7889 17.0144C88.7889 17.0144 87.4953 6.23501 97.5119 5.7375C107.329 5.27316 105.538 17.0476 105.538 17.0476C105.538 17.0476 105.008 17.3129 104.776 16.3179C104.212 14.0625 102.752 9.8171 100.928 9.8171C100.928 9.8171 98.3743 11.0775 96.5501 11.0111C94.4937 10.9448 93.167 9.8171 93.167 9.8171C91.5418 9.88343 89.4191 13.8304 88.7889 17.0144Z" fill="#4F372D"/>
    <path d="M105.174 11.7741C104.411 10.6464 103.515 9.6182 102.686 8.55685C102.122 8.52368 101.525 8.49051 100.962 8.42418C100.53 8.39101 100.099 8.29151 99.6681 8.192C98.673 8.0925 97.6449 7.993 96.7493 7.52866C96.683 7.49549 96.6167 7.42915 96.5503 7.39598C95.7875 7.29648 95.0246 7.16381 94.2618 7.09748C94.0959 7.09748 93.9301 7.03114 93.8306 6.93164C93.7311 6.93164 93.6316 6.96481 93.5653 6.96481C92.8024 7.06431 91.5089 7.13065 90.6797 7.62816C91.4757 9.05436 92.7692 9.45237 92.7692 9.45237C92.7692 9.45237 101.127 8.12567 102.388 9.02119C103.648 9.91671 105.572 16.0527 105.572 16.0527C105.572 16.0527 106.036 14.9582 106.467 13.4988C105.97 12.9681 105.572 12.3711 105.174 11.7741Z" fill="#4F372D"/>
    <path d="M88.7878 17.0147C88.7878 17.0147 87.262 6.76599 91.01 7.0645C94.7579 7.39618 89.9154 11.2104 89.9154 11.2104L88.7878 17.0147Z" fill="#4F372D"/>
    <path d="M90.3813 7.13086C87.4294 7.96005 88.7893 17.0148 88.7893 17.0148C89.4194 13.8307 91.5422 9.88376 93.1342 9.81742C93.101 9.85059 91.6748 8.95507 90.3813 7.13086Z" fill="#422E26"/>
    <path opacity="0.1" d="M105.173 11.7741C104.41 10.6464 103.514 9.6182 102.685 8.55685C102.121 8.52368 101.524 8.49051 100.961 8.42418C100.529 8.39101 100.098 8.29151 99.667 8.192C98.672 8.0925 97.6438 7.993 96.7483 7.52866C96.682 7.49549 96.6156 7.42915 96.5493 7.39598C95.7865 7.29648 95.0236 7.16381 94.2608 7.09748C94.0949 7.09748 93.9291 7.03114 93.8296 6.93164C93.7301 6.93164 93.6306 6.96481 93.5642 6.96481C92.5029 7.09748 90.4797 7.19698 89.949 8.32467C89.75 8.75585 89.352 8.82219 89.0203 8.68952C88.2906 10.7459 88.5228 14.1953 88.6886 15.92C91.4415 17.1472 94.6588 17.5784 97.5112 17.6116C100.231 17.6116 102.984 17.2467 105.604 16.4507C105.604 16.2517 105.637 16.0527 105.637 15.7873C105.803 15.3893 106.102 14.527 106.4 13.4656C105.969 12.9681 105.571 12.3711 105.173 11.7741Z" fill="black"/>
    <path d="M102.587 6.86509C102.653 6.86509 102.753 6.86509 102.819 6.86509C103.25 8.19179 101.658 7.69428 99.7344 6.73242C100.663 6.76559 101.625 6.79876 102.587 6.86509Z" fill="#4F372D"/>
    <path d="M102.454 12.7362C100.928 11.1109 98.5069 10.5471 96.351 10.2486C94.7589 10.0164 93.1669 10.0496 91.6744 10.4144C90.1155 9.78425 89.0873 8.98823 89.2863 8.05954C89.8502 5.17397 92.2382 3.4161 95.0243 2.78592C99.0044 1.8904 103.913 3.21709 105.804 6.63334C106.965 8.72289 106.998 11.2436 106.533 13.499C106.467 13.8307 106.401 14.1292 106.301 14.4609C106.268 14.5604 106.135 14.6267 106.003 14.5935C104.444 13.9633 103.449 13.5322 102.819 13.2668C102.752 13.0678 102.62 12.902 102.454 12.7362Z" fill="#02A9CE"/>
    <path opacity="0.04" d="M92.1718 6.23517C94.2945 6.56684 96.7489 6.53368 98.5731 5.30648C99.4686 4.74263 100.165 3.88028 100.629 2.91842C98.8384 2.45408 96.8484 2.38775 95.0573 2.78575C93.0673 3.21693 91.3094 4.21195 90.248 5.77082C90.8782 6.003 91.5084 6.13567 92.1718 6.23517Z" fill="white"/>
    <path d="M86.3665 12.8354C86.3665 12.8354 86.5655 13.7641 88.4892 13.7641C88.4892 13.7641 90.2139 10.3147 93.9287 10.7458C97.6435 11.177 99.6998 12.6696 99.6998 12.6696C99.6998 12.6696 92.8673 6.99792 89.8823 8.58996C86.9304 10.182 86.3333 11.774 86.3665 12.8354Z" fill="#02A9CE"/>
    <path d="M105.24 14.2617C105.24 14.2617 100.364 15.0246 98.7058 13.9301C97.0475 12.8687 96.4173 9.35296 92.404 9.12079C88.3908 8.88861 86.3675 12.8024 86.3675 12.8024C86.3675 12.8024 85.8369 10.945 88.4903 8.55694C91.1105 6.20205 101.293 6.79906 105.24 14.2617Z" fill="#02A9CE"/>
    <path d="M86.3667 12.2716C86.3667 12.2716 88.4231 8.35784 92.4032 8.59001C96.4164 8.82219 97.0134 12.3048 98.705 13.3993C100.131 14.328 103.879 13.8968 104.94 13.7641C105.04 13.93 105.139 14.0958 105.239 14.2948C105.239 14.2948 100.363 15.0577 98.705 13.9631C97.0466 12.9018 96.4164 9.38603 92.4032 9.15386C88.3899 8.92169 86.3667 12.8354 86.3667 12.8354C86.3667 12.8354 86.3003 12.5701 86.3335 12.1389C86.3335 12.2053 86.3667 12.2716 86.3667 12.2716Z" fill="#02A9CE"/>
    <path d="M76.0521 50.978C76.0521 50.978 73.8299 53.8968 76.0521 56.2517C78.2743 58.6065 80.6955 57.7774 81.7901 56.6165C82.9178 55.4888 76.0521 50.978 76.0521 50.978Z" fill="#D58A73"/>
    <path d="M75.2566 51.8735C75.2566 51.8735 75.0576 50.8453 74.7922 50.0493C74.4606 49.0211 74.2616 49.0874 73.8304 48.6894C73.4324 48.2914 73.5982 47.5949 74.5601 47.4954C75.7873 47.3959 76.7823 49.6513 77.0476 50.5468C77.2798 51.4423 75.2566 51.8735 75.2566 51.8735Z" fill="#D58A73"/>
    <path d="M86.3339 56.3182C86.3339 56.7494 86.3671 58.2419 86.3671 60.4973L96.1847 60.1656L104.278 68.6897L107.561 68.2917C107.86 60.7627 108.457 56.7494 108.457 56.7162L86.3008 56.1855C86.3008 56.1855 86.3339 56.2519 86.3339 56.3182Z" fill="#596273"/>
    <path d="M70.082 41.7241L70.0488 42.5201L81.2926 56.7821L97.2793 57.6445L97.3125 56.948L93.6309 41.89L70.082 41.7241Z" fill="#6C5442"/>
    <path d="M70.0488 42.5205L81.2926 57.6449H97.2793L93.4982 42.7527L70.0488 42.5205Z" fill="#151515"/>
    <path d="M75.2553 51.8735C74.8573 51.177 75.3548 50.2151 76.1508 50.1819C76.98 50.1488 77.8424 49.9498 78.6716 49.8834C79.6003 49.7839 80.5289 49.7508 81.4576 49.7839C81.723 49.7839 82.0215 49.8171 82.2536 49.9498C82.519 50.0824 82.718 50.3478 82.6848 50.5799C82.6517 50.9116 82.2868 51.2101 82.7843 51.376C83.2155 51.5086 83.6467 51.5418 83.7794 52.0393C83.8457 52.3046 83.7793 52.57 83.5803 52.7358C83.4477 52.8685 83.2155 52.9348 83.1823 53.1338C83.116 53.4323 83.4477 53.6977 83.4477 54.0294C83.4477 54.5269 82.7512 54.4937 82.6848 54.9249C82.6517 55.1239 82.7512 55.3229 82.7512 55.5219C82.718 55.9199 82.0878 56.1852 81.7893 56.3511C81.0928 56.7823 80.3963 57.2466 79.5007 57.1471C79.0032 57.1139 78.4726 56.8154 78.3067 56.3511C78.1741 56.0526 78.2404 55.6877 78.0745 55.3892C77.776 54.8917 76.98 54.759 76.781 54.2615C76.6483 53.963 76.781 53.6313 76.6815 53.2997C76.5157 52.7358 75.786 52.5368 75.388 52.1056C75.3548 52.0061 75.2885 51.9398 75.2553 51.8735Z" fill="#E5A185"/>
    <path opacity="0.49" d="M82.6526 55.655C81.9561 56.0198 81.3591 56.1193 80.5631 55.854C79.7339 55.5887 79.1701 55.058 78.5399 54.461C78.3077 54.2288 78.0755 53.9966 77.8434 53.7313C77.3458 53.1343 76.981 52.4046 76.8152 51.6086C76.7488 51.2437 76.6825 50.8125 76.7157 50.4477C76.7157 50.3482 76.8152 50.1492 76.7488 50.0829C76.6825 50.0165 76.2845 50.116 76.185 50.116C75.3558 50.1492 74.8583 51.1111 75.2895 51.8076C75.3226 51.8739 75.389 51.9402 75.4221 52.0066C75.8201 52.4709 76.5498 52.6699 76.7157 53.2006C76.8152 53.5323 76.6825 53.864 76.8152 54.1625C77.0473 54.6931 77.8434 54.7926 78.1087 55.2901C78.2745 55.5887 78.2414 55.9203 78.3409 56.252C78.5067 56.7164 79.0374 56.9817 79.5349 57.048C80.4304 57.1475 81.1269 56.6832 81.8234 56.252C82.0888 56.0862 82.6526 55.854 82.7521 55.4892C82.7521 55.5887 82.6858 55.6218 82.6526 55.655Z" fill="#DE8F78"/>
    <path d="M109.684 47.4626L109.849 47.4295L109.982 47.5621L128.191 49.121L124.31 61.3266L104.145 66.0696L95.123 56.9817L99.0036 44.0464L109.684 47.4626Z" fill="#EEB483"/>
    <path d="M98.9373 44.0464L109.684 47.4626L109.849 47.4295L109.949 47.5621L104.145 66.0696L95.123 56.9817L98.9373 44.0464Z" fill="#EEB483"/>
    <path d="M128.191 49.1212L108.457 52.4047L98.9375 44.0465L118.407 40.564L128.191 49.1212Z" fill="#EFC094"/>
    <path d="M122.354 45.5058L125.804 48.3914C125.937 48.4909 125.87 48.723 125.704 48.723L118.673 49.8839C118.607 49.8839 118.573 49.8839 118.54 49.8507L114.626 46.9983C114.494 46.8988 114.527 46.6667 114.726 46.6335L122.222 45.4395C122.255 45.4395 122.321 45.4726 122.354 45.5058Z" fill="#E4DFD0"/>
    <path d="M119.102 60.3313L114.956 59.2368C115.952 55.2899 116.88 48.1589 116.449 45.1075C116.25 43.7144 110.18 41.5585 105.371 37.6448L107.295 31.9731C109.517 32.8687 120.728 37.9433 122.121 43.9798C123.447 49.5851 119.534 59.2368 119.102 60.3313Z" fill="#E39F83"/>
    <g opacity="0.49">
        <path opacity="0.49" d="M117.643 38.5403C117.709 38.4076 117.776 38.2418 117.842 38.1091C113.961 34.8919 108.754 32.537 107.295 31.9731L105.371 37.6448C108.356 40.0992 111.839 41.8239 114.094 43.1506C115.354 41.658 116.549 40.1655 117.643 38.5403Z" fill="#DE8F78"/>
    </g>
    <path d="M117.312 36.7163C113.531 33.7976 109.451 31.2105 104.874 30.3481L104.277 38.7727C106.931 40.9286 109.949 42.7859 112.171 44.0463C113.83 41.3597 115.621 39.2702 117.312 36.7163Z" fill="#02A9CE"/>
    <path d="M119.37 59.6681C119.37 59.6681 119.237 62.7527 118.109 63.9467C116.981 65.1408 113.366 65.6051 112.205 65.3729C111.509 65.2403 110.68 64.5106 110.68 64.5106C110.68 64.5106 111.443 62.3547 112.404 61.1607C113.665 59.635 115.025 58.9053 115.025 58.9053L119.37 59.6681Z" fill="#E39F83"/>
    <path opacity="0.49" d="M115.423 62.0557C114.361 61.5914 114.03 60.4305 114.328 59.4023C113.831 59.7672 113.134 60.3642 112.471 61.1602C111.509 62.3542 110.746 64.5101 110.746 64.5101C110.746 64.5101 111.575 65.2398 112.272 65.3725C113.399 65.6047 117.048 65.1071 118.176 63.9463C118.905 63.1834 119.237 61.6246 119.336 60.5964C118.441 61.8236 116.783 62.6528 115.423 62.0557Z" fill="#DE8F78"/>
</svg>
