<svg width="350" height="233" viewBox="0 0 350 233" fill="none" xmlns="http://www.w3.org/2000/svg">
    <g clip-path="url(#clip0)">
        <g style="mix-blend-mode:multiply" opacity="0.12">
            <path d="M135.1 226.383C198.712 226.383 250.279 224.596 250.279 222.392C250.279 220.187 198.712 218.4 135.1 218.4C71.4877 218.4 19.9199 220.187 19.9199 222.392C19.9199 224.596 71.4877 226.383 135.1 226.383Z" fill="black"/>
        </g>
        <path d="M161.326 151.057L98.472 206.095C94.5563 209.523 89.5232 211.414 84.3122 211.414C79.1011 211.414 74.0681 209.523 70.1524 206.095L7.29837 151.057C5.0051 149.049 3.16789 146.575 1.90935 143.802C0.650801 141.029 -0.000124852 138.02 2.20733e-08 134.976V37.957C-0.000234345 32.8018 1.86586 27.8199 5.25515 23.9273C8.64444 20.0347 13.3291 17.493 18.4476 16.7698L81.3 7.88472C83.2981 7.60223 85.3262 7.60223 87.3243 7.88472L150.178 16.7698C155.297 17.4934 159.981 20.0352 163.37 23.9278C166.759 27.8203 168.625 32.8021 168.624 37.957V134.976C168.625 138.02 167.974 141.029 166.715 143.802C165.457 146.575 163.619 149.049 161.326 151.057Z" fill="#F0F0F0"/>
        <path d="M122.803 135.296C144.061 114.098 144.061 79.7293 122.803 58.5313C101.546 37.3334 67.0801 37.3334 45.8224 58.5313C24.5648 79.7293 24.5648 114.098 45.8225 135.296C67.0801 156.494 101.546 156.494 122.803 135.296Z" fill="#468B96"/>
        <path d="M146.656 144.041L95.7742 190.301C89.212 196.263 79.4057 196.263 72.8499 190.301L21.9678 144.041C20.0967 142.32 18.6051 140.23 17.5878 137.903C16.5705 135.576 16.0498 133.064 16.0587 130.526V48.9785C16.0587 40.02 22.4272 32.4277 30.9932 31.1701L81.8737 23.7023C83.4905 23.4645 85.1336 23.4645 86.7504 23.7023L137.631 31.1701C146.197 32.4277 152.564 40.02 152.564 48.9785V130.526C152.573 133.064 152.053 135.576 151.036 137.903C150.019 140.229 148.527 142.32 146.656 144.041Z" fill="#355357"/>
        <path d="M141.956 141.222L94.9107 184.167C88.848 189.702 79.7762 189.702 73.7135 184.167L26.6694 141.222C24.9376 139.622 23.5578 137.681 22.6172 135.521C21.6766 133.361 21.1958 131.031 21.2052 128.676V52.9751C21.2052 44.6582 27.0919 37.6102 35.0129 36.4435L82.0586 29.5104C83.5533 29.2902 85.0724 29.2902 86.5672 29.5104L133.611 36.4435C141.532 37.6102 147.419 44.6582 147.419 52.9751V128.676C147.428 131.03 146.948 133.361 146.007 135.521C145.067 137.68 143.688 139.622 141.956 141.222Z" fill="#31747E"/>
        <g style="mix-blend-mode:multiply" opacity="0.5">
            <g style="mix-blend-mode:multiply" opacity="0.5">
                <g style="mix-blend-mode:multiply" opacity="0.26">
                    <path d="M168.625 0H84.3125V211.415H168.625V0Z" fill="#003545"/>
                </g>
            </g>
        </g>
        <path d="M80.7966 132.591L47.2305 101.21L61.5487 87.8239L80.7966 105.819L119.486 69.6548L133.804 83.039L80.7966 132.591Z" fill="#C2D72E"/>
        <path d="M195.277 125.318H49.7422V219.592H195.277V125.318Z" fill="#A67D48"/>
        <path d="M195.278 125.318H175.35V218.203H195.278V125.318Z" fill="#B88A4D"/>
        <g style="mix-blend-mode:multiply" opacity="0.21">
            <g style="mix-blend-mode:multiply" opacity="0.21">
                <path d="M188.391 125.318H183.172V145.104L184.7 143.73L185.065 145.104L186.247 143.685L186.687 145.104L187.884 143.655L188.391 145.104V125.318Z" fill="#B88A4D"/>
            </g>
        </g>
        <path d="M175.351 125.318H49.7422V218.203H175.351V125.318Z" fill="#E6B478"/>
        <g style="mix-blend-mode:multiply" opacity="0.07">
            <g style="mix-blend-mode:multiply" opacity="0.07">
                <path d="M175.35 125.318C168.115 183.799 128.816 217.834 74.2753 214.042L49.7441 218.203H175.353L175.35 125.318Z" fill="#8F775A"/>
            </g>
        </g>
        <path d="M65.3432 147.983V148.179C65.3531 148.418 65.4552 148.644 65.628 148.809C65.8009 148.974 66.0311 149.067 66.2707 149.067C66.5102 149.067 66.7405 148.974 66.9133 148.809C67.0862 148.644 67.1882 148.418 67.1982 148.179V142.34C67.5767 142.352 67.9542 142.388 68.3281 142.448L68.5074 142.478C68.8189 142.534 69.1272 142.607 69.4309 142.695L69.5189 142.721L69.5477 142.711C70.3168 142.472 71.1414 142.475 71.9085 142.721C71.9085 140.193 69.7062 138.675 67.1982 138.559H66.6108C65.9821 138.584 65.3611 138.707 64.7702 138.922L64.6613 138.964C63.08 139.586 61.9165 140.879 61.8652 142.603C61.8652 142.643 61.8652 142.683 61.8652 142.723C62.6324 142.477 63.4569 142.474 64.226 142.713L64.2548 142.723L64.3428 142.697C64.4469 142.667 64.5509 142.638 64.6549 142.612C64.815 142.573 64.975 142.537 65.1351 142.506C65.442 142.445 65.7519 142.401 66.0634 142.373L66.2715 142.357C66.3867 142.357 66.5035 142.343 66.6188 142.34V148.181C66.6129 148.267 66.5745 148.347 66.5113 148.406C66.4482 148.465 66.365 148.498 66.2787 148.498C66.1923 148.498 66.1091 148.465 66.046 148.406C65.9829 148.347 65.9445 148.267 65.9386 148.181V147.985L65.3432 147.983Z" fill="#454545"/>
        <path d="M78.2335 145.171C77.908 145.171 77.5857 145.107 77.285 144.983C76.9843 144.858 76.7111 144.676 76.481 144.447C76.2509 144.217 76.0684 143.944 75.944 143.644C75.8196 143.345 75.7556 143.023 75.7559 142.699V138.549H80.7175V142.699C80.7177 143.024 80.6535 143.346 80.5287 143.646C80.4039 143.946 80.2209 144.219 79.9901 144.449C79.7593 144.679 79.4854 144.86 79.1839 144.984C78.8825 145.108 78.5595 145.172 78.2335 145.171Z" fill="#454545"/>
        <path d="M78.523 144.889H77.9355V149.105H78.523V144.889Z" fill="#454545"/>
        <path d="M80.3438 149.105V148.52H76.1152V149.105H80.3438Z" fill="#454545"/>
        <path d="M86.1538 138.953H85.5664V147.271H86.1538V138.953Z" fill="#454545"/>
        <path d="M86.2806 138.972L85.8652 138.558L84.4755 139.943L84.8908 140.358L86.2806 138.972Z" fill="#454545"/>
        <path d="M86.8425 140.362L87.2578 139.948L85.8678 138.562L85.4525 138.976L86.8425 140.362Z" fill="#454545"/>
        <path d="M89.894 138.953H89.3066V147.271H89.894V138.953Z" fill="#454545"/>
        <path d="M90.0364 138.976L89.6211 138.562L88.2313 139.948L88.6466 140.362L90.0364 138.976Z" fill="#454545"/>
        <path d="M90.5905 140.339L91.0059 139.925L89.6161 138.539L89.2008 138.953L90.5905 140.339Z" fill="#454545"/>
        <path d="M91.002 149.105V148.52H84.4687V149.105H91.002Z" fill="#454545"/>
        <path d="M165.78 133.979H139.557V151.863H165.78V133.979Z" fill="white"/>
        <path d="M162.183 139.042H143.148V140.336H162.183V139.042Z" fill="#B5B5B5"/>
        <path d="M162.183 142.073H143.148V143.368H162.183V142.073Z" fill="#B5B5B5"/>
        <path d="M151.556 145.105H143.148V146.4H151.556V145.105Z" fill="#B5B5B5"/>
        <path d="M166.967 199.393H130.637V208.333H166.967V199.393Z" fill="white"/>
        <path d="M137.893 206.779V200.95H133.445V206.779H137.893Z" fill="#B5B5B5"/>
        <path d="M134.838 206.777V200.949H134.513V206.777H134.838Z" fill="#B5B5B5"/>
        <path d="M136.051 206.779V200.95H135.585V206.779H136.051Z" fill="#B5B5B5"/>
        <path d="M137.307 206.777V200.949H136.657V206.777H137.307Z" fill="#B5B5B5"/>
        <path d="M138.053 206.777V200.949H137.728V206.777H138.053Z" fill="#B5B5B5"/>
        <path d="M141.387 206.777V200.949H138.8V206.777H141.387Z" fill="#B5B5B5"/>
        <path d="M140.314 206.777V200.949H139.871V206.777H140.314Z" fill="#B5B5B5"/>
        <path d="M141.387 206.779V200.95H140.943V206.779H141.387Z" fill="#B5B5B5"/>
        <path d="M142.535 206.779V200.95H142.013V206.779H142.535Z" fill="#B5B5B5"/>
        <path d="M146.814 206.777V200.949H143.087V206.777H146.814Z" fill="#B5B5B5"/>
        <path d="M144.807 206.777V200.949H144.157V206.777H144.807Z" fill="#B5B5B5"/>
        <path d="M145.877 206.777V200.949H145.45V206.777H145.877Z" fill="#B5B5B5"/>
        <path d="M146.951 206.777V200.949H146.301V206.777H146.951Z" fill="#B5B5B5"/>
        <path d="M164.164 201.523H150.451V202.818H164.164V201.523Z" fill="#B5B5B5"/>
        <path d="M158.339 204.556H150.451V205.85H158.339V204.556Z" fill="#B5B5B5"/>
        <g style="mix-blend-mode:multiply" opacity="0.13">
            <path d="M326.385 227.276L280.337 227.203L195.791 229.029V60.1187H327.349L324.722 182.466L326.385 227.276Z" fill="#231F20"/>
        </g>
        <path d="M319.106 220.979L276.539 222.883H189.629V47.4639H321.187V177.212L319.106 220.979Z" fill="white"/>
        <path opacity="0.03" d="M316.575 218.564L276.227 222.904H190.51V48.3115H321.075V184.85L316.575 218.564Z" fill="url(#paint0_linear)"/>
        <path d="M305.467 95.1343H206.118C204.935 95.1343 203.977 96.0904 203.977 97.2698V97.9927C203.977 99.1721 204.935 100.128 206.118 100.128H305.467C306.65 100.128 307.609 99.1721 307.609 97.9927V97.2698C307.609 96.0904 306.65 95.1343 305.467 95.1343Z" fill="#A3BBC4"/>
        <path d="M283.47 80.9852H229.116C228.452 80.9852 227.815 80.7222 227.346 80.2542C226.876 79.7861 226.612 79.1512 226.611 78.489C226.611 77.8265 226.875 77.1912 227.345 76.7228C227.815 76.2544 228.452 75.9912 229.116 75.9912H283.47C284.134 75.9916 284.771 76.255 285.24 76.7234C285.709 77.1917 285.973 77.8268 285.973 78.489C285.973 79.151 285.709 79.7859 285.24 80.2541C284.77 80.7222 284.134 80.9852 283.47 80.9852Z" fill="#A3BBC4"/>
        <path d="M305.467 108.825H206.118C204.935 108.825 203.977 109.781 203.977 110.96V111.683C203.977 112.863 204.935 113.819 206.118 113.819H305.467C306.65 113.819 307.609 112.863 307.609 111.683V110.96C307.609 109.781 306.65 108.825 305.467 108.825Z" fill="#A3BBC4"/>
        <path d="M305.467 136.206H206.118C204.935 136.206 203.977 137.162 203.977 138.342V139.065C203.977 140.244 204.935 141.2 206.118 141.2H305.467C306.65 141.2 307.609 140.244 307.609 139.065V138.342C307.609 137.162 306.65 136.206 305.467 136.206Z" fill="#A3BBC4"/>
        <path d="M305.467 149.896H206.118C204.935 149.896 203.977 150.853 203.977 152.032V152.755C203.977 153.934 204.935 154.89 206.118 154.89H305.467C306.65 154.89 307.609 153.934 307.609 152.755V152.032C307.609 150.853 306.65 149.896 305.467 149.896Z" fill="#A3BBC4"/>
        <path d="M265.307 163.587H206.118C204.935 163.587 203.977 164.543 203.977 165.723V166.446C203.977 167.625 204.935 168.581 206.118 168.581H265.307C266.49 168.581 267.448 167.625 267.448 166.446V165.723C267.448 164.543 266.49 163.587 265.307 163.587Z" fill="#A3BBC4"/>
        <path d="M263.89 196.145H203.977V197.527H263.89V196.145Z" fill="#A3BBC4"/>
        <g style="mix-blend-mode:multiply">
            <g style="mix-blend-mode:multiply">
                <path d="M307.316 188.519C307.21 191.954 306.086 195.281 304.085 198.079C302.083 200.878 299.295 203.021 296.072 204.239C292.849 205.457 289.336 205.694 285.978 204.921C282.619 204.148 279.566 202.399 277.205 199.896C274.843 197.393 273.279 194.248 272.71 190.858C272.141 187.468 272.593 183.986 274.008 180.852C275.423 177.719 277.739 175.074 280.662 173.252C283.585 171.431 286.983 170.515 290.428 170.619C292.716 170.689 294.967 171.207 297.054 172.144C299.14 173.082 301.021 174.419 302.59 176.081C304.158 177.744 305.382 179.697 306.193 181.831C307.004 183.965 307.385 186.238 307.316 188.519Z" fill="#D6F2F5"/>
            </g>
            <g style="mix-blend-mode:multiply">
                <path d="M302.273 190.768C303.808 183.956 299.515 177.192 292.684 175.661C285.853 174.13 279.07 178.41 277.535 185.222C275.999 192.034 280.292 198.798 287.123 200.33C293.954 201.861 300.737 197.58 302.273 190.768Z" fill="white"/>
            </g>
            <g style="mix-blend-mode:multiply">
                <path d="M289.911 209.23C289.69 209.23 289.471 209.23 289.248 209.219C277.508 208.862 268.249 199.048 268.602 187.341C268.962 175.573 278.656 166.387 290.543 166.752C296.135 166.92 301.436 169.274 305.301 173.306C309.167 177.339 311.286 182.726 311.202 188.303C311.118 193.881 308.837 199.202 304.852 203.117C300.867 207.032 295.497 209.226 289.903 209.226L289.911 209.23ZM289.887 168.423C284.7 168.422 279.722 170.465 276.039 174.108C272.357 177.75 270.267 182.697 270.225 187.869C270.184 193.041 272.194 198.02 275.818 201.721C279.442 205.422 284.386 207.544 289.573 207.626C294.759 207.707 299.768 205.741 303.507 202.156C307.246 198.571 309.412 193.657 309.534 188.486C309.656 183.315 307.724 178.306 304.158 174.549C300.592 170.793 295.681 168.595 290.497 168.433C290.294 168.426 290.091 168.423 289.887 168.423Z" fill="#D6F2F5"/>
            </g>
            <g style="mix-blend-mode:multiply">
                <path d="M287.658 195.385L280.902 188.672L283.953 185.989L287.828 189.838L296.072 182.589L298.953 185.453L287.658 195.385Z" fill="#C3D82E"/>
            </g>
        </g>
        <g style="mix-blend-mode:multiply" opacity="0.18">
            <path d="M347.897 114.674L347.885 121.799C348.063 121.799 348.24 121.835 348.404 121.903C348.569 121.971 348.718 122.071 348.844 122.197C348.97 122.323 349.07 122.473 349.138 122.637C349.206 122.802 349.241 122.978 349.24 123.156L349.4 128.636C350.393 162.113 350.66 192.594 345.991 228.096C345.964 228.295 345.866 228.477 345.715 228.609C345.564 228.742 345.37 228.815 345.168 228.815C344.971 228.815 344.78 228.744 344.63 228.616C344.481 228.487 344.382 228.31 344.352 228.115L342.467 215.666L343.693 113.134H346.366C346.568 113.134 346.768 113.174 346.955 113.252C347.141 113.329 347.311 113.443 347.453 113.586C347.596 113.729 347.708 113.899 347.784 114.086C347.861 114.273 347.899 114.473 347.897 114.674Z" fill="#0E4744"/>
        </g>
        <path d="M343.672 126.549H341.342C341.156 126.549 340.973 126.512 340.802 126.441C340.63 126.37 340.475 126.266 340.344 126.135C340.213 126.005 340.109 125.849 340.038 125.678C339.968 125.508 339.931 125.324 339.932 125.14L339.952 113.268C339.954 112.895 340.103 112.537 340.369 112.274C340.634 112.01 340.993 111.862 341.367 111.862H342.536H343.698C343.883 111.863 344.066 111.899 344.237 111.97C344.409 112.041 344.564 112.145 344.695 112.276C344.826 112.407 344.929 112.562 345 112.733C345.07 112.904 345.106 113.087 345.106 113.272L345.085 125.144C345.085 125.329 345.048 125.512 344.977 125.683C344.906 125.853 344.802 126.008 344.671 126.139C344.539 126.269 344.384 126.373 344.212 126.443C344.041 126.513 343.857 126.549 343.672 126.549Z" fill="#4A4A4A"/>
        <path opacity="0.21" d="M344.109 126.548H343.483C343.224 126.548 342.976 126.444 342.794 126.262C342.612 126.079 342.509 125.831 342.51 125.573L342.531 113.487C342.531 113.359 342.556 113.232 342.606 113.114C342.655 112.996 342.727 112.889 342.818 112.799C342.908 112.708 343.016 112.637 343.135 112.588C343.253 112.539 343.38 112.514 343.509 112.515H344.134C344.262 112.515 344.389 112.54 344.507 112.589C344.625 112.638 344.733 112.71 344.823 112.8C344.913 112.891 344.985 112.998 345.034 113.116C345.083 113.234 345.108 113.361 345.107 113.488L345.087 125.576C345.087 125.704 345.061 125.831 345.012 125.949C344.963 126.067 344.891 126.175 344.8 126.265C344.709 126.355 344.601 126.427 344.483 126.475C344.364 126.524 344.237 126.549 344.109 126.548Z" fill="black"/>
        <path fill-rule="evenodd" clip-rule="evenodd" d="M346.79 161.603H337.812L337.873 122.884C337.897 121.781 338.747 120.898 339.794 120.9H345.153C346.193 120.9 347.041 121.782 347.062 122.885L346.79 161.603ZM337.952 167.271C337.952 178.96 338.779 213.249 341.116 223.272H343.706C346.047 213.348 346.82 179.648 346.828 167.285L337.952 167.271Z" fill="#29899C"/>
        <path d="M347.012 129.009L347.054 122.885C347.033 121.782 346.185 120.901 345.144 120.9H339.786C338.747 120.9 337.897 121.781 337.865 122.884L337.855 128.993L347.012 129.009Z" fill="#595959"/>
        <path d="M347.012 129.01L347.052 123.436C347.033 122.946 346.823 122.483 346.466 122.145C346.109 121.808 345.634 121.623 345.142 121.63H339.784C339.292 121.622 338.817 121.807 338.46 122.144C338.103 122.481 337.892 122.945 337.873 123.435L337.863 128.995L347.012 129.01Z" fill="#3D3D3D"/>
        <path fill-rule="evenodd" clip-rule="evenodd" d="M341.094 223.146C341.307 225.745 341.758 227.89 342.398 227.891C343.038 227.893 343.506 225.746 343.727 223.148L341.094 223.146Z" fill="#F7F7F7"/>
        <path d="M347.077 161.61H337.799V167.273H347.077V161.61Z" fill="#3D3D3D"/>
        <g style="mix-blend-mode:multiply">
            <g style="mix-blend-mode:multiply">
                <g style="mix-blend-mode:multiply" opacity="0.27">
                    <path fill-rule="evenodd" clip-rule="evenodd" d="M346.415 233H342.465L342.502 122.471C342.502 122.36 342.523 122.251 342.566 122.149C342.608 122.047 342.67 121.955 342.749 121.877C342.827 121.799 342.92 121.737 343.022 121.695C343.125 121.653 343.234 121.631 343.345 121.631H345.403C345.854 121.632 346.286 121.81 346.605 122.128C346.924 122.445 347.103 122.875 347.105 123.325L346.415 233Z" fill="black"/>
                </g>
            </g>
        </g>
        <g style="mix-blend-mode:multiply" opacity="0.09">
            <path fill-rule="evenodd" clip-rule="evenodd" d="M346.046 123.104L344.916 152.265C344.887 152.819 344.645 153.341 344.241 153.723C343.837 154.105 343.301 154.317 342.744 154.316L344.079 121.629L346.046 123.104Z" fill="black"/>
        </g>
        <path fill-rule="evenodd" clip-rule="evenodd" d="M342.413 154.316C342.94 154.316 343.374 154.037 343.374 153.678L344.137 121.187C344.147 120.83 343.711 120.894 343.177 120.892H341.765C341.227 120.892 340.794 120.838 340.805 121.195L341.445 153.676C341.458 154.034 341.887 154.315 342.413 154.316Z" fill="#595959"/>
        <path fill-rule="evenodd" clip-rule="evenodd" d="M342.745 154.316C343.148 154.316 343.476 154.049 343.482 153.716L344.078 123.082C344.078 122.742 343.758 122.461 343.342 122.461H342.261C341.85 122.461 341.517 122.739 341.524 123.079L342.004 153.722C342.013 154.046 342.341 154.316 342.745 154.316Z" fill="#3D3D3D"/>
        <path d="M214.38 182.731C216.46 180.851 218.708 179.163 221.094 177.686L219.037 176.508C219.016 179.511 217.829 182.336 216.836 185.127C216.185 186.958 215.526 188.798 215.002 190.664C214.042 194.068 213.65 197.632 212.997 201.098C212.715 202.597 214.624 203.492 215.495 202.149C218.4 197.68 222.001 193.53 226.167 190.178C225.967 190.297 225.766 190.413 225.564 190.53C224.489 190.045 224.116 189.964 224.444 190.285L224.487 190.336C224.391 190.351 224.327 190.095 224.477 190.336C224.602 190.541 224.738 190.74 224.869 190.941C225.239 191.517 225.652 192.064 226.105 192.577C227.18 193.768 228.648 194.55 230.284 194.451C231.953 194.352 233.543 193.653 235.002 192.88C235.614 192.561 236.209 192.212 236.801 191.859C237.011 191.736 237.222 191.615 237.43 191.49C237.882 191.221 237.459 191.479 237.198 191.473L236.508 191.286H236.523L235.894 190.472V190.488C236.079 191.013 236.593 191.546 237.211 191.489C238.903 191.329 239.749 189.376 240.454 188.059C240.875 187.27 241.276 186.472 241.715 185.694C241.904 185.358 242.104 185.03 242.317 184.709C242.336 184.68 242.488 184.489 242.371 184.629C242.254 184.769 242.401 184.586 242.416 184.584C242.513 184.575 242.494 184.369 242.416 184.559C242.382 184.643 242.299 184.629 242.435 184.559C241.75 184.166 241.064 183.774 240.378 183.383C240.321 184.527 240.145 185.668 240.058 186.811C239.972 187.954 239.738 189.42 240.303 190.469C241.143 192.011 243.504 190.628 242.664 189.093C243.035 189.773 242.645 189.128 242.712 189.159C242.779 189.189 242.725 189.449 242.712 189.109C242.712 188.879 242.699 188.653 242.702 188.423C242.712 187.764 242.763 187.106 242.821 186.448C242.907 185.427 243.062 184.406 243.114 183.383C243.17 182.28 241.929 181.787 241.057 182.205C239.85 182.795 239.156 184.653 238.571 185.765C238.186 186.501 237.805 187.242 237.376 187.954C237.278 188.113 237.179 188.273 237.073 188.432C237.041 188.482 236.721 188.894 236.926 188.653C236.868 188.721 236.684 188.86 236.659 188.94C236.83 188.817 236.86 188.793 236.747 188.868C236.887 188.79 237.047 188.751 237.208 188.755L238.527 189.755C238.046 188.376 236.766 188.694 235.806 189.256C234.877 189.795 233.963 190.354 232.995 190.822C232.027 191.289 230.775 191.865 229.672 191.709C228.888 191.597 228.166 190.85 227.726 190.273C227.246 189.634 226.894 188.82 226.307 188.27C225.551 187.564 224.728 187.811 224.021 188.4C222.715 189.489 221.464 190.639 220.269 191.849C217.595 194.568 215.203 197.549 213.128 200.746L215.626 201.796C216.289 198.285 216.691 194.673 217.669 191.229C218.226 189.27 218.92 187.352 219.605 185.435C220.644 182.529 221.744 179.616 221.764 176.486C221.764 175.473 220.591 174.761 219.708 175.31C217.125 176.912 214.693 178.743 212.44 180.781C211.134 181.962 213.07 183.885 214.373 182.709L214.38 182.731Z" fill="#5C5C5C"/>
    </g>
    <defs>
        <linearGradient id="paint0_linear" x1="63.2349" y1="38.721" x2="250.045" y2="133.247" gradientUnits="userSpaceOnUse">
            <stop offset="0.36"/>
            <stop offset="1"/>
        </linearGradient>
        <clipPath id="clip0">
            <rect width="350" height="233" fill="white"/>
        </clipPath>
    </defs>
</svg>
