<svg width="286" height="259" viewBox="0 0 286 259" fill="none" xmlns="http://www.w3.org/2000/svg">
    <g clip-path="url(#clip0)">
        <path opacity="0.69" d="M279.874 239.038C279.874 236.561 229.18 234.594 166.597 234.594C104.087 234.594 53.3203 236.561 53.3203 239.038C53.3203 241.515 104.014 243.482 166.597 243.482C229.18 243.555 279.874 241.515 279.874 239.038Z" fill="#02A9CE"/>
        <path d="M194.167 202.829H137.201L132.605 235.468H198.69L194.167 202.829Z" fill="#D6D6D6"/>
        <path d="M194.166 202.829H137.2L135.23 219.658H196.136L194.166 202.829Z" fill="#C7C7C7"/>
        <path d="M118.236 239.183C118.236 236.196 120.643 233.719 123.707 233.719H207.734C210.725 233.719 213.205 236.123 213.205 239.183H118.236Z" fill="#F2F2F2"/>
        <path d="M280.675 50.4155H50.6938C47.7762 50.4155 45.3691 52.8197 45.3691 55.734V201.808C45.3691 204.723 47.7762 207.127 50.6938 207.127H280.675C283.593 207.127 286 204.723 286 201.808V55.734C286 52.8197 283.593 50.4155 280.675 50.4155Z" fill="#242424"/>
        <path d="M273.454 62.874H57.8418V194.523H273.454V62.874Z" fill="#414747"/>
        <g opacity="0.06">
            <path opacity="0.06" d="M258.894 43.6548L198.941 0.0209961L54.3559 198.216L114.309 241.85L258.894 43.6548Z" fill="white"/>
            <path opacity="0.06" d="M281.714 60.8384L263.439 47.5381L118.854 245.733L137.129 259.034L281.714 60.8384Z" fill="white"/>
        </g>
        <path opacity="0.46" d="M167.617 56.3898C167.617 57.4827 166.742 58.2841 165.721 58.2841C164.627 58.2841 163.824 57.4098 163.824 56.3898C163.824 55.297 164.699 54.4956 165.721 54.4956C166.742 54.4956 167.617 55.3699 167.617 56.3898Z" fill="#808080"/>
        <path opacity="0.13" d="M202.556 165.309H184.102L198.763 182.065L154.926 165.309H8.89875C3.93879 165.309 0 161.302 0 156.42V60.9801C0 56.026 4.01173 52.0918 8.89875 52.0918H202.483C207.443 52.0918 211.382 56.0988 211.382 60.9801V156.42C211.455 161.302 207.443 165.309 202.556 165.309Z" fill="black"/>
        <path d="M216.196 150.737H197.742L198.69 182.065L168.566 150.737H22.6116C17.6517 150.737 13.7129 146.73 13.7129 141.849V46.4088C13.7129 41.4547 17.7246 37.5205 22.6116 37.5205H216.196C221.156 37.5205 225.095 41.5275 225.095 46.4088V141.849C225.168 146.73 221.156 150.737 216.196 150.737Z" fill="#02A9CE"/>
        <path fill-rule="evenodd" clip-rule="evenodd" d="M97.1583 97.4073L70.0244 99.8844L67.1797 63.894L94.3136 61.4897L97.1583 97.4073Z" fill="#CC9043"/>
        <path fill-rule="evenodd" clip-rule="evenodd" d="M85.0496 98.5001L57.9157 100.977L54.998 64.9867L82.2049 62.5825L85.0496 98.5001Z" fill="#EED777"/>
        <path fill-rule="evenodd" clip-rule="evenodd" d="M74.0354 99.5202L68.2002 100.03L65.3555 64.1126L71.1178 63.5298L74.0354 99.5202Z" fill="white"/>
        <path opacity="0.69" fill-rule="evenodd" clip-rule="evenodd" d="M92.3434 97.8443L90.374 98.0629L87.5293 62.0725L89.4258 61.9268L92.3434 97.8443Z" fill="white"/>
        <path d="M96.1356 112.416H51.0583C49.5266 112.416 48.1407 111.614 47.4113 110.303C46.6819 108.991 46.6819 107.389 47.4843 106.004L49.1619 103.09L43.6914 64.4769L35.2302 62.9469C34.5738 62.8012 34.1361 62.2184 34.282 61.4898C34.4279 60.8341 35.0844 60.397 35.7408 60.4698L45.9525 62.3641L51.7878 103.527L49.5995 107.17C49.2348 107.753 49.2348 108.481 49.5266 109.064C49.8184 109.647 50.4019 110.011 51.1313 110.011H96.2086C96.865 110.011 97.4486 110.594 97.3756 111.25C97.3756 111.906 96.7921 112.416 96.1356 112.416Z" fill="#EED777"/>
        <path d="M55.8001 123.927C53.2471 123.927 51.2777 121.887 51.4236 119.337C51.4966 116.787 53.6118 114.747 56.1648 114.747C58.7177 114.747 60.6871 116.787 60.5412 119.337C60.3953 121.887 58.28 123.927 55.8001 123.927ZM56.0189 116.86C54.633 116.86 53.466 118.026 53.393 119.41C53.3201 120.794 54.4142 121.96 55.8001 121.96C57.1859 121.96 58.353 120.794 58.4259 119.41C58.4989 117.953 57.4048 116.86 56.0189 116.86Z" fill="#383838"/>
        <path d="M87.8938 123.927C85.3409 123.927 83.3715 121.887 83.5174 119.337C83.5903 116.787 85.7056 114.747 88.2585 114.747C90.8114 114.747 92.7808 116.787 92.6349 119.337C92.4891 121.887 90.3738 123.927 87.8938 123.927ZM88.1126 116.86C86.7268 116.86 85.5597 118.026 85.4868 119.41C85.4138 120.794 86.5079 121.96 87.8938 121.96C89.2797 121.96 90.4467 120.794 90.5197 119.41C90.5926 117.953 89.4985 116.86 88.1126 116.86Z" fill="#383838"/>
        <path d="M58.5721 119.337C58.4991 120.794 57.2591 121.96 55.8003 121.96C54.3415 121.96 53.1744 120.794 53.2474 119.337C53.3203 117.88 54.5603 116.714 56.0191 116.714C57.4779 116.714 58.645 117.88 58.5721 119.337Z" fill="#B3B3B3"/>
        <path d="M90.6658 119.337C90.5929 120.794 89.3529 121.96 87.8941 121.96C86.4352 121.96 85.2682 120.794 85.3411 119.337C85.4141 117.88 86.6541 116.714 88.1129 116.714C89.5717 116.714 90.7387 117.88 90.6658 119.337Z" fill="#B3B3B3"/>
        <path opacity="0.57" d="M106.276 73.0737H51.2784C50.6949 73.0737 50.2573 73.5837 50.3302 74.1666L54.4149 103.236C54.4878 103.673 54.9255 104.037 55.3631 103.964L100.659 100.322C101.097 100.322 101.462 99.9573 101.535 99.593L107.005 74.2394C107.224 73.5837 106.859 73.0737 106.276 73.0737ZM74.4735 75.5508H83.3723L81.7676 99.3744L74.4006 99.9573L74.4735 75.5508ZM71.8477 100.176L64.4807 100.759L63.1678 75.5508H72.0665L71.8477 100.176ZM85.7793 75.5508H94.6781L91.7605 98.573L84.1746 99.1559L85.7793 75.5508ZM56.6031 100.613L53.1749 76.6436C53.102 76.0608 53.5396 75.5508 54.1231 75.5508H60.6148L61.9278 100.977L57.4784 101.342C57.1137 101.414 56.676 101.05 56.6031 100.613ZM104.087 76.6436L99.6381 97.2616C99.5651 97.6988 99.2004 97.9902 98.7628 97.9902L94.2404 98.3545L97.1581 75.5508H103.212C103.796 75.5508 104.233 76.0608 104.087 76.6436Z" fill="#B8B8AD"/>
        <path d="M60.6151 101.56L59.1562 73.7293L61.5633 73.5107L63.0221 101.341L60.6151 101.56Z" fill="#FAFAEC"/>
        <path d="M70.3887 99.9571L70.5346 73.6564L73.0145 73.5835L72.8687 99.8842L70.3887 99.9571Z" fill="#FAFAEC"/>
        <path d="M82.6434 99.1556L80.2363 99.0828L81.9869 73.5835L84.3939 73.6564L82.6434 99.1556Z" fill="#FAFAEC"/>
        <path d="M92.6356 98.6458L90.2285 98.4272L93.365 73.5107L95.8449 73.7293L92.6356 98.6458Z" fill="#FAFAEC"/>
        <path d="M53.0288 102.507L48.8712 73.438C48.7983 72.8552 49.2359 72.3452 49.8195 72.3452H104.744C105.327 72.3452 105.765 72.8552 105.619 73.438L100.148 98.7916C100.076 99.2288 99.7108 99.5202 99.2732 99.5202L53.9771 103.163C53.4665 103.309 53.1018 102.944 53.0288 102.507ZM51.7159 75.9151L55.1441 99.8844C55.2171 100.322 55.6547 100.686 56.0924 100.613L97.3038 97.2617C97.7414 97.2617 98.1061 96.8974 98.1791 96.5331L102.628 75.9151C102.774 75.3323 102.337 74.8223 101.753 74.8223H52.6641C52.1536 74.8223 51.643 75.3323 51.7159 75.9151Z" fill="#FAFAEC"/>
        <path d="M41.9414 129.609H93.948" stroke="#CFDBE5" stroke-width="3" stroke-miterlimit="10" stroke-linecap="round"/>
        <path d="M98.1055 129.609H106.129" stroke="#CFDBE5" stroke-width="3" stroke-miterlimit="10" stroke-linecap="round"/>
        <path d="M39.68 79.8491H32.8965" stroke="#CFDBE5" stroke-width="3" stroke-miterlimit="10" stroke-linecap="round"/>
        <path d="M40.7743 89.4663H26.332" stroke="#CFDBE5" stroke-width="3" stroke-miterlimit="10" stroke-linecap="round"/>
        <path d="M131.877 70.7427H202.848" stroke="white" stroke-width="8" stroke-miterlimit="10" stroke-linecap="round"/>
        <path d="M131.877 85.2407H202.848" stroke="white" stroke-width="8" stroke-miterlimit="10" stroke-linecap="round"/>
        <path d="M131.877 99.7388H202.848" stroke="white" stroke-width="8" stroke-miterlimit="10" stroke-linecap="round"/>
        <path d="M131.877 114.237H178.778" stroke="white" stroke-width="8" stroke-miterlimit="10" stroke-linecap="round"/>
        <path d="M231.879 33.1495C231.441 33.1495 231.004 33.0038 230.639 32.6396C229.982 31.9839 229.982 30.891 230.639 30.2353L236.912 23.9698C237.568 23.3141 238.662 23.3141 239.319 23.9698C239.975 24.6255 239.975 25.7183 239.319 26.374L233.046 32.6396C232.754 32.931 232.316 33.1495 231.879 33.1495Z" fill="#F5F5EB"/>
        <path d="M244.278 41.9646H236.547C235.599 41.9646 234.869 41.2361 234.869 40.2889C234.869 39.3418 235.599 38.6133 236.547 38.6133H244.278C245.227 38.6133 245.956 39.3418 245.956 40.2889C245.956 41.2361 245.227 41.9646 244.278 41.9646Z" fill="#F5F5EB"/>
        <path d="M223.053 28.4866C222.104 28.4866 221.375 27.758 221.375 26.8109V19.0883C221.375 18.1411 222.104 17.4126 223.053 17.4126C224.001 17.4126 224.73 18.1411 224.73 19.0883V26.8109C224.73 27.758 224.001 28.4866 223.053 28.4866Z" fill="#F5F5EB"/>
    </g>
    <defs>
        <clipPath id="clip0">
            <rect width="286" height="259" fill="white"/>
        </clipPath>
    </defs>
</svg>
