<svg width="81" height="88" viewBox="0 0 81 88" fill="none" xmlns="http://www.w3.org/2000/svg">
    <g clip-path="url(#clip0)">
        <path d="M62.971 0H0V88H62.971V0Z" fill="#0290B0"/>
        <path d="M58.0284 22.6378V82.7393H4.94141V6.37695H42.724C43.6805 6.37695 44.6371 6.85521 45.2747 7.49289C45.9124 8.13058 46.2313 9.0871 46.2313 10.0436V15.1451C46.2313 17.2175 47.8255 18.8117 49.7385 18.8117H54.5211C55.4776 18.8117 56.2747 19.29 56.9124 19.9277C57.5501 20.7248 58.0284 21.5219 58.0284 22.6378Z" fill="#FFF2DE"/>
        <path d="M45.4336 7.3335L57.0713 19.7683L56.9119 19.9277C56.2742 19.29 55.4771 18.8118 54.5206 18.8118H49.7379C47.8249 18.8118 46.2307 17.0581 46.2307 15.1451V10.0436C46.2307 9.08712 45.9119 8.1306 45.4336 7.3335Z" fill="white"/>
        <path d="M45.4344 0C36.1881 0 26.9417 0 17.6953 0C17.6953 1.43478 17.6953 3.02899 17.6953 4.46377C18.4924 4.62319 19.4489 4.78261 20.246 4.94203C20.246 6.37681 20.246 7.97101 20.246 9.56522C27.5794 11.7971 35.5504 11.7971 42.8837 9.56522C42.8837 7.97101 42.8837 6.53623 42.8837 4.94203C43.6808 4.78261 44.6373 4.62319 45.4344 4.46377C45.4344 3.02899 45.4344 1.43478 45.4344 0Z" fill="#C2C2C2"/>
        <path d="M40.971 5.57959H22V8.768H40.971V5.57959Z" fill="#EBEBED"/>
        <path d="M16.4198 30.9277C16.101 30.9277 15.9416 30.7682 15.7822 30.6088L11.159 26.7827C10.6807 26.4639 10.6807 25.6668 10.9996 25.348C11.3184 24.8697 12.1155 24.8697 12.4343 25.1885L15.9416 28.2175L19.13 23.1161C19.4488 22.6378 20.0865 22.4784 20.5648 22.7972C21.043 23.1161 21.2025 23.7537 20.8836 24.232L17.0575 30.4494C17.0575 30.6088 16.7387 30.7682 16.4198 30.9277Z" fill="#02A9CE"/>
        <path d="M16.4198 44.1596C16.101 44.1596 15.9416 44.0002 15.7822 43.8408L11.159 40.0147C10.6807 39.6958 10.6807 38.8987 10.9996 38.5799C11.3184 38.1016 12.1155 38.1016 12.4343 38.4205L15.9416 41.4495L19.13 36.348C19.4488 35.8697 20.0865 35.7103 20.5648 36.0292C21.043 36.348 21.2025 36.9857 20.8836 37.4639L17.0575 43.6813C17.0575 44.0002 16.7387 44.1596 16.4198 44.1596Z" fill="#02A9CE"/>
        <path d="M16.4198 57.3913C16.101 57.3913 15.9416 57.2319 15.7822 57.0724L11.159 53.4058C10.6807 53.0869 10.6807 52.2898 10.9996 51.971C11.3184 51.4927 12.1155 51.4927 12.4343 51.8116L15.9416 54.8406L19.13 49.7391C19.4488 49.2609 20.0865 49.1014 20.5648 49.4203C21.043 49.7391 21.2025 50.3768 20.8836 50.8551L17.0575 57.0724C17.0575 57.2319 16.7387 57.3913 16.4198 57.3913Z" fill="#02A9CE"/>
        <path d="M16.4198 70.6232C16.101 70.6232 15.9416 70.4638 15.7822 70.3044L11.159 66.6377C10.6807 66.3189 10.6807 65.5218 10.9996 65.2029C11.3184 64.7247 12.1155 64.7247 12.4343 65.0435L15.9416 68.0725L19.13 62.971C19.4488 62.4928 20.0865 62.3334 20.5648 62.6522C21.043 62.971 21.2025 63.6087 20.8836 64.087L17.2169 70.145C17.0575 70.4638 16.7387 70.6232 16.4198 70.6232Z" fill="#02A9CE"/>
        <path d="M51.8114 27.7392H27.739C27.1013 27.7392 26.623 27.2609 26.623 26.6233C26.623 25.9856 27.1013 25.5073 27.739 25.5073H51.9709C52.6085 25.5073 53.0868 25.9856 53.0868 26.6233C52.9274 27.2609 52.4491 27.7392 51.8114 27.7392Z" fill="#D3AB8D"/>
        <path d="M51.8114 41.1308H27.739C27.1013 41.1308 26.623 40.6525 26.623 40.0149C26.623 39.3772 27.1013 38.8989 27.739 38.8989H51.9709C52.6085 38.8989 53.0868 39.3772 53.0868 40.0149C53.0868 40.6525 52.4491 41.1308 51.8114 41.1308Z" fill="#D3AB8D"/>
        <path d="M51.8114 54.3623H27.739C27.1013 54.3623 26.623 53.884 26.623 53.2463C26.623 52.6086 27.1013 52.1304 27.739 52.1304H51.9709C52.6085 52.1304 53.0868 52.6086 53.0868 53.2463C53.0868 53.884 52.4491 54.3623 51.8114 54.3623Z" fill="#D3AB8D"/>
        <path d="M51.8114 67.5942H27.739C27.1013 67.5942 26.623 67.1159 26.623 66.4782C26.623 65.8406 27.1013 65.3623 27.739 65.3623H51.9709C52.6085 65.3623 53.0868 65.8406 53.0868 66.4782C52.9274 67.1159 52.4491 67.5942 51.8114 67.5942Z" fill="#D3AB8D"/>
        <path d="M71.8972 86.5649L69.5059 74.9272H74.2885L71.8972 86.5649Z" fill="#C2C2C2"/>
        <path d="M71.8981 19.9272H69.5068C69.0286 30.2896 68.8691 40.8113 68.8691 51.333H71.8981V19.9272Z" fill="#151515"/>
        <path d="M74.4479 19.9272H72.0566V51.333H74.9262C75.0856 40.8113 74.9262 30.2896 74.4479 19.9272Z" fill="#151515"/>
        <path d="M71.8984 74.9275H74.2897C74.768 66.9564 74.9274 59.1448 74.9274 51.1738H71.8984V74.9275Z" fill="#151515"/>
        <path d="M68.8691 51.1738C68.8691 58.9854 69.0286 66.9564 69.5068 74.768H71.8981V51.1738H68.8691Z" fill="#151515"/>
        <path d="M78.9123 49.1014C78.5935 49.1014 78.2747 48.942 78.1152 48.7825C77.9558 48.6231 77.3182 47.6666 77.1587 45.5941C76.9993 44.3188 77.3181 40.4927 77.637 35.0724C77.7964 32.6811 77.9558 30.2898 77.9558 29.4927C77.9558 27.7391 77.3181 23.1159 76.9993 21.0434H69.5066C68.8689 21.0434 68.3906 20.5651 68.3906 19.9275C68.3906 19.2898 68.8689 18.8115 69.5066 18.8115H78.7529L78.9123 19.768C78.9123 20.0869 80.0283 27.1014 80.0283 29.4927C80.0283 30.4492 79.8689 32.6811 79.7095 35.2318C79.3906 39.0579 79.0718 44.1593 79.2312 45.2753C79.3906 46.8695 79.8689 47.5072 79.8689 47.5072C80.1877 47.9854 80.0283 48.6231 79.7095 48.942C79.3906 49.1014 79.2312 49.1014 78.9123 49.1014Z" fill="#C2C2C2"/>
    </g>
    <defs>
        <clipPath id="clip0">
            <rect width="80.029" height="88" fill="white"/>
        </clipPath>
    </defs>
</svg>
