<svg width="88" height="64" viewBox="0 0 88 64" fill="none" xmlns="http://www.w3.org/2000/svg">
    <path d="M63.6123 28.3751V56.5647L39.0391 42.3772V14.1875L63.6123 28.3751Z" fill="#FF9C1A"/>
    <path d="M87.9991 14.1875V42.3772L63.6113 56.5647V28.3751L87.9991 14.1875Z" fill="#B97C2A"/>
    <path d="M72.5137 5.19287L48.0332 19.3804L51.0933 21.1423L75.481 6.95473L72.5137 5.19287Z" fill="#FF9C1A"/>
    <path d="M63.6123 0L39.0391 14.1876L48.0338 19.3804L72.5143 5.19283L63.6123 0Z" fill="#FFCE80"/>
    <path d="M75.4815 6.95459L51.0938 21.1422L53.8756 22.7186L78.2634 8.53099L75.4815 6.95459Z" fill="#FF9C1A"/>
    <path d="M87.9993 14.1877L78.2628 8.53125L53.875 22.7188L63.6116 28.3753L87.9993 14.1877Z" fill="#FFCE80"/>
    <path d="M66.6719 49.7024V51.7424L76.5012 46.1787V44.0459L66.6719 49.7024Z" fill="#2E384C"/>
    <path d="M67.8774 47.0134L69.7319 45.9007V41.0787L70.752 40.5224L68.7119 38.2969L66.6719 42.8406L67.8774 42.0988V47.0134Z" fill="#2E384C"/>
    <path d="M73.5336 44.0461L75.3882 43.0261V38.1115L76.3155 37.5551L74.3682 35.3296L72.3281 39.8733L73.5336 39.2242V44.0461Z" fill="#2E384C"/>
    <path d="M48.0332 19.3804V29.766L53.8751 33.1043V22.7186L48.0332 19.3804Z" fill="#B97C2A"/>
    <path d="M61.2005 18.453H49.6094L53.504 16.2275H65.0024L61.2005 18.453Z" fill="#FF9C1A"/>
    <path d="M67.4134 14.8369H55.8223L57.7696 13.7241H69.3607L67.4134 14.8369Z" fill="#FF9C1A"/>
    <path d="M22.4404 46.7356L22.3477 43.6755C24.0168 39.8736 27.1696 38.3899 30.3224 35.6081C31.806 34.3098 34.9588 30.5079 35.4225 28.4679C36.3498 23.7387 39.1316 24.2951 39.5953 27.3552C40.3371 32.0843 37.0916 38.6681 37.0916 38.6681L46.1791 39.7809L60.2739 38.4827C61.5721 38.3899 62.6849 39.4099 62.6849 40.6154C62.6849 41.6354 61.943 42.5627 60.923 42.7482L46.2718 45.2519L59.3466 47.2919C60.5521 47.4774 61.4794 48.6829 61.2012 49.8883C61.0157 51.0938 59.903 51.8357 58.7902 51.7429L45.7154 50.5374L57.2138 53.9684C58.2338 54.2466 58.7902 55.3594 58.3266 56.3794L58.0484 56.843C57.6775 57.6776 56.8429 58.0485 56.0084 57.8631L42.5626 55.3594L52.7628 59.6249C53.7829 60.274 53.8756 61.665 53.041 62.4068C52.5774 62.8704 51.9283 62.9632 51.3719 62.7777L39.0389 59.3467C39.0389 59.3467 22.7186 56.4721 22.6258 56.0085C22.3477 55.9157 22.4404 46.7356 22.4404 46.7356Z" fill="#FCCA9B"/>
    <path d="M24.295 40.4302H0V62.3143H24.295V40.4302Z" fill="#02A9CE"/>
</svg>
