<svg width="69" height="88" viewBox="0 0 69 88" fill="none" xmlns="http://www.w3.org/2000/svg">
    <g clip-path="url(#clip0)">
        <path d="M11.8511 85.9019H6.9142C5.92683 85.9019 5.06287 82.1993 4.56918 81.7056L3.95207 86.2722C3.5818 87.1362 4.6926 87.8767 6.42051 87.8767H11.234C12.5916 87.8767 13.7024 88.0001 13.7024 87.2596V86.1488C13.4556 86.6425 12.715 85.9019 11.8511 85.9019Z" fill="#0A2138"/>
        <path d="M5.43389 83.5571L4.69336 85.1616C5.06363 85.6553 5.92758 85.9021 7.03838 85.9021C7.03838 85.9021 13.5798 86.6427 14.0734 86.2724L5.43389 83.5571Z" fill="#05101C"/>
        <path d="M6.91232 84.7909C4.32046 84.7909 2.3457 82.6927 2.3457 80.2243L2.83939 50.4795C2.46913 46.1597 11.1087 30.2383 11.1087 30.2383L11.9726 58.2551L11.4789 80.3477C11.3555 82.8161 9.38077 84.7909 6.91232 84.7909Z" fill="#02A9CE"/>
        <path d="M4.81436 13.4531C4.81436 13.4531 3.70356 18.2666 2.96302 23.4503C2.59276 26.0422 4.44409 41.5934 4.44409 41.5934H11.6026C11.6026 41.5934 12.59 30.9791 12.3431 28.0169C11.8494 21.599 9.38098 21.1053 8.3936 19.3774C8.14675 18.8837 8.51702 14.5639 8.51702 14.5639L4.81436 13.4531Z" fill="#F7C378"/>
        <path d="M13.3307 9.13351C13.3307 8.88667 13.3307 8.63982 13.3307 8.5164C13.3307 5.43085 10.8622 2.9624 7.77665 2.9624C4.6911 2.9624 2.22266 5.43085 2.22266 8.5164C2.22266 9.01009 2.22266 9.38036 2.34608 9.75062C2.4695 10.4912 2.83977 11.2317 3.33346 11.8488C4.07399 13.2064 4.93794 14.8109 5.55505 15.1812C6.78928 15.7983 11.2325 17.2794 12.3433 15.0578C13.4541 12.7128 13.3307 9.13351 13.3307 9.13351Z" fill="#FDDDBA"/>
        <path d="M9.87547 7.15857C9.87547 7.15857 9.38178 6.91173 9.13493 8.14595C9.01151 9.38017 8.14756 10.8612 8.14756 10.8612C8.14756 10.8612 7.65387 9.25675 6.91333 9.00991C6.1728 8.63964 5.80254 9.00991 5.67911 9.75044C5.55569 10.491 5.80254 11.7252 6.41965 12.2189C7.03676 12.7126 7.03676 12.9594 6.04938 13.3297C5.062 13.8234 4.32147 13.8234 4.32147 13.8234C4.32147 13.8234 0.989071 10.491 0.865649 8.3928C0.742227 6.41804 1.35934 2.8388 5.55569 1.97484C9.75204 1.11089 12.0971 3.08564 12.961 4.81355C13.825 6.54146 14.6889 7.40542 12.961 7.52884C11.2331 7.52884 9.87547 7.15857 9.87547 7.15857Z" fill="#936A4B"/>
        <path d="M1.97596 21.7222C2.83991 17.8961 8.64075 18.2664 10.6155 21.7222C13.8245 27.0294 12.9605 26.6591 12.9605 33.2005C12.5903 38.3842 11.8497 50.2327 11.8497 50.2327H2.83991C2.83991 50.2327 1.72911 45.5427 2.83991 40.359C3.21018 38.8779 -0.122219 31.1023 1.97596 21.7222Z" fill="#02A9CE"/>
        <path d="M31.9678 26.2891L29.8696 28.017H18.1445L20.3661 26.2891H31.9678Z" fill="#FFAE4D"/>
        <path d="M31.9673 36.1628L29.8691 39.125V28.017L31.9673 26.2891V36.1628Z" fill="#F2911D"/>
        <path d="M29.8689 39.1251L18.3906 39.2485V28.0171H29.8689V39.1251Z" fill="#FF9C1A"/>
        <path d="M1.35831 10.7377L12.8366 4.56664L12.2195 3.45584C10.615 0.246863 6.66547 -0.863937 3.45649 0.740551H3.33307C0.247513 2.46846 -0.863286 6.41797 0.741202 9.62695L1.35831 10.7377Z" fill="#02A9CE"/>
        <path d="M17.2805 2.5918C17.2805 2.5918 17.6507 2.83864 16.7868 3.82602C16.0463 4.68997 14.812 4.8134 14.5652 4.93682C14.1949 5.06024 11.1094 5.43051 11.1094 5.43051L12.3436 3.57917L17.2805 2.5918Z" fill="#02A9CE"/>
        <path d="M12.8359 12.4655V8.88623L14.4404 11.4781C14.5638 11.9718 14.317 12.4655 13.8233 12.4655H12.8359Z" fill="#FDDDBA"/>
        <path d="M21.9704 37.7673L12.3435 31.843C12.3435 31.843 9.13448 24.1909 8.76422 23.4503C8.14711 22.3395 7.15973 21.7224 5.92551 21.4756C5.92551 21.4756 5.55524 21.4756 5.43182 21.4756C3.70391 21.599 2.96338 24.808 3.70391 26.4125C6.29577 31.3494 10.1219 36.6565 10.1219 36.6565C10.6155 37.1502 21.4767 41.0997 21.4767 41.0997L21.9704 37.7673Z" fill="#02A9CE"/>
        <path d="M21.4772 38.2611C20.9835 39.125 20.9835 40.1124 21.3538 40.9763L21.4772 41.0998H24.4393C27.278 40.4827 29.0059 38.8782 29.0059 38.8782C29.0059 38.6313 25.5501 38.0142 24.0691 37.7674C23.8222 37.644 25.1799 36.6566 24.3159 35.5458C24.1925 35.4224 23.9456 35.6692 23.6988 36.0395C23.2051 37.0268 22.588 37.2737 21.6006 37.7674C21.724 38.0142 21.6006 38.1376 21.4772 38.2611Z" fill="#FCCA9B"/>
        <path d="M62.7 84.915L62.4531 84.2979C62.5765 84.6681 62.5766 85.0384 62.7 85.5321C62.7 85.2852 62.7 85.1618 62.7 84.915Z" fill="#F7C378"/>
        <path d="M63.1945 48.0116C63.1945 47.7647 58.3811 48.0116 58.3811 48.0116C55.4189 48.5053 55.5424 57.5151 56.0361 62.0817C56.1595 63.3159 57.3937 67.0186 57.8874 68.1294C58.9982 70.351 59.7387 74.3005 59.6153 76.7689L59.3685 80.9653C58.2577 82.1995 56.0361 84.6679 54.4316 85.6553C54.1847 85.7787 53.9379 85.9022 53.8145 85.9022C54.0613 86.0256 54.555 86.149 55.4189 86.0256C55.5424 86.0256 55.6658 86.0256 55.7892 85.9022C57.6405 85.5319 58.9982 85.285 60.3558 84.6679C61.7135 84.0508 62.2072 83.0635 62.2072 83.0635L61.8369 81.8292L62.9477 76.8923C63.5648 74.1771 63.5648 71.3383 62.9477 68.6231C62.9477 68.6231 62.9477 68.6231 62.9477 68.4996C62.3306 65.9078 62.0837 63.8096 62.3306 62.6988L63.1945 48.0116Z" fill="#F7C378"/>
        <path d="M62.207 83.3101L62.5773 84.2974C62.3305 83.6803 62.207 83.3101 62.207 83.3101Z" fill="#F7C378"/>
        <path d="M62.7004 85.5317C62.7004 85.038 62.577 84.6677 62.4536 84.2975L61.9599 82.8164C61.9599 82.8164 61.5896 83.5569 60.232 84.2975C58.8744 84.9146 57.5167 85.6551 55.6654 86.0254C55.542 86.0254 55.4185 86.0254 55.2951 86.1488C54.4312 86.3957 54.0609 86.2722 53.6906 86.0254L51.8393 86.6425C51.3456 86.7659 51.469 87.383 51.8393 87.6299C53.3204 88.1236 54.4312 88.0001 55.9122 87.8767C57.3933 87.7533 57.887 87.2596 59.368 86.6425L59.4915 87.6299H61.4662C61.4662 87.6299 61.9599 86.7659 62.2068 86.1488C62.3302 86.0254 62.7004 85.6551 62.7004 85.5317Z" fill="white"/>
        <path d="M53.3187 85.1615L53.1953 84.5444C53.3187 84.9147 53.3187 85.285 53.3187 85.7786C53.3187 85.5318 53.3187 85.4084 53.3187 85.1615Z" fill="#F7C378"/>
        <path d="M62.0818 48.2583C62.0818 48.0114 57.2683 48.1349 57.2683 48.1349C54.3062 48.5051 51.0972 57.5149 51.4675 62.205C51.5909 63.4392 51.5909 67.2653 52.0846 68.3761C53.1954 70.7211 51.7143 74.5472 51.4675 77.1391L49.9864 81.3354C48.7522 82.5696 46.5306 85.0381 44.8027 85.7786C44.5558 85.902 44.309 86.0255 44.1855 86.0255C44.4324 86.1489 44.9261 86.2723 45.79 86.1489C45.9135 86.1489 46.0369 86.1489 46.1603 86.0255C48.0116 85.6552 49.3693 85.5318 50.7269 84.9147C52.208 84.2976 52.7017 83.4336 52.7017 83.4336L52.3314 82.1994L54.6764 77.3859C55.417 74.6706 57.5151 71.8319 56.898 69.1166C56.898 69.1166 56.898 69.1166 56.898 68.9932C56.5278 67.0185 57.3917 65.1671 57.5151 63.1924L62.0818 48.2583Z" fill="#FDDDBA"/>
        <path d="M52.7012 83.5571L52.948 84.5445C52.948 83.9274 52.7012 83.5571 52.7012 83.5571Z" fill="#F7C378"/>
        <path d="M53.1963 85.7788C53.1963 85.2851 53.0728 84.9148 53.0728 84.5445L52.7026 83.0635C52.7026 83.0635 52.3323 83.804 50.8512 84.4211C49.4936 85.0382 48.136 85.6553 46.2846 86.0256C46.1612 86.0256 46.0378 86.0256 45.9144 86.149C45.0504 86.2725 44.6801 86.149 44.3099 86.0256L42.3351 86.5193C41.8414 86.6427 41.8414 87.2598 42.3351 87.5067C43.8162 88.1238 44.927 88.0004 46.408 87.8769C47.8891 87.8769 48.3828 87.2598 49.9873 86.7661L50.1107 87.7535L52.0855 87.8769C52.0855 87.8769 52.5791 87.013 52.826 86.5193C52.826 86.3959 53.1963 85.9022 53.1963 85.7788Z" fill="white"/>
        <path d="M59.1197 22.4631C60.354 21.5991 61.2179 20.982 62.2053 20.8586C62.5756 20.8586 63.0692 20.7352 63.4395 20.6117C63.3161 20.2415 63.3161 19.8712 63.1927 19.5009L60.6008 16.7856L58.3792 18.637L58.9963 20.982L57.6387 22.8333C58.1324 22.8333 58.6261 22.8333 59.1197 22.4631Z" fill="#F7C378"/>
        <path d="M63.5628 26.536C63.933 24.5612 63.933 22.463 63.5628 20.4883C63.1925 20.6117 62.5754 20.4883 62.2051 20.4883C61.3412 20.6117 59.243 20.7351 57.8854 22.7099L55.5403 25.9189C54.6764 27.0297 54.4295 28.5107 54.6764 29.8684L56.1574 37.5205L49.9863 62.8221L68.4997 63.686C68.4997 63.686 65.1673 47.7646 65.1673 47.1475C64.6736 42.5808 62.452 37.7674 62.452 37.7674C62.0817 35.9161 62.0817 33.9413 62.5754 32.09L63.5628 26.536Z" fill="white"/>
        <path d="M64.6745 14.317C66.0321 11.6017 64.1808 8.39275 61.3421 7.40537C58.5034 6.41799 55.4178 7.89906 54.4304 10.7378C53.9367 12.0954 54.1836 15.5512 55.171 17.7728C56.1584 19.871 58.0097 18.7602 58.6268 18.6368C58.6268 18.6368 62.6997 18.1431 64.6745 14.317Z" fill="#FFD0B0"/>
        <path d="M60.1081 6.29477C60.1081 6.29477 54.9244 5.80108 54.4307 9.99743C54.0604 12.8361 58.3802 13.3298 58.3802 13.3298C58.3802 13.3298 58.8739 10.2443 60.1081 12.3425C61.2189 14.1938 59.491 14.6875 59.491 14.6875C59.491 14.6875 59.9847 16.0451 60.2316 16.4154C60.6018 16.9091 60.9721 17.8964 62.0829 17.4028C63.4405 16.7857 64.7982 14.9343 65.2919 12.7127C65.5387 10.3677 64.4279 7.0353 60.1081 6.29477Z" fill="#936A4B"/>
        <path d="M63.4405 24.3145L65.6621 24.6848C65.6621 24.6848 66.8963 11.9723 64.7981 9.50385C62.7 7.03541 61.0955 14.5642 61.0955 14.5642H59.3676L59.2441 19.7479C59.6144 22.0929 61.2189 23.9442 63.4405 24.3145Z" fill="#936A4B"/>
        <path d="M61.3418 23.9442C61.3418 23.9442 63.3166 24.0676 62.576 26.4126C61.8355 28.7576 59.3671 31.5964 59.3671 31.5964L54.677 37.8909L45.6672 41.2233L43.1988 42.3341C43.1988 42.3341 40.6069 42.9512 39.9898 42.5809C38.6321 41.8404 38.015 41.0999 38.5087 40.853C39.1258 40.4827 40.7303 40.7296 40.7303 40.7296L43.0753 39.3719L41.9645 39.1251C41.9645 39.1251 40.7303 39.4954 40.4835 39.2485C40.36 39.1251 41.1006 38.3846 41.7177 38.2611C42.7051 38.0143 42.9519 37.8909 43.4456 38.1377L45.2969 38.7548L48.2591 36.9035C49.2464 36.2864 50.4807 35.9161 51.7149 36.0395L56.2815 28.6342C56.4049 28.6342 56.8986 23.5739 61.3418 23.9442Z" fill="#F7C378"/>
    </g>
    <defs>
        <clipPath id="clip0">
            <rect width="68.2524" height="88" fill="white"/>
        </clipPath>
    </defs>
</svg>
