<svg width="85" height="65" viewBox="0 0 85 65" fill="none" xmlns="http://www.w3.org/2000/svg">
    <g clip-path="url(#clip0)">
        <path d="M52.8008 35.6999L48.0008 32.0999L45.2008 29.9999L43.8008 28.8999L41.7008 30.5999L40.9008 31.1999L41.4008 27.5999L42.4008 24.0999V23.9999L38.4008 22.8999C37.6008 22.6999 36.8008 22.6999 36.0008 22.8999L29.8008 24.2999L19.4008 16.8999L10.3008 30.9999L23.4008 38.0999L26.1008 42.0999C26.8008 43.1999 27.8008 44.0999 28.9008 44.7999L37.4008 50.7999C45.8008 48.7999 53.3008 42.4999 53.6008 36.2999C53.3008 35.9999 52.9008 35.6999 52.8008 35.6999Z" fill="#EBB886"/>
        <path d="M59.3996 40.7998C59.2996 40.6998 59.1996 40.5998 59.0996 40.4998L57.8996 39.3998L54.4996 36.8998C54.3996 36.7998 53.9996 36.4998 53.6996 36.2998C53.2996 37.7998 52.2996 38.9998 50.1996 39.4998C49.9996 41.2998 48.4996 42.4998 46.0996 43.1998C45.6996 44.9998 44.2996 46.1998 41.9996 46.8998C41.2996 49.0998 39.1996 50.6998 37.5996 50.8998L41.4996 53.6998C45.1996 56.2998 47.1996 52.6998 46.0996 51.4998L46.4996 51.7998C50.0996 54.4998 52.4996 50.5998 50.5996 48.2998C53.3996 50.9998 57.0996 47.3998 54.9996 44.4998C55.0996 44.5998 55.1996 44.6998 55.3996 44.7998C55.4996 44.7998 55.4996 44.8998 55.4996 44.8998C58.5996 46.6998 61.3996 42.8998 59.3996 40.7998Z" fill="#E0B080"/>
        <path d="M30.8991 41.2999C32.0991 40.5999 32.5991 39.0999 31.8991 37.8999L31.6991 37.4999C31.3991 36.8999 30.7991 36.4999 30.1991 36.2999C29.5991 36.0999 28.8991 36.1999 28.2991 36.4999L23.7991 38.8999C22.5991 39.4999 22.1991 40.8999 22.7991 42.0999L23.1991 42.8999C23.7991 43.9999 25.0991 44.3999 26.1991 43.7999L30.8991 41.2999Z" fill="#FFCF9F"/>
        <path d="M35.4005 45.1C36.0005 44.8 36.5005 44.3 36.7005 43.6C36.9005 43 36.8005 42.3 36.5005 41.7L36.3005 41.3C35.7005 40.1 34.1005 39.6 32.9005 40.2L27.2005 43.1C26.6005 43.4 26.2005 43.9 26.0005 44.5C25.8005 45.1 25.9005 45.8 26.2005 46.3L26.6005 47.1C27.2005 48.2 28.5005 48.6 29.6005 48L35.4005 45.1Z" fill="#FFCF9F"/>
        <path d="M39.1007 49.3998C40.4007 48.6998 40.8007 47.1998 40.2007 45.8998L40.0007 45.4998C39.7007 44.8998 39.1007 44.3998 38.5007 44.1998C37.8007 43.9998 37.1007 44.0998 36.5007 44.3998L31.9007 46.7998C30.7007 47.3998 30.3007 48.8998 30.9007 49.9998L31.4007 50.8998C31.7007 51.3998 32.2007 51.7998 32.7007 51.9998C33.3007 52.1998 33.9007 52.0998 34.4007 51.7998L39.1007 49.3998Z" fill="#FFCF9F"/>
        <path d="M42.7991 52.4002C43.7991 51.9002 44.0991 50.6002 43.4991 49.6002L43.2991 49.3002C42.6991 48.3002 41.4991 47.8002 40.5991 48.3002L37.0991 50.2002C36.1991 50.7002 35.8991 51.9002 36.3991 52.8002L36.7991 53.5002C37.2991 54.4002 38.2991 54.8002 39.1991 54.3002L42.7991 52.4002Z" fill="#FFCF9F"/>
        <path d="M63.1006 17.6001L54.4006 23.5001C54.4006 23.5001 47.7006 22.4001 47.0006 22.6001L42.4006 24.0001L39.4006 24.9001C38.8006 25.1001 38.3006 25.6001 38.0006 26.2001L35.2006 33.9001C34.8006 34.9001 35.3006 35.9001 36.3006 36.3001L36.9006 36.5001C37.9006 36.9001 39.0006 36.8001 39.9006 36.4001C40.9006 36.0001 41.6006 35.2001 42.0006 34.2001L43.0006 31.3001C43.2006 30.8001 43.5006 30.5001 44.0006 30.3001L45.0006 30.0001H45.1006C45.1006 30.0001 59.2006 40.7001 59.3006 40.8001L62.4006 37.5001L71.1006 32.1001L63.1006 17.6001Z" fill="#FFCF9F"/>
        <path d="M19.6992 39.4001L13.6992 35.7001L23.5992 18.6001L29.7992 23.2001L19.6992 39.4001Z" fill="#EDEDED"/>
        <path d="M0 1V29.6C6.4 33.6 12.7 37.5 12.7 37.5L23.6 18.6C23.6 18.6 10.8 9 0 1Z" fill="#292929"/>
        <path d="M64.5004 38.5001L70.5004 34.7001L60.6004 17.6001L54.4004 22.2001L64.5004 38.5001Z" fill="#EDEDED"/>
        <path d="M84.1996 0V28.6C77.7996 32.6 71.4996 36.5 71.4996 36.5L60.5996 17.6C60.5996 17.6 73.3996 8 84.1996 0Z" fill="#02A9CE"/>
        <path d="M10.4 32.9001C11.1732 32.9001 11.8 32.2733 11.8 31.5001C11.8 30.7269 11.1732 30.1001 10.4 30.1001C9.6268 30.1001 9 30.7269 9 31.5001C9 32.2733 9.6268 32.9001 10.4 32.9001Z" fill="white"/>
        <path d="M6.4 30.1999C7.1732 30.1999 7.8 29.5731 7.8 28.7999C7.8 28.0267 7.1732 27.3999 6.4 27.3999C5.6268 27.3999 5 28.0267 5 28.7999C5 29.5731 5.6268 30.1999 6.4 30.1999Z" fill="white"/>
        <path d="M72.9 32.9001C73.6732 32.9001 74.3 32.2733 74.3 31.5001C74.3 30.7269 73.6732 30.1001 72.9 30.1001C72.1268 30.1001 71.5 30.7269 71.5 31.5001C71.5 32.2733 72.1268 32.9001 72.9 32.9001Z" fill="white"/>
        <path d="M76.9 30.1999C77.6732 30.1999 78.3 29.5731 78.3 28.7999C78.3 28.0267 77.6732 27.3999 76.9 27.3999C76.1268 27.3999 75.5 28.0267 75.5 28.7999C75.5 29.5731 76.1268 30.1999 76.9 30.1999Z" fill="white"/>
        <path d="M41.6008 18.3999C41.2008 18.3999 40.8008 18.0999 40.8008 17.5999V12.1999C40.8008 11.7999 41.1008 11.3999 41.6008 11.3999C42.0008 11.3999 42.4008 11.6999 42.4008 12.1999V17.5999C42.4008 18.0999 42.0008 18.3999 41.6008 18.3999Z" fill="#02A9CE"/>
        <path d="M41.6008 64.6001C41.2008 64.6001 40.8008 64.3001 40.8008 63.8001V58.4001C40.8008 58.0001 41.1008 57.6001 41.6008 57.6001C42.0008 57.6001 42.4008 57.9001 42.4008 58.4001V63.8001C42.4008 64.3001 42.0008 64.6001 41.6008 64.6001Z" fill="#02A9CE"/>
        <path d="M59.9004 57.0998C59.7004 57.0998 59.5004 56.9998 59.4004 56.8998L55.5004 52.9998C55.2004 52.6998 55.2004 52.1998 55.5004 51.8998C55.8004 51.5998 56.3004 51.5998 56.6004 51.8998L60.4004 55.6998C60.7004 55.9998 60.7004 56.4998 60.4004 56.7998C60.3004 56.9998 60.1004 57.0998 59.9004 57.0998Z" fill="#02A9CE"/>
        <path d="M23.4008 57.0999C23.2008 57.0999 23.0008 56.9999 22.9008 56.8999C22.6008 56.5999 22.6008 56.0999 22.9008 55.7999L26.7008 51.9999C27.0008 51.6999 27.5008 51.6999 27.8008 51.9999C28.1008 52.2999 28.1008 52.7999 27.8008 53.0999L24.0008 56.8999C23.7008 56.9999 23.6008 57.0999 23.4008 57.0999Z" fill="#02A9CE"/>
        <path d="M51.2999 62.7C50.9999 62.7 50.6999 62.5 50.5999 62.2L48.5999 57.2C48.3999 56.8 48.5999 56.4 48.9999 56.2C49.3999 56 49.7999 56.2 49.9999 56.6L51.9999 61.6C52.1999 62 51.9999 62.4 51.5999 62.6C51.4999 62.7 51.3999 62.7 51.2999 62.7Z" fill="#02A9CE"/>
        <path d="M34.0011 19.8997C33.7011 19.8997 33.4011 19.6997 33.3011 19.3997L31.3011 14.3997C31.1011 13.9997 31.3011 13.5997 31.7011 13.3997C32.1011 13.1997 32.5011 13.3998 32.7011 13.7998L34.7011 18.7997C34.9011 19.1997 34.7011 19.5997 34.3011 19.7997C34.2011 19.8997 34.1011 19.8997 34.0011 19.8997Z" fill="#02A9CE"/>
        <path d="M17.7003 48.4998C17.4003 48.4998 17.1003 48.2998 17.0003 47.9998C16.8003 47.5998 17.0003 47.1998 17.4003 46.9998L22.4003 44.9998C22.8003 44.7998 23.2003 44.9998 23.4003 45.3998C23.6003 45.7998 23.4003 46.1998 23.0003 46.3998L18.0003 48.3998C17.9003 48.3998 17.8003 48.4998 17.7003 48.4998Z" fill="#02A9CE"/>
        <path d="M65.3996 48.9001C65.2996 48.9001 65.1996 48.9001 65.0996 48.8001L60.0996 46.7001C59.6996 46.5001 59.4996 46.1001 59.6996 45.7001C59.8996 45.3001 60.2996 45.1001 60.6996 45.3001L65.6996 47.4001C66.0996 47.6001 66.2996 48.0001 66.0996 48.4001C65.9996 48.7001 65.6996 48.9001 65.3996 48.9001Z" fill="#02A9CE"/>
        <path d="M31.5011 62.5999C31.4011 62.5999 31.3011 62.5999 31.2011 62.4999C30.8011 62.2999 30.6011 61.8999 30.8011 61.4999L32.9011 56.4999C33.1011 56.0999 33.5011 55.8999 33.9011 56.0999C34.3011 56.2999 34.5011 56.6999 34.3011 57.0999L32.2011 62.0999C32.1011 62.3999 31.8011 62.5999 31.5011 62.5999Z" fill="#02A9CE"/>
        <path d="M49.6007 19.9998C49.5007 19.9998 49.4007 19.9998 49.3007 19.8998C48.9007 19.6998 48.7007 19.2998 48.9007 18.8998L51.0007 13.8998C51.2007 13.4998 51.6007 13.2998 52.0007 13.4998C52.4007 13.6998 52.6007 14.0998 52.4007 14.4998L50.3007 19.4998C50.2007 19.7998 49.9007 19.9998 49.6007 19.9998Z" fill="#02A9CE"/>
    </g>
    <defs>
        <clipPath id="clip0">
            <rect width="84.2" height="64.6" fill="white"/>
        </clipPath>
    </defs>
</svg>