<svg width="50" height="50" viewBox="0 0 50 50" fill="none" xmlns="http://www.w3.org/2000/svg">
<g clip-path="url(#clip0)">
<path d="M20.7115 17.5361C20.9335 15.4828 21.1 10.2109 20.1011 7.6582H16.383C15.3841 10.1554 15.5506 15.4273 15.7726 17.5361C15.939 19.2009 11.666 19.5339 11.666 22.0866V48.1133C11.666 48.6682 12.11 49.0566 12.6094 49.0566H23.8747C24.4296 49.0566 24.8181 48.6127 24.8181 48.1133V22.0866C24.8181 19.5339 20.545 19.2009 20.7115 17.5361ZM24.3186 46.5594C24.3186 47.0589 23.9302 47.4473 23.4307 47.4473H13.0534C12.5539 47.4473 12.1655 47.0589 12.1655 46.5594V22.2531C12.1655 19.8669 16.1055 19.5894 15.9945 18.0356C15.7726 16.0933 15.6616 10.4884 16.5495 8.10215H19.9901C20.878 10.4329 20.767 16.0933 20.545 18.0356C20.4341 19.5894 24.3741 19.9224 24.3741 22.2531V46.5594H24.3186Z" fill="#C2C2C2"/>
<path d="M19.8236 0H16.6604C16.3829 0 16.1055 0.221976 16.1055 0.554939V8.10211H20.323V0.554939C20.323 0.221976 20.101 0 19.8236 0Z" fill="#1A1A1A"/>
<path d="M20.3796 2.6084H16.1621V2.71939H20.3796V2.6084Z" fill="black"/>
<path opacity="0.31" d="M16.6055 0.166504L19.8796 0.221998C19.9906 0.221998 20.1016 0.332986 20.1016 0.443973V2.49725H19.8241V0.776937C19.8241 0.665949 19.7131 0.499467 19.6021 0.499467L16.6055 0.166504Z" fill="white"/>
<path opacity="0.31" d="M20.045 2.94141H19.7676V7.76937H20.045V2.94141Z" fill="white"/>
<path opacity="0.3" d="M16.9378 2.94141H16.3828V7.76937H16.9378V2.94141Z" fill="black"/>
<path d="M20.4909 17.9797C20.6574 16.4814 20.7684 12.6523 20.3799 9.93311H16.0514C15.6629 12.6523 15.7739 16.4259 15.9404 17.9797C16.1069 19.5335 12.1113 19.8665 12.1113 22.1973V46.5591C12.1113 47.0585 12.4998 47.447 12.9992 47.447H23.3766C23.876 47.447 24.2645 47.0585 24.2645 46.5591V22.2527C24.32 19.8665 20.3799 19.5335 20.4909 17.9797Z" fill="#CC8718"/>
<path opacity="0.07" d="M22.7094 42.5637H13.9414V23.4183C13.9414 22.7524 14.4409 22.2529 15.1068 22.2529H21.4886C22.1545 22.2529 22.6539 22.7524 22.6539 23.4183V42.5637H22.7094Z" fill="white"/>
<path opacity="0.31" d="M20.3223 18.979C21.5431 20.1999 22.4865 19.9224 23.5964 21.6427C24.5953 23.141 23.5409 46.6705 23.5409 46.6705C23.5409 46.6705 23.3744 23.363 22.8195 21.9757C22.2091 20.4773 20.4887 19.8114 20.3223 18.979Z" fill="white"/>
<path d="M24.8181 25.416H11.666V43.396H24.8181V25.416Z" fill="#1A1A1A"/>
<path d="M18.2137 40.6218C21.064 40.6218 23.3746 37.7149 23.3746 34.129C23.3746 30.5432 21.064 27.6362 18.2137 27.6362C15.3634 27.6362 13.0527 30.5432 13.0527 34.129C13.0527 37.7149 15.3634 40.6218 18.2137 40.6218Z" fill="#FFEBA3"/>
<path d="M24.8181 25.8604H11.666V26.3043H24.8181V25.8604Z" fill="#FFEBA3"/>
<path d="M24.8181 42.3418H11.666V42.7857H24.8181V42.3418Z" fill="#FFEBA3"/>
<path d="M21.4882 30.2441H14.7734V33.2963H21.4882V30.2441Z" fill="#AB9E6E"/>
<path d="M21.4882 35.0166H14.7734V38.4017H21.4882V35.0166Z" fill="#AB9E6E"/>
<path d="M21.1 30.5215H15.1621V38.0132H21.1V30.5215Z" fill="white"/>
<path d="M22.7092 33.0742H13.5527V35.405H22.7092V33.0742Z" fill="#AB9E6E"/>
<path d="M20.8224 30.9102H15.4395V32.6305H20.8224V30.9102Z" fill="#9E9E9E"/>
<path d="M22.2655 33.4072H13.9414V35.1275H22.2655V33.4072Z" fill="#2E2C24"/>
<path d="M20.8224 35.627H15.4395V36.6258H20.8224V35.627Z" fill="#9E9E9E"/>
<path d="M20.3223 36.9033H15.8828V37.7357H20.3223V36.9033Z" fill="#9E9E9E"/>
<path opacity="0.31" d="M20.4351 13.2075C20.4351 15.9267 20.2131 18.1465 19.9356 18.1465C19.6581 18.1465 19.4362 15.9267 19.4362 13.2075C19.4362 10.4883 19.3807 8.26855 19.6581 8.26855C19.9356 8.26855 20.4351 10.4883 20.4351 13.2075Z" fill="white"/>
<path opacity="0.25" d="M15.9941 13.2075C15.9941 15.9267 16.2161 18.1465 16.4936 18.1465C16.4381 17.3141 16.2716 15.9267 16.2716 13.2075C16.2716 10.4883 16.7156 8.54602 16.7711 8.26855C16.5491 8.26855 15.9941 10.4883 15.9941 13.2075Z" fill="black"/>
<path d="M23.9846 22.031C23.9846 22.3085 23.8736 22.586 23.7072 22.586C23.5407 22.586 23.4297 22.364 23.4297 22.031C23.4297 21.7535 23.5407 21.4761 23.7072 21.4761C23.8736 21.4761 23.9846 21.698 23.9846 22.031Z" fill="white"/>
<path d="M24.0407 23.0857C24.102 23.0857 24.1517 22.9615 24.1517 22.8082C24.1517 22.655 24.102 22.5308 24.0407 22.5308C23.9794 22.5308 23.9297 22.655 23.9297 22.8082C23.9297 22.9615 23.9794 23.0857 24.0407 23.0857Z" fill="white"/>
<path opacity="0.25" d="M16.2174 18.979C14.9965 20.1999 14.0531 19.9224 12.9432 21.6427C12.0553 23.0301 12.7212 43.5628 12.8322 46.6705C12.8322 46.8924 12.9987 47.0589 13.2207 47.0589L21.7667 47.1699C21.7667 46.8924 13.9421 46.8369 13.9421 46.504C13.9421 39.2898 13.2762 23.0301 13.6646 22.0312C14.3306 20.4773 15.9954 19.8114 16.2174 18.979Z" fill="black"/>
<path d="M12.1109 47.9468C11.9999 48.2797 12.2219 48.6682 12.5549 48.7237C13.1653 48.7237 22.4328 48.7237 22.4328 48.7237C22.4328 48.7237 12.3884 48.6682 12.1109 47.9468Z" fill="#878787"/>
<path d="M37.9161 40.0112H24.875V47.6694H37.9161V40.0112Z" fill="#CC8718"/>
<g opacity="0.79">
<path opacity="0.4" d="M30.0913 45.1721L27.0392 45.6715C26.7062 45.727 26.4287 45.505 26.3732 45.2276L25.8738 42.1754C25.8183 41.8424 26.0403 41.565 26.3177 41.5095L29.3699 41.01C29.7029 40.9545 29.9803 41.1765 30.0358 41.454L30.5353 44.5061C30.6463 44.8391 30.4243 45.1166 30.0913 45.1721Z" fill="white"/>
<path opacity="0.79" d="M29.4805 40.8991L26.2618 41.454C25.9289 41.5095 25.7069 41.8425 25.7624 42.1199L26.3173 45.3386C26.3728 45.6716 26.7058 45.8935 26.9833 45.838L30.2019 45.2831C30.5349 45.2276 30.7569 44.8946 30.7014 44.6172L30.1464 41.3985C30.0909 41.0101 29.8135 40.8436 29.4805 40.8991ZM30.5904 44.5062C30.6459 44.8391 30.4239 45.1166 30.1464 45.1721L27.0943 45.6716C26.7613 45.7271 26.4838 45.5051 26.4283 45.2276L25.8734 42.1754C25.8179 41.8425 26.0399 41.565 26.3173 41.5095L29.3695 41.0101C29.7025 40.9546 29.9799 41.1765 30.0354 41.454L30.5904 44.5062Z" fill="white"/>
<path opacity="0.6" d="M29.5919 45.1721L27.1501 45.6161C26.9282 45.6716 26.6507 45.5051 26.5952 45.2276L26.1513 42.7859C26.0958 42.5639 26.2622 42.2864 26.5397 42.2309L28.9814 41.787C29.2034 41.7315 29.4809 41.898 29.5364 42.1755L29.9803 44.6172C29.9803 44.8947 29.8139 45.1721 29.5919 45.1721Z" fill="#BBE5FA"/>
<path opacity="0.79" d="M26.5391 42.3419L28.9253 42.0645C29.1473 42.0645 29.3138 42.1754 29.3693 42.3974L29.8132 44.7837L29.1473 42.5084C29.0918 42.3974 28.9808 42.2864 28.8698 42.2864L26.5391 42.3419Z" fill="#9EC2D4"/>
<path opacity="0.79" d="M26.373 41.5099L29.5917 41.0659C29.8137 41.0659 29.9801 41.1769 30.0356 41.3989L30.6461 44.5065L29.8692 41.5099C29.8137 41.3989 29.7027 41.2879 29.5917 41.2879L26.373 41.5099Z" fill="#9EC2D4"/>
<path opacity="0.79" d="M29.5362 45.0057L27.2055 45.4497C26.9835 45.4497 26.817 45.3387 26.7615 45.1167L26.373 42.7305L26.928 45.0057C26.9835 45.1167 27.0945 45.2277 27.2055 45.2277L29.5362 45.0057Z" fill="#E6F7FF"/>
</g>
<g opacity="0.79">
<path opacity="0.4" d="M35.0293 47.2257L32.0326 46.5043C31.7551 46.4488 31.5331 46.1158 31.5886 45.8383L32.3101 42.8417C32.3656 42.5642 32.6985 42.3422 32.976 42.3977L35.9727 43.1191C36.2501 43.1746 36.4721 43.5076 36.4166 43.7851L35.6952 46.7817C35.6397 47.1147 35.3622 47.2812 35.0293 47.2257Z" fill="white"/>
<path opacity="0.79" d="M36.1388 43.0081L32.9756 42.2312C32.6427 42.1757 32.3097 42.3422 32.2542 42.6752L31.4773 45.8383C31.4218 46.1713 31.5883 46.5043 31.9213 46.5597L35.0844 47.3367C35.4174 47.3922 35.7503 47.2257 35.8058 46.8927L36.5828 43.7296C36.6937 43.3966 36.4718 43.0636 36.1388 43.0081ZM35.7503 46.7817C35.6948 47.0592 35.3619 47.2812 35.0844 47.2257L32.0877 46.5043C31.8103 46.4488 31.5883 46.1158 31.6438 45.8383L32.3652 42.8417C32.4207 42.5642 32.7537 42.3422 33.0311 42.3977L36.0278 43.1191C36.3053 43.1746 36.5273 43.5076 36.4718 43.7851L35.7503 46.7817Z" fill="white"/>
<path opacity="0.6" d="M34.5296 47.0037L32.0879 46.4488C31.8659 46.3933 31.6994 46.1158 31.7549 45.8939L32.3098 43.4521C32.3653 43.2301 32.6428 43.0637 32.8648 43.1192L35.3065 43.6741C35.5285 43.7296 35.695 44.0071 35.6395 44.229L35.0845 46.6708C35.029 46.8927 34.8071 47.0592 34.5296 47.0037Z" fill="#BBE5FA"/>
<path opacity="0.79" d="M32.8652 43.2305L35.1405 43.8964C35.3625 43.9519 35.4734 44.1739 35.418 44.3403L34.9185 46.6711L35.196 44.3403C35.196 44.2294 35.1405 44.0629 35.0295 44.0074L32.8652 43.2305Z" fill="#9EC2D4"/>
<path opacity="0.79" d="M33.0312 42.3975L36.1389 43.2854C36.3609 43.3409 36.4719 43.5628 36.4164 43.7293L35.7505 46.837L36.1944 43.7848C36.1944 43.6738 36.1389 43.5073 36.0279 43.4518L33.0312 42.3975Z" fill="#9EC2D4"/>
<path opacity="0.79" d="M34.5852 46.8374L32.2545 46.2825C32.0325 46.227 31.9215 46.005 31.977 45.8386L32.532 43.5078L32.199 45.8386C32.199 45.9495 32.2545 46.116 32.3655 46.1715L34.5852 46.8374Z" fill="#E6F7FF"/>
</g>
<path d="M24.2637 35.5718V50.0002H38.5256V35.5718H24.2637ZM37.9707 47.7249H24.8741V35.9047H37.9152V47.7249H37.9707Z" fill="#C2C2C2"/>
<path opacity="0.15" d="M33.8633 35.5718V50.0002H38.5248V35.5718H33.8633Z" fill="white"/>
<path opacity="0.15" d="M24.2637 35.5718V50.0002H29.0916V35.5718H24.2637Z" fill="black"/>
<path d="M33.8643 35.5718C34.0308 41.1212 33.8643 50.0002 33.8643 50.0002C33.8643 50.0002 33.6423 38.3465 33.8643 35.5718Z" fill="white"/>
<path d="M29.1475 35.5718C29.314 41.1212 29.1475 50.0002 29.1475 50.0002C29.1475 50.0002 28.9255 38.3465 29.1475 35.5718Z" fill="white"/>
<path opacity="0.3" d="M37.4709 36.7925H35.3066V43.2298H37.4709V36.7925Z" fill="white"/>
<path d="M37.0277 37.6807H36.1953V40.7883H37.0277V37.6807Z" fill="white"/>
<path d="M33.8633 35.5718H38.5248C36.305 35.7938 33.8633 35.5718 33.8633 35.5718Z" fill="white"/>
<path d="M29.1465 35.5718H33.808C31.5882 35.6828 29.1465 35.5718 29.1465 35.5718Z" fill="white"/>
<path d="M24.4297 44.229V49.7784H28.6472L24.7072 49.4454L24.4297 44.229Z" fill="#878787"/>
<path d="M38.1362 48.8348L34.1406 49.1122V49.7782H38.3582V48.6683V38.9014L38.1362 48.8348Z" fill="white"/>
</g>
<defs>
<clipPath id="clip0">
<rect width="26.9145" height="50" fill="white" transform="translate(11.666)"/>
</clipPath>
</defs>
</svg>
