<svg width="50" height="50" viewBox="0 0 50 50" fill="none" xmlns="http://www.w3.org/2000/svg">
<g clip-path="url(#clip0)">
<path d="M13.7581 24.1436H11.9316V25.913H13.7581V24.1436Z" fill="#878787"/>
<path d="M32.5363 10.3882H18.6094V15.1256H32.5363V10.3882Z" fill="#999999"/>
<path d="M32.5363 34.8174H18.6094V39.5548H32.5363V34.8174Z" fill="#999999"/>
<path d="M25.574 37.1577C32.3199 37.1577 37.7886 31.6891 37.7886 24.9431C37.7886 18.1972 32.3199 12.7285 25.574 12.7285C18.828 12.7285 13.3594 18.1972 13.3594 24.9431C13.3594 31.6891 18.828 37.1577 25.574 37.1577Z" fill="#B8B8B8"/>
<path d="M25.5726 34.9313C31.0891 34.9313 35.5612 30.4592 35.5612 24.9427C35.5612 19.4261 31.0891 14.9541 25.5726 14.9541C20.056 14.9541 15.584 19.4261 15.584 24.9427C15.584 30.4592 20.056 34.9313 25.5726 34.9313Z" fill="white"/>
<path d="M25.8004 15.1826H25.3438V16.4954H25.8004V15.1826Z" fill="#5C5C5C"/>
<path d="M32.382 17.9588L31.373 18.9678L31.4941 19.0889L32.5031 18.0799L32.382 17.9588Z" fill="#5C5C5C"/>
<path d="M31.5918 30.8252L31.4707 30.9463L32.399 31.8746L32.5201 31.7535L31.5918 30.8252Z" fill="#5C5C5C"/>
<path d="M19.5044 30.8535L18.5762 31.7817L18.6973 31.9028L19.6255 30.9745L19.5044 30.8535Z" fill="#5C5C5C"/>
<path d="M18.709 17.9995L18.5879 18.1206L19.5162 19.0489L19.6372 18.9278L18.709 17.9995Z" fill="#5C5C5C"/>
<path d="M21.9594 15.8814L21.8008 15.9458L22.2943 17.1622L22.4529 17.0979L21.9594 15.8814Z" fill="#5C5C5C"/>
<path d="M16.5147 21.2453L16.4512 21.4043L17.7232 21.9128L17.7868 21.7538L16.5147 21.2453Z" fill="#5C5C5C"/>
<path d="M17.8186 28.3245L16.623 28.8667L16.6938 29.0226L17.8893 28.4805L17.8186 28.3245Z" fill="#5C5C5C"/>
<path d="M22.1148 32.6639L21.5898 33.8672L21.7468 33.9357L22.2718 32.7324L22.1148 32.6639Z" fill="#5C5C5C"/>
<path d="M29.059 32.6022L28.9023 32.6714L29.4324 33.8723L29.5891 33.8032L29.059 32.6022Z" fill="#5C5C5C"/>
<path d="M33.373 28.1302L33.3066 28.2881L34.5169 28.7967L34.5832 28.6388L33.373 28.1302Z" fill="#5C5C5C"/>
<path d="M34.4961 20.9573L33.2383 21.5L33.3061 21.6572L34.5639 21.1145L34.4961 20.9573Z" fill="#5C5C5C"/>
<path d="M29.4544 16.0117L28.916 17.209L29.0722 17.2792L29.6106 16.0819L29.4544 16.0117Z" fill="#5C5C5C"/>
<path d="M35.3898 24.6577H33.9629V25.1143H35.3898V24.6577Z" fill="#5C5C5C"/>
<path d="M25.859 33.2764H25.4023V34.7033H25.859V33.2764Z" fill="#5C5C5C"/>
<path d="M17.1253 24.7715H15.8125V25.2281H17.1253V24.7715Z" fill="#5C5C5C"/>
<path d="M32.2525 25.9132H30.0836C29.8553 25.9132 29.627 25.742 29.627 25.4566V24.315C29.627 24.0867 29.7982 23.8584 30.0836 23.8584H32.2525C32.4808 23.8584 32.7091 24.0296 32.7091 24.315V25.4566C32.7091 25.6849 32.5379 25.9132 32.2525 25.9132Z" fill="#5C5C5C"/>
<path d="M32.1941 25.7421H30.1964C29.9681 25.7421 29.7969 25.5708 29.7969 25.3425V24.3722C29.7969 24.1439 29.9681 23.9727 30.1964 23.9727H32.1371C32.3654 23.9727 32.5366 24.1439 32.5366 24.3722V25.3425C32.5366 25.5708 32.3654 25.7421 32.1941 25.7421Z" fill="#D9D9D9"/>
<path d="M32.0226 0H19.123V10.3881H32.0226V0Z" fill="#743D29"/>
<path d="M32.0226 39.5547H19.123V49.9428H32.0226V39.5547Z" fill="#743D29"/>
<path d="M25.5161 43.9497C25.8313 43.9497 26.0869 43.6941 26.0869 43.3789C26.0869 43.0637 25.8313 42.8081 25.5161 42.8081C25.2009 42.8081 24.9453 43.0637 24.9453 43.3789C24.9453 43.6941 25.2009 43.9497 25.5161 43.9497Z" fill="#45352F"/>
<path d="M25.5161 48.6875C25.8313 48.6875 26.0869 48.4319 26.0869 48.1167C26.0869 47.8014 25.8313 47.5459 25.5161 47.5459C25.2009 47.5459 24.9453 47.8014 24.9453 48.1167C24.9453 48.4319 25.2009 48.6875 25.5161 48.6875Z" fill="#45352F"/>
<path d="M25.6864 25H25.5723V34.6461H25.6864V25Z" fill="black"/>
<path d="M25.4019 24.4292L21.6348 21.1187L25.0023 24.7716C24.8882 24.9999 24.9453 25.2853 25.1165 25.4565C25.3448 25.6849 25.7444 25.6849 26.0297 25.4565C26.2581 25.2282 26.2581 24.8287 26.0297 24.5433C25.8585 24.3721 25.6302 24.315 25.4019 24.4292Z" fill="#404040"/>
<path d="M25.8586 24.7717C25.9728 24.8858 25.9728 25.1141 25.8586 25.2283C25.7445 25.3424 25.5162 25.3424 25.402 25.2283C25.2879 25.1141 25.2879 24.8858 25.402 24.7717C25.5162 24.6575 25.7445 24.6575 25.8586 24.7717Z" fill="#636363"/>
<path d="M26.2591 24.8858L33.3367 20.0342L25.9737 24.4862C25.7454 24.3721 25.5171 24.315 25.2888 24.4862C25.0034 24.6575 24.8892 25.057 25.1175 25.3424C25.2888 25.6278 25.6883 25.7419 25.9737 25.5136C26.202 25.3995 26.3162 25.1141 26.2591 24.8858Z" fill="#2E2E2E"/>
<path d="M25.8031 25.2283C25.6319 25.3425 25.4607 25.2854 25.3465 25.1142C25.2323 24.9429 25.2894 24.7717 25.4607 24.6575C25.6319 24.5434 25.8031 24.6005 25.9173 24.7717C25.9744 24.9429 25.9173 25.1712 25.8031 25.2283Z" fill="#636363"/>
<path d="M31.5667 24.3149V24.4291L31.053 25.4565H30.8817L31.3384 24.4862H30.7676V24.372H31.5667V24.3149Z" fill="black"/>
</g>
<defs>
<clipPath id="clip0">
<rect width="25.9132" height="50" fill="white" transform="translate(11.9316)"/>
</clipPath>
</defs>
</svg>
