<svg width="50" height="50" viewBox="0 0 50 50" fill="none" xmlns="http://www.w3.org/2000/svg">
<g clip-path="url(#clip0)">
<path d="M43.9816 4.5835H3.18945V40.8489H43.9816V4.5835Z" fill="#B5C0C4"/>
<path d="M38.2716 4.5835H0V40.8489H38.2716V4.5835Z" fill="white"/>
<path d="M37.3455 5.66357H0.925781V39.7685H37.3455V5.66357Z" fill="#212121"/>
<path d="M4.83321 5.81787C6.58219 5.81787 8.02252 7.2582 8.02252 9.00717V36.3734C8.02252 38.1224 6.58219 39.5627 4.83321 39.5627C3.95873 39.5627 3.13568 39.2026 2.56984 38.6368C2.004 38.071 1.64391 37.2479 1.64391 36.3734V9.00717C1.59247 7.2582 3.0328 5.81787 4.83321 5.81787Z" fill="#6B3F22"/>
<path d="M8.02313 9.52148V12.2478C7.40585 13.1223 6.11984 13.6882 4.62807 13.6882C3.3935 13.6882 2.31326 13.2766 1.64453 12.6593V9.93301C2.3647 10.5503 3.44494 10.9618 4.62807 10.9618C6.0684 11.0133 7.35441 10.396 8.02313 9.52148Z" fill="#F2BB78"/>
<path d="M8.02313 10.6533V11.6307C7.40585 12.5052 6.11984 13.071 4.62807 13.071C3.3935 13.071 2.31326 12.6595 1.64453 12.0422V11.0648C2.3647 11.6821 3.44494 12.0936 4.62807 12.0936C6.0684 12.1451 7.35441 11.5278 8.02313 10.6533Z" fill="#212121"/>
<path d="M4.83383 27.1142C5.96552 27.1142 7.04577 26.9084 8.02313 26.7026V29.1203C7.04577 29.3261 5.96552 29.5319 4.83383 29.5319C3.70214 29.5319 2.6219 29.2747 1.64453 29.1203V26.7026C2.57046 26.9084 3.6507 27.1142 4.83383 27.1142Z" fill="#212121"/>
<path d="M1.59375 27.2686V27.3714C2.57112 27.5258 3.65136 27.6801 4.78305 27.6801C5.91474 27.6801 6.99498 27.5258 7.97235 27.3714V27.2686C6.99498 27.4229 5.91474 27.5772 4.78305 27.5772C3.7028 27.5258 2.62256 27.4229 1.59375 27.2686ZM1.59375 28.606V28.7089C1.85095 28.7603 2.05671 28.8118 2.26247 28.8632C3.08552 29.0175 3.90856 29.1718 4.78305 29.1718C5.65754 29.1718 6.53202 29.0175 7.35507 28.8632C7.56083 28.8118 7.76659 28.7603 7.97235 28.7603V28.6574C7.76659 28.7089 7.56083 28.7089 7.35507 28.7603C6.53202 28.9146 5.65754 29.069 4.78305 29.069C3.90856 29.069 3.08552 28.9146 2.26247 28.7603C2.05671 28.7089 1.85095 28.6574 1.59375 28.606Z" fill="#FFA600"/>
<path d="M4.83501 24.1821C6.12101 24.1821 7.20126 25.9311 7.20126 28.143C7.20126 30.355 6.12101 32.1039 4.83501 32.1039C3.549 32.1039 2.46875 30.355 2.46875 28.143C2.46875 25.9311 3.49756 24.1821 4.83501 24.1821Z" fill="#212121"/>
<path d="M4.8343 31.6923C3.70261 31.6923 2.82812 30.1491 2.82812 28.143C2.82812 26.1368 3.65117 24.645 4.8343 24.645C5.96598 24.645 6.84047 26.1882 6.84047 28.1944C6.84047 30.2006 5.96598 31.6923 4.8343 31.6923ZM4.8343 25.1594C4.01125 25.1594 3.34253 26.5483 3.34253 28.1944C3.34253 29.8405 4.01125 31.2294 4.8343 31.2294C5.65734 31.2294 6.32607 29.8405 6.32607 28.1944C6.32607 26.5483 5.6059 25.1594 4.8343 25.1594Z" fill="#FFA600"/>
<path opacity="0.2" d="M2.82919 7.87566C2.88063 8.59582 2.93207 9.31598 2.82919 10.0876C2.77775 10.602 2.46911 11.1678 2.67487 11.6308C3.08639 12.8654 2.82919 14.1514 2.62343 15.3859C2.46911 16.4148 2.62343 17.3921 2.88063 18.4209C2.98351 19.0896 2.88063 19.7069 2.77775 20.3757C2.62343 21.2501 2.88063 22.1246 2.52055 22.9991C2.36623 23.3592 2.52055 23.8222 2.57199 24.2337C2.62343 24.7481 2.52055 25.2625 2.57199 25.7769C2.57199 26.0855 2.62343 26.3942 2.62343 26.7543C2.62343 26.8571 2.67487 26.96 2.72631 27.0629C2.82919 27.2687 2.46911 27.423 2.46911 27.5259C2.46911 28.8119 2.88063 30.0979 2.52055 31.3324C2.10903 33.0814 2.05759 34.8304 2.67487 36.425C2.72631 36.5279 2.72631 36.7337 2.67487 36.8366C2.46911 37.351 2.26335 37.9168 2.31479 38.4827C2.41767 38.5341 2.46911 38.5855 2.57199 38.637C2.93207 38.9971 3.34359 39.2543 3.80656 39.4086C4.3724 38.3798 4.68104 37.0423 4.06376 35.9621C4.1152 34.8304 3.90944 33.6473 4.52672 32.567C4.78392 32.1041 4.78392 31.5382 4.6296 30.9724C4.47528 30.5094 4.26952 30.0979 4.21808 29.5835C4.16664 29.2748 4.21808 28.9662 4.16664 28.6576C4.01232 27.6287 3.80656 26.5999 3.90944 25.5711C4.06376 24.1308 4.1152 22.7419 3.96088 21.3016C3.90944 20.53 3.75512 19.7584 3.96088 18.9868C4.26952 17.8036 4.06376 16.6205 3.70368 15.4374C3.70368 15.3345 3.70368 15.2316 3.75512 15.1287C3.80656 14.923 3.90944 14.7687 3.90944 14.5629C4.01232 14.2028 4.01232 13.7913 4.01232 13.4312C4.1152 11.425 3.75512 9.41887 4.52672 7.51557C4.52672 6.94973 4.42384 6.33245 4.21808 5.7666C3.65224 5.97236 3.13783 6.22956 2.72631 6.58965C2.72631 7.00117 2.77775 7.46413 2.82919 7.87566Z" fill="#EDF3F5"/>
<path opacity="0.2" d="M6.73799 8.44128C6.78943 8.49272 6.78943 8.5956 6.73799 8.64704C6.68655 8.80136 6.63511 8.95568 6.58367 9.11C6.48079 9.77873 6.42935 10.3446 6.22359 10.9619C6.01783 11.5277 6.22359 12.1964 6.32647 12.8137C6.37791 13.4824 6.68655 14.3055 6.06927 14.8713C5.96639 14.9742 6.32647 15.18 6.32647 15.3857C6.32647 16.6203 6.06927 17.8034 6.37791 19.038C6.42935 19.2437 6.68655 19.3981 6.63511 19.6038C6.63511 20.4269 6.78943 21.3528 6.22359 22.0215C6.17215 22.1244 6.22359 22.2787 6.22359 22.3816C6.27503 22.5359 6.37791 22.6903 6.42935 22.7931C6.58367 23.3075 6.73799 23.7705 6.89231 24.2849C6.94375 24.4907 6.94375 24.7479 6.89231 24.9536C6.78943 25.2623 6.68655 25.6223 6.68655 25.931C6.58367 27.217 6.58367 28.4001 6.42935 29.6861C6.42935 29.8919 6.37791 30.0977 6.42935 30.3034C6.53223 30.6635 6.58367 30.9721 6.63511 31.3322C6.73799 31.8981 6.58367 32.361 6.63511 32.9269C6.73799 34.573 7.40672 36.4248 6.17215 37.9166C5.91495 38.2252 6.12071 38.6882 6.32647 39.0997C7.35528 38.5853 8.024 37.5051 8.024 36.2705V9.00712C8.024 7.77256 7.30384 6.64087 6.22359 6.12646C6.06927 6.94951 6.17215 7.77256 6.73799 8.44128Z" fill="#242526"/>
<path d="M11.8299 5.81787C13.5789 5.81787 15.0192 7.2582 15.0192 9.00717V36.3734C15.0192 38.1224 13.5789 39.5627 11.8299 39.5627C10.9554 39.5627 10.1324 39.2026 9.56655 38.6368C9.00071 38.071 8.64062 37.2479 8.64062 36.3734V9.00717C8.64062 7.2582 10.081 5.81787 11.8299 5.81787Z" fill="#6B3F22"/>
<path d="M15.07 9.52148V12.2478C14.4527 13.1223 13.1667 13.6882 11.6749 13.6882C10.4404 13.6882 9.36013 13.2766 8.69141 12.6593V9.93301C9.41157 10.5503 10.4918 10.9618 11.6749 10.9618C13.1153 11.0133 14.4013 10.396 15.07 9.52148Z" fill="#F2BB78"/>
<path d="M15.07 10.6533V11.6307C14.4527 12.5052 13.1667 13.071 11.6749 13.071C10.4404 13.071 9.36013 12.6595 8.69141 12.0422V11.0648C9.41157 11.6821 10.4918 12.0936 11.6749 12.0936C13.1153 12.1451 14.4013 11.5278 15.07 10.6533Z" fill="#212121"/>
<path d="M11.8299 27.1142C12.9616 27.1142 14.0419 26.9084 15.0192 26.7026V29.1203C14.0419 29.3261 12.9616 29.5319 11.8299 29.5319C10.6982 29.5319 9.61799 29.2747 8.64062 29.1203V26.7026C9.61799 26.9084 10.6982 27.1142 11.8299 27.1142Z" fill="#212121"/>
<path d="M8.64062 27.2686V27.3714C9.61799 27.5258 10.6982 27.6801 11.8299 27.6801C12.9616 27.6801 14.0419 27.5258 15.0192 27.3714V27.2686C14.0419 27.4229 12.9616 27.5772 11.8299 27.5772C10.7497 27.5258 9.66943 27.4229 8.64062 27.2686ZM8.64062 28.606V28.7089C8.84639 28.7603 9.10359 28.8118 9.30935 28.8118C10.1324 28.9661 10.9554 29.1204 11.8299 29.1204C12.7044 29.1204 13.5789 28.9661 14.4019 28.8118C14.6077 28.7603 14.8135 28.7089 15.0192 28.7089V28.606C14.8135 28.6574 14.6077 28.6574 14.4019 28.7089C13.5789 28.8632 12.7044 29.0175 11.8299 29.0175C10.9554 29.0175 10.1324 28.8632 9.30935 28.7089C9.10359 28.7089 8.89783 28.6574 8.64062 28.606Z" fill="#FFA600"/>
<path d="M11.8311 24.1821C13.1171 24.1821 14.1974 25.9311 14.1974 28.143C14.1974 30.355 13.1685 32.1039 11.8311 32.1039C10.5451 32.1039 9.46484 30.355 9.46484 28.143C9.46484 25.9311 10.5451 24.1821 11.8311 24.1821Z" fill="#212121"/>
<path d="M11.8304 31.6923C10.6987 31.6923 9.82422 30.1491 9.82422 28.143C9.82422 26.1368 10.6987 24.645 11.8304 24.645C12.9621 24.645 13.8366 26.1882 13.8366 28.1944C13.8366 30.2006 13.0135 31.6923 11.8304 31.6923ZM11.8304 25.1594C11.0073 25.1594 10.3386 26.5483 10.3386 28.1944C10.3386 29.8405 11.0073 31.2294 11.8304 31.2294C12.6534 31.2294 13.3222 29.8405 13.3222 28.1944C13.3222 26.5483 12.6534 25.1594 11.8304 25.1594Z" fill="#FFA600"/>
<path opacity="0.2" d="M9.82333 7.87548C9.87477 8.59565 9.92621 9.31581 9.82333 10.0874C9.77189 10.6018 9.46325 11.1677 9.66901 11.6306C10.0805 12.8652 9.87477 14.1512 9.61757 15.3858C9.46325 16.4146 9.61757 17.3919 9.87477 18.4208C9.97765 19.0895 9.87477 19.7068 9.77189 20.3755C9.61757 21.25 9.87477 22.1245 9.51469 22.9989C9.36037 23.359 9.51469 23.822 9.56613 24.2335C9.61757 24.7479 9.51469 25.2623 9.56613 25.7767C9.56613 26.0854 9.61757 26.394 9.61757 26.7541C9.61757 26.857 9.66901 26.9599 9.72045 27.0627C9.82333 27.2685 9.46325 27.4228 9.46325 27.5257C9.46325 28.8117 9.87477 30.0977 9.51469 31.3323C9.10317 33.0813 9.05173 34.8302 9.66901 36.4249C9.72045 36.5278 9.72045 36.7335 9.66901 36.8364C9.46325 37.3508 9.25749 37.9166 9.30893 38.4825C9.36037 38.5339 9.41181 38.6368 9.46325 38.6882C9.82333 39.0483 10.2349 39.3055 10.6978 39.4599C11.2637 38.431 11.5723 37.0936 10.955 36.0133C11.0065 34.8817 10.8007 33.6985 11.418 32.6183C11.6752 32.1553 11.6752 31.5895 11.5209 31.0236C11.3665 30.5607 11.1608 30.1492 11.1093 29.6347C11.0579 29.3261 11.1093 29.0175 11.0579 28.7088C10.9036 27.68 10.6978 26.6512 10.8007 25.6224C10.955 24.1821 11.0065 22.7932 10.8521 21.3529C10.8007 20.5812 10.6464 19.8096 10.8521 19.038C11.1608 17.8549 10.955 16.6718 10.5949 15.4887C10.5949 15.3858 10.5949 15.2829 10.6464 15.18C10.6978 14.9743 10.8007 14.8199 10.8007 14.6142C10.9036 14.2541 10.9036 13.8426 10.9036 13.4825C11.0065 11.4763 10.6464 9.47014 11.418 7.56684C11.418 7.001 11.3151 6.38371 11.1093 5.81787C10.5435 5.92075 10.0291 6.17795 9.61757 6.53804C9.77189 7.001 9.82333 7.46396 9.82333 7.87548Z" fill="#EDF3F5"/>
<path opacity="0.2" d="M13.7849 8.44128C13.8363 8.49272 13.8363 8.5956 13.7849 8.64704C13.7334 8.80136 13.682 8.95568 13.6305 9.11C13.5277 9.77873 13.4762 10.3446 13.2705 10.9619C13.0647 11.5277 13.2705 12.1964 13.3733 12.8137C13.4248 13.4824 13.7334 14.3055 13.1161 14.8713C13.0133 14.9742 13.3733 15.18 13.3733 15.3857C13.3733 16.6203 13.1161 17.8034 13.4248 19.038C13.4762 19.2437 13.7334 19.3981 13.682 19.6038C13.682 20.4269 13.8363 21.3528 13.2705 22.0215C13.219 22.1244 13.2705 22.2787 13.2705 22.3816C13.3219 22.5359 13.4248 22.6903 13.4762 22.7931C13.6305 23.3075 13.7849 23.7705 13.9392 24.2849C13.9906 24.4907 13.9906 24.7479 13.9392 24.9536C13.8363 25.2623 13.7334 25.6223 13.7334 25.931C13.6305 27.217 13.6305 28.4001 13.4762 29.6861C13.4762 29.8919 13.4248 30.0977 13.4762 30.3034C13.5791 30.6635 13.6305 30.9721 13.682 31.3322C13.7849 31.8981 13.6305 32.361 13.682 32.9269C13.7849 34.573 14.4536 36.4248 13.219 37.9166C12.9618 38.2252 13.1676 38.6882 13.3733 39.0997C14.4022 38.5853 15.0709 37.5051 15.0709 36.2705V9.00712C15.0709 7.77256 14.3507 6.64087 13.2705 6.12646C13.1161 6.94951 13.219 7.77256 13.7849 8.44128Z" fill="#242526"/>
<path d="M18.8788 5.81787C20.6277 5.81787 22.0681 7.2582 22.0681 9.00717V36.3734C22.0681 38.1224 20.6277 39.5627 18.8788 39.5627C18.0043 39.5627 17.1812 39.2026 16.6154 38.6368C16.0495 38.071 15.6895 37.2479 15.6895 36.3734V9.00717C15.6895 7.2582 17.1298 5.81787 18.8788 5.81787Z" fill="#6B3F22"/>
<path d="M22.1188 9.52148V12.2478C21.5016 13.1223 20.2155 13.6882 18.7238 13.6882C17.4892 13.6882 16.409 13.2766 15.7402 12.6593V9.93301C16.4604 10.5503 17.5406 10.9618 18.7238 10.9618C20.1641 11.0133 21.4501 10.396 22.1188 9.52148Z" fill="#F2BB78"/>
<path d="M22.1188 10.6533V11.6307C21.5016 12.5052 20.2155 13.071 18.7238 13.071C17.4892 13.071 16.409 12.6595 15.7402 12.0422V11.0648C16.4604 11.6821 17.5406 12.0936 18.7238 12.0936C20.1641 12.1451 21.4501 11.5278 22.1188 10.6533Z" fill="#212121"/>
<path d="M18.8788 27.1142C20.0104 27.1142 21.0907 26.9084 22.0681 26.7026V29.1203C21.0907 29.3261 20.0104 29.5319 18.8788 29.5319C17.7471 29.5319 16.6668 29.2747 15.6895 29.1203V26.7026C16.6668 26.9084 17.7471 27.1142 18.8788 27.1142Z" fill="#212121"/>
<path d="M15.6895 27.2686V27.3714C16.6668 27.5258 17.7471 27.6801 18.8788 27.6801C20.0104 27.6801 21.0907 27.5258 22.0681 27.3714V27.2686C21.0907 27.4229 20.0104 27.5772 18.8788 27.5772C17.7985 27.5258 16.7183 27.4229 15.6895 27.2686ZM15.6895 28.606V28.7089C15.8952 28.7603 16.1524 28.8118 16.3582 28.8118C17.1812 28.9661 18.0043 29.1204 18.8788 29.1204C19.7532 29.1204 20.6277 28.9661 21.4508 28.8118C21.6565 28.7603 21.8623 28.7089 22.0681 28.7089V28.606C21.8623 28.6574 21.6565 28.6574 21.4508 28.7089C20.6277 28.8632 19.7532 29.0175 18.8788 29.0175C18.0043 29.0175 17.1812 28.8632 16.3582 28.7089C16.1524 28.7089 15.9467 28.6574 15.6895 28.606Z" fill="#FFA600"/>
<path d="M18.8799 24.1821C20.1659 24.1821 21.2462 25.9311 21.2462 28.143C21.2462 30.355 20.2174 32.1039 18.8799 32.1039C17.5939 32.1039 16.5137 30.355 16.5137 28.143C16.5137 25.9311 17.5939 24.1821 18.8799 24.1821Z" fill="#212121"/>
<path d="M18.8792 31.6925C17.7475 31.6925 16.873 30.1493 16.873 28.1431C16.873 26.137 17.7475 24.5938 18.8792 24.5938C20.0109 24.5938 20.8854 26.137 20.8854 28.1431C20.8854 30.1493 20.0623 31.6925 18.8792 31.6925ZM18.8792 25.1596C18.0562 25.1596 17.3875 26.5485 17.3875 28.1946C17.3875 29.8407 18.0562 31.2296 18.8792 31.2296C19.7023 31.2296 20.371 29.8407 20.371 28.1946C20.371 26.5485 19.7023 25.1596 18.8792 25.1596Z" fill="#FFA600"/>
<path opacity="0.2" d="M16.8722 7.87548C16.9236 8.59565 16.975 9.31581 16.8722 10.0874C16.8207 10.6018 16.5121 11.1677 16.7178 11.6306C17.1294 12.8652 16.9236 14.1512 16.6664 15.3858C16.5121 16.4146 16.6664 17.3919 16.9236 18.4208C17.0265 19.0895 16.9236 19.7068 16.8207 20.3755C16.6664 21.25 16.9236 22.1245 16.5635 22.9989C16.4092 23.359 16.5635 23.822 16.615 24.2335C16.6664 24.7479 16.5635 25.2623 16.615 25.7767C16.615 26.0854 16.6664 26.394 16.6664 26.7541C16.6664 26.857 16.7178 26.9599 16.7693 27.0627C16.8722 27.2685 16.5121 27.4228 16.5121 27.5257C16.5121 28.8117 16.9236 30.0977 16.5635 31.3323C16.152 33.0813 16.1006 34.8302 16.7178 36.4249C16.7693 36.5278 16.7693 36.7335 16.7178 36.8364C16.5121 37.3508 16.3063 37.9166 16.3578 38.4825C16.4092 38.5339 16.4606 38.6368 16.5121 38.6882C16.8722 39.0483 17.2837 39.3055 17.7466 39.4599C18.3125 38.431 18.6211 37.0936 18.0039 36.0133C18.0553 34.8817 17.8495 33.6985 18.4668 32.6183C18.724 32.1553 18.724 31.5895 18.5697 31.0236C18.4154 30.5607 18.2096 30.1492 18.1582 29.6347C18.1067 29.3261 18.1582 29.0175 18.1067 28.7088C17.9524 27.68 17.7466 26.6512 17.8495 25.6224C18.0039 24.1821 18.0553 22.7932 17.901 21.3529C17.8495 20.5812 17.6952 19.8096 17.901 19.038C18.2096 17.8549 18.0038 16.6718 17.6438 15.4887C17.6438 15.3858 17.6438 15.2829 17.6952 15.18C17.7466 14.9743 17.8495 14.8199 17.8495 14.6142C17.9524 14.2541 17.9524 13.8426 17.9524 13.4825C18.0553 11.4763 17.6952 9.47014 18.4668 7.56684C18.4668 7.001 18.3639 6.38371 18.1582 5.81787C17.5923 5.92075 17.0779 6.17795 16.6664 6.53804C16.8207 7.001 16.8722 7.46396 16.8722 7.87548Z" fill="#EDF3F5"/>
<path opacity="0.2" d="M20.8337 8.44128C20.8851 8.49272 20.8851 8.5956 20.8337 8.64704C20.7823 8.80136 20.7308 8.95568 20.6794 9.11C20.5765 9.77873 20.5251 10.3446 20.3193 10.9619C20.1135 11.5277 20.3193 12.1964 20.4222 12.8137C20.4736 13.4824 20.7823 14.3055 20.165 14.8713C20.0621 14.9742 20.4222 15.18 20.4222 15.3857C20.4222 16.6203 20.165 17.8034 20.4736 19.038C20.5251 19.2437 20.7823 19.3981 20.7308 19.6038C20.7308 20.4269 20.8851 21.3528 20.3193 22.0215C20.2679 22.1244 20.3193 22.2787 20.3193 22.3816C20.3707 22.5359 20.4736 22.6903 20.5251 22.7931C20.6794 23.3075 20.8337 23.7705 20.988 24.2849C21.0395 24.4907 21.0395 24.7479 20.988 24.9536C20.8851 25.2623 20.7823 25.6223 20.7823 25.931C20.6794 27.217 20.6794 28.4001 20.5251 29.6861C20.5251 29.8919 20.4736 30.0977 20.5251 30.3034C20.6279 30.6635 20.6794 30.9721 20.7308 31.3322C20.8337 31.8981 20.6794 32.361 20.7308 32.9269C20.8337 34.573 21.5024 36.4248 20.2679 37.9166C20.0106 38.2252 20.2164 38.6882 20.4222 39.0997C21.451 38.5853 22.1197 37.5051 22.1197 36.2705V9.00712C22.1197 7.77256 21.3995 6.64087 20.3193 6.12646C20.165 6.94951 20.2679 7.77256 20.8337 8.44128Z" fill="#242526"/>
<path d="M25.9256 5.81787C27.6746 5.81787 29.1149 7.2582 29.1149 9.00717V36.3734C29.1149 38.1224 27.6746 39.5627 25.9256 39.5627C25.0511 39.5627 24.2281 39.2026 23.6623 38.6368C23.0964 38.071 22.7363 37.2479 22.7363 36.3734V9.00717C22.7363 7.2582 24.1767 5.81787 25.9256 5.81787Z" fill="#6B3F22"/>
<path d="M29.1149 9.52148V12.2478C28.4976 13.1223 27.2116 13.6882 25.7199 13.6882C24.4853 13.6882 23.4051 13.2766 22.7363 12.6593V9.93301C23.4565 10.5503 24.5367 10.9618 25.7199 10.9618C27.2116 11.0133 28.4976 10.396 29.1149 9.52148Z" fill="#F2BB78"/>
<path d="M29.1149 10.6533V11.6307C28.4976 12.5052 27.2116 13.071 25.7199 13.071C24.4853 13.071 23.4051 12.6595 22.7363 12.0422V11.0648C23.4565 11.6821 24.5367 12.0936 25.7199 12.0936C27.2116 12.1451 28.4976 11.5278 29.1149 10.6533Z" fill="#212121"/>
<path d="M25.9256 27.1142C27.0573 27.1142 28.1376 26.9084 29.1149 26.7026V29.1203C28.1376 29.3261 27.0573 29.5319 25.9256 29.5319C24.7939 29.5319 23.7137 29.2747 22.7363 29.1203V26.7026C23.7137 26.9084 24.7939 27.1142 25.9256 27.1142Z" fill="#212121"/>
<path d="M22.7363 27.2686V27.3714C23.7137 27.5258 24.7939 27.6801 25.9256 27.6801C27.0573 27.6801 28.1376 27.5258 29.1149 27.3714V27.2686C28.1376 27.4229 27.0573 27.5772 25.9256 27.5772C24.8454 27.5258 23.7651 27.4229 22.7363 27.2686ZM22.7363 28.606V28.7089C22.9421 28.7603 23.1993 28.8118 23.4051 28.8118C24.2281 28.9661 25.0511 29.1204 25.9256 29.1204C26.8001 29.1204 27.6746 28.9661 28.4976 28.8118C28.7034 28.7603 28.9092 28.7089 29.1149 28.7089V28.606C28.9092 28.6574 28.7034 28.6574 28.4976 28.7089C27.6746 28.8632 26.8001 29.0175 25.9256 29.0175C25.0511 29.0175 24.2281 28.8632 23.4051 28.7089C23.1993 28.7089 22.9935 28.6574 22.7363 28.606Z" fill="#FFA600"/>
<path d="M25.9268 24.1821C27.2128 24.1821 28.2931 25.9311 28.2931 28.143C28.2931 30.355 27.2643 32.1039 25.9268 32.1039C24.6408 32.1039 23.5605 30.355 23.5605 28.143C23.5605 25.9311 24.6408 24.1821 25.9268 24.1821Z" fill="#212121"/>
<path d="M25.9261 31.6925C24.7944 31.6925 23.9199 30.1493 23.9199 28.1431C23.9199 26.137 24.7944 24.5938 25.9261 24.5938C27.0578 24.5938 27.9323 26.137 27.9323 28.1431C27.9323 30.1493 27.0578 31.6925 25.9261 31.6925ZM25.9261 25.1596C25.103 25.1596 24.4343 26.5485 24.4343 28.1946C24.4343 29.8407 25.103 31.2296 25.9261 31.2296C26.7491 31.2296 27.4179 29.8407 27.4179 28.1946C27.4179 26.5485 26.7491 25.1596 25.9261 25.1596Z" fill="#FFA600"/>
<path opacity="0.2" d="M23.919 7.87548C23.9705 8.59565 24.0219 9.31581 23.919 10.0874C23.8676 10.6018 23.559 11.1677 23.7647 11.6306C24.1762 12.8652 23.9705 14.1512 23.7133 15.3858C23.559 16.4146 23.7133 17.3919 23.9705 18.4208C24.0734 19.0895 23.9705 19.7068 23.8676 20.3755C23.7133 21.25 23.9705 22.1245 23.6104 22.9989C23.4561 23.359 23.6104 23.822 23.6618 24.2335C23.7133 24.7479 23.6104 25.2623 23.6618 25.7767C23.6618 26.0854 23.7133 26.394 23.7133 26.7541C23.7133 26.857 23.7647 26.9599 23.8162 27.0627C23.919 27.2685 23.559 27.4228 23.559 27.5257C23.559 28.8117 23.9705 30.0977 23.6104 31.3323C23.1989 33.0813 23.1474 34.8302 23.7647 36.4249C23.8162 36.5278 23.8162 36.7335 23.7647 36.8364C23.559 37.3508 23.3532 37.9166 23.4046 38.4825C23.4561 38.5339 23.5075 38.6368 23.559 38.6882C23.919 39.0483 24.3306 39.3055 24.7935 39.4599C25.3594 38.431 25.668 37.0936 25.0507 36.0133C25.1022 34.8817 24.8964 33.6985 25.5137 32.6183C25.7709 32.1553 25.7709 31.5895 25.6166 31.0236C25.4622 30.5607 25.2565 30.1492 25.205 29.6347C25.1536 29.3261 25.205 29.0175 25.1536 28.7088C24.9993 27.68 24.7935 26.6512 24.8964 25.6224C25.0507 24.1821 25.1022 22.7932 24.9478 21.3529C24.8964 20.5812 24.7421 19.8096 24.9478 19.038C25.2565 17.8549 25.0507 16.6718 24.6906 15.4887C24.6906 15.3858 24.6906 15.2829 24.7421 15.18C24.7935 14.9743 24.8964 14.8199 24.8964 14.6142C24.9993 14.2541 24.9993 13.8426 24.9993 13.4825C25.1022 11.4763 24.7421 9.47014 25.5137 7.56684C25.5137 7.001 25.4108 6.38371 25.205 5.81787C24.6392 5.92075 24.1248 6.17795 23.7133 6.53804C23.8676 7.001 23.919 7.46396 23.919 7.87548Z" fill="#EDF3F5"/>
<path opacity="0.2" d="M27.8806 8.44128C27.932 8.49272 27.932 8.5956 27.8806 8.64704C27.8291 8.80136 27.7777 8.95568 27.7262 9.11C27.6234 9.77873 27.5719 10.3446 27.3662 10.9619C27.1604 11.5277 27.3662 12.1964 27.469 12.8137C27.5205 13.4824 27.8291 14.3055 27.2118 14.8713C27.109 14.9742 27.469 15.18 27.469 15.3857C27.469 16.6203 27.2118 17.8034 27.5205 19.038C27.5719 19.2437 27.8291 19.3981 27.7777 19.6038C27.7777 20.4269 27.932 21.3528 27.3662 22.0215C27.3147 22.1244 27.3662 22.2787 27.3662 22.3816C27.4176 22.5359 27.5205 22.6903 27.5719 22.7931C27.7262 23.3075 27.8806 23.7705 28.0349 24.2849C28.0863 24.4907 28.0863 24.7479 28.0349 24.9536C27.932 25.2623 27.8291 25.6223 27.8291 25.931C27.7262 27.217 27.7262 28.4001 27.5719 29.6861C27.5719 29.8919 27.5205 30.0977 27.5719 30.3034C27.6748 30.6635 27.7262 30.9721 27.7777 31.3322C27.8806 31.8981 27.7262 32.361 27.7777 32.9269C27.8806 34.573 28.5493 36.4248 27.3147 37.9166C27.0575 38.2252 27.2633 38.6882 27.469 39.0997C28.4979 38.5853 29.1666 37.5051 29.1666 36.2705V9.00712C29.1666 7.77256 28.4464 6.64087 27.3662 6.12646C27.2118 6.94951 27.3147 7.77256 27.8806 8.44128Z" fill="#242526"/>
<path d="M32.9725 5.81787C34.7215 5.81787 36.1618 7.2582 36.1618 9.00717V36.3734C36.1618 38.1224 34.7215 39.5627 32.9725 39.5627C32.098 39.5627 31.275 39.2026 30.7091 38.6368C30.1433 38.071 29.7832 37.2479 29.7832 36.3734V9.00717C29.7832 7.2582 31.2235 5.81787 32.9725 5.81787Z" fill="#6B3F22"/>
<path d="M36.1618 9.52148V12.2478C35.5445 13.1223 34.2585 13.6882 32.7667 13.6882C31.5322 13.6882 30.4519 13.2766 29.7832 12.6593V9.93301C30.5034 10.5503 31.5836 10.9618 32.7667 10.9618C34.2585 11.0133 35.5445 10.396 36.1618 9.52148Z" fill="#F2BB78"/>
<path d="M36.1618 10.6533V11.6307C35.5445 12.5052 34.2585 13.071 32.7667 13.071C31.5322 13.071 30.4519 12.6595 29.7832 12.0422V11.0648C30.5034 11.6821 31.5836 12.0936 32.7667 12.0936C34.2585 12.1451 35.5445 11.5278 36.1618 10.6533Z" fill="#212121"/>
<path d="M32.9725 27.1142C34.1042 27.1142 35.1844 26.9084 36.1618 26.7026V29.1203C35.1844 29.3261 34.1042 29.5319 32.9725 29.5319C31.8408 29.5319 30.7606 29.2747 29.7832 29.1203V26.7026C30.7606 26.9084 31.8408 27.1142 32.9725 27.1142Z" fill="#212121"/>
<path d="M29.7832 27.2686V27.3714C30.7606 27.5258 31.8408 27.6801 32.9725 27.6801C34.1042 27.6801 35.1844 27.5258 36.1618 27.3714V27.2686C35.1844 27.4229 34.1042 27.5772 32.9725 27.5772C31.8923 27.5258 30.812 27.4229 29.7832 27.2686ZM29.7832 28.606V28.7089C29.989 28.7603 30.2462 28.8118 30.4519 28.8118C31.275 28.9661 32.098 29.1204 32.9725 29.1204C33.847 29.1204 34.7215 28.9661 35.5445 28.8118C35.7503 28.7603 35.956 28.7089 36.1618 28.7089V28.606C35.956 28.6574 35.7503 28.6574 35.5445 28.7089C34.7215 28.8632 33.847 29.0175 32.9725 29.0175C32.098 29.0175 31.275 28.8632 30.4519 28.7089C30.2462 28.7089 30.0404 28.6574 29.7832 28.606Z" fill="#FFA600"/>
<path d="M32.9737 24.1821C34.2597 24.1821 35.3399 25.9311 35.3399 28.143C35.3399 30.355 34.3111 32.1039 32.9737 32.1039C31.6877 32.1039 30.6074 30.355 30.6074 28.143C30.6074 25.9311 31.6877 24.1821 32.9737 24.1821Z" fill="#212121"/>
<path d="M32.973 31.6925C31.8413 31.6925 30.9668 30.1493 30.9668 28.1431C30.9668 26.137 31.8413 24.5938 32.973 24.5938C34.1047 24.5938 34.9791 26.137 34.9791 28.1431C34.9791 30.1493 34.1047 31.6925 32.973 31.6925ZM32.973 25.1596C32.1499 25.1596 31.4812 26.5485 31.4812 28.1946C31.4812 29.8407 32.1499 31.2296 32.973 31.2296C33.796 31.2296 34.4647 29.8407 34.4647 28.1946C34.4647 26.5485 33.796 25.1596 32.973 25.1596Z" fill="#FFA600"/>
<path opacity="0.2" d="M30.9659 7.87548C31.0174 8.59565 31.0688 9.31581 30.9659 10.0874C30.9145 10.6018 30.6058 11.1677 30.8116 11.6306C31.2231 12.8652 31.0173 14.1512 30.7601 15.3858C30.6058 16.4146 30.7601 17.3919 31.0173 18.4208C31.1202 19.0895 31.0173 19.7068 30.9145 20.3755C30.7601 21.25 31.0173 22.1245 30.6573 22.9989C30.5029 23.359 30.6573 23.822 30.7087 24.2335C30.7601 24.7479 30.6573 25.2623 30.7087 25.7767C30.7087 26.0854 30.7601 26.394 30.7601 26.7541C30.7601 26.857 30.8116 26.9599 30.863 27.0627C30.9659 27.2685 30.6058 27.4228 30.6058 27.5257C30.6058 28.8117 31.0173 30.0977 30.6573 31.3323C30.2457 33.0813 30.1943 34.8302 30.8116 36.4249C30.863 36.5278 30.863 36.7335 30.8116 36.8364C30.6058 37.3508 30.4001 37.9166 30.4515 38.4825C30.5029 38.5339 30.5544 38.6368 30.6058 38.6882C30.9659 39.0483 31.3774 39.3055 31.8404 39.4599C32.4062 38.431 32.7149 37.0936 32.0976 36.0133C32.149 34.8817 31.9433 33.6985 32.5606 32.6183C32.8178 32.1553 32.8178 31.5895 32.6634 31.0236C32.5091 30.5607 32.3034 30.1492 32.2519 29.6347C32.2005 29.3261 32.2519 29.0175 32.2005 28.7088C32.0462 27.68 31.8404 26.6512 31.9433 25.6224C32.0976 24.1821 32.149 22.7932 31.9947 21.3529C31.9433 20.5812 31.789 19.8096 31.9947 19.038C32.3034 17.8549 32.0976 16.6718 31.7375 15.4887C31.7375 15.3858 31.7375 15.2829 31.789 15.18C31.8404 14.9743 31.9433 14.8199 31.9433 14.6142C32.0462 14.2541 32.0462 13.8426 32.0462 13.4825C32.149 11.4763 31.789 9.47014 32.5606 7.56684C32.5606 7.001 32.4577 6.38371 32.2519 5.81787C31.6861 5.92075 31.1717 6.17795 30.7601 6.53804C30.9145 7.001 30.9659 7.46396 30.9659 7.87548Z" fill="#EDF3F5"/>
<path opacity="0.2" d="M34.9274 8.44128C34.9789 8.49272 34.9789 8.5956 34.9274 8.64704C34.876 8.80136 34.8246 8.95568 34.7731 9.11C34.6702 9.77873 34.6188 10.3446 34.413 10.9619C34.2073 11.5277 34.413 12.1964 34.5159 12.8137C34.5674 13.4824 34.876 14.3055 34.2587 14.8713C34.1558 14.9742 34.5159 15.18 34.5159 15.3857C34.5159 16.6203 34.2587 17.8034 34.5674 19.038C34.6188 19.2437 34.876 19.3981 34.8246 19.6038C34.8246 20.4269 34.9789 21.3528 34.413 22.0215C34.3616 22.1244 34.413 22.2787 34.413 22.3816C34.4645 22.5359 34.5674 22.6903 34.6188 22.7931C34.7731 23.3075 34.9274 23.7705 35.0818 24.2849C35.1332 24.4907 35.1332 24.7479 35.0818 24.9536C34.9789 25.2623 34.876 25.6223 34.876 25.931C34.7731 27.217 34.7731 28.4001 34.6188 29.6861C34.6188 29.8919 34.5674 30.0977 34.6188 30.3034C34.7217 30.6635 34.7731 30.9721 34.8246 31.3322C34.9274 31.8981 34.7731 32.361 34.8246 32.9269C34.9274 34.573 35.5962 36.4248 34.3616 37.9166C34.1044 38.2252 34.3102 38.6882 34.5159 39.0997C35.5447 38.5853 36.2135 37.5051 36.2135 36.2705V9.00712C36.2135 7.77256 35.4933 6.64087 34.413 6.12646C34.2587 6.94951 34.3616 7.77256 34.9274 8.44128Z" fill="#242526"/>
<path d="M47.4293 38.8431V45.9933H19.9602C18.5713 45.9933 17.3882 45.2217 16.7709 44.0386C16.7709 43.9871 16.7194 43.9871 16.7194 43.9357C16.7194 43.8843 16.668 43.8843 16.668 43.8328C16.668 43.8328 16.668 43.8328 16.668 43.7814C16.668 43.7299 16.6166 43.7299 16.6166 43.6785C16.6166 43.6271 16.5651 43.5242 16.5651 43.4727C16.5651 43.4213 16.5651 43.4213 16.5137 43.3699V43.3184V43.267V43.2155C16.5137 43.1641 16.5137 43.1641 16.5137 43.1127C16.5137 43.0612 16.5137 43.0612 16.5137 43.0098V42.9583V42.9069V42.8555V42.804C16.5137 42.804 16.5137 42.804 16.5137 42.7526C16.5137 42.7526 16.5137 42.7526 16.5137 42.7011V42.6497C16.5137 42.5983 16.5137 42.5468 16.5137 42.4954V42.4439C16.5137 42.4439 16.5137 42.4439 16.5137 42.3925C16.5137 42.3925 16.5137 42.3925 16.5137 42.3411V42.2896C16.5137 41.981 16.5651 41.6723 16.6166 41.4151C16.8223 40.695 17.1824 40.0777 17.6968 39.6147C18.3141 39.0489 19.1371 38.7402 20.0631 38.7402H47.4293V38.8431Z" fill="#905833"/>
<path opacity="0.2" d="M43.3121 43.7295C42.7462 44.0896 42.2318 44.5012 41.5117 44.604C40.6886 44.7584 40.0199 44.1925 39.2997 43.8839C39.0425 43.781 38.7853 44.0382 38.5281 43.8324C38.2195 43.5238 37.808 43.4209 37.3964 43.3695C36.3676 43.2666 35.3388 43.4209 34.31 43.1637C33.4355 42.9579 32.6125 43.2666 31.738 43.318C31.6351 43.318 31.4808 43.3695 31.4294 43.4723C30.8121 44.1411 29.989 43.8324 29.3718 43.4723C29.2689 43.4209 29.166 43.4209 29.0631 43.4723C28.7545 43.6781 28.6001 44.0382 28.2915 44.0382C27.5713 44.0896 26.9026 44.1925 26.2339 44.3468C25.6166 44.5012 25.1022 44.2439 24.5364 44.0896C23.9191 43.8839 23.1989 43.3695 22.736 43.6267C22.0672 43.9867 21.4499 43.8324 20.7812 43.781C20.3183 44.4497 19.4438 44.4497 18.7236 44.2954C18.1063 44.1411 17.489 44.0896 16.8203 44.1925C17.4376 45.2728 18.5693 45.9929 19.9067 45.9929H43.8779C43.6207 45.53 43.415 45.0156 43.2606 44.4497C43.2606 44.1925 43.3121 43.9867 43.3121 43.7295Z" fill="#242526"/>
<path opacity="0.2" d="M44.2902 39.4084C43.8786 39.4598 43.4671 39.5113 43.107 39.5627C42.7469 39.6656 42.4383 39.9228 42.0268 40.0257C41.6667 40.0771 41.4095 39.8199 41.1523 39.7685C40.2778 39.4598 39.1461 40.0257 38.2202 39.6656C37.6544 39.4598 36.8827 39.8199 36.214 39.717C36.0597 39.6656 35.9054 39.6141 35.7511 39.6656C35.0823 39.9228 34.3622 39.8713 33.6934 39.6656C33.2305 39.5113 32.6646 39.5627 32.1502 39.6656C31.9959 39.717 31.7902 39.8199 31.5844 39.8199C30.7099 39.9742 29.9383 39.9228 29.1153 40.18C28.498 40.3343 27.9836 39.717 27.4692 39.6141C25.926 39.3569 24.3313 39.3569 22.7881 39.8199C22.3766 39.9742 22.0679 39.6656 21.6564 39.717C21.2449 39.8199 20.8848 40.0257 20.4733 39.8713C20.0618 39.7685 19.6502 39.5627 19.2387 39.717C18.8786 39.8199 18.57 39.9742 18.1585 40.0771C17.7984 40.18 17.3869 40.18 17.0268 40.2829C16.821 40.5915 16.6153 41.003 16.5124 41.4145C16.5124 41.5174 16.4609 41.6203 16.4609 41.7232C17.4383 41.8261 18.4157 41.7232 19.3416 41.2602C19.5988 41.1059 19.9074 41.3117 20.2161 41.3631C20.7819 41.466 21.2963 41.3117 21.8622 41.5174C22.2223 41.6203 22.6338 41.8261 22.9939 41.6717C23.9198 41.3117 24.8972 40.8487 25.926 41.0545C27.1091 41.3117 28.1893 41.7746 29.3725 41.6717C30.4527 41.5689 31.4301 40.6429 32.6132 40.9516C33.179 41.1059 33.7449 41.0545 34.3107 40.9001C35.1852 40.7458 36.0083 40.9001 36.8313 40.7458C37.3972 41.466 38.3231 41.2088 39.1461 41.1059C40.3292 41.003 41.4609 41.2602 42.6441 41.2088C43.107 41.1573 43.5185 41.003 44.033 40.9516C44.3416 40.9001 44.5988 40.7973 44.856 40.7973C45.7819 40.7973 46.6564 41.1573 47.5309 41.1573V39.5627C46.3478 39.3569 45.319 39.3055 44.2902 39.4084Z" fill="#EDF3F5"/>
<path d="M19.1885 39.8203C19.6 39.666 20.0115 39.9232 20.4231 39.9746C20.8346 40.0775 21.2461 39.8717 21.6062 39.8203C22.0177 39.7688 22.3264 40.0775 22.7379 39.9232C24.2811 39.4602 25.8243 39.4602 27.4189 39.7174C27.9848 39.8203 28.4478 40.4376 29.065 40.2833C29.8881 40.026 30.6597 40.0775 31.5342 39.9232C31.7399 39.8717 31.8943 39.7688 32.1 39.7688C32.6659 39.666 33.1803 39.6145 33.6432 39.7688C34.3634 39.9746 35.0321 40.026 35.7008 39.7688C35.8552 39.7174 36.0095 39.7688 36.1638 39.8203C36.8325 39.9232 37.6041 39.5116 38.17 39.7688C39.0959 40.1289 40.2276 39.5631 41.1021 39.8717C41.3593 39.9232 41.6165 40.1804 41.9766 40.1289C42.3881 40.026 42.6453 39.7174 43.0568 39.666C43.4683 39.5631 43.8799 39.5116 44.2399 39.5116C45.3202 39.4088 46.349 39.4602 47.4292 39.666V38.9458H19.9601C19.0856 38.9458 18.2111 39.2544 17.5938 39.8203C17.3881 40.026 17.1823 40.2318 16.9766 40.489C17.3366 40.3861 17.7482 40.3861 18.1083 40.2833C18.5198 40.0775 18.8799 39.9746 19.1885 39.8203Z" fill="#905833"/>
<path d="M34.7733 45.9415H29.835C28.4461 45.9415 27.3145 44.3469 27.3145 42.3922C27.3145 40.4374 28.4461 38.8428 29.835 38.8428H34.7733C33.3844 38.8428 32.2527 40.4374 32.2527 42.3922C32.2013 44.3469 33.333 45.9415 34.7733 45.9415Z" fill="#212121"/>
<path d="M35.3913 39.4601C35.3913 40.0259 34.6712 40.5403 33.5909 40.8489C32.8708 41.0547 31.9448 41.1576 31.0189 41.1576C30.0415 41.1576 29.1671 41.0547 28.4469 40.8489C27.3666 40.5403 26.6465 40.0259 26.6465 39.4601C26.6465 39.2543 26.7494 39.0485 26.9551 38.8428H35.1856C35.2885 38.9971 35.3913 39.2543 35.3913 39.4601Z" fill="#212121"/>
<path d="M34.5681 39.2029C34.5681 39.6658 34.0023 40.0773 33.1278 40.3345C32.562 40.4889 31.8418 40.5917 31.0702 40.5917C30.2986 40.5917 29.5784 40.4889 29.0126 40.3345C28.1381 40.0773 27.5723 39.6658 27.5723 39.2029C27.5723 39.0485 27.6237 38.9457 27.7266 38.8428H34.5681C34.5167 38.9457 34.5681 39.0485 34.5681 39.2029Z" fill="#FFA600"/>
<path d="M47.4286 38.8428V45.993H44.3936C43.0047 45.993 41.873 44.3983 41.873 42.4436C41.873 40.4889 43.0047 38.8942 44.3936 38.8942H47.4286V38.8428Z" fill="#6E6E6E"/>
<path d="M47.7892 38.8429C47.6863 38.8429 47.5835 38.7915 47.4806 38.7915H46.3489C46.2975 38.8429 46.1946 38.8944 46.1431 38.9458C45.9374 39.1001 45.7316 39.3059 45.5259 39.5117L45.4744 39.5631H45.423C45.3715 39.5631 45.3715 39.5631 45.3201 39.5631C45.1658 39.6145 45.0114 39.666 44.9086 39.8203C44.7542 40.0261 44.8057 40.3862 44.8057 40.6434C44.8057 40.6948 44.8057 40.9006 44.8571 40.952C44.8571 41.0034 44.8571 41.0034 44.8571 41.0549V41.1063C44.6514 41.3635 44.5999 41.7236 44.6514 42.0322C44.6514 42.1351 44.7542 42.238 44.8057 42.3409C44.8571 42.3923 44.8571 42.4438 44.8571 42.4438V42.4952C44.8057 42.8038 44.7028 43.061 44.7028 43.3697C44.7028 43.6783 44.8057 43.8841 45.0114 44.0384C45.0629 44.0899 45.0629 44.0899 45.1143 44.1413V44.1927C45.1143 44.1927 45.1143 44.2442 45.1658 44.2442C45.2172 44.3471 45.2686 44.4499 45.2686 44.5528C45.3715 44.7586 45.4744 45.0158 45.6287 45.1701C45.8345 45.3759 46.1431 45.4787 46.4518 45.5816C46.4518 45.5816 46.4518 45.5816 46.5032 45.5816C46.5547 45.5816 46.5547 45.6331 46.6061 45.6331C46.6061 45.6331 46.6575 45.6331 46.6575 45.6845H47.5835C47.6863 45.6845 47.8407 45.6845 47.9435 45.6331C49.1781 45.3759 50.1555 43.8841 50.1555 42.0837C50.0012 40.5919 49.0238 39.1001 47.7892 38.8429Z" fill="#212121"/>
<path d="M45.4212 45.9417H43.055C42.9521 45.8902 42.8492 45.7873 42.7978 45.6845C42.6949 45.5301 42.592 45.3758 42.5406 45.1701C42.5406 45.1186 42.4891 45.0157 42.4891 44.9643C42.4891 44.9129 42.4891 44.9129 42.4377 44.8614C42.3863 44.7585 42.3863 44.7071 42.3348 44.6042C42.3348 44.6042 42.2834 44.5528 42.2834 44.5013C42.2319 44.4499 42.2319 44.4499 42.1805 44.3985C42.1805 44.3985 42.0776 44.2956 42.1291 44.347L42.0776 44.2956C42.0262 44.2441 41.9747 44.2441 41.9233 44.1927C41.769 44.0898 41.6661 43.9355 41.6147 43.7812C41.5632 43.6268 41.6147 43.4725 41.6147 43.3182C41.6147 43.2668 41.6661 43.1639 41.6661 43.1124C41.6661 43.061 41.6661 43.061 41.6661 43.0096C41.6661 42.9581 41.6661 42.8552 41.6661 42.8038C41.6661 42.8038 41.6661 42.7009 41.6661 42.7524C41.6661 42.7009 41.6661 42.7009 41.6661 42.6495C41.6147 42.3408 41.6147 41.9808 41.7175 41.6721C41.769 41.5178 41.8204 41.312 41.9233 41.2092C41.9747 41.1063 42.0776 41.0034 42.1291 40.9005C42.1291 40.9005 42.1291 40.8491 42.1805 40.8491C42.1805 40.8491 42.1805 40.7462 42.1805 40.7976C42.1805 40.7462 42.1805 40.6947 42.1805 40.6433C42.1805 40.489 42.1805 40.3861 42.2319 40.2318C42.3863 39.9231 42.6435 39.7688 42.9007 39.5631C43.1064 39.4087 43.2607 39.203 43.4665 39.1001H44.4953C44.4953 39.1001 44.4953 39.1515 44.4439 39.1515C44.341 39.2544 44.2381 39.2544 44.0838 39.3059C43.9809 39.3573 43.878 39.4087 43.7752 39.5116C43.6723 39.6145 43.5694 39.7688 43.4151 39.8717C43.3122 39.9746 43.2093 40.0775 43.055 40.1803C43.0035 40.2318 42.9521 40.2832 42.8492 40.3347C42.7978 40.3861 42.7463 40.4375 42.7463 40.4375V40.489C42.7463 40.5404 42.7463 40.5919 42.7463 40.6433C42.7463 40.9519 42.592 41.2092 42.4377 41.4664L42.3863 41.5692C42.3863 41.6207 42.3348 41.6207 42.3348 41.6721C42.3348 41.7236 42.2834 41.8264 42.2834 41.8779C42.2834 41.8779 42.2834 41.9293 42.2834 41.9808V42.0322C42.2834 42.0836 42.2834 42.1865 42.2834 42.238V42.2894C42.2834 42.2894 42.2834 42.2894 42.2834 42.3408C42.2834 42.3923 42.2834 42.3923 42.2834 42.4437C42.2834 42.4952 42.3348 42.598 42.3348 42.6495C42.3348 42.8038 42.3863 43.0096 42.3863 43.1639C42.3863 43.3182 42.3348 43.524 42.2834 43.6783L42.3348 43.7297C42.3348 43.7297 42.3348 43.7297 42.3863 43.7297C42.4377 43.7812 42.4891 43.7812 42.5406 43.8326C42.6435 43.9355 42.7463 44.0384 42.8492 44.1413C43.055 44.3985 43.1579 44.6557 43.2607 44.9643C43.2607 44.9643 43.2607 45.0157 43.3122 45.0157C43.3122 45.0672 43.3636 45.1186 43.3636 45.1701C43.3636 45.1701 43.3636 45.2215 43.4151 45.2215L43.4665 45.2729L43.518 45.3244H43.5694C43.6208 45.3758 43.7237 45.3758 43.7752 45.4273C43.9295 45.4787 44.0324 45.5301 44.1867 45.5816C44.2896 45.633 44.341 45.633 44.4439 45.633H44.4953H44.5468C44.6496 45.633 44.7525 45.633 44.8554 45.633C45.0612 45.5816 45.2155 45.6845 45.3184 45.8388C45.3698 45.8902 45.3698 45.9417 45.4212 45.9417C45.3698 45.9417 45.3698 45.9417 45.4212 45.9417Z" fill="#212121"/>
<path d="M44.958 38.8431C44.958 38.946 44.958 39.0489 44.9066 39.1003C44.8037 39.3061 44.5979 39.409 44.3922 39.4604C44.135 39.5633 43.9806 39.7176 43.8263 39.9234C43.7234 40.1291 43.6206 40.3349 43.5177 40.5921C43.4148 40.7978 43.2605 41.0036 43.1576 41.2094C43.1062 41.3637 43.0547 41.4666 43.0547 41.6209C43.1061 41.7238 43.1062 41.8781 43.1576 41.981C43.209 42.2382 42.9518 42.5983 43.1062 42.8555C43.209 43.0612 43.3119 43.267 43.5177 43.4213C43.6206 43.5242 43.4662 43.6271 43.3634 43.5242C43.209 43.3699 43.0547 43.1127 42.9518 42.9069C42.9004 42.7526 42.9004 42.6497 42.9004 42.4954C42.9518 42.3411 43.0033 42.1867 43.0033 41.981C43.0033 41.6723 42.8489 41.4666 42.9518 41.1579C43.0547 40.9007 43.2605 40.695 43.3634 40.4378C43.5691 39.9748 43.7234 39.4604 44.2378 39.2546C44.3407 39.2032 44.495 39.1518 44.5979 39.1003C44.7008 39.0489 44.7522 38.946 44.7522 38.7917V38.7402H44.958V38.8431Z" fill="#212121"/>
<path d="M45.7814 45.9418H45.5242C45.4728 45.7875 45.3699 45.6332 45.2156 45.4788C45.0098 45.2731 44.804 45.0159 44.5983 44.8616C44.3925 44.7072 44.0839 44.6044 43.8781 44.3986C43.7238 44.2443 43.7238 43.9871 43.7238 43.7299C43.7752 43.4212 43.8781 43.0097 43.7238 42.7011C43.6209 42.4439 43.4666 42.1867 43.518 41.9295C43.5695 41.7751 43.6724 41.6208 43.7238 41.5179C43.8267 41.3636 43.8781 41.2093 43.9296 41.055C43.981 40.9007 44.0324 40.6949 44.0839 40.5406C44.1353 40.3863 44.2382 40.2834 44.3411 40.1805C44.3925 40.129 44.444 40.1805 44.444 40.2319C44.3925 40.3863 44.2896 40.5406 44.1868 40.6949C44.1353 40.8492 44.0839 41.0035 44.0324 41.2093C43.981 41.3636 43.9296 41.5179 43.8267 41.6723C43.7238 41.8266 43.6209 41.9809 43.6209 42.1352C43.6209 42.2895 43.7752 42.3924 43.8267 42.5467C43.8781 42.7011 43.9296 42.8039 43.981 42.9583C44.0324 43.2669 43.9296 43.5756 43.9296 43.8328C43.9296 43.9356 43.9296 44.1414 43.981 44.2443C44.0839 44.3472 44.1868 44.3986 44.2896 44.45C44.5468 44.6044 44.7526 44.7072 44.9584 44.913C45.3699 45.1702 45.6785 45.5303 45.7814 45.9418Z" fill="#212121"/>
</g>
<defs>
<clipPath id="clip0">
<rect width="50" height="41.5123" fill="white" transform="translate(0 4.5835)"/>
</clipPath>
</defs>
</svg>
