<svg width="50" height="50" viewBox="0 0 50 50" fill="none" xmlns="http://www.w3.org/2000/svg">
<g clip-path="url(#clip0)">
<path fill-rule="evenodd" clip-rule="evenodd" d="M5.44471 46.353H24.5525C24.7115 46.353 24.8175 46.485 24.8175 46.6435V47.4356C24.8175 47.594 24.685 47.726 24.5525 47.726H5.44471C5.28569 47.726 5.17969 47.594 5.17969 47.4356V46.6435C5.17969 46.485 5.28569 46.353 5.44471 46.353Z" fill="#5B5959"/>
<path fill-rule="evenodd" clip-rule="evenodd" d="M4.57155 36.6099H25.4284C25.879 36.6099 26.25 36.9795 26.25 37.4548V45.508C26.25 45.9833 25.879 46.3529 25.4284 46.3529H4.57155C4.12102 46.3529 3.75 45.9833 3.75 45.508V37.4548C3.75 36.9795 4.12102 36.6099 4.57155 36.6099Z" fill="#C0BCBB"/>
<path fill-rule="evenodd" clip-rule="evenodd" d="M8.59877 36.6099H21.3991V31.1707C21.3991 30.8803 21.1606 30.6162 20.8426 30.6162H9.1288C8.83728 30.6162 8.57227 30.8803 8.57227 31.1707V36.6099H8.59877Z" fill="#1A1A1A"/>
<path d="M19.9153 32.9131H10.0566V36.6096H19.9153V32.9131Z" fill="white"/>
<path fill-rule="evenodd" clip-rule="evenodd" d="M5.49912 46.3529V36.6099H4.57155C4.12102 36.6099 3.75 36.9795 3.75 37.4548V45.508C3.75 45.9833 4.12102 46.3529 4.57155 46.3529H5.49912Z" fill="#41403F"/>
<path fill-rule="evenodd" clip-rule="evenodd" d="M24.5 36.6099V46.3529H25.4276C25.8781 46.3529 26.2491 45.9833 26.2491 45.508V37.4548C26.2491 36.9795 25.8781 36.6099 25.4276 36.6099H24.5Z" fill="#41403F"/>
<path d="M21.4 43.0259H8.59961V46.3528H21.4V43.0259Z" fill="#1A1A1A"/>
<path d="M19.9153 43.0259H10.0566V47.3033H19.9153V43.0259Z" fill="white"/>
<path d="M24.4753 36.9795H5.5V37.4548H24.4753V36.9795Z" fill="#D5D0CF"/>
<path d="M24.4753 37.4551H5.5V37.9303H24.4753V37.4551Z" fill="#EAE5E4"/>
<path d="M24.4753 37.9302H5.5V38.4054H24.4753V37.9302Z" fill="#D5D0CF"/>
<path d="M5.49912 37.4551H3.75V37.9303H5.49912V37.4551Z" fill="#747171"/>
<path d="M5.49912 37.9302H3.75V38.4054H5.49912V37.9302Z" fill="#5B5959"/>
<path fill-rule="evenodd" clip-rule="evenodd" d="M3.75 37.4548H5.49912V36.9795H3.90901C3.803 37.1115 3.75 37.2699 3.75 37.4548Z" fill="#5B5959"/>
<path fill-rule="evenodd" clip-rule="evenodd" d="M24.5 36.9795V37.4548H26.2491C26.2491 37.2699 26.1961 37.1115 26.0901 36.9795H24.5Z" fill="#5B5959"/>
<path d="M26.2491 37.9302H24.5V38.4054H26.2491V37.9302Z" fill="#5B5959"/>
<path d="M17.0018 39.4087H13V40.016H17.0018V39.4087Z" fill="#A7A3A2"/>
<path d="M19.1466 43.3428H10.8516V43.4748H19.1466V43.3428Z" fill="#D5D0CF"/>
<path d="M19.1466 43.6069H10.8516V43.739H19.1466V43.6069Z" fill="#D5D0CF"/>
<path d="M19.1466 43.8975H10.8516V44.0295H19.1466V43.8975Z" fill="#D5D0CF"/>
<path d="M19.1466 44.1616H10.8516V44.2936H19.1466V44.1616Z" fill="#D5D0CF"/>
<path d="M19.1466 44.4253H10.8516V44.5573H19.1466V44.4253Z" fill="#D5D0CF"/>
<path d="M19.1466 44.7158H10.8516V44.8478H19.1466V44.7158Z" fill="#D5D0CF"/>
<path d="M19.1466 45.0063H10.8516V45.1384H19.1466V45.0063Z" fill="#D5D0CF"/>
<path d="M19.1466 45.2969H10.8516V45.4289H19.1466V45.2969Z" fill="#D5D0CF"/>
<path d="M19.1466 45.5605H10.8516V45.6926H19.1466V45.5605Z" fill="#D5D0CF"/>
<path d="M19.1466 45.8247H10.8516V45.9567H19.1466V45.8247Z" fill="#D5D0CF"/>
<path d="M19.1466 46.1152H10.8516V46.2473H19.1466V46.1152Z" fill="#D5D0CF"/>
<path d="M19.1466 46.3794H10.8516V46.5114H19.1466V46.3794Z" fill="#D5D0CF"/>
<path fill-rule="evenodd" clip-rule="evenodd" d="M24.8454 43.1582H25.9055C25.985 43.1582 26.038 43.211 26.038 43.2902V43.4751C26.038 43.5543 25.985 43.6071 25.9055 43.6071H24.8454C24.7659 43.6071 24.7129 43.5543 24.7129 43.4751V43.2902C24.7129 43.211 24.7659 43.1582 24.8454 43.1582Z" fill="#C0BCBB"/>
<path fill-rule="evenodd" clip-rule="evenodd" d="M24.8454 43.9238H25.9055C25.985 43.9238 26.038 43.9766 26.038 44.0558V44.2407C26.038 44.3199 25.985 44.3727 25.9055 44.3727H24.8454C24.7659 44.3727 24.7129 44.3199 24.7129 44.2407V44.0558C24.7129 44.003 24.7659 43.9238 24.8454 43.9238Z" fill="#C0BCBB"/>
<path fill-rule="evenodd" clip-rule="evenodd" d="M4.09345 43.1582H5.15352C5.23302 43.1582 5.28603 43.211 5.28603 43.2902V43.4751C5.28603 43.5543 5.23302 43.6071 5.15352 43.6071H4.09345C4.01394 43.6071 3.96094 43.5543 3.96094 43.4751V43.2902C3.96094 43.211 4.04044 43.1582 4.09345 43.1582Z" fill="#C0BCBB"/>
</g>
<g clip-path="url(#clip1)">
<path d="M32.0664 13.6963C32.0664 13.8569 31.9366 13.9854 31.7743 13.9854H28.9503C28.788 13.9854 28.6582 13.8569 28.6582 13.6963V12.5719C28.6582 12.4112 28.788 12.2827 28.9503 12.2827H31.7743C31.9366 12.2827 32.0664 12.4112 32.0664 12.5719V13.6963Z" fill="#2D2D2D"/>
<path d="M46.2506 25.7754C46.2506 25.936 46.1208 26.0645 45.9585 26.0645H26.1261C25.9638 26.0324 25.834 25.9039 25.834 25.7754V13.4068C25.834 13.2462 25.9638 13.1177 26.1261 13.1177H45.991C46.1533 13.1177 46.2831 13.2462 46.2831 13.4068V25.7754H46.2506Z" fill="#D8D7D6"/>
<path d="M46.2507 17.0693H25.834V24.9402H46.2507V17.0693Z" fill="#2D2D2D"/>
<path d="M45.1478 13.9531H40.6035V16.202H45.1478V13.9531Z" fill="#2D2D2D"/>
<path d="M31.514 15.078C31.514 15.5277 31.1245 15.9132 30.6701 15.9132C30.2157 15.9132 29.8262 15.5277 29.8262 15.078C29.8262 14.6282 30.2157 14.2427 30.6701 14.2427C31.1245 14.2427 31.514 14.6282 31.514 15.078Z" fill="#BC3B31"/>
<path d="M30.9297 20.4431C30.9297 23.238 33.2018 25.4869 36.0257 25.4869C38.8497 25.4869 41.1218 23.238 41.1218 20.4431C41.1218 17.6481 38.8497 15.3993 36.0257 15.3993C33.2343 15.3671 30.9297 17.6481 30.9297 20.4431Z" fill="#EEEEEE"/>
<path d="M36.0576 24.3627C33.8829 24.3627 32.0977 22.5958 32.0977 20.4433C32.0977 18.2909 33.8829 16.5239 36.0576 16.5239C38.2324 16.5239 40.0176 18.2909 40.0176 20.4433C40.0176 22.5958 38.2324 24.3627 36.0576 24.3627Z" fill="#02A9CE"/>
<path d="M33.2012 20.443C33.2012 21.9851 34.4671 23.238 36.0251 23.238C37.5831 23.238 38.849 21.9851 38.849 20.443C38.849 18.901 37.5831 17.6481 36.0251 17.6481C34.4671 17.6159 33.2012 18.8689 33.2012 20.443Z" fill="#586273"/>
<path d="M34.9219 20.4433C34.9219 21.0537 35.4412 21.5677 36.0579 21.5677C36.6747 21.5677 37.194 21.0537 37.194 20.4433C37.194 19.8329 36.6747 19.3188 36.0579 19.3188C35.4088 19.3188 34.9219 19.8007 34.9219 20.4433Z" fill="#2D2D2D"/>
<path d="M33.2012 19.3185C33.2012 20.2502 33.9477 20.9891 34.889 20.9891C35.8303 20.9891 36.5769 20.218 36.5769 19.3185C36.5769 18.3868 35.8303 17.6479 34.889 17.6479C33.9802 17.6158 33.2012 18.3868 33.2012 19.3185Z" fill="#F8D5A8"/>
</g>
<path d="M40.0422 30.8887H36.6641V47.9416H40.0422C40.7243 47.9416 41.2765 47.3894 41.2765 46.7073V32.0905C41.2765 31.4409 40.7243 30.8887 40.0422 30.8887Z" fill="#0F303F"/>
<path d="M33.3183 30.8887C32.6362 30.8887 32.084 31.4409 32.084 32.123V46.7398C32.084 47.4219 32.6362 47.9741 33.3183 47.9741H36.6964V30.8887H33.3183Z" fill="#2C5871"/>
<path d="M38.5479 31.5713H34.8125V31.8636H38.5479V31.5713Z" fill="white"/>
<path d="M36.6632 47.487C36.111 47.487 35.6562 47.0323 35.6562 46.4801C35.6562 45.9279 36.111 45.4731 36.6632 45.4731C37.2154 45.4731 37.6701 45.9279 37.6701 46.4801C37.6701 47.0323 37.2154 47.487 36.6632 47.487ZM36.6632 45.668C36.2409 45.668 35.8836 46.0253 35.8836 46.4476C35.8836 46.8699 36.2409 47.2272 36.6632 47.2272C37.0854 47.2272 37.4427 46.8699 37.4427 46.4476C37.4752 46.0253 37.1179 45.668 36.6632 45.668Z" fill="white"/>
<path d="M36.7292 32.7402H32.5391V44.8234H36.7292V32.7402Z" fill="#0AD0FC"/>
<path d="M40.8212 32.7402H36.7285V44.8234H40.8212V32.7402Z" fill="#02A9CE"/>
<path d="M11.9531 24.3587C11.9531 24.8691 12.3542 25.2701 12.8646 25.2701V23.4473C12.3906 23.4473 11.9531 23.8483 11.9531 24.3587Z" fill="#0F303F"/>
<path d="M13.7767 24.3587C13.7767 23.8483 13.3756 23.4473 12.8652 23.4473V25.2701C13.3756 25.2701 13.7767 24.8326 13.7767 24.3587Z" fill="#2C5871"/>
<path d="M11.7341 24.3589C11.7341 23.7027 12.2445 23.1923 12.9008 23.1923V22.7548H4.69789V3.94282H12.8643V3.46887H11.3331C11.2602 3.46887 11.1873 3.39596 11.1873 3.32304C11.1873 3.25013 11.2602 3.17721 11.3331 3.17721H12.8643V2.77618C12.7549 2.77618 12.682 2.70327 12.682 2.5939C12.682 2.48452 12.7549 2.41161 12.8643 2.41161V2.0835H4.84372C4.22394 2.0835 3.75 2.5939 3.75 3.17721V24.9058C3.75 25.5255 4.2604 25.9995 4.84372 25.9995H12.8643V25.4526C12.2445 25.5255 11.7341 24.9787 11.7341 24.3589Z" fill="#2C5871"/>
<path d="M20.9223 2.0835H12.8652V2.41161C12.9746 2.41161 13.0475 2.48452 13.0475 2.5939C13.0475 2.70327 12.9746 2.77618 12.8652 2.77618V3.17721H14.3964C14.4694 3.17721 14.5423 3.25013 14.5423 3.32304C14.5423 3.39596 14.4694 3.46887 14.3964 3.46887H12.8652V3.94282H21.0681V22.7548H12.8652V23.1923C13.5215 23.1923 14.0319 23.7027 14.0319 24.3589C14.0319 25.0151 13.5215 25.5255 12.8652 25.5255V26.0724H20.8858C21.5056 26.0724 21.9796 25.562 21.9796 24.9787V3.25013C22.016 2.5939 21.5056 2.0835 20.9223 2.0835Z" fill="#0F303F"/>
<path d="M21.0681 3.94287H12.8652V22.7548H21.0681V3.94287Z" fill="#02A9CE"/>
<path d="M12.9002 3.94287H4.69727V22.7548H12.9002V3.94287Z" fill="#0AD0FC"/>
<path d="M14.3964 3.46891C14.4694 3.46891 14.5423 3.39599 14.5423 3.32307C14.5423 3.25016 14.4694 3.17725 14.3964 3.17725H12.8652V3.43245H14.3964V3.46891Z" fill="white"/>
<path d="M11.2246 3.32275C11.2246 3.39566 11.2975 3.46858 11.3704 3.46858H12.8652V3.21338H11.334C11.2975 3.21338 11.2246 3.24983 11.2246 3.32275Z" fill="white"/>
<path d="M12.6816 2.63004C12.6816 2.73941 12.7546 2.81233 12.8639 2.81233V2.44775C12.791 2.44775 12.6816 2.52067 12.6816 2.63004Z" fill="#8DC63F"/>
<path d="M12.8652 2.81233C12.9746 2.81233 13.0475 2.73941 13.0475 2.63004C13.0475 2.52067 12.9746 2.44775 12.8652 2.44775V2.81233Z" fill="#8DC63F"/>
<path d="M11.7344 24.359C11.7344 25.0153 12.2448 25.5257 12.901 25.5257V25.2705C12.3906 25.2705 11.9896 24.8694 11.9896 24.359C11.9896 23.8486 12.3906 23.4476 12.901 23.4476V23.1924C12.2448 23.1924 11.7344 23.7028 11.7344 24.359Z" fill="white"/>
<path d="M12.8652 23.4476C13.3756 23.4476 13.7767 23.8486 13.7767 24.359C13.7767 24.8694 13.3756 25.2705 12.8652 25.2705V25.5257C13.5215 25.5257 14.0319 25.0153 14.0319 24.359C14.0319 23.7028 13.5215 23.1924 12.8652 23.1924V23.4476Z" fill="white"/>
<defs>
<clipPath id="clip0">
<rect width="22.5" height="17.0833" fill="white" transform="translate(3.75 30.6162)"/>
</clipPath>
<clipPath id="clip1">
<rect width="20.4167" height="13.75" fill="white" transform="translate(25.834 12.2827)"/>
</clipPath>
</defs>
</svg>
