<svg width="50" height="50" viewBox="0 0 50 50" fill="none" xmlns="http://www.w3.org/2000/svg">
<g clip-path="url(#clip0)">
<path d="M45.679 12.1842V37.4454C45.679 37.5404 45.679 37.6353 45.6315 37.7303C45.584 37.9677 45.5366 38.1576 45.4416 38.3476C45.1092 39.1073 44.3495 39.5821 43.4948 39.5821H2.18424C0.997151 39.5821 0 38.6325 0 37.3979V12.1842C0 11.3295 0.522317 10.5698 1.23457 10.2374C1.4245 10.095 1.66192 10.0475 1.85185 10.0475C1.94682 10 2.04179 10 2.18424 10H43.4948C44.6819 10 45.679 10.9497 45.679 12.1842Z" fill="#606060"/>
<path d="M45.6793 12.1842V37.4454C45.6793 37.5404 45.6793 37.6353 45.6318 37.7303C45.5843 37.9677 45.5368 38.1576 45.4419 38.3476C45.157 38.49 44.8721 38.5375 44.5397 38.5375H3.22916C2.04207 38.5375 1.04492 37.5878 1.04492 36.3533V11.1396C1.04492 10.8072 1.13989 10.5223 1.23486 10.2374C1.42479 10.095 1.66221 10.0475 1.85214 10.0475C1.94711 10 2.04207 10 2.18452 10H43.4951C44.6821 10 45.6793 10.9497 45.6793 12.1842Z" fill="#707070"/>
<path d="M41.7856 14.606H8.97461V35.4037H41.7856V14.606Z" fill="#404040"/>
<path d="M7.83386 14.606H1.89844V17.265H7.83386V14.606Z" fill="#909090"/>
<path d="M7.83386 17.4551H1.89844V20.1141H7.83386V17.4551Z" fill="#909090"/>
<path d="M7.83386 29.7056H1.89844V32.3646H7.83386V29.7056Z" fill="#909090"/>
<path d="M7.83386 32.5547H1.89844V35.2138H7.83386V32.5547Z" fill="#909090"/>
<path d="M8.40501 25.5272C8.40501 27.3316 6.93302 28.7561 5.17614 28.7561C3.37177 28.7561 1.94727 27.2841 1.94727 25.5272C1.94727 23.7228 3.41925 22.2983 5.17614 22.2983C6.93302 22.2983 8.40501 23.7228 8.40501 25.5272Z" fill="#909090"/>
<path d="M7.02914 25.5273C7.02914 26.5719 6.17444 27.4266 5.1298 27.4266C4.08517 27.4266 3.23047 26.5719 3.23047 25.5273C3.23047 24.4826 4.08517 23.6279 5.1298 23.6279C6.17444 23.6279 7.02914 24.4826 7.02914 25.5273Z" fill="#707070"/>
<path d="M48.8591 39.7248C48.8591 39.8197 48.8116 39.8672 48.7167 39.8672C48.6217 39.8672 48.5742 39.8197 48.5742 39.7248V37.683C48.5742 37.588 48.6217 37.5405 48.7167 37.5405C48.8116 37.5405 48.8591 37.588 48.8591 37.683V39.7248Z" fill="#303030"/>
<path d="M49.8088 37.1603L48.9541 39.2021L48.8591 39.392L48.8117 39.4395C48.7167 39.487 48.6217 39.487 48.5268 39.4395C48.5268 39.4395 48.4793 39.4395 48.4793 39.392L47.5771 37.2078C47.4821 37.1128 47.4821 36.9229 47.5771 36.8279L48.4793 35.9257C48.5742 35.8308 48.7642 35.8308 48.8591 35.9257L49.7613 36.8279C49.9038 36.9229 49.9038 37.0653 49.8088 37.1603Z" fill="#404040"/>
<path d="M49.8093 37.1604L48.9546 39.2021L48.8596 38.9172L48.5747 38.2525L48.1474 37.1604C48.0524 37.0654 48.0524 36.8755 48.1474 36.7805L49.0021 35.9258L49.8568 36.7805C49.9043 36.9229 49.9043 37.0654 49.8093 37.1604Z" fill="#505050"/>
<path d="M49.715 10.7599C49.715 11.0922 49.2877 11.3771 48.7179 11.3771C48.1481 11.3771 47.7207 11.0922 47.7207 10.7599C47.7207 10.4275 48.1481 10.1426 48.7179 10.1426C49.2877 10.1426 49.715 10.4275 49.715 10.7599Z" fill="#FBCB43"/>
<path d="M50.0004 10.8547V36.7806C50.0004 36.9706 49.8579 37.0655 49.7155 37.0655H47.8161C47.6262 37.0655 47.5312 36.9231 47.5312 36.7806V10.8547C47.5312 10.6648 47.6737 10.5698 47.8161 10.5698H49.7155C49.8579 10.5698 50.0004 10.7123 50.0004 10.8547Z" fill="#505050"/>
<path d="M49.9995 10.8547V36.7806C49.9995 36.9706 49.8571 37.0655 49.7146 37.0655H48.3376C48.1477 37.0655 48.0527 36.9231 48.0527 36.7806V10.8547C48.0527 10.6648 48.1952 10.5698 48.3376 10.5698H49.7146C49.8571 10.5698 49.9995 10.7123 49.9995 10.8547Z" fill="#606060"/>
<path d="M49.2399 33.8842C49.2399 34.1691 49.0025 34.4065 48.7176 34.4065C48.4327 34.4065 48.1953 34.1691 48.1953 33.8842V26.9042C48.1953 26.6193 48.4327 26.3818 48.7176 26.3818C49.0025 26.3818 49.2399 26.6193 49.2399 26.9042V33.8842Z" fill="#404040"/>
<path d="M49.4763 33.8842C49.4763 34.1691 49.2389 34.4065 48.954 34.4065C48.6691 34.4065 48.4316 34.1691 48.4316 33.8842V26.9042C48.4316 26.6193 48.6691 26.3818 48.954 26.3818C49.2389 26.3818 49.4763 26.6193 49.4763 26.9042V33.8842Z" fill="#505050"/>
</g>
<defs>
<clipPath id="clip0">
<rect width="50" height="29.867" fill="white" transform="translate(0 10)"/>
</clipPath>
</defs>
</svg>
