<svg width="50" height="50" viewBox="0 0 50 50" fill="none" xmlns="http://www.w3.org/2000/svg">
<g clip-path="url(#clip0)">
<path d="M21.6664 33.1216C21.6282 33.1216 21.59 33.1216 21.5709 33.1025C21.3416 33.0452 21.2079 32.8159 21.2652 32.5867L22.316 28.3834C22.3733 28.1541 22.6026 28.0204 22.8319 28.0777C23.0611 28.135 23.1949 28.3643 23.1376 28.5935L22.0867 32.7968C22.0294 32.9879 21.8575 33.1216 21.6664 33.1216Z" fill="black"/>
<path d="M23.9776 28.4408C23.9776 28.7465 23.7292 28.9949 23.4235 28.9949H21.8568C21.5511 28.9949 21.3027 28.7465 21.3027 28.4408C21.3027 28.1351 21.5511 27.8867 21.8568 27.8867H23.4235C23.7292 27.8867 23.9776 28.1351 23.9776 28.4408Z" fill="black"/>
<path d="M23.4235 27.8867H21.8568C21.5511 27.8867 21.3027 28.1351 21.3027 28.4408H23.9967C23.9776 28.1351 23.7292 27.8867 23.4235 27.8867Z" fill="#606060"/>
<path d="M21.3809 28.1733H23.9219C23.8264 28.0014 23.6545 27.8867 23.4443 27.8867H21.8776C21.6483 27.8867 21.4764 28.0014 21.3809 28.1733Z" fill="#9E9E9E"/>
<path d="M39.5495 18.0093C39.5304 18.0093 39.5113 18.0093 39.4922 18.0093V20.3784C39.5113 20.3784 39.5304 20.3784 39.5495 20.3784C40.18 20.3784 40.6767 19.8434 40.6767 19.1938C40.6767 18.5442 40.1609 18.0093 39.5495 18.0093Z" fill="#FFB531"/>
<path d="M36.4547 13.7869L35.7287 13.1373C35.7669 13.0991 36.5884 12.182 38.1933 11.6853C38.7283 11.5133 38.9384 11.2076 38.9002 10.9974C38.862 10.8064 38.6518 10.6917 38.3462 10.6917H33.0156V9.69824H38.3462C39.2823 9.69824 39.7791 10.2714 39.8746 10.8446C39.9701 11.4751 39.588 12.2775 38.499 12.6214C37.1425 13.0418 36.4547 13.7869 36.4547 13.7869Z" fill="#BFBFBF"/>
<path d="M39.7596 11.5704C39.7596 11.494 39.7596 11.4176 39.7405 11.3412C39.6449 10.768 39.1482 10.1948 38.212 10.1948H32.9961V10.6916H38.3266C38.6323 10.6916 38.8616 10.8062 38.8807 10.9973C38.9189 11.2074 38.7087 11.5131 38.1738 11.6851C36.5689 12.1818 35.7473 13.0989 35.7091 13.1371L36.4351 13.7867C36.4351 13.7867 37.123 13.0416 38.4604 12.6213C39.1864 12.4111 39.5876 11.9908 39.7596 11.5704Z" fill="#9E9E9E"/>
<path d="M16.4495 23.0913C16.3158 23.0913 16.2012 23.053 16.0865 22.9575L13.7174 20.9514H4.29821C3.99252 20.9514 3.74414 20.703 3.74414 20.3973C3.74414 20.0916 3.99252 19.8433 4.29821 19.8433H14.1377L16.8125 22.136C17.0418 22.3461 17.08 22.69 16.8699 22.9193C16.7743 23.0339 16.6215 23.0913 16.4495 23.0913Z" fill="#02A9CE"/>
<path d="M13.9276 20.3783L16.4495 22.5372L16.8316 22.9385C16.8507 22.9194 16.8699 22.9194 16.8699 22.9003C17.08 22.671 17.0418 22.308 16.8125 22.1169L14.1377 19.8242H4.29821C3.99252 19.8242 3.74414 20.0726 3.74414 20.3783H4.29821H13.9276Z" fill="#02A9CE"/>
<path d="M31.4082 20.4841L30.293 21.0728L31.2205 22.8301L32.3357 22.2414L31.4082 20.4841Z" fill="#02A9CE"/>
<path d="M21.6474 32.1094L21.5137 30.8484C21.5328 30.8484 24.0739 30.5427 25.5641 28.4601L25.8698 28.0398C27.4365 25.8617 29.0605 23.5881 31.6016 21.8686C34.3719 19.9963 37.4671 20.1682 37.6008 20.1682L37.5244 21.4292C37.5053 21.4292 34.7158 21.2763 32.3085 22.9194C29.9394 24.5243 28.4682 26.5878 26.8824 28.7849L26.5767 29.2053C24.7617 31.7463 21.7812 32.0902 21.6474 32.1094Z" fill="#02A9CE"/>
<path d="M31.6191 21.8686C29.0781 23.6073 27.4541 25.8617 25.8874 28.0398L25.5817 28.4601C24.0914 30.5236 21.5504 30.8293 21.5312 30.8484L21.6077 31.4789C21.6077 31.4789 24.4162 31.1732 26.0975 28.8423C27.7789 26.5113 29.3646 24.1613 31.9821 22.3845C34.5996 20.6076 37.5993 20.7987 37.5993 20.7987L37.6375 20.1682C37.4846 20.1682 34.3895 19.9963 31.6191 21.8686Z" fill="#02A9CE"/>
<path d="M21.7998 25.6707C20.9209 25.6707 20.214 25.556 20.1758 25.5369L20.3859 24.2951C20.4051 24.2951 22.3156 24.6199 23.6148 24.1422C25.7738 23.3398 36.3775 16.5954 36.4922 16.5381L37.1609 17.608C36.7214 17.8946 26.3279 24.4861 24.0543 25.3268C23.3474 25.5943 22.5067 25.6707 21.7998 25.6707Z" fill="#02A9CE"/>
<path d="M36.8363 17.073L36.4923 16.5381C36.3777 16.6145 25.774 23.3398 23.615 24.1422C22.3349 24.6199 20.4052 24.2951 20.3861 24.2951L20.2715 24.9256C20.2715 24.9256 22.354 25.2886 23.8252 24.7345C26.0797 23.8938 36.8363 17.073 36.8363 17.073Z" fill="#02A9CE"/>
<path d="M36.1676 16.4426L35.5371 13.0036L36.5115 12.8125L37.142 16.2516L36.1676 16.4426Z" fill="#9E9E9E"/>
<path d="M48.0327 31.001H32.748V31.192H48.0327V31.001Z" fill="#BFBFBF"/>
<path d="M48.0327 30.2559H32.748V30.4469H48.0327V30.2559Z" fill="#BFBFBF"/>
<path d="M40.8668 23.0723H40.6758V38.3569H40.8668V23.0723Z" fill="#BFBFBF"/>
<path d="M40.1032 23.0723H39.9121V38.3569H40.1032V23.0723Z" fill="#BFBFBF"/>
<path d="M37.8992 23.4855L37.7227 23.5586L43.5721 37.6801L43.7486 37.607L37.8992 23.4855Z" fill="#BFBFBF"/>
<path d="M37.2097 23.7667L37.0332 23.8398L42.8826 37.9614L43.0592 37.8882L37.2097 23.7667Z" fill="#BFBFBF"/>
<path d="M35.3128 24.9782L35.1777 25.1133L45.9855 35.9211L46.1206 35.786L35.3128 24.9782Z" fill="#BFBFBF"/>
<path d="M34.7777 25.5129L34.6426 25.6479L45.4504 36.4557L45.5855 36.3207L34.7777 25.5129Z" fill="#BFBFBF"/>
<path d="M33.5106 27.3518L33.4375 27.5283L47.559 33.3778L47.6321 33.2012L33.5106 27.3518Z" fill="#BFBFBF"/>
<path d="M33.2196 28.0691L33.1465 28.2456L47.268 34.0951L47.3411 33.9185L33.2196 28.0691Z" fill="#BFBFBF"/>
<path d="M47.5512 28.0675L33.4297 33.917L33.5028 34.0935L47.6243 28.2441L47.5512 28.0675Z" fill="#BFBFBF"/>
<path d="M47.2621 27.36L33.1406 33.2095L33.2137 33.386L47.3353 27.5365L47.2621 27.36Z" fill="#BFBFBF"/>
<path d="M45.9972 25.5272L35.1895 36.335L35.3246 36.4701L46.1323 25.6623L45.9972 25.5272Z" fill="#BFBFBF"/>
<path d="M45.464 24.991L34.6562 35.7988L34.7913 35.9339L45.5991 25.1261L45.464 24.991Z" fill="#BFBFBF"/>
<path d="M43.5721 23.7769L37.7227 37.8984L37.8992 37.9716L43.7486 23.85L43.5721 23.7769Z" fill="#BFBFBF"/>
<path d="M42.8729 23.4937L37.0234 37.6152L37.2 37.6884L43.0494 23.5668L42.8729 23.4937Z" fill="#BFBFBF"/>
<path d="M40.3895 21.1235C35.0781 21.1235 30.7793 25.4223 30.7793 30.7338C30.7793 36.0452 35.0781 40.344 40.3895 40.344C45.701 40.344 49.9998 36.0452 49.9998 30.7338C49.9998 25.4223 45.701 21.1235 40.3895 21.1235ZM40.3895 38.1086C36.3009 38.1086 32.9956 34.8033 32.9956 30.7147C32.9956 26.626 36.3009 23.3207 40.3895 23.3207C44.4782 23.3207 47.7835 26.626 47.7835 30.7147C47.7835 34.8033 44.4782 38.1086 40.3895 38.1086Z" fill="#E09B63"/>
<path d="M40.3892 22.4229C35.8038 22.4229 32.0781 26.1485 32.0781 30.7339C32.0781 35.3193 35.8038 39.0449 40.3892 39.0449C44.9746 39.0449 48.7002 35.3193 48.7002 30.7339C48.7002 26.1294 44.9746 22.4229 40.3892 22.4229ZM40.3892 38.1088C36.3005 38.1088 32.9952 34.8034 32.9952 30.7148C32.9952 26.6261 36.3005 23.3208 40.3892 23.3208C44.4778 23.3208 47.7831 26.6261 47.7831 30.7148C47.7831 34.8034 44.4778 38.1088 40.3892 38.1088Z" fill="#CC6A48"/>
<path d="M40.3899 22.8047C36.0146 22.8047 32.4609 26.3584 32.4609 30.7336C32.4609 35.1088 36.0146 38.6625 40.3899 38.6625C44.7651 38.6625 48.3188 35.1088 48.3188 30.7336C48.3188 26.3584 44.7651 22.8047 40.3899 22.8047ZM40.3899 38.1085C36.3012 38.1085 32.9959 34.8032 32.9959 30.7145C32.9959 26.6259 36.3012 23.3205 40.3899 23.3205C44.4785 23.3205 47.7838 26.6259 47.7838 30.7145C47.7838 34.8032 44.4785 38.1085 40.3899 38.1085Z" fill="#BFBFBF"/>
<path d="M40.0645 21.5439C40.1791 21.5439 40.2746 21.5439 40.3893 21.5439C40.4848 21.5439 40.5994 21.5439 40.7141 21.5439V21.9261C40.5994 21.9261 40.5039 21.9261 40.3893 21.9261C40.2746 21.9261 40.1791 21.9261 40.0645 21.9261V21.5439Z" fill="#FFBC8A"/>
<path d="M41.861 22.0596C41.6508 22.0214 41.4406 22.0023 41.2305 21.9832L41.2878 21.6011C41.498 21.6202 41.7081 21.6584 41.9183 21.6775L41.861 22.0596Z" fill="#FFBC8A"/>
<path d="M45.0502 23.2824C44.8782 23.1678 44.6872 23.0531 44.4961 22.9576L44.6872 22.6328C44.8782 22.7283 45.0693 22.843 45.2412 22.9576L45.0502 23.2824Z" fill="#FFBC8A"/>
<path d="M45.9885 23.951C45.8166 23.8173 45.6446 23.6835 45.4727 23.5689L45.7019 23.2632C45.8739 23.3778 46.0458 23.5116 46.2178 23.6453L45.9885 23.951Z" fill="#FFBC8A"/>
<path d="M44.0396 22.7286C43.8485 22.633 43.6574 22.5566 43.4473 22.4802L43.6001 22.1172C43.7912 22.1936 44.0013 22.27 44.1924 22.3656L44.0396 22.7286Z" fill="#FFBC8A"/>
<path d="M42.9688 22.3274C42.7586 22.2701 42.5485 22.2128 42.3574 22.1555L42.453 21.7925C42.6631 21.8498 42.8733 21.888 43.0643 21.9644L42.9688 22.3274Z" fill="#FFBC8A"/>
<path d="M34.5625 23.6453C34.7345 23.5116 34.8873 23.3778 35.0784 23.2632L35.3076 23.5689C35.1357 23.6835 34.9637 23.8173 34.7918 23.951L34.5625 23.6453Z" fill="#FFBC8A"/>
<path d="M32.918 25.4036C33.0326 25.2316 33.1663 25.0596 33.3001 24.8877L33.6058 25.117C33.472 25.2889 33.3383 25.4609 33.2237 25.6328L32.918 25.4036Z" fill="#FFBC8A"/>
<path d="M38.8809 21.6775C39.091 21.6393 39.3012 21.6202 39.5114 21.6011L39.5687 21.9832C39.3585 22.0023 39.1483 22.0405 38.9382 22.0596L38.8809 21.6775Z" fill="#FFBC8A"/>
<path d="M35.5176 22.9386C35.6895 22.8239 35.8806 22.7093 36.0716 22.6138L36.2627 22.9386C36.0716 23.0341 35.8806 23.1487 35.7086 23.2634L35.5176 22.9386Z" fill="#FFBC8A"/>
<path d="M36.5879 22.3656C36.7789 22.27 36.9891 22.1936 37.1802 22.1172L37.333 22.4802C37.1229 22.5566 36.9318 22.633 36.7407 22.7286L36.5879 22.3656Z" fill="#FFBC8A"/>
<path d="M47.554 25.6328C47.4394 25.4609 47.3056 25.2889 47.1719 25.117L47.4776 24.8877C47.6113 25.0596 47.745 25.2125 47.8597 25.4036L47.554 25.6328Z" fill="#FFBC8A"/>
<path d="M33.6836 24.4673C33.8364 24.3145 33.9893 24.1616 34.1421 24.0088L34.4096 24.2763C34.2568 24.4291 34.1039 24.5629 33.9511 24.7348L33.6836 24.4673Z" fill="#FFBC8A"/>
<path d="M34.1226 37.4399C33.9698 37.287 33.8169 37.1342 33.6641 36.9813L33.9315 36.7139C34.0844 36.8667 34.2372 37.0196 34.3901 37.1724L34.1226 37.4399Z" fill="#FFBC8A"/>
<path d="M31.2188 31.0397C31.2188 30.9251 31.2188 30.8296 31.2188 30.7149C31.2188 30.6003 31.2188 30.5048 31.2188 30.3901H31.6009C31.6009 30.5048 31.6009 30.6003 31.6009 30.7149C31.6009 30.8296 31.6009 30.9251 31.6009 31.0397H31.2188Z" fill="#FFBC8A"/>
<path d="M46.3691 37.1724C46.522 37.0196 46.6748 36.8858 46.8277 36.7139L47.0952 36.9813C46.9423 37.1342 46.7895 37.287 46.6366 37.4399L46.3691 37.1724Z" fill="#FFBC8A"/>
<path d="M49.1777 31.0397C49.1777 30.9251 49.1777 30.8296 49.1777 30.7149C49.1777 30.6194 49.1777 30.5048 49.1777 30.3901H49.5598C49.5598 30.5048 49.5598 30.6003 49.5598 30.7149C49.5598 30.8296 49.5598 30.9251 49.5598 31.0397H49.1777Z" fill="#FFBC8A"/>
<path d="M46.8277 24.7348C46.6748 24.582 46.522 24.4291 46.3691 24.2763L46.6366 24.0088C46.7895 24.1616 46.9423 24.3145 47.0952 24.4673L46.8277 24.7348Z" fill="#FFBC8A"/>
<path d="M32.2891 26.4159C32.3846 26.2248 32.4992 26.0529 32.6139 25.8618L32.9387 26.0529C32.824 26.2248 32.7094 26.4159 32.6139 26.6069L32.2891 26.4159Z" fill="#FFBC8A"/>
<path d="M48.6234 27.6577C48.547 27.4476 48.4705 27.2565 48.375 27.0654L48.738 26.9126C48.8335 27.1037 48.91 27.3138 48.9864 27.5049L48.6234 27.6577Z" fill="#FFBC8A"/>
<path d="M48.1471 26.6069C48.0515 26.4159 47.9369 26.2248 47.8223 26.0529L48.1471 25.8618C48.2617 26.0338 48.3763 26.2248 48.4719 26.4159L48.1471 26.6069Z" fill="#FFBC8A"/>
<path d="M49.1389 29.8929C49.1198 29.6827 49.1007 29.4726 49.0625 29.2624L49.4446 29.2051C49.4828 29.4152 49.5019 29.6254 49.521 29.8356L49.1389 29.8929Z" fill="#FFBC8A"/>
<path d="M48.9688 28.766C48.9306 28.5558 48.8733 28.3457 48.7969 28.1546L49.1599 28.0591C49.2172 28.2692 49.2745 28.4603 49.3318 28.6705L48.9688 28.766Z" fill="#FFBC8A"/>
<path d="M37.6953 21.9454C37.9055 21.8881 38.0965 21.8308 38.3067 21.7734L38.4022 22.1364C38.1921 22.1747 37.9819 22.232 37.7908 22.3084L37.6953 21.9454Z" fill="#FFBC8A"/>
<path d="M43.4473 38.9686C43.6574 38.8922 43.8485 38.8157 44.0396 38.7202L44.1924 39.0832C44.0013 39.1788 43.7912 39.2552 43.6001 39.3316L43.4473 38.9686Z" fill="#FFBC8A"/>
<path d="M44.4961 38.4908C44.6872 38.3953 44.8782 38.2807 45.0502 38.166L45.2412 38.4908C45.0693 38.6054 44.8782 38.7201 44.6872 38.8156L44.4961 38.4908Z" fill="#FFBC8A"/>
<path d="M45.4922 37.8987C45.6641 37.7841 45.8361 37.6503 46.008 37.5166L46.2373 37.8223C46.0654 37.956 45.9125 38.0898 45.7215 38.2044L45.4922 37.8987Z" fill="#FFBC8A"/>
<path d="M42.3574 39.2935C42.5676 39.2553 42.7778 39.198 42.9688 39.1216L43.0643 39.4846C42.8542 39.5419 42.6631 39.5992 42.453 39.6565L42.3574 39.2935Z" fill="#FFBC8A"/>
<path d="M40.3893 39.9046C40.2937 39.9046 40.1791 39.9046 40.0645 39.9046V39.5225C40.1791 39.5225 40.2746 39.5225 40.3893 39.5225C40.5039 39.5225 40.5994 39.5225 40.7141 39.5225V39.9046C40.5994 39.9046 40.4848 39.9046 40.3893 39.9046Z" fill="#FFBC8A"/>
<path d="M41.2109 39.4841C41.4211 39.465 41.6313 39.4268 41.8414 39.4077L41.8988 39.7898C41.6886 39.828 41.4784 39.8471 41.2683 39.8663L41.2109 39.4841Z" fill="#FFBC8A"/>
<path d="M48.7969 33.313C48.8542 33.1029 48.9115 32.8927 48.9688 32.7017L49.3318 32.7972C49.2745 33.0074 49.2363 33.2175 49.1599 33.4086L48.7969 33.313Z" fill="#FFBC8A"/>
<path d="M49.0625 32.1862C49.1007 31.976 49.1198 31.7658 49.1389 31.5557L49.521 31.613C49.5019 31.8231 49.4637 32.0333 49.4446 32.2435L49.0625 32.1862Z" fill="#FFBC8A"/>
<path d="M39.5114 39.8663C39.3012 39.8471 39.091 39.8089 38.8809 39.7898L38.9382 39.4077C39.1483 39.4459 39.3585 39.465 39.5687 39.4841L39.5114 39.8663Z" fill="#FFBC8A"/>
<path d="M31.793 27.5049C31.8694 27.3138 31.9458 27.1037 32.0413 26.9126L32.4044 27.0654C32.3088 27.2565 32.2324 27.4476 32.156 27.6577L31.793 27.5049Z" fill="#FFBC8A"/>
<path d="M47.1523 36.3318C47.2861 36.1598 47.4198 35.9879 47.5345 35.8159L47.8402 36.0452C47.7255 36.2171 47.5918 36.3891 47.458 36.561L47.1523 36.3318Z" fill="#FFBC8A"/>
<path d="M47.8418 35.3954C47.9564 35.2234 48.0711 35.0324 48.1666 34.8413L48.4914 35.0324C48.3959 35.2234 48.2812 35.3954 48.1666 35.5864L47.8418 35.3954Z" fill="#FFBC8A"/>
<path d="M48.375 34.3828C48.4705 34.1918 48.547 34.0007 48.6234 33.7905L48.9864 33.9434C48.91 34.1344 48.8335 34.3446 48.738 34.5357L48.375 34.3828Z" fill="#FFBC8A"/>
<path d="M31.6016 33.4086C31.5443 33.1984 31.487 33.0074 31.4297 32.7972L31.7927 32.7017C31.8309 32.9118 31.8882 33.122 31.9647 33.313L31.6016 33.4086Z" fill="#FFBC8A"/>
<path d="M31.3323 32.2435C31.2941 32.0333 31.275 31.8231 31.2559 31.613L31.638 31.5557C31.6571 31.7658 31.6762 31.976 31.7144 32.1862L31.3323 32.2435Z" fill="#FFBC8A"/>
<path d="M31.4473 28.6705C31.5046 28.4603 31.5428 28.2501 31.6192 28.0591L31.9822 28.1546C31.9249 28.3648 31.8676 28.5749 31.8103 28.766L31.4473 28.6705Z" fill="#FFBC8A"/>
<path d="M31.2559 29.8551C31.275 29.6449 31.3132 29.4348 31.3323 29.2246L31.7144 29.2819C31.6762 29.4921 31.6571 29.7023 31.638 29.9124L31.2559 29.8551Z" fill="#FFBC8A"/>
<path d="M32.0413 34.5357C31.9458 34.3446 31.8694 34.1344 31.793 33.9434L32.156 33.7905C32.2324 34.0007 32.3088 34.1918 32.4044 34.3828L32.0413 34.5357Z" fill="#FFBC8A"/>
<path d="M35.0588 38.2044C34.8869 38.0898 34.7149 37.956 34.543 37.8223L34.7722 37.5166C34.9442 37.6503 35.1161 37.7841 35.2881 37.8987L35.0588 38.2044Z" fill="#FFBC8A"/>
<path d="M37.1802 39.3316C36.9891 39.2552 36.7789 39.1788 36.5879 39.0832L36.7407 38.7202C36.9318 38.8157 37.1229 38.8922 37.333 38.9686L37.1802 39.3316Z" fill="#FFBC8A"/>
<path d="M32.6139 35.5864C32.4992 35.3954 32.3846 35.2234 32.2891 35.0324L32.6139 34.8413C32.7094 35.0324 32.824 35.2234 32.9387 35.3954L32.6139 35.5864Z" fill="#FFBC8A"/>
<path d="M36.0716 38.8347C35.8806 38.7391 35.7086 38.6245 35.5176 38.5099L35.7086 38.1851C35.8806 38.2997 36.0716 38.3952 36.2627 38.5099L36.0716 38.8347Z" fill="#FFBC8A"/>
<path d="M33.3001 36.561C33.1663 36.3891 33.0326 36.2362 32.918 36.0452L33.2237 35.8159C33.3383 35.9879 33.472 36.1598 33.6058 36.3318L33.3001 36.561Z" fill="#FFBC8A"/>
<path d="M38.3262 39.6756C38.1161 39.6183 37.9059 39.5801 37.7148 39.5036L37.8104 39.1406C38.0205 39.1979 38.2307 39.2553 38.4218 39.3126L38.3262 39.6756Z" fill="#FFBC8A"/>
<path d="M40.3889 23.1104C36.1856 23.1104 32.7656 26.5303 32.7656 30.7336C32.7656 34.9369 36.1856 38.3568 40.3889 38.3568C44.5921 38.3568 48.0121 34.9369 48.0121 30.7336C48.0121 26.5112 44.5921 23.1104 40.3889 23.1104ZM40.3889 38.1084C36.3002 38.1084 32.9949 34.8031 32.9949 30.7145C32.9949 26.6258 36.3002 23.3205 40.3889 23.3205C44.4775 23.3205 47.7828 26.6258 47.7828 30.7145C47.7828 34.8031 44.4775 38.1084 40.3889 38.1084Z" fill="#9E9E9E"/>
<path d="M41.3835 30.7337C41.3835 31.2878 40.9441 31.7272 40.39 31.7272C39.8359 31.7272 39.3965 31.2878 39.3965 30.7337C39.3965 30.1797 39.8359 29.7402 40.39 29.7402C40.9249 29.7402 41.3835 30.1797 41.3835 30.7337Z" fill="black"/>
<path d="M17.2534 31.001H1.96875V31.192H17.2534V31.001Z" fill="#BFBFBF"/>
<path d="M17.2534 30.2559H1.96875V30.4469H17.2534V30.2559Z" fill="#BFBFBF"/>
<path d="M10.0875 23.0723H9.89648V38.3569H10.0875V23.0723Z" fill="#BFBFBF"/>
<path d="M9.32387 23.0723H9.13281V38.3569H9.32387V23.0723Z" fill="#BFBFBF"/>
<path d="M7.11793 23.4845L6.94141 23.5576L12.7908 37.6791L12.9674 37.606L7.11793 23.4845Z" fill="#BFBFBF"/>
<path d="M6.41089 23.7731L6.23438 23.8462L12.0838 37.9677L12.2603 37.8946L6.41089 23.7731Z" fill="#BFBFBF"/>
<path d="M4.53353 24.9757L4.39844 25.1108L15.2062 35.9186L15.3413 35.7835L4.53353 24.9757Z" fill="#BFBFBF"/>
<path d="M3.99643 25.5104L3.86133 25.6455L14.6691 36.4533L14.8042 36.3182L3.99643 25.5104Z" fill="#BFBFBF"/>
<path d="M2.7196 27.3664L2.64648 27.543L16.768 33.3924L16.8411 33.2159L2.7196 27.3664Z" fill="#BFBFBF"/>
<path d="M2.4364 28.0662L2.36328 28.2427L16.4848 34.0921L16.5579 33.9156L2.4364 28.0662Z" fill="#BFBFBF"/>
<path d="M16.7699 28.0666L2.64844 33.916L2.72156 34.0925L16.8431 28.2431L16.7699 28.0666Z" fill="#BFBFBF"/>
<path d="M16.4809 27.3591L2.35938 33.2085L2.43249 33.385L16.554 27.5356L16.4809 27.3591Z" fill="#BFBFBF"/>
<path d="M15.2199 25.5242L4.41211 36.332L4.54721 36.4671L15.355 25.6593L15.2199 25.5242Z" fill="#BFBFBF"/>
<path d="M14.6711 25.0013L3.86328 35.8091L3.99838 35.9442L14.8062 25.1364L14.6711 25.0013Z" fill="#BFBFBF"/>
<path d="M12.7889 23.774L6.93945 37.8955L7.11597 37.9686L12.9654 23.8471L12.7889 23.774Z" fill="#BFBFBF"/>
<path d="M12.0897 23.4908L6.24023 37.6123L6.41675 37.6854L12.2662 23.5639L12.0897 23.4908Z" fill="#BFBFBF"/>
<path d="M9.61024 21.1235C4.29882 21.1235 0 25.4223 0 30.7338C0 36.0452 4.29882 40.344 9.61024 40.344C14.9217 40.344 19.2205 36.0452 19.2205 30.7338C19.2014 25.4223 14.9026 21.1235 9.61024 21.1235ZM9.61024 38.1086C5.52159 38.1086 2.21628 34.8033 2.21628 30.7147C2.21628 26.6451 5.52159 23.3398 9.61024 23.3398C13.6798 23.3398 17.0042 26.6451 17.0042 30.7338C17.0042 34.8033 13.6798 38.1086 9.61024 38.1086Z" fill="#E09B63"/>
<path d="M9.60987 22.4229C5.02447 22.4229 1.29883 26.1485 1.29883 30.7339C1.29883 35.3193 5.02447 39.0449 9.60987 39.0449C14.1953 39.0449 17.9209 35.3193 17.9209 30.7339C17.9209 26.1294 14.1953 22.4229 9.60987 22.4229ZM9.60987 38.1088C5.52122 38.1088 2.21591 34.8034 2.21591 30.7148C2.21591 26.6452 5.52122 23.3399 9.60987 23.3399C13.6794 23.3399 17.0038 26.6452 17.0038 30.7339C17.0038 34.8034 13.6794 38.1088 9.60987 38.1088Z" fill="#CC6A48"/>
<path d="M9.61057 22.8047C5.23533 22.8047 1.68164 26.3584 1.68164 30.7336C1.68164 35.1088 5.23533 38.6625 9.61057 38.6625C13.9858 38.6625 17.5395 35.1088 17.5395 30.7336C17.5395 26.3584 13.9858 22.8047 9.61057 22.8047ZM9.61057 38.1085C5.52192 38.1085 2.2166 34.8032 2.2166 30.7145C2.2166 26.645 5.52192 23.3397 9.61057 23.3397C13.6801 23.3397 17.0045 26.645 17.0045 30.7336C17.0045 34.8032 13.6801 38.1085 9.61057 38.1085Z" fill="#BFBFBF"/>
<path d="M9.28516 21.5439C9.39979 21.5439 9.49532 21.5439 9.60996 21.5439C9.70549 21.5439 9.82012 21.5439 9.93476 21.5439V21.9261C9.82012 21.9261 9.72459 21.9261 9.60996 21.9261C9.49532 21.9261 9.39979 21.9261 9.28516 21.9261V21.5439Z" fill="#FFBC8A"/>
<path d="M11.0621 22.0596C10.852 22.0214 10.6418 22.0023 10.4316 21.9832L10.489 21.6011C10.6991 21.6202 10.9093 21.6584 11.1195 21.6775L11.0621 22.0596Z" fill="#FFBC8A"/>
<path d="M14.2709 23.2824C14.0989 23.1678 13.9079 23.0531 13.7168 22.9576L13.9079 22.6328C14.0989 22.7283 14.29 22.843 14.4619 22.9576L14.2709 23.2824Z" fill="#FFBC8A"/>
<path d="M15.2092 23.951C15.0373 23.8173 14.8653 23.6835 14.6934 23.5689L14.9226 23.2632C15.0946 23.3778 15.2665 23.5116 15.4385 23.6453L15.2092 23.951Z" fill="#FFBC8A"/>
<path d="M13.2602 22.7286C13.0692 22.633 12.8781 22.5566 12.668 22.4802L12.8208 22.1172C13.0119 22.1936 13.222 22.27 13.4131 22.3656L13.2602 22.7286Z" fill="#FFBC8A"/>
<path d="M12.1895 22.3274C11.9793 22.2701 11.7692 22.2128 11.5781 22.1555L11.6737 21.7925C11.8838 21.8498 12.094 21.888 12.285 21.9644L12.1895 22.3274Z" fill="#FFBC8A"/>
<path d="M3.76367 23.6453C3.93562 23.5116 4.08847 23.3778 4.27953 23.2632L4.5088 23.5689C4.33685 23.6835 4.16489 23.8173 3.99294 23.951L3.76367 23.6453Z" fill="#FFBC8A"/>
<path d="M2.13867 25.4036C2.25331 25.2316 2.38705 25.0596 2.52079 24.8877L2.82648 25.117C2.69274 25.2889 2.559 25.4609 2.44437 25.6328L2.13867 25.4036Z" fill="#FFBC8A"/>
<path d="M8.08203 21.6775C8.2922 21.6393 8.50236 21.6202 8.71252 21.6011L8.76984 21.9832C8.55968 22.0023 8.34951 22.0405 8.13935 22.0596L8.08203 21.6775Z" fill="#FFBC8A"/>
<path d="M4.73828 22.9386C4.91023 22.8239 5.10129 22.7093 5.29235 22.6138L5.48341 22.9386C5.29235 23.0341 5.10129 23.1487 4.92934 23.2634L4.73828 22.9386Z" fill="#FFBC8A"/>
<path d="M5.80859 22.3656C5.99965 22.27 6.20982 22.1936 6.40087 22.1172L6.55372 22.4802C6.34356 22.5566 6.1525 22.633 5.96144 22.7286L5.80859 22.3656Z" fill="#FFBC8A"/>
<path d="M16.7747 25.6328C16.6601 25.4609 16.5263 25.2889 16.3926 25.117L16.6983 24.8877C16.832 25.0596 16.9658 25.2125 17.0804 25.4036L16.7747 25.6328Z" fill="#FFBC8A"/>
<path d="M2.9043 24.4673C3.05714 24.3145 3.20999 24.1616 3.36284 24.0088L3.63032 24.2763C3.47747 24.4291 3.32463 24.5629 3.17178 24.7348L2.9043 24.4673Z" fill="#FFBC8A"/>
<path d="M3.34331 37.4399C3.19046 37.287 3.03761 37.1342 2.88477 36.9813L3.15225 36.7139C3.30509 36.8667 3.45794 37.0196 3.61079 37.1724L3.34331 37.4399Z" fill="#FFBC8A"/>
<path d="M0.439453 31.0397C0.439453 30.9251 0.439453 30.8296 0.439453 30.7149C0.439453 30.6003 0.439453 30.5048 0.439453 30.3901H0.82157C0.82157 30.5048 0.82157 30.6003 0.82157 30.7149C0.82157 30.8296 0.82157 30.9251 0.82157 31.0397H0.439453Z" fill="#FFBC8A"/>
<path d="M15.5898 37.1724C15.7427 37.0196 15.8955 36.8858 16.0484 36.7139L16.3159 36.9813C16.163 37.1342 16.0102 37.287 15.8573 37.4399L15.5898 37.1724Z" fill="#FFBC8A"/>
<path d="M18.3984 31.0397C18.3984 30.9251 18.3984 30.8296 18.3984 30.7149C18.3984 30.6194 18.3984 30.5048 18.3984 30.3901H18.7806C18.7806 30.5048 18.7806 30.6003 18.7806 30.7149C18.7806 30.8296 18.7806 30.9251 18.7806 31.0397H18.3984Z" fill="#FFBC8A"/>
<path d="M16.0484 24.7348C15.8955 24.582 15.7427 24.4291 15.5898 24.2763L15.8573 24.0088C16.0102 24.1616 16.163 24.3145 16.3159 24.4673L16.0484 24.7348Z" fill="#FFBC8A"/>
<path d="M1.50977 26.4159C1.60529 26.2248 1.71993 26.0529 1.83457 25.8618L2.15936 26.0529C2.04473 26.2248 1.93009 26.4159 1.83457 26.6069L1.50977 26.4159Z" fill="#FFBC8A"/>
<path d="M17.8441 27.6577C17.7677 27.4476 17.6912 27.2565 17.5957 27.0654L17.9587 26.9126C18.0542 27.1037 18.1307 27.3138 18.2071 27.5049L17.8441 27.6577Z" fill="#FFBC8A"/>
<path d="M17.3678 26.6069C17.2722 26.4159 17.1576 26.2248 17.043 26.0529L17.3678 25.8618C17.4824 26.0338 17.597 26.2248 17.6926 26.4159L17.3678 26.6069Z" fill="#FFBC8A"/>
<path d="M18.3596 29.8929C18.3405 29.6827 18.3214 29.4726 18.2832 29.2624L18.6653 29.2051C18.7035 29.4152 18.7226 29.6254 18.7417 29.8356L18.3596 29.8929Z" fill="#FFBC8A"/>
<path d="M18.17 28.766C18.1318 28.5558 18.0745 28.3457 17.998 28.1546L18.3611 28.0591C18.4184 28.2692 18.4757 28.4603 18.533 28.6705L18.17 28.766Z" fill="#FFBC8A"/>
<path d="M6.91602 21.9454C7.12618 21.8881 7.31724 21.8308 7.5274 21.7734L7.62293 22.1364C7.41277 22.1747 7.2026 22.232 7.01154 22.3084L6.91602 21.9454Z" fill="#FFBC8A"/>
<path d="M12.668 38.9686C12.8781 38.8922 13.0692 38.8157 13.2602 38.7202L13.4131 39.0832C13.222 39.1788 13.0119 39.2552 12.8208 39.3316L12.668 38.9686Z" fill="#FFBC8A"/>
<path d="M13.7168 38.4908C13.9079 38.3953 14.0989 38.2807 14.2709 38.166L14.4619 38.4908C14.29 38.6054 14.0989 38.7201 13.9079 38.8156L13.7168 38.4908Z" fill="#FFBC8A"/>
<path d="M14.6934 37.8987C14.8653 37.7841 15.0373 37.6503 15.2092 37.5166L15.4385 37.8223C15.2665 37.956 15.1137 38.0898 14.9226 38.2044L14.6934 37.8987Z" fill="#FFBC8A"/>
<path d="M11.5781 39.2935C11.7883 39.2553 11.9985 39.198 12.1895 39.1216L12.285 39.4846C12.0749 39.5419 11.8838 39.5992 11.6737 39.6565L11.5781 39.2935Z" fill="#FFBC8A"/>
<path d="M9.60996 39.9046C9.51443 39.9046 9.39979 39.9046 9.28516 39.9046V39.5225C9.39979 39.5225 9.49532 39.5225 9.60996 39.5225C9.72459 39.5225 9.82012 39.5225 9.93476 39.5225V39.9046C9.82012 39.9046 9.70549 39.9046 9.60996 39.9046Z" fill="#FFBC8A"/>
<path d="M10.4316 39.4841C10.6418 39.465 10.852 39.4268 11.0621 39.4077L11.1195 39.7898C10.9093 39.828 10.6991 39.8471 10.489 39.8663L10.4316 39.4841Z" fill="#FFBC8A"/>
<path d="M18.0176 33.313C18.0749 33.1029 18.1322 32.8927 18.1895 32.7017L18.5525 32.7972C18.4952 33.0074 18.457 33.2175 18.3806 33.4086L18.0176 33.313Z" fill="#FFBC8A"/>
<path d="M18.2832 32.1862C18.3214 31.976 18.3405 31.7658 18.3596 31.5557L18.7417 31.613C18.7226 31.8231 18.6844 32.0333 18.6653 32.2435L18.2832 32.1862Z" fill="#FFBC8A"/>
<path d="M8.73206 39.8663C8.52189 39.8471 8.31173 39.8089 8.10156 39.7898L8.15888 39.4077C8.36904 39.4459 8.57921 39.465 8.78937 39.4841L8.73206 39.8663Z" fill="#FFBC8A"/>
<path d="M1.01367 27.5049C1.0901 27.3138 1.16652 27.1037 1.26205 26.9126L1.62506 27.0654C1.52953 27.2565 1.45311 27.4476 1.37668 27.6577L1.01367 27.5049Z" fill="#FFBC8A"/>
<path d="M16.373 36.3318C16.5068 36.1598 16.6405 35.9879 16.7552 35.8159L17.0609 36.0452C16.9462 36.2171 16.8125 36.3891 16.6787 36.561L16.373 36.3318Z" fill="#FFBC8A"/>
<path d="M17.0625 35.3954C17.1771 35.2234 17.2918 35.0324 17.3873 34.8413L17.7121 35.0324C17.6166 35.2234 17.5019 35.3954 17.3873 35.5864L17.0625 35.3954Z" fill="#FFBC8A"/>
<path d="M17.5957 34.3828C17.6912 34.1918 17.7677 34.0007 17.8441 33.7905L18.2071 33.9434C18.1307 34.1344 18.0542 34.3446 17.9587 34.5357L17.5957 34.3828Z" fill="#FFBC8A"/>
<path d="M0.822343 33.4086C0.765026 33.1984 0.707708 33.0074 0.650391 32.7972L1.0134 32.7017C1.05161 32.9118 1.10893 33.122 1.18535 33.313L0.822343 33.4086Z" fill="#FFBC8A"/>
<path d="M0.552986 32.2435C0.514774 32.0333 0.495668 31.8231 0.476562 31.613L0.858679 31.5557C0.877785 31.7658 0.915997 31.976 0.935103 32.1862L0.552986 32.2435Z" fill="#FFBC8A"/>
<path d="M0.667969 28.6705C0.725286 28.4603 0.763498 28.2501 0.839921 28.0591L1.20293 28.1546C1.14561 28.3648 1.0883 28.5749 1.03098 28.766L0.667969 28.6705Z" fill="#FFBC8A"/>
<path d="M0.476562 29.8551C0.495668 29.6449 0.53388 29.4348 0.552986 29.2246L0.935103 29.2819C0.896891 29.4921 0.877785 29.7023 0.858679 29.9124L0.476562 29.8551Z" fill="#FFBC8A"/>
<path d="M1.26205 34.5357C1.16652 34.3446 1.0901 34.1344 1.01367 33.9434L1.37668 33.7905C1.45311 34.0007 1.52953 34.1918 1.62506 34.3828L1.26205 34.5357Z" fill="#FFBC8A"/>
<path d="M4.27953 38.2044C4.10758 38.0898 3.93562 37.956 3.76367 37.8223L3.99294 37.5166C4.16489 37.6503 4.33685 37.7841 4.5088 37.8987L4.27953 38.2044Z" fill="#FFBC8A"/>
<path d="M6.38134 39.3316C6.19029 39.2552 5.98012 39.1788 5.78906 39.0832L5.94191 38.7202C6.13297 38.8157 6.32403 38.8922 6.53419 38.9686L6.38134 39.3316Z" fill="#FFBC8A"/>
<path d="M1.81503 35.5864C1.7004 35.3954 1.58576 35.2234 1.49023 35.0324L1.81503 34.8413C1.91056 35.0324 2.0252 35.2234 2.13983 35.3954L1.81503 35.5864Z" fill="#FFBC8A"/>
<path d="M5.29235 38.8347C5.10129 38.7391 4.92934 38.6245 4.73828 38.5099L4.92934 38.1851C5.10129 38.2997 5.29235 38.3952 5.48341 38.5099L5.29235 38.8347Z" fill="#FFBC8A"/>
<path d="M2.52079 36.561C2.38705 36.3891 2.25331 36.2362 2.13867 36.0452L2.44437 35.8159C2.559 35.9879 2.69274 36.1598 2.82648 36.3318L2.52079 36.561Z" fill="#FFBC8A"/>
<path d="M7.54693 39.6756C7.33677 39.6183 7.12661 39.5801 6.93555 39.5036L7.03108 39.1406C7.24124 39.1979 7.4514 39.2553 7.64246 39.3126L7.54693 39.6756Z" fill="#FFBC8A"/>
<path d="M9.60956 23.1104C5.40628 23.1104 1.98633 26.5303 1.98633 30.7336C1.98633 34.9369 5.40628 38.3568 9.60956 38.3568C13.8128 38.3568 17.2328 34.9369 17.2328 30.7336C17.2328 26.5112 13.8128 23.1104 9.60956 23.1104ZM9.60956 38.1084C5.52091 38.1084 2.2156 34.8031 2.2156 30.7145C2.2156 26.6449 5.52091 23.3396 9.60956 23.3396C13.6791 23.3396 17.0035 26.6449 17.0035 30.7336C17.0035 34.8031 13.6791 38.1084 9.60956 38.1084Z" fill="#9E9E9E"/>
<path d="M9.24805 32.0712L9.30536 31.8037L9.53463 31.861L9.47732 32.1285L9.24805 32.0712ZM9.61106 32.1667L9.66837 31.8992L10.3562 32.0521L10.2989 32.3196L9.61106 32.1667ZM10.4326 32.3387L10.4899 32.0712L11.1777 32.224L11.1204 32.4915L10.4326 32.3387ZM11.2542 32.5297L11.3115 32.2623L11.9993 32.4151L11.942 32.6826L11.2542 32.5297ZM12.0757 32.7208L12.133 32.4533L12.8208 32.6062L12.7635 32.8736L12.0757 32.7208ZM12.8973 32.8927L12.9546 32.6253L13.6424 32.7781L13.5851 33.0456L12.8973 32.8927ZM13.7188 33.0838L13.7761 32.8163L14.4639 32.9692L14.4066 33.2366L13.7188 33.0838ZM14.5404 33.2558L14.5977 32.9883L15.2855 33.1411L15.2282 33.4086L14.5404 33.2558ZM15.3619 33.4468L15.4192 33.1793L16.107 33.3322L16.0497 33.5997L15.3619 33.4468ZM16.1835 33.6379L16.2408 33.3704L16.9286 33.5232L16.8713 33.7907L16.1835 33.6379ZM17.005 33.8098L17.0623 33.5423L17.7501 33.6952L17.6928 33.9627L17.005 33.8098ZM17.8266 34.0009L17.8839 33.7334L18.5717 33.8862L18.5144 34.1537L17.8266 34.0009ZM18.6481 34.1728L18.7054 33.9054L19.3932 34.0582L19.3359 34.3257L18.6481 34.1728ZM19.4697 34.3639L19.527 34.0964L20.2148 34.2493L20.1575 34.5167L19.4697 34.3639ZM20.2912 34.555L20.3485 34.2875L21.0364 34.4403L20.979 34.7078L20.2912 34.555Z" fill="#2B2B2B"/>
<path d="M9.611 29.2051L9.82117 29.0522L9.99312 29.2624L10.2415 29.1669L10.3561 29.4153L10.6236 29.3962L10.6809 29.6636L10.9484 29.7018L10.9102 29.9693L11.1586 30.084L11.063 30.3323L11.2732 30.5043L11.1204 30.7336L11.2732 30.9437L11.063 31.1157L11.1586 31.3641L10.9102 31.4787L10.9484 31.7462L10.6809 31.8035L10.6236 32.071L10.3561 32.0328L10.2415 32.2811L9.99312 32.1856L9.82117 32.3958L9.611 32.2429L9.38173 32.3958L9.20978 32.1856L8.9614 32.2811L8.84677 32.0328L8.57929 32.071L8.54107 31.8035L8.27359 31.7462L8.2927 31.4787L8.04432 31.3641L8.13985 31.1157L7.92969 30.9437L8.08253 30.7336L7.92969 30.5043L8.13985 30.3323L8.04432 30.084L8.2927 29.9693L8.27359 29.7018L8.54107 29.6636L8.57929 29.3962L8.84677 29.4153L8.9614 29.1669L9.20978 29.2624L9.38173 29.0522L9.611 29.2051Z" fill="black"/>
<path d="M10.4508 30.7337C10.4508 31.1923 10.0687 31.5744 9.61019 31.5744C9.15165 31.5744 8.76953 31.1923 8.76953 30.7337C8.76953 30.2752 9.15165 29.8931 9.61019 29.8931C10.0687 29.8931 10.4508 30.2561 10.4508 30.7337Z" fill="#444444"/>
<path d="M40.3891 31.3641C40.1981 31.3641 40.007 31.2877 39.8924 31.1157L38.7269 29.6064C38.6696 29.53 38.6314 29.4344 38.6123 29.3389L35.9757 16.003C35.8992 15.6591 36.1285 15.3343 36.4724 15.2579C36.8163 15.1815 37.1411 15.4107 37.2175 15.7546L39.8159 28.9377L40.905 30.3324C41.1151 30.5999 41.0769 31.0011 40.7903 31.2113C40.6566 31.3068 40.5229 31.3641 40.3891 31.3641Z" fill="#02A9CE"/>
<path d="M40.3891 31.364C40.5229 31.364 40.6566 31.3258 40.7712 31.2303L39.2046 29.2242L36.6826 16.3468L36.4724 15.2578C36.1285 15.3342 35.8992 15.659 35.9757 16.0029L38.6123 29.3388C38.6314 29.4344 38.6696 29.5299 38.7269 29.6063L39.8924 31.1157C40.007 31.2685 40.1981 31.364 40.3891 31.364Z" fill="#02A9CE"/>
<path d="M40.7141 30.7335C40.7141 30.9054 40.5612 31.0583 40.3893 31.0583C40.2173 31.0583 40.0645 30.9246 40.0645 30.7335C40.0645 30.5615 40.2173 30.4087 40.3893 30.4087C40.5612 30.4087 40.7141 30.5424 40.7141 30.7335Z" fill="black"/>
<path d="M37.3228 15.0616L35.6348 15.3887L35.7729 16.1014L37.4609 15.7744L37.3228 15.0616Z" fill="#444444"/>
<path d="M21.374 30.6293L21.3418 30.9141L21.6835 30.9527L21.7157 30.6679L21.374 30.6293Z" fill="#2B2B2B"/>
<path d="M21.2078 30.9056L20.52 30.8292L20.5582 30.5426L21.246 30.619L21.2078 30.9056ZM20.3863 30.8101L19.6985 30.7337L19.7367 30.4471L20.4245 30.5235L20.3863 30.8101ZM19.5647 30.7146L18.8769 30.6381L18.9151 30.3515L19.6029 30.428L19.5647 30.7146ZM18.7432 30.619L18.0554 30.5426L18.0936 30.256L18.7814 30.3324L18.7432 30.619ZM17.9216 30.5235L17.2338 30.4471L17.272 30.1605L17.9598 30.2369L17.9216 30.5235ZM17.1001 30.428L16.4123 30.3515L16.4505 30.065L17.1383 30.1414L17.1001 30.428ZM16.2785 30.3515L15.5907 30.2751L15.6289 29.9885L16.3167 30.065L16.2785 30.3515ZM15.457 30.256L14.7692 30.1796L14.8074 29.893L15.4952 29.9694L15.457 30.256ZM14.6354 30.1605L13.9476 30.0841L13.9858 29.7975L14.6736 29.8739L14.6354 30.1605ZM13.8139 30.065L13.126 29.9885L13.1643 29.7019L13.8521 29.7784L13.8139 30.065ZM12.9923 29.9694L12.3045 29.893L12.3427 29.6064L13.0305 29.6828L12.9923 29.9694ZM12.1708 29.8739L11.4829 29.7975L11.5212 29.5109L12.209 29.5873L12.1708 29.8739ZM11.3492 29.7784L10.6614 29.7019L10.6996 29.4154L11.3874 29.4918L11.3492 29.7784ZM10.5277 29.6828L9.83984 29.6064L9.87806 29.3198L10.5659 29.3962L10.5277 29.6828Z" fill="#2B2B2B"/>
<path d="M9.39954 29.266L9.36719 29.5508L9.70889 29.5896L9.74125 29.3049L9.39954 29.266Z" fill="#2B2B2B"/>
<path d="M18.8769 19.0029C18.7623 19.0411 18.6477 19.0985 18.5713 19.194L9.13296 30.3136C8.90369 30.5811 8.94191 30.9823 9.20939 31.2116C9.32402 31.3071 9.47687 31.3644 9.61061 31.3644C9.78256 31.3644 9.97362 31.288 10.0883 31.1351L19.1826 20.4168L18.8769 19.0029Z" fill="#02A9CE"/>
<path d="M18.8769 19.0029C18.7623 19.0411 18.6477 19.0985 18.5713 19.194L9.13296 30.3136C8.90369 30.5811 8.94191 30.9823 9.20939 31.2116C9.20939 31.2116 9.20939 31.2116 9.22849 31.2116L9.62972 30.7148L19.0298 19.6143L18.8769 19.0029Z" fill="#02A9CE"/>
<path d="M18.0987 12.9954L17.1465 13.2021L18.2209 18.1498L19.173 17.943L18.0987 12.9954Z" fill="#9E9E9E"/>
<path d="M21.8764 33.3129C21.8381 33.3129 21.819 33.3129 21.7808 33.3129L9.51487 31.345C9.17096 31.2877 8.94169 30.9629 8.99901 30.619C9.05633 30.2751 9.38113 30.0458 9.72503 30.1031L21.093 31.9182L18.1316 18.3721C18.0552 18.0282 18.2653 17.7034 18.6093 17.627C18.9532 17.5506 19.278 17.7607 19.3544 18.1046L22.4877 32.5487C22.526 32.7588 22.4686 32.969 22.3349 33.1218C22.2203 33.2556 22.0483 33.3129 21.8764 33.3129Z" fill="#02A9CE"/>
<path d="M9.61096 30.7336L21.8769 32.7015L18.7436 18.2383L18.6098 17.627C18.2659 17.7034 18.0557 18.0282 18.1322 18.3721L21.0745 31.9181L9.70649 30.1031C9.36259 30.0458 9.05689 30.275 8.98047 30.6189L9.61096 30.7336Z" fill="#02A9CE"/>
<path d="M19.447 17.431L17.7676 17.7998L17.9233 18.5089L19.6028 18.1401L19.447 17.431Z" fill="#444444"/>
<path d="M16.0669 12.2583C16.0669 12.2583 15.5892 12.8124 15.4937 13.5193C15.4173 14.0351 15.4364 15.4108 17.1177 15.5445C18.5697 15.6591 19.2385 14.6274 20.2511 14.4173C21.321 14.2071 23.1169 13.7868 22.8686 12.3538C20.9007 12.6213 19.9645 12.6404 18.8372 12.6404C17.6909 12.6213 16.0669 12.2583 16.0669 12.2583Z" fill="#CC6A48"/>
<path d="M16.0694 12.2583C16.0694 12.2583 15.7637 12.6404 15.5918 13.1563C16.891 13.5193 19.2601 13.7677 22.9093 12.6213C22.9093 12.5449 22.9093 12.4494 22.8902 12.3538C20.9223 12.6213 19.9861 12.6404 18.8589 12.6404C17.6934 12.6213 16.0694 12.2583 16.0694 12.2583Z" fill="#E09B63"/>
<path d="M9.87871 30.7333C9.87871 30.8861 9.76408 31.0008 9.61123 31.0008C9.45838 31.0008 9.34375 30.8861 9.34375 30.7333C9.34375 30.5805 9.45838 30.4658 9.61123 30.4658C9.74497 30.4658 9.87871 30.5805 9.87871 30.7333Z" fill="black"/>
<path d="M21.5904 30.3135C20.3485 30.3135 19.3359 31.3261 19.3359 32.568C19.3359 33.8098 20.3485 34.8225 21.5904 34.8225C22.8323 34.8225 23.8449 33.8098 23.8449 32.568C23.8449 31.3261 22.8323 30.3135 21.5904 30.3135ZM20.2148 31.2879C20.3868 31.0968 20.6733 31.0968 20.8453 31.2688C21.0364 31.4407 21.0364 31.7273 20.8644 31.8993C20.6925 32.0712 20.4059 32.0903 20.2339 31.9184C20.062 31.7655 20.0429 31.4789 20.2148 31.2879ZM20.3677 33.4277C20.1384 33.5042 19.8709 33.3704 19.7945 33.1411C19.7181 32.9119 19.8518 32.6444 20.0811 32.568C20.3103 32.4915 20.5778 32.6253 20.6542 32.8546C20.7307 33.0838 20.5969 33.3513 20.3677 33.4277ZM21.7242 34.0582C21.6669 34.3066 21.4376 34.4594 21.1892 34.4021C20.9408 34.3448 20.788 34.1155 20.8453 33.8672C20.9026 33.6188 21.1319 33.4659 21.3803 33.5233C21.6286 33.5615 21.7815 33.8098 21.7242 34.0582ZM21.8006 31.6127C21.5522 31.5554 21.3994 31.3261 21.4567 31.0777C21.514 30.8293 21.7433 30.6765 21.9917 30.7338C22.24 30.7911 22.3929 31.0204 22.3356 31.2688C22.2782 31.5171 22.049 31.67 21.8006 31.6127ZM22.9661 33.829C22.7941 34.02 22.5075 34.02 22.3356 33.8481C22.1445 33.6761 22.1445 33.3895 22.3165 33.2176C22.4884 33.0265 22.775 33.0265 22.9469 33.1985C23.1189 33.3704 23.138 33.6379 22.9661 33.829ZM23.0807 32.568C22.8514 32.6444 22.5839 32.5106 22.5075 32.2814C22.4311 32.0521 22.5648 31.7846 22.7941 31.7082C23.0234 31.6318 23.2909 31.7655 23.3673 31.9948C23.4437 32.2432 23.31 32.4915 23.0807 32.568Z" fill="#606060"/>
<path d="M22.6781 32.5681C22.6781 33.1795 22.1813 33.6571 21.589 33.6571C20.9776 33.6571 20.5 33.1604 20.5 32.5681C20.5 31.9567 20.9968 31.479 21.589 31.479C22.2004 31.4599 22.6781 31.9567 22.6781 32.5681Z" fill="black"/>
<path d="M22.2386 32.5679C22.2386 32.9309 21.9521 33.2175 21.5891 33.2175C21.226 33.2175 20.9395 32.9309 20.9395 32.5679C20.9395 32.2049 21.226 31.9183 21.5891 31.9183C21.9521 31.8992 22.2386 32.2049 22.2386 32.5679Z" fill="#606060"/>
<path d="M20.5395 37.1724C20.5012 37.1724 20.463 37.1724 20.4439 37.1533C20.2147 37.096 20.0809 36.8667 20.1382 36.6374L21.1891 32.4342C21.2464 32.2049 21.4756 32.0712 21.7049 32.1285C21.9342 32.1858 22.0679 32.4151 22.0106 32.6443L20.9598 36.8476C20.9025 37.0578 20.7305 37.1724 20.5395 37.1724Z" fill="black"/>
<path d="M21.876 37.0004C21.876 37.3061 21.6276 37.5544 21.3219 37.5544H19.7552C19.4495 37.5544 19.2012 37.3061 19.2012 37.0004C19.2012 36.6947 19.4495 36.4463 19.7552 36.4463H21.3219C21.6276 36.4463 21.876 36.6947 21.876 37.0004Z" fill="black"/>
<path d="M21.3219 36.4463H19.7552C19.4495 36.4463 19.2012 36.6947 19.2012 37.0004H21.8951C21.876 36.6947 21.6276 36.4463 21.3219 36.4463Z" fill="#606060"/>
<path d="M19.2773 36.7329H21.8184C21.7229 36.5609 21.5509 36.4463 21.3408 36.4463H19.7741C19.5448 36.4463 19.3729 36.5609 19.2773 36.7329Z" fill="#9E9E9E"/>
<path d="M9.60936 30.9439C9.53293 30.9439 9.45651 30.9057 9.4183 30.8293L4.54631 20.9515C4.48899 20.856 4.54631 20.7223 4.64184 20.665C4.73736 20.6076 4.87111 20.665 4.92842 20.7605L9.78131 30.6382C9.83863 30.7337 9.78131 30.8675 9.68578 30.9248C9.66667 30.9248 9.62846 30.9439 9.60936 30.9439Z" fill="#02A9CE"/>
<path d="M21.7804 30.0651L10.7754 29.2817C10.9282 29.6447 11.1766 30.0269 11.5396 30.3135L14.9023 30.7338C14.9023 30.7338 19.182 30.7529 19.182 30.8102C19.182 30.8484 21.7421 31.0395 21.7995 31.0013C21.8568 30.9822 23.1178 31.6318 23.1178 31.6318L23.0604 33.0456C23.0604 33.0456 22.9649 33.0456 22.8121 33.0456C22.6783 33.3704 22.4109 33.6379 22.0861 33.7907L22.2007 34.9944C23.2515 34.746 24.0731 33.9627 24.2068 32.931C24.3979 31.5553 23.3088 30.2561 21.7804 30.0651Z" fill="#02A9CE"/>
<path d="M21.6279 30.3897L10.9668 29.6255C11.2916 30.1605 11.8266 30.6763 12.7245 30.81C14.1957 31.0202 16.4884 31.1922 18.59 31.3641C20.4242 31.4979 21.0356 31.2304 21.5896 31.2304C22.3348 31.2304 22.9271 31.8227 22.9271 32.5678C22.9271 33.1219 22.5831 33.5995 22.1055 33.8097L22.2201 35.0133C22.9462 34.8414 23.5575 34.4019 23.9206 33.8288C23.997 33.6568 24.0352 33.4658 24.0734 33.2747C24.2454 31.88 23.1372 30.5999 21.6279 30.3897Z" fill="#02A9CE"/>
<path d="M37.1226 13.2899C37.1226 13.8249 36.6832 14.2643 36.1482 14.2643C35.6133 14.2643 35.1738 13.8249 35.1738 13.2899C35.1738 12.755 35.6133 12.3155 36.1482 12.3155C36.6832 12.2964 37.1226 12.7359 37.1226 13.2899Z" fill="#444444"/>
<path d="M35.5946 9.5835H31.334V10.94H35.5946V9.5835Z" fill="#E09B63"/>
<path d="M36.5103 13.2898C36.5103 13.5 36.3384 13.6719 36.1282 13.6719C35.918 13.6719 35.7461 13.5 35.7461 13.2898C35.7461 13.0797 35.918 12.9077 36.1282 12.9077C36.3384 12.8886 36.5103 13.0605 36.5103 13.2898Z" fill="#02A9CE"/>
<path d="M31.6574 9.5835H31.4473V10.94H31.6574V9.5835Z" fill="#CC6A48"/>
<path d="M32.0773 9.5835H31.8672V10.94H32.0773V9.5835Z" fill="#CC6A48"/>
<path d="M32.4973 9.5835H32.2871V10.94H32.4973V9.5835Z" fill="#CC6A48"/>
<path d="M32.9192 9.5835H32.709V10.94H32.9192V9.5835Z" fill="#CC6A48"/>
<path d="M33.3391 9.5835H33.1289V10.94H33.3391V9.5835Z" fill="#CC6A48"/>
<path d="M33.759 9.5835H33.5488V10.94H33.759V9.5835Z" fill="#CC6A48"/>
<path d="M34.1789 9.5835H33.9688V10.94H34.1789V9.5835Z" fill="#CC6A48"/>
<path d="M34.5988 9.5835H34.3887V10.94H34.5988V9.5835Z" fill="#CC6A48"/>
<path d="M35.0207 9.5835H34.8105V10.94H35.0207V9.5835Z" fill="#CC6A48"/>
<path d="M35.4406 9.5835H35.2305V10.94H35.4406V9.5835Z" fill="#CC6A48"/>
<path d="M39.7391 17.9136C39.0131 17.99 38.459 18.525 38.459 19.1937C38.459 19.8433 39.0131 20.3973 39.7391 20.4738V17.9136Z" fill="#02A9CE"/>
<path d="M39.4141 20.3973C39.5287 20.4355 39.6242 20.4547 39.758 20.4738V17.9136C39.6433 17.9327 39.5287 17.9518 39.4141 17.99V20.3973Z" fill="#02A9CE"/>
<path d="M38.9157 19.6744L37.7188 20.625L38.0633 21.0589L39.2603 20.1083L38.9157 19.6744Z" fill="#02A9CE"/>
</g>
<defs>
<clipPath id="clip0">
<rect width="50" height="30.7413" fill="white" transform="translate(0 9.5835)"/>
</clipPath>
</defs>
</svg>
