<svg width="50" height="50" viewBox="0 0 50 50" fill="none" xmlns="http://www.w3.org/2000/svg">
<path d="M9.31737 46.3403H8.52447C8.30823 46.3403 8.16406 46.5205 8.16406 46.7007V47.5657C8.16406 47.782 8.34427 47.9261 8.52447 47.9261H9.31737C9.53361 47.9261 9.67778 47.7459 9.67778 47.5657V46.7007C9.67778 46.4845 9.49757 46.3403 9.31737 46.3403Z" fill="#4C5155"/>
<path d="M22.7256 46.3403H21.9327C21.7164 46.3403 21.5723 46.5205 21.5723 46.7007V47.5657C21.5723 47.782 21.7525 47.9261 21.9327 47.9261H22.7256C22.9418 47.9261 23.086 47.7459 23.086 47.5657V46.7007C23.086 46.4845 22.9058 46.3403 22.7256 46.3403Z" fill="#4C5155"/>
<path d="M24.1673 46.3767C24.1673 46.7732 23.843 47.1336 23.4105 47.1336H7.8048C7.40835 47.1336 7.08398 46.8092 7.08398 46.3767V26.5543C7.08398 26.1579 7.40835 25.8335 7.8048 25.8335H23.3744C23.7709 25.8335 24.1313 26.1579 24.1313 26.5904V46.3767H24.1673Z" fill="#B8C7D8"/>
<path d="M7.69668 47.1337L7.08398 46.521C7.15607 46.8093 7.37231 47.0616 7.69668 47.1337Z" fill="#B8C7D8"/>
<path d="M7.08398 46.3766C7.08398 46.7731 7.40835 47.1335 7.84084 47.1335H23.4105C23.8069 47.1335 24.1673 46.8091 24.1673 46.3766V26.5542L7.08398 46.3766Z" fill="#A3B5C6"/>
<path d="M23.4105 26.1216H7.8048C7.40835 26.1216 7.08398 26.482 7.08398 26.8784V28.6084C7.08398 29.0048 7.40835 29.3653 7.8048 29.3653H23.3744C23.7709 29.3653 24.1313 29.0409 24.1313 28.6084V26.8784C24.1673 26.482 23.8069 26.1216 23.4105 26.1216Z" fill="#8DA3B5"/>
<path d="M20.7784 36.8618C20.7784 39.7091 18.4718 42.0157 15.6245 42.0157C12.7773 42.0157 10.4707 39.7091 10.4707 36.8618C10.4707 34.0146 12.7773 31.708 15.6245 31.708C18.4718 31.708 20.7784 34.0146 20.7784 36.8618Z" fill="#8DA3B5"/>
<path d="M20.7784 36.4292C20.7784 39.2764 18.4718 41.5831 15.6245 41.5831C12.7773 41.5831 10.4707 39.2764 10.4707 36.4292C10.4707 33.582 12.7773 31.2754 15.6245 31.2754C18.4718 31.2754 20.7784 33.582 20.7784 36.4292Z" fill="#EBECF0"/>
<path d="M18.5804 36.4294C18.5804 38.0872 17.2469 39.4208 15.589 39.4208C13.9312 39.4208 12.5977 38.0872 12.5977 36.4294C12.5977 34.7715 13.9312 33.438 15.589 33.438C17.2469 33.438 18.5804 34.7715 18.5804 36.4294Z" fill="#3A4245"/>
<path d="M17.282 34.7713C16.4171 33.9063 15.0115 33.9063 14.1465 34.7713L17.282 37.9068C18.147 37.0419 18.147 35.6363 17.282 34.7713Z" fill="#767A7D"/>
<path d="M23.4105 25.8335H7.8048C7.40835 25.8335 7.08398 26.1579 7.08398 26.5904V28.3203C7.08398 28.7168 7.40835 29.0411 7.8048 29.0411H23.3744C23.7709 29.0411 24.1313 28.7168 24.1313 28.2843V26.5904C24.1673 26.1579 23.8069 25.8335 23.4105 25.8335Z" fill="#4C5155"/>
<path d="M18.1851 27.6715C18.1851 28.0679 17.8607 28.4283 17.4282 28.4283H13.7881C13.3917 28.4283 13.0312 28.104 13.0312 27.6715V27.3111C13.0312 26.9146 13.3556 26.5542 13.7881 26.5542H17.4643C17.8607 26.5542 18.2211 26.8786 18.2211 27.3111V27.6715H18.1851Z" fill="#02A9CE"/>
<path d="M14.9051 27.491H14.4727L14.5808 26.8423H15.0133L14.9051 27.491ZM14.5447 27.3829H14.797L14.8691 26.9144H14.6529L14.5447 27.3829Z" fill="white"/>
<path d="M14.7958 28.0315H14.3633L14.4714 27.3828H14.9039L14.7958 28.0315ZM14.4714 27.9595H14.7237L14.7958 27.4909H14.5435L14.4714 27.9595Z" fill="white"/>
<path d="M15.8416 27.491H15.373L15.4812 26.8423H15.9137L15.8416 27.491ZM15.4812 27.3829H15.7335L15.8055 26.9144H15.5533L15.4812 27.3829Z" fill="white"/>
<path d="M15.7333 28.0315H15.3008L15.4089 27.3828H15.8414L15.7333 28.0315ZM15.4089 27.9595H15.6612L15.7333 27.4909H15.481L15.4089 27.9595Z" fill="white"/>
<path d="M16.7782 27.491H16.3457L16.4538 26.8423H16.8863L16.7782 27.491ZM16.4178 27.3829H16.6701L16.7422 26.9144H16.4899L16.4178 27.3829Z" fill="white"/>
<path d="M16.6708 28.0315H16.2383L16.3464 27.3828H16.7789L16.6708 28.0315ZM16.3104 27.9595H16.5626L16.6347 27.4909H16.3824L16.3104 27.9595Z" fill="white"/>
<path d="M22.5804 27.5632C22.5804 27.7794 22.4002 27.9236 22.22 27.9236H20.3819C20.1656 27.9236 20.0215 27.7434 20.0215 27.5632V27.419C20.0215 27.2028 20.2017 27.0586 20.3819 27.0586H22.22C22.4362 27.0586 22.5804 27.2388 22.5804 27.419V27.5632Z" fill="#02A9CE"/>
<path d="M11.2288 27.5632C11.2288 27.7794 11.0486 27.9236 10.8684 27.9236H9.03033C8.81409 27.9236 8.66992 27.7434 8.66992 27.5632V27.419C8.66992 27.2028 8.85013 27.0586 9.03033 27.0586H10.8684C11.0847 27.0586 11.2288 27.2388 11.2288 27.419V27.5632Z" fill="#02A9CE"/>
<path d="M30.5417 46.75H29.9167C29.75 46.75 29.625 46.875 29.625 47.0417V47.75C29.625 47.9167 29.75 48.0417 29.9167 48.0417H30.5417C30.7083 48.0417 30.8333 47.9167 30.8333 47.75V47.0417C30.8333 46.875 30.7083 46.75 30.5417 46.75Z" fill="#4C5155"/>
<path d="M41.3756 46.75H40.7506C40.584 46.75 40.459 46.875 40.459 47.0417V47.75C40.459 47.9167 40.584 48.0417 40.7506 48.0417H41.3756C41.5423 48.0417 41.6673 47.9167 41.6673 47.75V47.0417C41.6673 46.875 41.5423 46.75 41.3756 46.75Z" fill="#4C5155"/>
<path d="M30.5417 46.75H29.9167C29.75 46.75 29.625 46.875 29.625 47.0417V47.75C29.625 47.9167 29.75 48.0417 29.9167 48.0417H30.5417C30.7083 48.0417 30.8333 47.9167 30.8333 47.75V47.0417C30.8333 46.875 30.7083 46.75 30.5417 46.75Z" fill="#4C5155"/>
<path d="M41.3756 46.75H40.7506C40.584 46.75 40.459 46.875 40.459 47.0417V47.75C40.459 47.9167 40.584 48.0417 40.7506 48.0417H41.3756C41.5423 48.0417 41.6673 47.9167 41.6673 47.75V47.0417C41.6673 46.875 41.5423 46.75 41.3756 46.75Z" fill="#4C5155"/>
<path d="M42.541 46.7917C42.541 47.125 42.291 47.375 41.9577 47.375H29.3743C29.041 47.375 28.791 47.125 28.791 46.7917V23.0833C28.791 22.75 29.041 22.5 29.3743 22.5H41.9577C42.291 22.5 42.541 22.75 42.541 23.0833V46.7917Z" fill="#B8C7D8"/>
<path d="M29.0404 47.2918L28.832 47.0835C28.8737 47.2085 28.957 47.2502 29.0404 47.2918Z" fill="#B8C7D8"/>
<path d="M42.334 22.625L42.4173 22.7083C42.3756 22.7083 42.334 22.6667 42.334 22.625Z" fill="#B8C7D8"/>
<path d="M28.75 46.7918C28.75 47.1252 29 47.3752 29.3333 47.3752H41.9167C42.25 47.3752 42.5 47.1252 42.5 46.7918V23.0835L28.75 46.7918Z" fill="#A3B5C6"/>
<path d="M42.5417 23.6665H28.75V23.7498H42.5417V23.6665Z" fill="#4C5155"/>
<path d="M42.5417 46.0415H28.75V46.1248H42.5417V46.0415Z" fill="#4C5155"/>
<path d="M35.9173 23.0837C35.9173 23.2503 35.7923 23.3753 35.6256 23.3753C35.459 23.3753 35.334 23.2503 35.334 23.0837C35.334 22.917 35.459 22.792 35.6256 22.792C35.7923 22.792 35.9173 22.917 35.9173 23.0837Z" fill="#02A9CE"/>
<path d="M37.625 23.0835C37.625 23.1668 37.5833 23.2085 37.5 23.2085C37.4167 23.2085 37.375 23.1668 37.375 23.0835C37.375 23.0002 37.4167 22.9585 37.5 22.9585C37.5417 22.9585 37.625 23.0002 37.625 23.0835Z" fill="#4C5155"/>
<path d="M33.959 23.0835C33.959 23.1668 33.9173 23.2085 33.834 23.2085C33.7507 23.2085 33.709 23.1668 33.709 23.0835C33.709 23.0002 33.7507 22.9585 33.834 22.9585C33.8757 22.9585 33.959 23.0002 33.959 23.0835Z" fill="#4C5155"/>
<path d="M42.5417 34.875H28.75V34.9583H42.5417V34.875Z" fill="#4C5155"/>
<path d="M32.0007 34.875C32.0007 35.125 31.7923 35.375 31.5007 35.375H30.084C29.834 35.375 29.584 35.1667 29.584 34.875C29.584 34.625 29.7923 34.375 30.084 34.375H31.5007C31.7923 34.375 32.0007 34.5833 32.0007 34.875Z" fill="#4C5155"/>
<path d="M33.1439 27.1766L31.1074 28.1333L31.7807 29.5664L33.8171 28.6097L33.1439 27.1766Z" fill="#A3B5C6"/>
<path d="M33.1419 26.9315L31.1055 27.8882L31.7787 29.3213L33.8152 28.3646L33.1419 26.9315Z" fill="#FF3912"/>
<path d="M33.25 27.2915C33.25 27.6248 32.9583 27.9165 32.625 27.9165C32.2917 27.9165 32 27.6248 32 27.2915C32 26.9582 32.2917 26.6665 32.625 26.6665C32.9583 26.6665 33.25 26.9582 33.25 27.2915Z" fill="white"/>
<path d="M32.3307 27.2083C32.3307 27.25 32.2891 27.2917 32.2474 27.2917C32.2057 27.2917 32.1641 27.25 32.1641 27.2083C32.1641 27.1667 32.2057 27.125 32.2474 27.125C32.2891 27.125 32.3307 27.1667 32.3307 27.2083Z" fill="black"/>
<path d="M32.8327 27.2083C32.8327 27.25 32.791 27.2917 32.7494 27.2917C32.7077 27.2917 32.666 27.25 32.666 27.2083C32.666 27.1667 32.7077 27.125 32.7494 27.125C32.791 27.125 32.8327 27.1667 32.8327 27.2083Z" fill="black"/>
<path d="M31.498 27.4583L32.498 27.5417V27.375L31.498 27.4583Z" fill="#FF3912"/>
<g clip-path="url(#clip0)">
<path d="M33.296 7.32515C33.296 7.4475 33.2042 7.53926 33.0818 7.53926H28.7982C28.6758 7.53926 28.584 7.4475 28.584 7.32515V1.88061C28.6146 1.75827 28.7064 1.6665 28.7982 1.6665H33.0818C33.2042 1.6665 33.296 1.75827 33.296 1.88061V7.32515Z" fill="#4D5256"/>
<path d="M39.5076 7.32515C39.5076 7.4475 39.4158 7.53926 39.2934 7.53926H35.0404C34.918 7.53926 34.8262 7.4475 34.8262 7.32515V1.88061C34.8262 1.75827 34.918 1.6665 35.0404 1.6665H39.324C39.4464 1.6665 39.5382 1.75827 39.5382 1.88061V7.32515H39.5076Z" fill="#4D5256"/>
<path d="M28.9212 19.1016H28.2786C28.095 19.1016 27.9727 19.2545 27.9727 19.4074V20.1109C27.9727 20.2945 28.1256 20.4168 28.2786 20.4168H28.9212C29.1048 20.4168 29.2272 20.2639 29.2272 20.1109V19.4074C29.2578 19.2239 29.1048 19.1016 28.9212 19.1016Z" fill="#4C5155"/>
<path d="M40.0579 19.1016H39.4154C39.2318 19.1016 39.1094 19.2545 39.1094 19.4074V20.1109C39.1094 20.2945 39.2624 20.4168 39.4154 20.4168H40.0579C40.2415 20.4168 40.3639 20.2639 40.3639 20.1109V19.4074C40.3639 19.2239 40.2415 19.1016 40.0579 19.1016Z" fill="#4C5155"/>
<path d="M41.2507 19.1318C41.2507 19.4683 40.9753 19.7436 40.6387 19.7436H27.6959C27.3594 19.7436 27.084 19.4683 27.084 19.1318V2.70647C27.084 2.37001 27.3594 2.09473 27.6959 2.09473H40.6387C40.9753 2.09473 41.2507 2.37001 41.2507 2.70647V19.1318Z" fill="#B8C7D8"/>
<path d="M27.084 19.1319C27.084 19.4684 27.3594 19.7437 27.6959 19.7437H40.6387C40.9753 19.7437 41.2507 19.4684 41.2507 19.1319V2.70654L27.084 19.1319Z" fill="#A3B5C6"/>
<path d="M40.7917 15.4306C40.7917 15.767 40.5163 16.0423 40.1798 16.0423H28.1549C27.8183 16.0423 27.543 15.767 27.543 15.4306V6.43792C27.543 6.10146 27.8183 5.82617 28.1549 5.82617H40.1492C40.4857 5.82617 40.7611 6.10146 40.7611 6.43792V15.4306H40.7917Z" fill="#3A4245"/>
<path d="M39.2613 7.90625H29.0723V13.8402H39.2613V7.90625Z" fill="#4D5256"/>
<path d="M39.2613 11.7603H29.0723V12.0355H39.2613V11.7603Z" fill="#6A6F73"/>
<path opacity="0.2" d="M38.2827 7.81445L28.002 15.553H40.3634V7.81445H38.2827Z" fill="white"/>
<path d="M39.3855 6.89697C39.3855 7.14167 39.1408 7.32519 38.8654 7.32519H29.4719C29.1966 7.32519 28.9518 7.14167 28.9518 6.92756H27.9727V7.23343C27.9727 7.50872 28.248 7.72283 28.5846 7.72283H39.7527C40.0893 7.72283 40.3647 7.50872 40.3647 7.23343V6.92756H39.3855V6.89697Z" fill="#212628"/>
<path d="M40.3647 6.89687C40.3647 7.0498 40.2423 7.17215 40.0893 7.17215H28.248C28.095 7.17215 27.9727 7.0498 27.9727 6.89687C27.9727 6.74393 28.095 6.62158 28.248 6.62158H40.1199C40.2423 6.62158 40.3647 6.74393 40.3647 6.89687Z" fill="#B8C7D8"/>
<path d="M37.5791 6.89708C37.5791 6.98884 37.5179 7.05001 37.4261 7.05001H30.9088C30.8171 7.05001 30.7559 6.98884 30.7559 6.89708C30.7559 6.80532 30.8171 6.74414 30.9088 6.74414H37.4261C37.5179 6.74414 37.5791 6.80532 37.5791 6.89708Z" fill="white"/>
<path d="M30.1738 3.96069C30.1738 4.29715 29.8984 4.60303 29.5312 4.60303C29.1946 4.60303 28.8887 4.32774 28.8887 3.96069C28.8887 3.62423 29.164 3.31836 29.5312 3.31836C29.8678 3.31836 30.1738 3.59364 30.1738 3.96069Z" fill="#3A4245"/>
<path d="M32.4687 3.96069C32.4687 4.29715 32.1933 4.60303 31.8261 4.60303C31.4896 4.60303 31.1836 4.32774 31.1836 3.96069C31.1836 3.62423 31.459 3.31836 31.8261 3.31836C32.1933 3.31836 32.4687 3.59364 32.4687 3.96069Z" fill="#3A4245"/>
<path d="M34.7949 3.96069C34.7949 4.29715 34.5195 4.60303 34.1523 4.60303C33.7851 4.60303 33.5098 4.32774 33.5098 3.96069C33.5098 3.62423 33.7851 3.31836 34.1523 3.31836C34.5195 3.31836 34.7949 3.59364 34.7949 3.96069Z" fill="#3A4245"/>
<path d="M37.1191 3.96069C37.1191 4.29715 36.8437 4.60303 36.4765 4.60303C36.1094 4.60303 35.834 4.32774 35.834 3.96069C35.834 3.62423 36.1094 3.31836 36.4765 3.31836C36.8437 3.31836 37.1191 3.59364 37.1191 3.96069Z" fill="#3A4245"/>
<path d="M39.4453 3.96069C39.4453 4.29715 39.1699 4.60303 38.8027 4.60303C38.4661 4.60303 38.1602 4.32774 38.1602 3.96069C38.1602 3.62423 38.4355 3.31836 38.8027 3.31836C39.1699 3.31836 39.4453 3.59364 39.4453 3.96069Z" fill="#3A4245"/>
<path d="M29.6855 4.38891C29.6855 4.48068 29.6243 4.57244 29.5019 4.57244C29.4102 4.57244 29.3184 4.51126 29.3184 4.38891V3.50188C29.3184 3.41012 29.4102 3.31836 29.5019 3.31836C29.5937 3.31836 29.6855 3.37953 29.6855 3.50188V4.38891Z" fill="#4D5256"/>
<path d="M32.0097 4.38891C32.0097 4.48068 31.918 4.57244 31.8262 4.57244C31.7344 4.57244 31.6426 4.51126 31.6426 4.38891V3.50188C31.6426 3.41012 31.7038 3.31836 31.8262 3.31836C31.918 3.31836 32.0097 3.37953 32.0097 3.50188V4.38891Z" fill="#4D5256"/>
<path d="M34.3359 4.38891C34.3359 4.48068 34.2747 4.57244 34.1523 4.57244C34.0605 4.57244 33.9688 4.51126 33.9688 4.38891V3.50188C33.9688 3.41012 34.0299 3.31836 34.1523 3.31836C34.2441 3.31836 34.3359 3.37953 34.3359 3.50188V4.38891Z" fill="#4D5256"/>
<path d="M36.6601 4.38891C36.6601 4.48068 36.5683 4.57244 36.4766 4.57244C36.3848 4.57244 36.293 4.51126 36.293 4.38891V3.50188C36.293 3.41012 36.3848 3.31836 36.4766 3.31836C36.5683 3.31836 36.6601 3.37953 36.6601 3.50188V4.38891Z" fill="#4D5256"/>
<path d="M38.9863 4.38891C38.9863 4.48068 38.8945 4.57244 38.8027 4.57244C38.7109 4.57244 38.6191 4.51126 38.6191 4.38891V3.50188C38.6191 3.41012 38.7109 3.31836 38.8027 3.31836C38.8945 3.31836 38.9863 3.37953 38.9863 3.50188V4.38891Z" fill="#4D5256"/>
</g>
<path d="M9.18779 16.397H8.61154C8.46121 16.397 8.33594 16.5222 8.33594 16.6726V17.2989C8.33594 17.4493 8.46121 17.5745 8.61154 17.5745H9.18779C9.33812 17.5745 9.46339 17.4493 9.46339 17.2989V16.6726C9.46339 16.5222 9.33812 16.397 9.18779 16.397Z" fill="#4C5155"/>
<path d="M20.9124 16.397H20.3361C20.1858 16.397 20.0605 16.5222 20.0605 16.6726V17.2989C20.0605 17.4493 20.1858 17.5745 20.3361 17.5745H20.9124C21.0627 17.5745 21.188 17.4493 21.188 17.2989V16.6726C21.188 16.5222 21.0627 16.397 20.9124 16.397Z" fill="#4C5155"/>
<path d="M7.61013 16.9483C7.30947 16.9483 7.08398 16.6977 7.08398 16.4221V6.77614C7.08398 6.47549 7.33453 6.25 7.61013 6.25H21.8912C22.1918 6.25 22.4173 6.50054 22.4173 6.77614V16.3971C22.4173 16.6977 22.1668 16.9232 21.8912 16.9232H7.61013V16.9483Z" fill="#B8C7D8"/>
<path d="M19.0592 15.9963C19.0091 15.9963 18.959 15.9462 18.959 15.8961V14.2174C18.959 14.1673 19.0091 14.1172 19.0592 14.1172H21.5646C21.6148 14.1172 21.6649 14.1673 21.6649 14.2174V15.8961C21.6649 15.9462 21.6148 15.9963 21.5646 15.9963H19.0592Z" fill="white"/>
<path d="M18.157 15.3946C18.157 15.7454 17.8814 16.021 17.5307 16.021H8.36074C8.00997 16.021 7.73438 15.7454 7.73438 15.3946V7.80312C7.73438 7.45236 8.00997 7.17676 8.36074 7.17676H17.5056C17.8564 7.17676 18.132 7.45236 18.132 7.80312V15.3946H18.157Z" fill="#3A4245"/>
<path d="M16.603 8.95605H9.28711V14.1423H16.603V8.95605Z" fill="#4D5256"/>
<path opacity="0.2" d="M8.28516 15.57H17.6054V7.57764L8.28516 15.57Z" fill="white"/>
<path d="M21.6903 13.3903H18.9844V7.17676H21.6903V13.3903ZM19.0595 13.3402H21.6401V7.22687H19.0595V13.3402Z" fill="#4D5256"/>
<path d="M20.3624 8.22905H18.9844V7.17676H20.3624V8.22905ZM19.0595 8.15388H20.3373V7.22687H19.0595V8.15388Z" fill="#4D5256"/>
<path d="M21.6905 8.22905H20.3125V7.17676H21.6905V8.22905ZM20.3626 8.15388H21.6404V7.22687H20.3626V8.15388Z" fill="#4D5256"/>
<path d="M20.3624 9.20658H18.9844V8.1543H20.3624V9.20658ZM19.0595 9.15648H20.3373V8.22946H19.0595V9.15648Z" fill="#4D5256"/>
<path d="M21.6905 9.20658H20.3125V8.1543H21.6905V9.20658ZM20.3626 9.15648H21.6404V8.22946H20.3626V9.15648Z" fill="#4D5256"/>
<path d="M20.3624 10.2085H18.9844V9.15625H20.3624V10.2085ZM19.0595 10.1584H20.3373V9.23141H19.0595V10.1584Z" fill="#4D5256"/>
<path d="M21.6905 10.2085H20.3125V9.15625H21.6905V10.2085ZM20.3626 10.1584H21.6404V9.23141H20.3626V10.1584Z" fill="#4D5256"/>
<path opacity="0.5" d="M20.8889 11.5113C20.8889 11.7869 20.6634 12.0124 20.3878 12.0124C20.1122 12.0124 19.8867 11.7869 19.8867 11.5113C19.8867 11.2357 20.1122 11.0103 20.3878 11.0103C20.6885 11.0103 20.8889 11.2357 20.8889 11.5113Z" fill="#02A9CE"/>
<path opacity="0.5" d="M21.2131 11.9874C21.2131 12.263 20.9876 12.4885 20.712 12.4885C20.4364 12.4885 20.2109 12.263 20.2109 11.9874C20.2109 11.7118 20.4364 11.4863 20.712 11.4863C20.9876 11.5114 21.2131 11.7118 21.2131 11.9874Z" fill="#02A9CE"/>
<path opacity="0.5" d="M20.5119 11.9874C20.5119 12.263 20.2865 12.4885 20.0109 12.4885C19.7353 12.4885 19.5098 12.263 19.5098 11.9874C19.5098 11.7118 19.7353 11.4863 20.0109 11.4863C20.2865 11.5114 20.5119 11.7118 20.5119 11.9874Z" fill="#02A9CE"/>
<defs>
<clipPath id="clip0">
<rect width="14.1667" height="18.75" fill="white" transform="translate(27.084 1.6665)"/>
</clipPath>
</defs>
</svg>
