<svg width="50" height="50" viewBox="0 0 50 50" fill="none" xmlns="http://www.w3.org/2000/svg">
<g clip-path="url(#clip0)">
<path d="M39.0032 15.2533C39.0032 15.1224 39.0032 14.9916 38.9373 14.7953C38.9373 14.6645 38.8714 14.5337 38.8714 14.4029C38.8055 14.272 38.8055 14.1412 38.7396 14.0104C38.6737 13.7487 38.5419 13.5525 38.476 13.3562C38.4101 13.16 38.2783 13.0291 38.2124 12.8329C38.1465 12.7021 38.0147 12.5712 37.9488 12.5058C37.817 12.3096 37.7511 12.1787 37.7511 12.1787C37.7511 12.1787 37.817 12.3096 37.8829 12.5058C37.8829 12.6366 37.9488 12.7675 38.0147 12.8983C38.0147 13.0291 38.0806 13.2254 38.1465 13.4216C38.1465 13.6179 38.2124 13.8141 38.2124 14.0758C38.2124 14.2066 38.2124 14.272 38.2124 14.4029C38.2124 14.5337 38.2124 14.5991 38.1465 14.7299C38.1465 14.8608 38.0806 14.9262 38.0806 15.057V15.1224C38.0147 14.8608 37.9488 14.6645 37.8829 14.4029C37.6852 13.6833 37.3557 13.0291 37.158 12.375C37.0262 12.0479 36.9603 11.7862 36.8285 11.4592C36.7626 11.1975 36.6967 10.8704 36.6308 10.6742C36.5649 10.4125 36.5649 10.2163 36.5649 9.95462C36.5649 9.75837 36.5649 9.56212 36.5649 9.43129C36.5649 9.30046 36.6308 9.16963 36.6308 9.10422C36.6308 9.0388 36.6308 8.97339 36.6308 8.97339C36.6308 8.97339 36.6308 9.0388 36.5649 9.10422C36.499 9.16963 36.4331 9.30046 36.4331 9.43129C36.3672 9.56212 36.3013 9.75837 36.2354 9.95462C36.1695 10.1509 36.1695 10.4125 36.1037 10.6742C36.1037 10.9358 36.1037 11.2629 36.1037 11.59C36.1037 11.8517 36.1036 12.1133 36.1695 12.375C36.1036 12.2441 36.0378 12.1787 35.9719 12.0479C35.906 11.9171 35.7742 11.7208 35.7083 11.59C35.5765 11.3283 35.3788 11.0667 35.3129 10.9358C35.1811 10.805 35.1152 10.6742 35.1152 10.6742C35.1152 10.6742 35.1152 10.805 35.1811 10.9358C35.1811 11.1321 35.247 11.3938 35.3129 11.7208C35.3129 11.8517 35.3129 12.0479 35.3788 12.2441C35.3788 12.4404 35.3788 12.6366 35.3788 12.7675C35.3788 12.9637 35.3788 13.16 35.3788 13.3562C35.3788 13.487 35.3788 13.5525 35.3129 13.6833V13.6179C35.0493 13.0291 34.7198 12.5712 34.5221 12.1133C34.3903 11.8517 34.3244 11.6554 34.2585 11.3938C34.1926 11.1975 34.1926 10.9358 34.1926 10.7396C34.1926 10.5434 34.2585 10.3471 34.2585 10.1509C34.3244 9.95462 34.3903 9.82379 34.3903 9.69296C34.4562 9.56212 34.5221 9.49671 34.5221 9.43129C34.588 9.36588 34.588 9.36588 34.588 9.36588C34.588 9.36588 34.588 9.36588 34.5221 9.43129C34.4562 9.49671 34.3903 9.56212 34.3244 9.62754C34.2585 9.75837 34.1267 9.82379 33.9949 10.02C33.8631 10.1509 33.7972 10.3471 33.6654 10.6088C33.5995 10.805 33.5336 11.1321 33.4677 11.3938C33.4677 11.6554 33.4677 11.9825 33.4677 12.3096C33.4677 12.375 33.4677 12.375 33.4677 12.4404C33.4018 12.5712 33.3359 12.6366 33.27 12.7675C33.1382 13.0945 32.9406 13.4216 32.7429 13.8141C32.7429 13.7487 32.7429 13.6179 32.7429 13.5525C32.7429 13.2908 32.7429 13.0945 32.7429 12.8329C32.8088 12.6366 32.8088 12.375 32.8747 12.1787C32.8747 12.0479 32.9406 11.9825 32.9406 11.8517C33.0065 11.7862 33.0065 11.6554 33.0065 11.59C33.2041 11.7208 33.27 11.5246 33.3359 11.3938C33.4018 11.2629 33.4677 11.1321 33.5336 11.0013C33.6654 10.805 33.7313 10.6742 33.7313 10.6742C33.7313 10.6742 33.5995 10.7396 33.4677 10.9358C33.3359 11.0667 33.2041 11.1321 33.0723 11.2629C32.9406 11.3938 32.8088 11.5246 32.677 11.6554C32.677 11.7208 32.6111 11.8517 32.4793 11.9171C32.4134 11.9825 32.4134 12.0479 32.3475 12.1133C32.3475 12.0479 32.4134 11.9825 32.4134 11.9825C32.5452 11.59 32.677 11.1975 32.677 10.805C32.7429 10.4125 32.7429 10.0854 32.677 9.75837C32.677 9.43129 32.6111 9.10422 32.4793 8.90797C32.4134 8.77714 32.3475 8.71173 32.3475 8.5809C32.2816 8.51548 32.2157 8.38465 32.1498 8.31923C32.018 8.1884 31.9521 8.05757 31.8862 7.99216C31.8203 7.92674 31.8203 7.86133 31.8203 7.86133C31.8203 7.86133 31.8203 7.92674 31.8862 7.99216C31.9521 8.05757 32.018 8.1884 32.0839 8.38465C32.0839 8.45007 32.1498 8.5809 32.2157 8.64631C32.2157 8.77714 32.2816 8.84256 32.2816 8.97339C32.3475 9.23505 32.3475 9.49671 32.2816 9.75837C32.2157 10.02 32.1498 10.3471 32.018 10.6742C31.8862 11.0013 31.7544 11.2629 31.5567 11.59C31.1613 12.2441 30.7 12.8983 30.2387 13.6179C30.041 14.0104 29.7775 14.4029 29.6457 14.8608C28.0641 19.3744 36.8944 20.9444 38.7396 17.2157C38.8055 17.0849 38.8714 16.8886 38.9373 16.7578C39.0032 16.627 39.0032 16.4307 39.0691 16.2345C39.1349 16.1036 39.0691 15.9074 39.1349 15.7766C39.0691 15.5803 39.0691 15.4495 39.0032 15.2533Z" fill="#EC331A"/>
<path d="M32.2154 17.5427C32.2154 17.4773 32.2154 17.4119 32.2154 17.3465C32.2154 17.2811 32.2154 17.2157 32.2813 17.1503C32.2813 17.0848 32.3472 17.0194 32.3472 17.0194C32.3472 16.8886 32.4131 16.8232 32.479 16.7578C32.5449 16.6924 32.5449 16.6269 32.6108 16.5615C32.6767 16.4961 32.6767 16.4307 32.7426 16.4307C32.8085 16.3653 32.8085 16.2999 32.8085 16.2999C32.8085 16.2999 32.8085 16.3653 32.7426 16.4307C32.7426 16.4961 32.6767 16.5615 32.6767 16.6269C32.6767 16.6924 32.6108 16.7578 32.6108 16.8886C32.6108 16.954 32.6108 17.0848 32.6108 17.1503C32.6108 17.2157 32.6108 17.2157 32.6108 17.2811C32.6108 17.3465 32.6108 17.3465 32.6108 17.4119C32.6108 17.4773 32.6108 17.4773 32.6108 17.5427C32.6108 17.5427 32.6108 17.5427 32.6108 17.6082C32.6108 17.4773 32.6767 17.4119 32.6767 17.2811C32.7426 16.954 32.8744 16.6924 33.0062 16.4307C33.0721 16.2999 33.0721 16.169 33.138 16.0382C33.2039 15.9074 33.2039 15.7765 33.2039 15.7111C33.2039 15.5803 33.2698 15.5149 33.2698 15.384C33.2698 15.3186 33.2698 15.1878 33.2698 15.1224C33.2698 15.057 33.2698 14.9916 33.2698 14.9916C33.2698 14.9261 33.2698 14.9261 33.2698 14.9261C33.2698 14.9261 33.2698 14.9261 33.2698 14.9916C33.2698 14.9916 33.3357 15.057 33.3357 15.1224C33.3357 15.1878 33.4016 15.2532 33.4016 15.384C33.4016 15.4495 33.4675 15.5803 33.4675 15.7111C33.4675 15.842 33.4675 15.9728 33.4675 16.1036C33.4675 16.2344 33.4675 16.2999 33.4675 16.4307C33.4675 16.3653 33.5334 16.2999 33.5334 16.2999C33.5993 16.2344 33.5993 16.169 33.6652 16.1036C33.7311 15.9728 33.797 15.9074 33.8629 15.842C33.9288 15.7765 33.9288 15.7111 33.9288 15.7111C33.9288 15.7111 33.9288 15.7765 33.9288 15.842C33.9288 15.9074 33.8629 16.0382 33.8629 16.169C33.8629 16.2344 33.8629 16.2999 33.8629 16.3653C33.8629 16.4307 33.8629 16.4961 33.8629 16.6269C33.8629 16.6924 33.8629 16.8232 33.8629 16.8886C33.8629 16.954 33.8629 16.954 33.8629 17.0194C33.9947 16.7578 34.1265 16.5615 34.1924 16.3653C34.2583 16.2344 34.2583 16.169 34.3242 16.0382C34.3242 15.9728 34.3242 15.842 34.3242 15.7765C34.3242 15.7111 34.3242 15.5803 34.2583 15.5149C34.2583 15.4495 34.1924 15.384 34.1924 15.3186C34.1924 15.2532 34.1265 15.2532 34.1265 15.1878V15.1224C34.1265 15.1224 34.1265 15.1224 34.1924 15.1224L34.2583 15.1878C34.3242 15.2532 34.3242 15.2532 34.3901 15.384C34.456 15.4495 34.456 15.5149 34.5219 15.6457C34.5878 15.7765 34.5878 15.842 34.5878 15.9728C34.5878 16.1036 34.5878 16.2344 34.5878 16.3653V16.4307C34.5878 16.4961 34.6537 16.4961 34.6537 16.5615C34.7196 16.6924 34.7855 16.8232 34.8514 17.0194C34.8514 16.954 34.8514 16.954 34.8514 16.8886C34.8514 16.7578 34.8514 16.6924 34.8514 16.5615C34.8514 16.4961 34.8514 16.3653 34.7855 16.2999C34.7855 16.2344 34.7855 16.2344 34.7196 16.169C34.7196 16.1036 34.7196 16.1036 34.6537 16.0382C34.6537 15.9728 34.5878 15.9074 34.5878 15.842C34.5878 15.7765 34.5219 15.7111 34.5219 15.7111C34.456 15.6457 34.456 15.5803 34.456 15.5803C34.456 15.5803 34.5219 15.6457 34.5878 15.7111C34.6537 15.7111 34.6537 15.7765 34.7196 15.842C34.7855 15.9074 34.8514 15.9728 34.8514 16.0382C34.8514 16.1036 34.9173 16.1036 34.9173 16.169L34.9832 16.2344V16.169C34.9173 15.9728 34.9173 15.842 34.8514 15.6457C34.8514 15.5149 34.8514 15.3186 34.8514 15.1878C34.8514 15.057 34.9173 14.9261 34.9832 14.7953C34.9832 14.7299 35.049 14.6645 35.049 14.6645C35.049 14.5991 35.1149 14.5991 35.1149 14.5336C35.1808 14.4682 35.1808 14.4028 35.2467 14.4028L35.3126 14.3374C35.3126 14.3374 35.3126 14.3374 35.3126 14.4028C35.3126 14.4682 35.2467 14.4682 35.2467 14.5336C35.2467 14.5991 35.2467 14.5991 35.1808 14.6645C35.1808 14.7299 35.1808 14.7299 35.1149 14.7953C35.1149 14.9261 35.1149 14.9916 35.1149 15.1224C35.1149 15.2532 35.1808 15.384 35.2467 15.5149C35.3126 15.6457 35.3785 15.7765 35.4444 15.9074C35.5762 16.169 35.8398 16.4307 36.0375 16.7578C36.1034 16.8886 36.2352 17.0848 36.3011 17.2811C36.9601 19.2435 33.2039 19.8977 32.3472 18.3277C32.3472 18.2623 32.2813 18.1969 32.2813 18.1315C32.2813 18.0661 32.2813 18.0007 32.2154 17.9352C32.2154 17.8698 32.2154 17.8044 32.2154 17.739C32.1495 17.6736 32.1495 17.6082 32.2154 17.5427Z" fill="#FABB3A"/>
<path d="M37.7508 20.0286V19.6361C37.7508 19.309 37.4872 19.0474 37.1577 19.0474H31.3587C31.0292 19.0474 30.7656 19.309 30.7656 19.6361V20.0286C31.0951 20.0286 31.3587 20.2903 31.3587 20.6173C31.3587 20.9444 31.0951 21.2061 30.7656 21.2061V22.3835C31.0951 22.3835 31.3587 22.6452 31.3587 22.9723C31.3587 23.2994 31.0951 23.561 30.7656 23.561V24.346H37.7508V23.4956C37.4213 23.4956 37.1577 23.2339 37.1577 22.9069C37.1577 22.5798 37.4213 22.3181 37.7508 22.3181V21.1407C37.4213 21.1407 37.1577 20.879 37.1577 20.5519C37.1577 20.2903 37.4213 20.0286 37.7508 20.0286ZM35.4444 20.0286C35.7739 20.0286 36.0375 20.2903 36.0375 20.6173C36.0375 20.9444 35.7739 21.2061 35.4444 21.2061C35.1149 21.2061 34.8513 20.9444 34.8513 20.6173C34.8513 20.2903 35.1149 20.0286 35.4444 20.0286ZM33.1379 20.0286C33.4674 20.0286 33.731 20.2903 33.731 20.6173C33.731 20.9444 33.4674 21.2061 33.1379 21.2061C32.8085 21.2061 32.5449 20.9444 32.5449 20.6173C32.5449 20.2903 32.8085 20.0286 33.1379 20.0286ZM31.9518 22.3835C31.6223 22.3835 31.3587 22.1219 31.3587 21.7948C31.3587 21.4677 31.6223 21.2061 31.9518 21.2061C32.2813 21.2061 32.5449 21.4677 32.5449 21.7948C32.5449 22.1219 32.2813 22.3835 31.9518 22.3835ZM33.1379 23.4956C32.8085 23.4956 32.5449 23.2339 32.5449 22.9069C32.5449 22.5798 32.8085 22.3181 33.1379 22.3181C33.4674 22.3181 33.731 22.5798 33.731 22.9069C33.6651 23.2339 33.4015 23.4956 33.1379 23.4956ZM34.2582 22.3835C33.9287 22.3835 33.6651 22.1219 33.6651 21.7948C33.6651 21.4677 33.9287 21.2061 34.2582 21.2061C34.5877 21.2061 34.8513 21.4677 34.8513 21.7948C34.8513 22.1219 34.5877 22.3835 34.2582 22.3835ZM35.4444 23.4956C35.1149 23.4956 34.8513 23.2339 34.8513 22.9069C34.8513 22.5798 35.1149 22.3181 35.4444 22.3181C35.7739 22.3181 36.0375 22.5798 36.0375 22.9069C36.0375 23.2339 35.7739 23.4956 35.4444 23.4956ZM36.6305 22.3835C36.301 22.3835 36.0375 22.1219 36.0375 21.7948C36.0375 21.4677 36.301 21.2061 36.6305 21.2061C36.96 21.2061 37.2236 21.4677 37.2236 21.7948C37.1577 22.1219 36.8941 22.3835 36.6305 22.3835Z" fill="#02A9CE"/>
<path d="M42.8896 44.167H25.6244C24.5041 44.167 23.5156 43.2512 23.5156 42.0737V24.2808H44.9983V42.1391C44.9983 43.2512 44.0757 44.167 42.8896 44.167Z" fill="#FABB3A"/>
<path d="M25.6262 42.9893C25.1649 42.9893 24.7695 42.5968 24.7695 42.1389V25.5234H43.7481V42.1389C43.7481 42.5968 43.3527 42.9893 42.8914 42.9893H25.6262Z" fill="#FCD689"/>
<path d="M42.8919 43.1855H25.6266C25.0335 43.1855 24.5723 42.7276 24.5723 42.1389V25.2617H44.078V42.1389C44.0121 42.7276 43.4849 43.1855 42.8919 43.1855ZM25.0335 25.785V42.1389C25.0335 42.4659 25.2971 42.7276 25.6266 42.7276H42.9578C43.2873 42.7276 43.5508 42.4659 43.5508 42.1389V25.785H25.0335Z" fill="#BC8C2C"/>
<path d="M5.26308 12.5059L13.9616 27.4205C14.5547 28.4018 15.8067 28.7288 16.7952 28.2055L23.5168 24.346L12.7754 5.8335L6.05385 9.693C5.06538 10.2817 4.73589 11.5246 5.26308 12.5059Z" fill="#FABB3A"/>
<path d="M21.8033 23.823L16.1361 27.0938C15.7407 27.2901 15.2135 27.1592 15.0158 26.7667L6.38323 11.9175C6.11964 11.525 6.25143 11.0017 6.64682 10.74L12.314 7.46924L21.8033 23.823Z" fill="#FCD689"/>
<path d="M15.7412 27.4208C15.3458 27.4208 15.0163 27.2246 14.8186 26.8975L6.12008 12.0482C5.85649 11.5249 5.98828 10.8708 6.51546 10.5437L12.3804 7.14209L22.1333 23.9538L16.2683 27.3554C16.1366 27.4208 15.9389 27.4208 15.7412 27.4208ZM12.2486 7.86166L6.77906 11.0016C6.51546 11.1324 6.44957 11.5249 6.58136 11.7866L15.214 26.6358C15.3458 26.8975 15.7412 27.0283 16.0048 26.8321L21.4743 23.6921L12.2486 7.86166Z" fill="#BC8C2C"/>
<path d="M44.9983 23.7573H23.5156V24.804H44.9983V23.7573Z" fill="#BC8C2C"/>
<path d="M22.8574 24.2806C22.8574 23.9535 23.121 23.6265 23.5164 23.6265C23.9118 23.6265 24.1754 23.8881 24.1754 24.2806C24.1754 24.6077 23.9118 24.9348 23.5164 24.9348C23.121 24.9348 22.8574 24.6731 22.8574 24.2806Z" fill="#FCD689"/>
<path d="M23.5163 25.1964C22.9891 25.1964 22.5938 24.8039 22.5938 24.2806C22.5938 23.7572 22.9891 23.3647 23.5163 23.3647C24.0435 23.3647 24.4389 23.7572 24.4389 24.2806C24.4389 24.8039 24.0435 25.1964 23.5163 25.1964ZM23.5163 23.8881C23.3186 23.8881 23.1209 24.0843 23.1209 24.2806C23.1209 24.4768 23.3186 24.6731 23.5163 24.6731C23.714 24.6731 23.9117 24.4768 23.9117 24.2806C23.9117 24.0843 23.714 23.8881 23.5163 23.8881Z" fill="#BC8C2C"/>
</g>
<defs>
<clipPath id="clip0">
<rect width="40" height="38.3333" fill="white" transform="translate(5 5.8335)"/>
</clipPath>
</defs>
</svg>
