<svg width="50" height="50" viewBox="0 0 50 50" fill="none" xmlns="http://www.w3.org/2000/svg">
<g clip-path="url(#clip0)">
<path d="M43.375 12.625H25V35.75H43.375V12.625Z" fill="#02A9CE"/>
<path d="M25 12.625H6.625V35.75H25V12.625Z" fill="#0AD0FC"/>
<path d="M25 35.8125H6.625V12.6875H25V10H7.25C6.125 10 5.25 10.875 5.25 12V38.0625H25V35.8125Z" fill="#2C5871"/>
<path d="M43.375 12.625V35.75H25V38H44.75V12C44.75 10.875 43.875 10 42.75 10H25V12.625H43.375Z" fill="#0F303F"/>
<path d="M4.9375 37.5H2.625V38.0625H4.9375V37.5Z" fill="#0F303F"/>
<path d="M8.875 37.5H6V38.0625H8.875V37.5Z" fill="#0F303F"/>
<path d="M27.625 37.5H25.625V38.0625H27.625V37.5Z" fill="#2C5871"/>
<path d="M31.8125 37.5H28.9375V38.0625H31.8125V37.5Z" fill="#2C5871"/>
<path d="M35.75 37.5H32.875V38.0625H35.75V37.5Z" fill="#2C5871"/>
<path d="M39.75 37.5H36.875V38.0625H39.75V37.5Z" fill="#2C5871"/>
<path d="M43.6875 37.5H40.8125V38.0625H43.6875V37.5Z" fill="#2C5871"/>
<path d="M47.375 37.5H44.9375V38.0625H47.375V37.5Z" fill="#2C5871"/>
<path d="M24 37.5H9.8125V38.0625H24V37.5Z" fill="#0F303F"/>
<path d="M0 38.0625V38.1875C0 39.3125 0.9375 40.25 2.0625 40.25H25V38.0625H0Z" fill="#2C5871"/>
<path d="M25 38.0625V40.25H47.9375C49.0625 40.25 50 39.3125 50 38.1875V38.0625H25Z" fill="#0F303F"/>
<path d="M24.4375 11.3125C24.4375 11 24.6875 10.75 25 10.75C25.3125 10.75 25.5625 11 25.5625 11.3125C25.5625 11.625 25.3125 11.875 25 11.875C24.6875 11.9375 24.4375 11.6875 24.4375 11.3125Z" fill="#8DC63F"/>
<path d="M22.0625 11.3125C22.0625 11.0625 22.25 10.875 22.5 10.875C22.75 10.875 22.9375 11.0625 22.9375 11.3125C22.9375 11.5625 22.75 11.75 22.5 11.75C22.25 11.75 22.0625 11.5625 22.0625 11.3125Z" fill="#0F303F"/>
</g>
<defs>
<clipPath id="clip0">
<rect width="50" height="30.25" fill="white" transform="translate(0 10)"/>
</clipPath>
</defs>
</svg>
