<svg width="53" height="53" viewBox="0 0 53 53" fill="none" xmlns="http://www.w3.org/2000/svg">
<g clip-path="url(#clip0)">
<path d="M45.7382 50.4639C45.1287 50.4639 44.6443 49.9794 44.6443 49.37V45.2286L37.2524 45.338H37.2367C36.8304 45.338 36.4554 45.1192 36.2678 44.7598C36.0803 44.4004 36.0959 43.9628 36.3303 43.619L44.8318 31.3513C45.0975 30.9606 45.5975 30.7887 46.0507 30.9293C46.5039 31.07 46.8165 31.4919 46.8165 31.9764V43.0095L49.1606 42.9783H49.1763C49.7701 42.9783 50.2546 43.4627 50.2702 44.0566C50.2858 44.666 49.8014 45.1505 49.1919 45.1661L46.8165 45.1974V49.37C46.8321 49.9794 46.332 50.4639 45.7382 50.4639ZM44.6443 35.4926L39.3465 43.1345L44.6443 43.0564V35.4926ZM35.2052 50.4639H24.3127C23.8751 50.4639 23.4688 50.1982 23.2969 49.7919C23.125 49.3856 23.2188 48.9168 23.5313 48.6042L30.0637 42.0719C30.0793 42.0562 30.0793 42.0562 30.0949 42.0406C30.0949 42.0406 30.1105 42.025 30.1262 42.025C31.9859 40.3684 32.9079 38.5556 32.7204 36.9147C32.5797 35.7114 31.8765 34.68 30.7669 34.0705C29.4698 33.3516 28.2665 33.3673 27.1882 34.1174C25.9067 35.0238 25.0628 36.8678 25.2972 38.3056C25.391 38.8994 24.9847 39.462 24.3908 39.5558C23.797 39.6496 23.2344 39.2432 23.1406 38.6494C22.7812 36.3678 23.9689 33.7111 25.938 32.3202C27.6883 31.0856 29.7824 31.0231 31.814 32.1483C33.533 33.086 34.6738 34.7737 34.8926 36.6647C35.1583 39.0245 33.9862 41.4936 31.5952 43.6346L26.9538 48.276H35.2052C35.8146 48.276 36.2991 48.7605 36.2991 49.37C36.2991 49.9794 35.8146 50.4639 35.2052 50.4639ZM18.4211 48.7917C18.3273 48.7917 18.2335 48.7761 18.1398 48.7605C7.51297 45.9788 0.0898438 36.3678 0.0898438 25.3659C0.0898438 12.0355 10.9354 1.18994 24.2658 1.18994C37.1117 1.18994 47.6448 11.2698 48.3949 23.9282L50.8328 18.8179C51.0985 18.271 51.7392 18.0365 52.2862 18.3022C52.8331 18.5679 53.0675 19.2086 52.8019 19.7556L48.8325 28.0851C48.6762 28.4289 48.348 28.6633 47.9729 28.6946C47.5979 28.7415 47.2228 28.5852 46.9884 28.2883L41.2687 21.0527C40.8936 20.5838 40.9718 19.8962 41.4406 19.5212C41.9094 19.1461 42.597 19.2242 42.9721 19.6931L46.1914 23.7563C45.3787 12.3793 35.8459 3.37781 24.2658 3.37781C12.1388 3.37781 2.27771 13.2389 2.27771 25.3659C2.27771 35.3676 9.02885 44.1191 18.7024 46.6351C19.2806 46.7914 19.64 47.3853 19.4837 47.9635C19.3431 48.4636 18.9055 48.7917 18.4211 48.7917ZM24.2658 29.0697C22.2186 29.0697 20.5621 27.4131 20.5621 25.3659C20.5621 25.1784 20.5777 24.9908 20.6089 24.8189L12.9201 20.3807C12.4044 20.0838 12.2169 19.4118 12.5138 18.8804C12.8107 18.3647 13.4827 18.1772 14.0141 18.4741L21.5622 22.8342C22.2342 22.1154 23.2031 21.6622 24.2658 21.6622C25.0316 21.6622 25.7348 21.8966 26.313 22.2873L36.6898 11.9105C37.1117 11.4886 37.815 11.4886 38.2369 11.9105C38.6589 12.3324 38.6589 13.0357 38.2369 13.4576L27.6883 24.0063C27.8602 24.4282 27.9539 24.8971 27.9539 25.3815C27.9696 27.4131 26.2974 29.0697 24.2658 29.0697ZM22.7656 25.2253C22.7656 25.2721 22.7656 25.319 22.7656 25.3659C22.7656 26.1942 23.4375 26.8818 24.2814 26.8818C25.1253 26.8818 25.7973 26.2098 25.7973 25.3659C25.7973 24.5376 25.1253 23.85 24.2814 23.85C23.8439 23.85 23.4375 24.0376 23.1719 24.3345C23.1875 24.5376 23.1406 24.7408 23.0312 24.9283C22.9375 25.0534 22.8593 25.1471 22.7656 25.2253ZM8.35687 26.4598H6.73159C6.12211 26.4598 5.63766 25.9754 5.63766 25.3659C5.63766 24.7564 6.12211 24.272 6.73159 24.272H8.35687C8.96634 24.272 9.4508 24.7564 9.4508 25.3659C9.4508 25.9754 8.96634 26.4598 8.35687 26.4598ZM24.2658 10.5509C23.6563 10.5509 23.1719 10.0664 23.1719 9.45696V7.83169C23.1719 7.22221 23.6563 6.73775 24.2658 6.73775C24.8753 6.73775 25.3597 7.22221 25.3597 7.83169V9.45696C25.3597 10.0664 24.8753 10.5509 24.2658 10.5509Z" fill="white"/>
</g>
<defs>
<clipPath id="clip0">
<rect width="52.8214" height="49.274" fill="white" transform="translate(0.0898438 1.18994)"/>
</clipPath>
</defs>
</svg>
