<svg width="53" height="53" viewBox="0 0 53 53" fill="none" xmlns="http://www.w3.org/2000/svg">
<g clip-path="url(#clip0)">
<path d="M13.1912 32.4219C12.6196 32.4219 12.1653 31.9692 12.1653 31.3996C12.1653 30.8301 12.6196 30.3773 13.1912 30.3773H50.858V2.13387H6.55189V23.8933C6.55189 24.4629 6.09754 24.9156 5.52594 24.9156C4.95435 24.9156 4.5 24.4629 4.5 23.8933V1.11161C4.5 0.542069 4.95435 0.0893555 5.52594 0.0893555H51.8986C52.4702 0.0893555 52.9245 0.542069 52.9245 1.11161V31.3996C52.9245 31.9692 52.4702 32.4219 51.8986 32.4219H13.1912Z" fill="white"/>
<path d="M29.975 10.0201H10.2916C9.71997 10.0201 9.26562 9.56738 9.26562 8.99784C9.26562 8.4283 9.71997 7.97559 10.2916 7.97559H29.975C30.5466 7.97559 31.001 8.4283 31.001 8.99784C31.001 9.56738 30.5466 10.0201 29.975 10.0201Z" fill="white"/>
<path d="M29.975 14.8389H10.2916C9.71997 14.8389 9.26562 14.3862 9.26562 13.8167C9.26562 13.2471 9.71997 12.7944 10.2916 12.7944H29.975C30.5466 12.7944 31.001 13.2471 31.001 13.8167C31.001 14.3862 30.5466 14.8389 29.975 14.8389Z" fill="white"/>
<path d="M45.9664 21.9801H31.442C30.8704 21.9801 30.416 21.5273 30.416 20.9578C30.416 20.3883 30.8704 19.9355 31.442 19.9355H45.9664C46.538 19.9355 46.9923 20.3883 46.9923 20.9578C46.9923 21.5273 46.538 21.9801 45.9664 21.9801Z" fill="white"/>
<path d="M45.9664 26.7843H31.442C30.8704 26.7843 30.416 26.3316 30.416 25.762C30.416 25.1925 30.8704 24.7397 31.442 24.7397H45.9664C46.538 24.7397 46.9923 25.1925 46.9923 25.762C46.9923 26.3316 46.538 26.7843 45.9664 26.7843Z" fill="white"/>
<path d="M22.9396 52.9116C22.4559 52.9116 22.0163 52.5611 21.9283 52.0645L20.5213 44.164L2.34746 44.1202L3.62256 51.7141C3.7105 52.269 3.34409 52.7947 2.77249 52.8969C2.21555 52.9846 1.68792 52.6195 1.58533 52.0499L0.119693 43.2585C0.0757242 42.9665 0.149006 42.6598 0.354195 42.4261C0.544727 42.1925 0.837854 42.061 1.13098 42.061L21.386 42.1048C21.8844 42.1048 22.3094 42.4553 22.3973 42.9519L23.9655 51.6994C24.0681 52.2544 23.6871 52.7801 23.1301 52.8823C23.0569 52.8969 22.9982 52.9116 22.9396 52.9116Z" fill="white"/>
<path d="M10.8927 35.7368C10.6875 35.7368 10.4677 35.6784 10.2918 35.547C9.83748 35.2111 9.73489 34.5831 10.0573 34.1158C10.2332 33.8676 10.4091 33.6193 10.585 33.4002C12.5929 30.6694 13.0179 30.0998 11.2738 26.9746C11.054 26.5657 11.1272 26.0546 11.4643 25.7333L14.9525 22.4037C15.5681 21.8195 15.8319 19.6728 15.2603 18.3C15.1284 17.9788 14.9672 17.7597 14.7913 17.6429L6.30531 25.3974C5.88027 25.7771 5.2354 25.7479 4.85433 25.339C4.47327 24.9155 4.50258 24.2729 4.91296 23.8932L13.78 15.8028C13.9559 15.6422 14.1904 15.54 14.4396 15.54C15.6121 15.4961 16.594 16.2263 17.151 17.526C17.9424 19.4245 17.7812 22.5497 16.3742 23.8932L13.4429 26.6825C15.2457 30.2604 14.3809 31.6916 12.2411 34.6123C12.0799 34.8314 11.904 35.0651 11.7281 35.3133C11.5376 35.5908 11.2152 35.7368 10.8927 35.7368Z" fill="white"/>
<path d="M4.09194 43.0093C3.60828 43.0093 3.16859 42.6588 3.08066 42.1623L0.208013 25.996C0.208013 25.9814 0.208013 25.9668 0.193357 25.9376C-0.392896 21.206 1.24861 16.8249 4.48766 14.5176C4.94201 14.1817 5.58689 14.2985 5.92399 14.7512C6.26108 15.2039 6.14383 15.8465 5.68948 16.1824C3.08066 18.0516 1.74693 21.688 2.23059 25.6748L5.08857 41.8264C5.19117 42.3813 4.8101 42.9071 4.25316 43.0093C4.20919 43.0093 4.15057 43.0093 4.09194 43.0093Z" fill="white"/>
<path d="M17.5772 44.0607C17.0936 44.0607 16.6539 43.7102 16.566 43.2137C16.4487 42.5711 16.3315 42.0308 16.1995 41.5197C16.0676 40.9501 15.9357 40.4098 15.8624 39.8695C15.5547 37.5913 17.0789 36.1747 18.2514 35.2985C19.38 34.4515 19.5998 33.8089 19.4093 31.8374C19.3507 31.2825 19.7757 30.7714 20.3326 30.7276C20.9042 30.6691 21.4025 31.0927 21.4465 31.6476C21.6664 33.9696 21.4172 35.503 19.4679 36.9487C17.9143 38.1024 17.7824 38.9056 17.885 39.6066C17.9436 40.0593 18.0609 40.5266 18.1781 41.067C18.2954 41.5927 18.442 42.1768 18.5592 42.8778C18.6618 43.4327 18.2807 43.9585 17.7238 44.0607C17.6945 44.0461 17.6359 44.0607 17.5772 44.0607Z" fill="white"/>
<path d="M45.1891 6.39795V7.53703C46.3763 7.71228 47.2117 8.48627 47.2117 9.72758H45.6728C45.6728 9.23106 45.3503 8.90978 44.7348 8.90978C44.1925 8.90978 43.7968 9.20185 43.7968 9.63996C43.7968 9.82981 43.8554 10.1803 44.5736 10.3701L45.4383 10.6476C47.197 11.1587 47.4609 12.1518 47.4315 12.8382C47.4022 14.1379 46.347 14.8243 45.1891 14.9411V16.1532H44.4123V14.9411C43.0346 14.8097 42.1699 13.9334 42.1699 12.7213H43.7235C43.7528 13.1887 44.1046 13.5976 44.8081 13.5976C45.4383 13.5976 45.8633 13.3055 45.878 12.8236C45.8926 12.5023 45.7314 12.2102 44.9986 12.0058L44.1192 11.7575C42.5217 11.2464 42.2432 10.3409 42.2432 9.66917C42.2432 8.48627 43.1812 7.65386 44.4123 7.52243V6.39795H45.1891Z" fill="white"/>
</g>
<defs>
<clipPath id="clip0">
<rect width="52.8214" height="52.8214" fill="white" transform="translate(0.0898438 0.0893555)"/>
</clipPath>
</defs>
</svg>
