<svg width="53" height="53" viewBox="0 0 53 53" fill="none" xmlns="http://www.w3.org/2000/svg">
<g clip-path="url(#clip0)">
<path d="M40.0688 52.9108C36.7938 52.9108 34.1226 50.2794 34.1226 47.0533C34.1226 47.0384 34.1226 47.0087 34.1226 46.9938H21.4454C21.4454 47.0087 21.4454 47.0384 21.4454 47.0533C21.4454 50.2794 18.7742 52.9108 15.4993 52.9108C12.2243 52.9108 9.55307 50.2794 9.55307 47.0533C9.55307 47.0384 9.55307 47.0087 9.55307 46.9938H6.83654C5.05571 46.9938 3.5918 45.5666 3.5918 43.7975V34.0895C3.5918 34.0747 3.5918 34.0449 3.5918 34.0301V24.2775C3.5918 23.6977 4.05964 23.2368 4.64823 23.2368C5.23681 23.2368 5.70465 23.6977 5.70465 24.2775V31.7703C5.70465 31.7852 5.70465 31.7852 5.70465 31.8001V34.0449C5.71975 34.6396 6.23287 35.1302 6.83654 35.1302H31.7381C32.3417 35.1302 32.87 34.6099 32.87 34.0152V15.4913C32.87 14.8817 32.3568 14.3763 31.7381 14.3763H29.2479C28.6593 14.3763 28.1915 13.9154 28.1915 13.3356C28.1915 12.7558 28.6593 12.2949 29.2479 12.2949H31.7381C33.5189 12.2949 34.9828 13.7221 34.9828 15.4913V22.9395L41.8647 22.8503C41.8798 22.8503 41.8949 22.8503 41.8949 22.8503C43.4795 22.8503 45.8489 24.2626 46.7092 25.4371L50.784 31.0121C51.7498 32.3353 52.429 33.926 52.7308 35.5613C52.7761 35.6803 52.8063 35.7992 52.8063 35.933C52.8063 35.9479 52.8063 35.9627 52.8063 35.9776C52.8817 36.4979 52.927 37.0183 52.927 37.5386V43.7975C52.927 45.5518 51.4782 46.9938 49.6823 46.9938H46.0149C46.0149 47.0087 46.0149 47.0384 46.0149 47.0533C46.0149 50.2794 43.3437 52.9108 40.0688 52.9108ZM40.0688 43.2772C37.9559 43.2772 36.2354 44.972 36.2354 47.0533C36.2354 49.1346 37.9559 50.8294 40.0688 50.8294C42.1816 50.8294 43.9021 49.1346 43.9021 47.0533C43.9021 44.972 42.1816 43.2772 40.0688 43.2772ZM15.4842 43.2772C13.3713 43.2772 11.6508 44.972 11.6508 47.0533C11.6508 49.1346 13.3713 50.8294 15.4842 50.8294C17.597 50.8294 19.3175 49.1346 19.3175 47.0533C19.3175 44.972 17.597 43.2772 15.4842 43.2772ZM15.4842 41.1958C18.0045 41.1958 20.1626 42.742 21.0229 44.9274C21.0832 44.9125 21.1285 44.9125 21.1889 44.9125H34.5301C35.4054 42.742 37.5484 41.1958 40.0688 41.1958C42.574 41.1958 44.7321 42.742 45.6075 44.9125H49.6823C50.301 44.9125 50.8142 44.407 50.8142 43.7975V37.5089C50.8142 37.3305 50.8142 37.1372 50.7991 36.9588H41.6987C39.9179 36.9588 38.4539 35.5316 38.4539 33.7625V24.9614L34.9979 25.006V34.0301C34.9979 35.7546 33.5189 37.2264 31.7532 37.2264H6.85163C6.45925 37.2264 6.08195 37.1521 5.71975 37.0331V43.7975C5.71975 44.407 6.23287 44.9125 6.85163 44.9125H9.97564C10.8208 42.742 12.9789 41.1958 15.4842 41.1958ZM40.5517 24.9465V33.7773C40.5517 34.3869 41.0648 34.8923 41.6836 34.8923H50.4067C50.1048 33.9409 49.6672 33.0191 49.0786 32.2312L45.0038 26.6562C44.4605 25.9128 42.6948 24.9316 41.91 24.9316H41.8949L40.5517 24.9465Z" fill="white"/>
<path d="M40.0681 49.1049C38.9211 49.1049 37.9855 48.1832 37.9855 47.0533C37.9855 45.9234 38.9211 45.0017 40.0681 45.0017C41.2151 45.0017 42.1508 45.9234 42.1508 47.0533C42.1508 48.1832 41.2151 49.1049 40.0681 49.1049ZM40.0681 47.0236C40.053 47.0236 40.0379 47.0384 40.0379 47.0533C40.0379 47.0682 40.053 47.083 40.0681 47.083C40.0832 47.083 40.0983 47.0682 40.0983 47.0533C40.0983 47.0384 40.0832 47.0236 40.0681 47.0236ZM15.4835 49.1049C14.3365 49.1049 13.4008 48.1832 13.4008 47.0533C13.4008 45.9234 14.3365 45.0017 15.4835 45.0017C16.6305 45.0017 17.5662 45.9234 17.5662 47.0533C17.5662 48.1832 16.6305 49.1049 15.4835 49.1049ZM15.4835 47.0236C15.4684 47.0236 15.4533 47.0384 15.4533 47.0533C15.4533 47.083 15.5137 47.083 15.5137 47.0533C15.5137 47.0384 15.4986 47.0236 15.4835 47.0236ZM15.076 29.6147C6.80571 29.6147 0.0898438 22.9841 0.0898438 14.852C0.0898438 6.70504 6.80571 0.0893555 15.076 0.0893555C23.3464 0.0893555 30.0622 6.70504 30.0622 14.852C30.0622 22.9841 23.3313 29.6147 15.076 29.6147ZM15.076 2.1707C7.98288 2.1707 2.2027 7.86465 2.2027 14.852C2.2027 21.8394 7.98288 27.5333 15.076 27.5333C22.1692 27.5333 27.9494 21.8394 27.9494 14.852C27.9494 7.86465 22.1692 2.1707 15.076 2.1707ZM15.076 18.1227C13.2348 18.1227 11.7407 16.6509 11.7407 14.8371C11.7407 14.4506 11.8011 14.0938 11.9218 13.7519L6.12658 8.04305C5.7191 7.64165 5.7191 6.97264 6.12658 6.57124C6.53406 6.16984 7.21319 6.16984 7.62067 6.57124L13.2499 12.1165C13.7781 11.7746 14.412 11.5665 15.076 11.5665C15.6948 11.5665 16.2683 11.73 16.7663 12.0273L20.5695 8.28091C20.9769 7.87951 21.6561 7.87951 22.0636 8.28091C22.471 8.68232 22.471 9.35132 22.0636 9.75272L18.1548 13.6032C18.3208 13.9897 18.4113 14.406 18.4113 14.852C18.4113 16.6657 16.9172 18.1227 15.076 18.1227ZM15.076 13.6478C14.412 13.6478 13.8536 14.183 13.8536 14.852C13.8536 15.521 14.3969 16.0562 15.076 16.0562C15.7401 16.0562 16.2985 15.521 16.2985 14.852C16.2985 14.183 15.7401 13.6478 15.076 13.6478Z" fill="white"/>
<path d="M15.0759 28.6782C14.4873 28.6782 14.0195 28.2173 14.0195 27.6375V25.5562C14.0195 24.9764 14.4873 24.5155 15.0759 24.5155C15.6645 24.5155 16.1323 24.9764 16.1323 25.5562V27.6375C16.1323 28.2173 15.6645 28.6782 15.0759 28.6782ZM4.19468 15.8928H2.08182C1.49324 15.8928 1.02539 15.4319 1.02539 14.8521C1.02539 14.2723 1.49324 13.8115 2.08182 13.8115H4.19468C4.78326 13.8115 5.25111 14.2723 5.25111 14.8521C5.25111 15.4319 4.78326 15.8928 4.19468 15.8928ZM28.0549 15.8928H25.942C25.3534 15.8928 24.8856 15.4319 24.8856 14.8521C24.8856 14.2723 25.3534 13.8115 25.942 13.8115H28.0549C28.6435 13.8115 29.1113 14.2723 29.1113 14.8521C29.1113 15.4319 28.6435 15.8928 28.0549 15.8928ZM15.0759 5.17391C14.4873 5.17391 14.0195 4.71304 14.0195 4.13324V2.0519C14.0195 1.4721 14.4873 1.01123 15.0759 1.01123C15.6645 1.01123 16.1323 1.4721 16.1323 2.0519V4.13324C16.1323 4.71304 15.6645 5.17391 15.0759 5.17391Z" fill="white"/>
</g>
<defs>
<clipPath id="clip0">
<rect width="52.8214" height="52.8214" fill="white" transform="translate(0.0898438 0.0893555)"/>
</clipPath>
</defs>
</svg>
