<svg width="53" height="53" viewBox="0 0 53 53" fill="none" xmlns="http://www.w3.org/2000/svg">
<g clip-path="url(#clip0)">
<path d="M51.8668 52.9108H43.5108C42.9289 52.9108 42.4664 52.4364 42.4664 51.8397V19.752H10.5348V51.8397C10.5348 52.4364 10.0722 52.9108 9.49027 52.9108H1.13434C0.552404 52.9108 0.0898438 52.4364 0.0898438 51.8397V12.6367C0.0898438 12.2083 0.328585 11.8257 0.716539 11.6574L26.0828 0.181166C26.3513 0.0587521 26.6647 0.0587521 26.9333 0.181166L52.2995 11.6574C52.6725 11.8257 52.9262 12.2083 52.9262 12.6367V51.8397C52.9113 52.4364 52.4487 52.9108 51.8668 52.9108ZM44.5553 50.7685H50.8223V13.3406L26.5006 2.3387L2.17883 13.3406V50.7685H8.44578V18.6809C8.44578 18.0841 8.90834 17.6098 9.49027 17.6098H43.5108C44.0928 17.6098 44.5553 18.0841 44.5553 18.6809V50.7685Z" fill="white"/>
<path d="M21.3087 27.8161H10.0132C9.43131 27.8161 8.96875 27.3417 8.96875 26.7449C8.96875 26.1482 9.43131 25.6738 10.0132 25.6738H21.3087C21.8906 25.6738 22.3532 26.1482 22.3532 26.7449C22.3532 27.3417 21.8757 27.8161 21.3087 27.8161Z" fill="white"/>
<path d="M32.4552 37.3643C31.8732 37.3643 31.4107 36.89 31.4107 36.2932V27.8161H22.2042V36.2932C22.2042 36.89 21.7417 37.3643 21.1597 37.3643C20.5778 37.3643 20.1152 36.89 20.1152 36.2932V26.7449C20.1152 26.1482 20.5778 25.6738 21.1597 25.6738H32.4552C33.0371 25.6738 33.4997 26.1482 33.4997 26.7449V36.2932C33.4997 36.89 33.0371 37.3643 32.4552 37.3643Z" fill="white"/>
<path d="M21.3087 46.7291H10.0132C9.43131 46.7291 8.96875 46.2547 8.96875 45.6579C8.96875 45.0612 9.43131 44.5868 10.0132 44.5868H20.2642V37.1808H10.0132C9.43131 37.1808 8.96875 36.7065 8.96875 36.1097C8.96875 35.5129 9.43131 35.0386 10.0132 35.0386H21.3087C21.8906 35.0386 22.3532 35.5129 22.3532 36.1097V45.6579C22.3532 46.2547 21.8757 46.7291 21.3087 46.7291Z" fill="white"/>
<path d="M32.4552 46.7291H21.1597C20.5778 46.7291 20.1152 46.2547 20.1152 45.6579C20.1152 45.0612 20.5778 44.5868 21.1597 44.5868H31.4107V37.1808H21.1597C20.5778 37.1808 20.1152 36.7065 20.1152 36.1097C20.1152 35.5129 20.5778 35.0386 21.1597 35.0386H32.4552C33.0371 35.0386 33.4997 35.5129 33.4997 36.1097V45.6579C33.4997 46.2547 33.0371 46.7291 32.4552 46.7291Z" fill="white"/>
<path d="M43.6004 37.1808H32.3199C31.738 37.1808 31.2754 36.7065 31.2754 36.1097C31.2754 35.5129 31.738 35.0386 32.3199 35.0386H43.6153C44.1972 35.0386 44.6598 35.5129 44.6598 36.1097C44.6598 36.7065 44.1823 37.1808 43.6004 37.1808Z" fill="white"/>
<path d="M43.6004 46.7291H32.3199C31.738 46.7291 31.2754 46.2548 31.2754 45.658C31.2754 45.0613 31.738 44.5869 32.3199 44.5869H43.6153C44.1972 44.5869 44.6598 45.0613 44.6598 45.658C44.6598 46.2548 44.1823 46.7291 43.6004 46.7291Z" fill="white"/>
</g>
<defs>
<clipPath id="clip0">
<rect width="52.8214" height="52.8214" fill="white" transform="translate(0.0898438 0.0893555)"/>
</clipPath>
</defs>
</svg>
