<svg width="138" height="137" viewBox="0 0 138 137" fill="none" xmlns="http://www.w3.org/2000/svg">
<g clip-path="url(#clip0)">
<path opacity="0.69" d="M119.103 125.489C119.103 124.29 96.2202 123.32 67.9898 123.32C39.7594 123.32 16.8843 124.29 16.8843 125.489C16.8843 126.689 39.7674 127.658 67.9978 127.658C96.2282 127.658 119.111 126.689 119.103 125.489Z" fill="#02A9CE"/>
<path d="M80.647 109.106H57.6685L55.8411 123.296H82.5221L80.647 109.106Z" fill="#8F8F8F"/>
<path d="M79.6857 109.106H56.7072L54.8718 123.296H81.5608L79.6857 109.106Z" fill="#D6D6D6"/>
<path d="M79.6857 109.106H56.7073L55.9048 116.431H80.512L79.6857 109.106Z" fill="#C7C7C7"/>
<path d="M52.822 124.901C52.822 123.598 53.7993 122.542 55.015 122.542H88.9423C90.158 122.542 91.1353 123.598 91.1432 124.901H52.822Z" fill="#CCCCCC"/>
<path d="M46.6084 124.901C46.6084 123.598 47.5857 122.542 48.8014 122.542H82.7287C83.9444 122.542 84.9217 123.598 84.9296 124.901H46.6084Z" fill="#F2F2F2"/>
<path d="M137.784 74.9956C133.334 74.9956 129.735 71.5949 129.735 67.3996L129.743 35.0058V29.8015C129.743 24.8991 127.224 20.9263 124.109 20.9263H123.339C120.224 20.9263 115.123 24.8991 115.123 29.8015H112.978H90.5713V61.2021H74.9346V74.9956H137.784Z" fill="#003545"/>
<path opacity="0.31" d="M130.95 74.9956C126.986 74.9956 123.776 71.5949 123.776 67.3996L123.784 35.0058V29.8015C123.784 24.8991 121.535 20.9263 118.762 20.9263H118.071C115.298 20.9263 110.745 24.8991 110.745 29.8015H108.838H88.8631V61.2021H74.9346V74.9956H130.95Z" fill="#93C9C1"/>
<path d="M124.697 20.9184H73.0513C68.864 20.9184 65.4633 24.8911 65.4633 29.7935V30.2305H65.4474V45.9388V99.5075C65.4474 104.41 63.5485 108.383 60.1001 108.383H111.96C115.409 108.383 118.206 104.41 118.206 99.5075V45.9388V30.2385V29.8015C118.206 24.8911 120.51 20.9184 124.697 20.9184Z" fill="#E9F5F3"/>
<path opacity="0.59" d="M118.563 21.0773H66.9175C62.7302 21.0773 59.3295 25.0501 59.3295 29.9524V30.3894H59.3136V46.0977V99.6664C59.3136 104.569 57.4147 108.541 53.9663 108.541H105.835C109.283 108.541 112.08 104.569 112.08 99.6664V46.0977V30.3894V29.9524C112.072 25.0501 114.376 21.0773 118.563 21.0773Z" fill="#DEDEDE"/>
<path d="M108.949 99.5075V97.7197H108.965V20.2748V15.0705C108.965 10.1681 105.819 6.19535 101.949 6.19535H100.988C97.1103 6.19535 90.7539 10.1681 90.7539 15.0705H88.0842H60.1557V46.4712H40.6892V99.5154C40.6892 104.418 45.0831 108.391 50.5099 108.391H116.227C110.8 108.391 108.949 104.418 108.949 99.5075Z" fill="#003545"/>
<path opacity="0.31" d="M101.059 99.5075V97.7197H101.075V20.2748V15.0705C101.075 10.1681 97.9446 6.19535 94.0831 6.19535H93.1217C89.2601 6.19535 82.9196 10.1681 82.9196 15.0705H80.2499H60.0922V46.4712H40.6892V99.5154C40.6892 104.418 45.0672 108.391 50.4701 108.391H108.306C102.903 108.391 101.059 104.418 101.059 99.5075Z" fill="#93C9C1"/>
<path d="M118.603 26.9888H15.0172C13.5711 26.9888 12.3951 28.1329 12.3872 29.5393L11.982 106.698C11.974 108.105 13.142 109.249 14.5802 109.249H118.166C119.612 109.249 120.788 108.105 120.796 106.698L121.201 29.5393C121.209 28.1329 120.041 26.9888 118.603 26.9888Z" fill="#D6D6D6"/>
<path d="M115.019 26.7822H13.6028C12.1885 26.7822 11.0364 27.9263 11.0364 29.3406L10.7583 106.698C10.7504 108.112 11.8946 109.257 13.3089 109.257H114.725C116.14 109.257 117.292 108.112 117.292 106.698L117.57 29.3406C117.578 27.9263 116.434 26.7822 115.019 26.7822Z" fill="#242424"/>
<path d="M112.024 33.3452H16.5586L16.3123 102.686H111.778L112.024 33.3452Z" fill="#333838"/>
<g opacity="0.06">
<path opacity="0.06" d="M41.2134 127.555L14.7549 104.585L79.1453 0.228271L105.604 23.1988L41.2134 127.555Z" fill="white"/>
<path opacity="0.06" d="M51.2727 136.605L43.2239 129.613L107.614 25.2487L115.663 32.2407L51.2727 136.605Z" fill="white"/>
</g>
<path opacity="0.46" d="M65.1534 29.9286C65.1534 30.4848 64.772 30.9377 64.2952 30.9377C63.8265 30.9377 63.4451 30.4848 63.4451 29.9286C63.4451 29.3724 63.8265 28.9195 64.3032 28.9195C64.7799 28.9195 65.1534 29.3724 65.1534 29.9286Z" fill="#808080"/>
<path opacity="0.43" d="M101.686 98.117H36.9861C35.842 98.117 34.9124 97.1873 34.9124 96.0432V29.2612H103.768V96.0432C103.76 97.1873 102.831 98.117 101.686 98.117Z" fill="#242424"/>
<path d="M27.8173 91.0058L92.5494 90.9978C93.5187 90.9978 94.3053 90.243 94.3053 89.3134V68.2498V37.7947V15.0705C94.3053 10.1681 97.2929 6.19535 102.712 6.19535H35.8661C30.4472 6.19535 26.0454 10.1681 26.0454 15.0705V37.7947V68.2498V89.3134C26.0534 90.2509 26.84 91.0058 27.8173 91.0058Z" fill="#FAFAFA"/>
<path d="M75.5061 72.5166H52.9727C52.48 72.5166 52.0828 72.1193 52.0828 71.6267C52.0828 71.134 52.48 70.7368 52.9727 70.7368H75.4982C75.9908 70.7368 76.3881 71.134 76.3881 71.6267C76.396 72.1193 75.9908 72.5166 75.5061 72.5166Z" fill="#A3BBC4"/>
<path d="M84.5164 67.638H52.9727C52.48 67.638 52.0828 67.2407 52.0828 66.7481C52.0828 66.2555 52.48 65.8582 52.9727 65.8582H84.5164C85.009 65.8582 85.4063 66.2555 85.4063 66.7481C85.4063 67.2407 85.009 67.638 84.5164 67.638Z" fill="#A3BBC4"/>
<path d="M48.4042 77.5302H34.5552V63.6812H48.4042V77.5302ZM36.2158 75.8696H46.7357V65.3418H36.2158V75.8696Z" fill="#A3BBC4"/>
<path d="M41.1184 73.7561L37.6938 70.9831L38.9651 69.6005L40.9356 71.1896L44.3681 67.4553L45.8301 68.6391L41.1184 73.7561Z" fill="#02A9CE"/>
<path d="M48.4042 77.5302H34.5552V63.6812H48.4042V77.5302ZM36.2158 75.8696H46.7357V65.3418H36.2158V75.8696Z" fill="#A3BBC4"/>
<path d="M41.1184 73.7561L37.6938 70.9831L38.9651 69.6005L40.9356 71.1896L44.3681 67.4553L45.8301 68.6391L41.1184 73.7561Z" fill="#02A9CE"/>
<path d="M84.5164 47.1227H52.9727C52.48 47.1227 52.0828 46.7254 52.0828 46.2328C52.0828 45.7402 52.48 45.3429 52.9727 45.3429H84.5164C85.009 45.3429 85.4063 45.7402 85.4063 46.2328C85.4063 46.7254 85.009 47.1227 84.5164 47.1227Z" fill="#A3BBC4"/>
<path d="M84.5164 52.0012H52.9727C52.48 52.0012 52.0828 51.604 52.0828 51.1113C52.0828 50.6187 52.48 50.2215 52.9727 50.2215H84.5164C85.009 50.2215 85.4063 50.6187 85.4063 51.1113C85.4063 51.604 85.009 52.0012 84.5164 52.0012Z" fill="#A3BBC4"/>
<path d="M72.5267 56.8877H52.9807C52.4881 56.8877 52.0908 56.4905 52.0908 55.9978C52.0908 55.5052 52.4881 55.1079 52.9807 55.1079H72.5267C73.0193 55.1079 73.4166 55.5052 73.4166 55.9978C73.4166 56.4905 73.0193 56.8877 72.5267 56.8877Z" fill="#A3BBC4"/>
<path d="M48.4042 58.2146H34.5552V44.3656H48.4042V58.2146ZM36.2158 56.5461H46.7357V46.0262H36.2158V56.5461Z" fill="#A3BBC4"/>
<path d="M48.4042 58.2146H34.5552V44.3656H48.4042V58.2146ZM36.2158 56.5461H46.7357V46.0262H36.2158V56.5461Z" fill="#A3BBC4"/>
<path d="M41.1184 54.4326L37.6938 51.6675L38.9651 50.285L40.9356 51.8741L44.3681 48.1397L45.8301 49.3236L41.1184 54.4326Z" fill="#02A9CE"/>
<path d="M84.5164 32.638H52.9727C52.48 32.638 52.0828 32.2407 52.0828 31.7481C52.0828 31.2555 52.48 30.8582 52.9727 30.8582H84.5164C85.009 30.8582 85.4063 31.2555 85.4063 31.7481C85.4063 32.2407 85.009 32.638 84.5164 32.638Z" fill="#A3BBC4"/>
<path d="M84.5164 27.7595H52.9727C52.48 27.7595 52.0828 27.3622 52.0828 26.8696C52.0828 26.377 52.48 25.9797 52.9727 25.9797H84.5164C85.009 25.9797 85.4063 26.377 85.4063 26.8696C85.4063 27.3543 85.009 27.7595 84.5164 27.7595Z" fill="#A3BBC4"/>
<path d="M48.4042 38.9309H34.5552V25.0739H48.4042V38.9309ZM36.2158 37.2623H46.7357V26.7425H36.2158V37.2623Z" fill="#A3BBC4"/>
<path d="M48.4042 38.9309H34.5552V25.0739H48.4042V38.9309ZM36.2158 37.2623H46.7357V26.7425H36.2158V37.2623Z" fill="#A3BBC4"/>
<path d="M41.1184 35.1488L37.6938 32.3838L38.9651 31.0013L40.9356 32.5904L44.3681 28.856L45.8301 30.0398L41.1184 35.1488Z" fill="#02A9CE"/>
<path d="M7.98532 22.2215C7.98532 22.436 7.89792 22.6426 7.73107 22.7856C7.39736 23.0716 6.84911 22.9922 6.50746 22.6187L3.3372 19.075C3.00349 18.7016 3.00349 18.1613 3.3372 17.8753C3.67091 17.5892 4.21915 17.6687 4.56081 18.0421L7.73107 21.5858C7.89792 21.7765 7.98532 22.0069 7.98532 22.2215Z" fill="#F5F5EB"/>
<path d="M12.4584 16.7152V20.5529C12.4584 21.0217 12.0691 21.3474 11.5924 21.2759C11.1156 21.2124 10.7263 20.7754 10.7263 20.3066V16.4689C10.7263 16.0001 11.1156 15.6744 11.5924 15.7459C12.0691 15.8174 12.4584 16.2544 12.4584 16.7152Z" fill="#F5F5EB"/>
<path d="M5.64926 26.2816C5.64926 26.7504 5.25993 27.0762 4.7832 27.0047L0.858116 26.4644C0.38933 26.4008 0 25.9638 0 25.495C0 25.0262 0.38933 24.7005 0.866061 24.772L4.79115 25.3123C5.26788 25.3838 5.64926 25.8128 5.64926 26.2816Z" fill="#F5F5EB"/>
<path d="M86.5901 111.386C97.464 111.386 106.279 102.087 106.279 90.6164C106.279 79.1457 97.464 69.8469 86.5901 69.8469C75.7162 69.8469 66.9011 79.1457 66.9011 90.6164C66.9011 102.087 75.7162 111.386 86.5901 111.386Z" fill="#037E99"/>
<path d="M84.5323 111.386C95.4062 111.386 104.221 102.087 104.221 90.6164C104.221 79.1457 95.4062 69.8469 84.5323 69.8469C73.6583 69.8469 64.8433 79.1457 64.8433 90.6164C64.8433 102.087 73.6583 111.386 84.5323 111.386Z" fill="#02A9CE"/>
<path d="M73.456 88.6062C72.1371 89.9172 72.1371 92.1181 73.4481 93.4212L79.5741 99.4757C80.7897 100.675 82.6808 100.66 83.8726 99.4439L97.1098 85.9922C98.397 84.6811 98.3811 82.5041 97.078 81.2169C95.8624 80.0171 93.9634 80.033 92.7636 81.2566L82.4027 91.8798C82.0213 92.2691 81.4254 92.2691 81.044 91.8957L77.7228 88.6062C76.523 87.4144 74.6558 87.4144 73.456 88.6062Z" fill="white"/>
</g>
<defs>
<clipPath id="clip0">
<rect width="137.783" height="136.377" fill="white" transform="translate(0 0.228271)"/>
</clipPath>
</defs>
</svg>
