<svg width="195" height="150" viewBox="0 0 195 150" fill="none" xmlns="http://www.w3.org/2000/svg">
<g clip-path="url(#clip0)">
<g opacity="0.38">
<path opacity="0.38" d="M172.688 11.8307C172.312 11.8307 172.011 11.5287 172.011 11.153V5.69437C172.011 5.31868 172.312 5.01665 172.688 5.01665C173.063 5.01665 173.365 5.31868 173.365 5.69437V11.1604C173.365 11.5287 173.063 11.8307 172.688 11.8307Z" fill="white"/>
<path opacity="0.38" d="M175.418 9.1051H169.958C169.583 9.1051 169.281 8.80307 169.281 8.42738C169.281 8.05168 169.583 7.74965 169.958 7.74965H175.418C175.793 7.74965 176.095 8.05168 176.095 8.42738C176.095 8.79571 175.786 9.1051 175.418 9.1051Z" fill="white"/>
<path opacity="0.38" d="M31.984 33.4517C31.6088 33.4517 31.3071 33.1497 31.3071 32.774V28.0962C31.3071 27.7205 31.6088 27.4185 31.984 27.4185C32.3593 27.4185 32.661 27.7205 32.661 28.0962V32.774C32.661 33.1497 32.3593 33.4517 31.984 33.4517Z" fill="white"/>
<path opacity="0.38" d="M34.3169 31.1091H29.652C29.2768 31.1091 28.9751 30.8071 28.9751 30.4314C28.9751 30.0557 29.2768 29.7537 29.652 29.7537H34.3242C34.6995 29.7537 35.0011 30.0557 35.0011 30.4314C34.9938 30.8071 34.6921 31.1091 34.3169 31.1091Z" fill="white"/>
<path opacity="0.38" d="M102.075 140.842C101.7 140.842 101.398 140.54 101.398 140.164V135.486C101.398 135.111 101.7 134.809 102.075 134.809C102.45 134.809 102.752 135.111 102.752 135.486V140.164C102.752 140.54 102.443 140.842 102.075 140.842Z" fill="white"/>
<path opacity="0.38" d="M104.407 138.507H99.735C99.3598 138.507 99.0581 138.205 99.0581 137.829C99.0581 137.453 99.3598 137.151 99.735 137.151H104.407C104.782 137.151 105.084 137.453 105.084 137.829C105.084 138.197 104.782 138.507 104.407 138.507Z" fill="white"/>
<path opacity="0.38" d="M72.0256 9.9375C71.6503 9.9375 71.3486 9.63547 71.3486 9.25978V4.58936C71.3486 4.21367 71.6503 3.91164 72.0256 3.91164C72.4008 3.91164 72.7025 4.21367 72.7025 4.58936V9.26715C72.7025 9.63547 72.4008 9.9375 72.0256 9.9375Z" fill="white"/>
<path opacity="0.38" d="M74.3579 7.60228H69.6857C69.3105 7.60228 69.0088 7.30025 69.0088 6.92455C69.0088 6.54886 69.3105 6.24683 69.6857 6.24683H74.3579C74.7332 6.24683 75.0348 6.54886 75.0348 6.92455C75.0348 7.30025 74.7332 7.60228 74.3579 7.60228Z" fill="white"/>
<path opacity="0.38" d="M178.537 149.033C178.162 149.033 177.86 148.731 177.86 148.356V143.678C177.86 143.302 178.162 143 178.537 143C178.913 143 179.214 143.302 179.214 143.678V148.356C179.214 148.731 178.913 149.033 178.537 149.033Z" fill="white"/>
<path opacity="0.38" d="M180.869 146.691H176.197C175.822 146.691 175.52 146.389 175.52 146.013C175.52 145.638 175.822 145.335 176.197 145.335H180.869C181.244 145.335 181.546 145.638 181.546 146.013C181.546 146.389 181.244 146.691 180.869 146.691Z" fill="white"/>
<path opacity="0.38" d="M3.62701 13.0757C2.38354 13.0757 1.36816 12.0591 1.36816 10.8142C1.36816 9.5692 2.38354 8.55261 3.62701 8.55261C4.87048 8.55261 5.88585 9.5692 5.88585 10.8142C5.88585 12.0591 4.87048 13.0757 3.62701 13.0757ZM3.62701 9.91543C3.12668 9.91543 2.722 10.3206 2.722 10.8215C2.722 11.3225 3.12668 11.7276 3.62701 11.7276C4.12734 11.7276 4.53202 11.3225 4.53202 10.8215C4.53202 10.3206 4.12734 9.91543 3.62701 9.91543Z" fill="white"/>
<path opacity="0.38" d="M192.561 53.8351C191.318 53.8351 190.302 52.8185 190.302 51.5735C190.302 50.3286 191.318 49.312 192.561 49.312C193.805 49.312 194.82 50.3286 194.82 51.5735C194.82 52.8185 193.805 53.8351 192.561 53.8351ZM192.561 50.6675C192.061 50.6675 191.656 51.0726 191.656 51.5735C191.656 52.0745 192.061 52.4796 192.561 52.4796C193.061 52.4796 193.466 52.0745 193.466 51.5735C193.466 51.08 193.061 50.6675 192.561 50.6675Z" fill="white"/>
<path opacity="0.38" d="M1.40534 71.7064C0.632771 71.7064 0 71.0728 0 70.2994C0 69.5259 0.632771 68.8923 1.40534 68.8923C2.17791 68.8923 2.81068 69.5259 2.81068 70.2994C2.81068 71.0728 2.17791 71.7064 1.40534 71.7064Z" fill="white"/>
<path opacity="0.38" d="M114.142 2.81404C113.369 2.81404 112.736 2.18051 112.736 1.40702C112.736 0.633527 113.369 0 114.142 0C114.914 0 115.547 0.633527 115.547 1.40702C115.547 2.18051 114.914 2.81404 114.142 2.81404Z" fill="white"/>
<path opacity="0.38" d="M55.8751 147.148C55.1025 147.148 54.4697 146.514 54.4697 145.741C54.4697 144.967 55.1025 144.334 55.8751 144.334C56.6476 144.334 57.2804 144.967 57.2804 145.741C57.2804 146.514 56.655 147.148 55.8751 147.148Z" fill="white"/>
<path opacity="0.38" d="M6.29062 143.759C5.27525 143.759 4.45117 142.934 4.45117 141.917C4.45117 140.901 5.27525 140.076 6.29062 140.076C7.306 140.076 8.13007 140.901 8.13007 141.917C8.13007 142.934 7.306 143.759 6.29062 143.759ZM6.29062 141.439C6.02574 141.439 5.80501 141.652 5.80501 141.925C5.80501 142.19 6.01838 142.411 6.29062 142.411C6.5555 142.411 6.77624 142.197 6.77624 141.925C6.77624 141.652 6.5555 141.439 6.29062 141.439Z" fill="white"/>
<path opacity="0.38" d="M134.957 143.008C133.941 143.008 133.117 142.183 133.117 141.166C133.117 140.149 133.941 139.324 134.957 139.324C135.972 139.324 136.796 140.149 136.796 141.166C136.796 142.183 135.972 143.008 134.957 143.008ZM134.957 140.687C134.692 140.687 134.471 140.901 134.471 141.173C134.471 141.439 134.684 141.66 134.957 141.66C135.222 141.66 135.442 141.446 135.442 141.173C135.442 140.908 135.222 140.687 134.957 140.687Z" fill="white"/>
</g>
<path d="M171.017 90.3438C166.433 90.3438 162.71 86.83 162.71 82.4984L162.717 49.032V43.6544C162.717 38.5935 160.113 34.483 156.905 34.483H156.11C152.902 34.483 147.634 38.5862 147.634 43.6544H145.427H122.308V76.0895H106.188V90.3438H171.017Z" fill="#003545"/>
<path opacity="0.31" d="M163.968 90.3438C159.877 90.3438 156.566 86.83 156.566 82.4984L156.574 49.032V43.6544C156.574 38.5935 154.256 34.483 151.394 34.483H150.68C147.818 34.483 143.124 38.5862 143.124 43.6544H141.152H120.543V76.0895H106.173V90.3438H163.968Z" fill="#93C9C1"/>
<path d="M157.516 34.483H104.23C99.9114 34.483 96.4017 38.5862 96.4017 43.6544V44.1037H96.387V60.3323V115.67C96.387 120.731 94.4298 124.842 90.876 124.842H144.382C147.936 124.842 150.82 120.738 150.82 115.67V60.3323V44.1037V43.6544C150.82 38.5862 153.197 34.483 157.516 34.483Z" fill="#E9F5F3"/>
<path opacity="0.59" d="M151.188 34.6451H97.9027C93.5837 34.6451 90.074 38.7482 90.074 43.8165V44.2658H90.0593V60.4871V115.825C90.0593 120.886 88.1022 124.996 84.5483 124.996H138.054C141.608 124.996 144.492 120.893 144.492 115.825V60.4944V44.2658V43.8165C144.492 38.7556 146.869 34.6451 151.188 34.6451Z" fill="#DEDEDE"/>
<path d="M141.27 115.663V113.814H141.285V33.8126V28.435C141.285 23.3742 138.04 19.2636 134.045 19.2636H133.051C129.049 19.2636 122.493 23.3668 122.493 28.435H119.741H90.9427V60.8701H70.856V115.663C70.856 120.724 75.3884 124.834 80.9876 124.834H148.79C143.176 124.834 141.27 120.731 141.27 115.663Z" fill="#003545"/>
<path opacity="0.31" d="M133.125 115.663V113.814H133.139V33.8126V28.435C133.139 23.3742 129.909 19.2636 125.921 19.2636H124.928C120.94 19.2636 114.399 23.3668 114.399 28.435H111.655H90.854V60.8701H70.8408V115.663C70.8408 120.724 75.3585 124.834 80.9357 124.834H140.607C135.03 124.834 133.125 120.731 133.125 115.663Z" fill="#003545"/>
<path d="M57.5674 106.963L124.354 106.956C125.355 106.956 126.172 106.175 126.172 105.217V83.4561V51.9934V28.5235C126.172 23.4626 129.247 19.3521 134.846 19.3521H65.867C60.2751 19.3521 55.7354 23.4552 55.7354 28.5235V52.0008V83.4635V105.224C55.7354 106.182 56.5594 106.963 57.5674 106.963Z" fill="#F5F5F5"/>
<path d="M113.774 82.8153H67.6772C67.0297 82.8153 66.5073 82.3143 66.5073 81.7029C66.5073 81.0915 67.0297 80.5905 67.6772 80.5905H113.774C114.421 80.5905 114.944 81.0915 114.944 81.7029C114.944 82.3143 114.421 82.8153 113.774 82.8153Z" fill="#C4C4C4"/>
<path d="M113.774 89.0473H67.6772C67.0297 89.0473 66.5073 88.5464 66.5073 87.935C66.5073 87.3236 67.0297 86.8226 67.6772 86.8226H113.774C114.421 86.8226 114.944 87.3236 114.944 87.935C114.944 88.5464 114.421 89.0473 113.774 89.0473Z" fill="#C4C4C4"/>
<path d="M101.898 95.2795H67.6772C67.0297 95.2795 66.5073 94.7786 66.5073 94.1672C66.5073 93.5557 67.0297 93.0548 67.6772 93.0548H101.906C102.553 93.0548 103.076 93.5557 103.076 94.1672C103.076 94.7786 102.546 95.2795 101.898 95.2795Z" fill="#C4C4C4"/>
<path opacity="0.08" d="M73.9389 110.985L52.8515 129.519C50.1364 131.906 46.0676 131.906 43.3525 129.519L22.2651 110.985C20.7052 109.615 19.8149 107.641 19.8149 105.571V72.8997C19.8149 69.3122 22.4564 66.2698 26.0029 65.7615L47.0903 62.7707C47.7599 62.6749 48.4441 62.6749 49.1137 62.7707L70.1938 65.7615C73.7403 66.2624 76.3817 69.3048 76.3817 72.8997V105.578C76.3891 107.648 75.4914 109.622 73.9389 110.985Z" fill="#231F20"/>
<path opacity="0.13" d="M113.362 128.135C157.582 128.135 193.429 127.297 193.429 126.263C193.429 125.23 157.582 124.392 113.362 124.392C69.1414 124.392 33.2939 125.23 33.2939 126.263C33.2939 127.297 69.1414 128.135 113.362 128.135Z" fill="#231F20"/>
<path d="M148.488 87.6772C148.488 94.727 142.778 100.105 135.736 100.105C128.695 100.105 122.985 94.727 122.985 87.6772C122.985 80.6273 128.695 74.9109 135.736 74.9109C142.778 74.9035 148.488 80.62 148.488 87.6772Z" fill="#FFC30D"/>
<path d="M135.736 101.932C126.215 101.932 118.762 94.646 118.762 85.342C118.762 75.9717 126.377 68.3472 135.736 68.3472C145.095 68.3472 152.711 75.9717 152.711 85.342C152.711 94.646 145.257 101.932 135.736 101.932Z" fill="#FFDD00"/>
<path d="M135.736 71.6843C127.871 71.6843 121.469 78.0932 121.469 85.9681C121.469 93.7399 127.738 99.8247 135.736 99.8247C143.734 99.8247 150.003 93.7399 150.003 85.9681C150.003 78.0932 143.602 71.6843 135.736 71.6843Z" fill="white"/>
<path d="M135.854 70.9182C127.988 70.9182 121.587 77.3271 121.587 85.202C121.587 92.9738 127.856 99.0586 135.854 99.0586C143.852 99.0586 150.12 92.9738 150.12 85.202C150.12 77.3197 143.719 70.9182 135.854 70.9182Z" fill="#F0A700"/>
<path d="M135.736 71.4265C127.871 71.4265 121.469 77.8354 121.469 85.7103C121.469 93.482 127.738 99.5668 135.736 99.5668C143.734 99.5668 150.003 93.482 150.003 85.7103C150.003 77.8354 143.602 71.4265 135.736 71.4265Z" fill="#FFC000"/>
<path d="M148.32 69.6076L146.197 67.4824L121.047 92.6623L123.17 94.7875L148.32 69.6076Z" fill="#FFDD00"/>
<path d="M154.583 76.0758L149.604 71.0909L122.451 98.2762L127.43 103.261L154.583 76.0758Z" fill="#FFDD00"/>
<path d="M118.328 126.087H85.2182C85.1078 126.087 85.0195 125.998 85.0195 125.888V119.309C85.0195 119.199 85.1078 119.11 85.2182 119.11H118.328C118.439 119.11 118.527 119.199 118.527 119.309V125.888C118.52 125.998 118.431 126.087 118.328 126.087Z" fill="#D48200"/>
<path d="M118.328 125.748H85.2182C85.1078 125.748 85.0195 125.659 85.0195 125.549V118.204C85.0195 118.094 85.1078 118.005 85.2182 118.005H118.328C118.439 118.005 118.527 118.094 118.527 118.204V125.549C118.52 125.659 118.431 125.748 118.328 125.748Z" fill="#FFC000"/>
<path d="M86.9634 125.751H94.0269V118.016H86.9634V125.751Z" fill="#FFAF00"/>
<path d="M111.804 125.751H114.276V118.016H111.804V125.751Z" fill="#FFDE00"/>
<g opacity="0.6">
<g opacity="0.6">
<path opacity="0.6" d="M86.6087 125.24C86.4541 125.24 86.3364 125.114 86.3364 124.967V118.912C86.3364 118.757 86.4615 118.639 86.6087 118.639C86.7632 118.639 86.8809 118.764 86.8809 118.912V124.967C86.8883 125.114 86.7632 125.24 86.6087 125.24Z" fill="#FFE600"/>
</g>
<g opacity="0.6">
<path opacity="0.6" d="M88.7791 125.239C88.6246 125.239 88.5068 125.114 88.5068 124.967V118.912C88.5068 118.757 88.6319 118.639 88.7791 118.639C88.9336 118.639 89.0513 118.764 89.0513 118.912V124.967C89.0513 125.114 88.9262 125.239 88.7791 125.239Z" fill="#FFE600"/>
</g>
<g opacity="0.6">
<path opacity="0.6" d="M90.9426 125.239C90.7881 125.239 90.6704 125.114 90.6704 124.967V118.912C90.6704 118.757 90.7955 118.639 90.9426 118.639C91.0971 118.639 91.2149 118.764 91.2149 118.912V124.967C91.2149 125.114 91.0898 125.239 90.9426 125.239Z" fill="#FFE600"/>
</g>
<g opacity="0.6">
<path opacity="0.6" d="M93.1057 125.239C92.9512 125.239 92.8335 125.114 92.8335 124.967V118.912C92.8335 118.757 92.9586 118.639 93.1057 118.639C93.2602 118.639 93.378 118.764 93.378 118.912V124.967C93.3853 125.114 93.2602 125.239 93.1057 125.239Z" fill="#FFE600"/>
</g>
<g opacity="0.6">
<path opacity="0.6" d="M95.2688 125.239C95.1143 125.239 94.9966 125.114 94.9966 124.967V118.912C94.9966 118.757 95.1217 118.639 95.2688 118.639C95.4233 118.639 95.5411 118.764 95.5411 118.912V124.967C95.5484 125.114 95.4233 125.239 95.2688 125.239Z" fill="#FFE600"/>
</g>
<g opacity="0.6">
<path opacity="0.6" d="M97.4392 125.239C97.2847 125.239 97.167 125.114 97.167 124.967V118.912C97.167 118.757 97.2921 118.639 97.4392 118.639C97.5937 118.639 97.7115 118.764 97.7115 118.912V124.967C97.7115 125.114 97.5864 125.239 97.4392 125.239Z" fill="#FFE600"/>
</g>
<g opacity="0.6">
<path opacity="0.6" d="M99.6028 125.239C99.4483 125.239 99.3306 125.114 99.3306 124.967V118.912C99.3306 118.757 99.4556 118.639 99.6028 118.639C99.7573 118.639 99.875 118.764 99.875 118.912V124.967C99.875 125.114 99.7573 125.239 99.6028 125.239Z" fill="#FFE600"/>
</g>
<g opacity="0.6">
<path opacity="0.6" d="M101.765 125.239C101.611 125.239 101.493 125.114 101.493 124.967V118.912C101.493 118.757 101.618 118.639 101.765 118.639C101.92 118.639 102.038 118.764 102.038 118.912V124.967C102.045 125.114 101.92 125.239 101.765 125.239Z" fill="#FFE600"/>
</g>
<g opacity="0.6">
<path opacity="0.6" d="M103.936 125.239C103.782 125.239 103.664 125.114 103.664 124.967V118.912C103.664 118.757 103.789 118.639 103.936 118.639C104.091 118.639 104.209 118.764 104.209 118.912V124.967C104.209 125.114 104.083 125.239 103.936 125.239Z" fill="#FFE600"/>
</g>
<g opacity="0.6">
<path opacity="0.6" d="M106.099 125.239C105.945 125.239 105.827 125.114 105.827 124.967V118.912C105.827 118.757 105.952 118.639 106.099 118.639C106.254 118.639 106.372 118.764 106.372 118.912V124.967C106.372 125.114 106.254 125.239 106.099 125.239Z" fill="#FFE600"/>
</g>
<g opacity="0.6">
<path opacity="0.6" d="M108.262 125.239C108.108 125.239 107.99 125.114 107.99 124.967V118.912C107.99 118.757 108.115 118.639 108.262 118.639C108.417 118.639 108.535 118.764 108.535 118.912V124.967C108.542 125.114 108.417 125.239 108.262 125.239Z" fill="#FFE600"/>
</g>
<g opacity="0.6">
<path opacity="0.6" d="M110.433 125.239C110.279 125.239 110.161 125.114 110.161 124.967V118.912C110.161 118.757 110.286 118.639 110.433 118.639C110.588 118.639 110.706 118.764 110.706 118.912V124.967C110.706 125.114 110.581 125.239 110.433 125.239Z" fill="#FFE600"/>
</g>
<g opacity="0.6">
<path opacity="0.6" d="M112.596 125.239C112.442 125.239 112.324 125.114 112.324 124.967V118.912C112.324 118.757 112.449 118.639 112.596 118.639C112.751 118.639 112.869 118.764 112.869 118.912V124.967C112.869 125.114 112.744 125.239 112.596 125.239Z" fill="#FFE600"/>
</g>
<g opacity="0.6">
<path opacity="0.6" d="M114.76 125.239C114.605 125.239 114.487 125.114 114.487 124.967V118.912C114.487 118.757 114.612 118.639 114.76 118.639C114.914 118.639 115.032 118.764 115.032 118.912V124.967C115.039 125.114 114.914 125.239 114.76 125.239Z" fill="#FFE600"/>
</g>
<g opacity="0.6">
<path opacity="0.6" d="M116.93 125.239C116.775 125.239 116.658 125.114 116.658 124.967V118.912C116.658 118.757 116.783 118.639 116.93 118.639C117.084 118.639 117.202 118.764 117.202 118.912V124.967C117.202 125.114 117.077 125.239 116.93 125.239Z" fill="#FFE600"/>
</g>
</g>
<path d="M154.087 126.087H120.977C120.867 126.087 120.778 125.998 120.778 125.888V119.309C120.778 119.199 120.867 119.11 120.977 119.11H154.087C154.197 119.11 154.286 119.199 154.286 119.309V125.888C154.278 125.998 154.19 126.087 154.087 126.087Z" fill="#D48200"/>
<path d="M154.088 125.748H120.977C120.867 125.748 120.779 125.659 120.779 125.549V118.204C120.779 118.094 120.867 118.005 120.977 118.005H154.088C154.198 118.005 154.286 118.094 154.286 118.204V125.549C154.279 125.659 154.191 125.748 154.088 125.748Z" fill="#FFC000"/>
<path d="M120.775 125.751H127.838V118.016H120.775V125.751Z" fill="#FFAF00"/>
<path opacity="0.21" d="M120.776 125.751H122.917V118.016H120.776V125.751Z" fill="#A20012"/>
<path d="M147.563 125.751H150.035V118.016H147.563V125.751Z" fill="#FFDE00"/>
<g opacity="0.6">
<g opacity="0.6">
<path opacity="0.6" d="M122.367 125.24C122.213 125.24 122.095 125.114 122.095 124.967V118.912C122.095 118.757 122.22 118.639 122.367 118.639C122.522 118.639 122.64 118.764 122.64 118.912V124.967C122.647 125.114 122.522 125.24 122.367 125.24Z" fill="#FFE600"/>
</g>
<g opacity="0.6">
<path opacity="0.6" d="M124.538 125.239C124.383 125.239 124.266 125.114 124.266 124.967V118.912C124.266 118.757 124.391 118.639 124.538 118.639C124.685 118.639 124.81 118.764 124.81 118.912V124.967C124.81 125.114 124.685 125.239 124.538 125.239Z" fill="#FFE600"/>
</g>
<g opacity="0.6">
<path opacity="0.6" d="M126.701 125.239C126.546 125.239 126.429 125.114 126.429 124.967V118.912C126.429 118.757 126.554 118.639 126.701 118.639C126.855 118.639 126.973 118.764 126.973 118.912V124.967C126.973 125.114 126.848 125.239 126.701 125.239Z" fill="#FFE600"/>
</g>
<g opacity="0.6">
<path opacity="0.6" d="M128.865 125.239C128.71 125.239 128.592 125.114 128.592 124.967V118.912C128.592 118.757 128.717 118.639 128.865 118.639C129.019 118.639 129.137 118.764 129.137 118.912V124.967C129.144 125.114 129.019 125.239 128.865 125.239Z" fill="#FFE600"/>
</g>
<g opacity="0.6">
<path opacity="0.6" d="M131.028 125.239C130.873 125.239 130.755 125.114 130.755 124.967V118.912C130.755 118.757 130.88 118.639 131.028 118.639C131.182 118.639 131.3 118.764 131.3 118.912V124.967C131.307 125.114 131.182 125.239 131.028 125.239Z" fill="#FFE600"/>
</g>
<g opacity="0.6">
<path opacity="0.6" d="M133.198 125.239C133.044 125.239 132.926 125.114 132.926 124.967V118.912C132.926 118.757 133.051 118.639 133.198 118.639C133.353 118.639 133.47 118.764 133.47 118.912V124.967C133.47 125.114 133.345 125.239 133.198 125.239Z" fill="#FFE600"/>
</g>
<g opacity="0.6">
<path opacity="0.6" d="M135.362 125.239C135.207 125.239 135.089 125.114 135.089 124.967V118.912C135.089 118.757 135.214 118.639 135.362 118.639C135.516 118.639 135.634 118.764 135.634 118.912V124.967C135.634 125.114 135.516 125.239 135.362 125.239Z" fill="#FFE600"/>
</g>
<g opacity="0.6">
<path opacity="0.6" d="M137.524 125.239C137.37 125.239 137.252 125.114 137.252 124.967V118.912C137.252 118.757 137.377 118.639 137.524 118.639C137.679 118.639 137.796 118.764 137.796 118.912V124.967C137.804 125.114 137.679 125.239 137.524 125.239Z" fill="#FFE600"/>
</g>
<g opacity="0.6">
<path opacity="0.6" d="M139.695 125.239C139.541 125.239 139.423 125.114 139.423 124.967V118.912C139.423 118.757 139.548 118.639 139.695 118.639C139.85 118.639 139.967 118.764 139.967 118.912V124.967C139.967 125.114 139.842 125.239 139.695 125.239Z" fill="#FFE600"/>
</g>
<g opacity="0.6">
<path opacity="0.6" d="M141.858 125.239C141.704 125.239 141.586 125.114 141.586 124.967V118.912C141.586 118.757 141.711 118.639 141.858 118.639C142.013 118.639 142.13 118.764 142.13 118.912V124.967C142.13 125.114 142.013 125.239 141.858 125.239Z" fill="#FFE600"/>
</g>
<g opacity="0.6">
<path opacity="0.6" d="M144.022 125.239C143.867 125.239 143.75 125.114 143.75 124.967V118.912C143.75 118.757 143.875 118.639 144.022 118.639C144.176 118.639 144.294 118.764 144.294 118.912V124.967C144.301 125.114 144.176 125.239 144.022 125.239Z" fill="#FFE600"/>
</g>
<g opacity="0.6">
<path opacity="0.6" d="M146.192 125.239C146.037 125.239 145.919 125.114 145.919 124.967V118.912C145.919 118.757 146.045 118.639 146.192 118.639C146.346 118.639 146.464 118.764 146.464 118.912V124.967C146.464 125.114 146.339 125.239 146.192 125.239Z" fill="#FFE600"/>
</g>
<g opacity="0.6">
<path opacity="0.6" d="M148.355 125.239C148.201 125.239 148.083 125.114 148.083 124.967V118.912C148.083 118.757 148.208 118.639 148.355 118.639C148.51 118.639 148.627 118.764 148.627 118.912V124.967C148.627 125.114 148.51 125.239 148.355 125.239Z" fill="#FFE600"/>
</g>
<g opacity="0.6">
<path opacity="0.6" d="M150.518 125.239C150.364 125.239 150.246 125.114 150.246 124.967V118.912C150.246 118.757 150.371 118.639 150.518 118.639C150.673 118.639 150.791 118.764 150.791 118.912V124.967C150.798 125.114 150.673 125.239 150.518 125.239Z" fill="#FFE600"/>
</g>
<g opacity="0.6">
<path opacity="0.6" d="M152.689 125.239C152.534 125.239 152.417 125.114 152.417 124.967V118.912C152.417 118.757 152.542 118.639 152.689 118.639C152.843 118.639 152.961 118.764 152.961 118.912V124.967C152.961 125.114 152.836 125.239 152.689 125.239Z" fill="#FFE600"/>
</g>
</g>
<path d="M193.231 126.087H160.121C160.01 126.087 159.922 125.998 159.922 125.888V119.309C159.922 119.199 160.01 119.11 160.121 119.11H193.231C193.341 119.11 193.429 119.199 193.429 119.309V125.888C193.429 125.998 193.341 126.087 193.231 126.087Z" fill="#D48200"/>
<path d="M193.231 125.748H160.121C160.01 125.748 159.922 125.659 159.922 125.549V118.204C159.922 118.094 160.01 118.005 160.121 118.005H193.231C193.341 118.005 193.429 118.094 193.429 118.204V125.549C193.429 125.659 193.341 125.748 193.231 125.748Z" fill="#FFC000"/>
<path d="M159.92 125.751H166.984V118.016H159.92V125.751Z" fill="#FFAF00"/>
<path opacity="0.21" d="M159.922 125.751H162.063V118.016H159.922V125.751Z" fill="#A20012"/>
<path d="M186.716 125.751H189.188V118.016H186.716V125.751Z" fill="#FFDE00"/>
<g opacity="0.6">
<g opacity="0.6">
<path opacity="0.6" d="M161.518 125.24C161.363 125.24 161.246 125.114 161.246 124.967V118.912C161.246 118.757 161.371 118.639 161.518 118.639C161.672 118.639 161.79 118.764 161.79 118.912V124.967C161.79 125.114 161.665 125.24 161.518 125.24Z" fill="#FFE600"/>
</g>
<g opacity="0.6">
<path opacity="0.6" d="M163.681 125.239C163.526 125.239 163.409 125.114 163.409 124.967V118.912C163.409 118.757 163.534 118.639 163.681 118.639C163.835 118.639 163.953 118.764 163.953 118.912V124.967C163.961 125.114 163.835 125.239 163.681 125.239Z" fill="#FFE600"/>
</g>
<g opacity="0.6">
<path opacity="0.6" d="M165.851 125.239C165.697 125.239 165.579 125.114 165.579 124.967V118.912C165.579 118.757 165.704 118.639 165.851 118.639C166.006 118.639 166.124 118.764 166.124 118.912V124.967C166.124 125.114 165.999 125.239 165.851 125.239Z" fill="#FFE600"/>
</g>
<g opacity="0.6">
<path opacity="0.6" d="M168.015 125.239C167.86 125.239 167.743 125.114 167.743 124.967V118.912C167.743 118.757 167.868 118.639 168.015 118.639C168.169 118.639 168.287 118.764 168.287 118.912V124.967C168.287 125.114 168.162 125.239 168.015 125.239Z" fill="#FFE600"/>
</g>
<g opacity="0.6">
<path opacity="0.6" d="M170.178 125.239C170.023 125.239 169.906 125.114 169.906 124.967V118.912C169.906 118.757 170.031 118.639 170.178 118.639C170.333 118.639 170.45 118.764 170.45 118.912V124.967C170.458 125.114 170.333 125.239 170.178 125.239Z" fill="#FFE600"/>
</g>
<g opacity="0.6">
<path opacity="0.6" d="M172.341 125.239C172.187 125.239 172.069 125.114 172.069 124.967V118.912C172.069 118.757 172.194 118.639 172.341 118.639C172.496 118.639 172.613 118.764 172.613 118.912V124.967C172.621 125.114 172.496 125.239 172.341 125.239Z" fill="#FFE600"/>
</g>
<g opacity="0.6">
<path opacity="0.6" d="M174.512 125.239C174.357 125.239 174.239 125.114 174.239 124.967V118.912C174.239 118.757 174.364 118.639 174.512 118.639C174.666 118.639 174.784 118.764 174.784 118.912V124.967C174.784 125.114 174.659 125.239 174.512 125.239Z" fill="#FFE600"/>
</g>
<g opacity="0.6">
<path opacity="0.6" d="M176.675 125.239C176.52 125.239 176.402 125.114 176.402 124.967V118.912C176.402 118.757 176.527 118.639 176.675 118.639C176.829 118.639 176.947 118.764 176.947 118.912V124.967C176.947 125.114 176.829 125.239 176.675 125.239Z" fill="#FFE600"/>
</g>
<g opacity="0.6">
<path opacity="0.6" d="M178.838 125.239C178.684 125.239 178.566 125.114 178.566 124.967V118.912C178.566 118.757 178.691 118.639 178.838 118.639C178.993 118.639 179.11 118.764 179.11 118.912V124.967C179.118 125.114 178.993 125.239 178.838 125.239Z" fill="#FFE600"/>
</g>
<g opacity="0.6">
<path opacity="0.6" d="M181.009 125.239C180.854 125.239 180.736 125.114 180.736 124.967V118.912C180.736 118.757 180.861 118.639 181.009 118.639C181.163 118.639 181.281 118.764 181.281 118.912V124.967C181.281 125.114 181.156 125.239 181.009 125.239Z" fill="#FFE600"/>
</g>
<g opacity="0.6">
<path opacity="0.6" d="M183.172 125.239C183.017 125.239 182.899 125.114 182.899 124.967V118.912C182.899 118.757 183.024 118.639 183.172 118.639C183.326 118.639 183.444 118.764 183.444 118.912V124.967C183.444 125.114 183.326 125.239 183.172 125.239Z" fill="#FFE600"/>
</g>
<g opacity="0.6">
<path opacity="0.6" d="M185.335 125.239C185.181 125.239 185.063 125.114 185.063 124.967V118.912C185.063 118.757 185.188 118.639 185.335 118.639C185.49 118.639 185.607 118.764 185.607 118.912V124.967C185.615 125.114 185.49 125.239 185.335 125.239Z" fill="#FFE600"/>
</g>
<g opacity="0.6">
<path opacity="0.6" d="M187.506 125.239C187.351 125.239 187.233 125.114 187.233 124.967V118.912C187.233 118.757 187.358 118.639 187.506 118.639C187.66 118.639 187.778 118.764 187.778 118.912V124.967C187.778 125.114 187.653 125.239 187.506 125.239Z" fill="#FFE600"/>
</g>
<g opacity="0.6">
<path opacity="0.6" d="M189.669 125.239C189.514 125.239 189.396 125.114 189.396 124.967V118.912C189.396 118.757 189.522 118.639 189.669 118.639C189.823 118.639 189.941 118.764 189.941 118.912V124.967C189.941 125.114 189.816 125.239 189.669 125.239Z" fill="#FFE600"/>
</g>
<g opacity="0.6">
<path opacity="0.6" d="M191.832 125.239C191.677 125.239 191.56 125.114 191.56 124.967V118.912C191.56 118.757 191.685 118.639 191.832 118.639C191.986 118.639 192.104 118.764 192.104 118.912V124.967C192.111 125.114 191.986 125.239 191.832 125.239Z" fill="#FFE600"/>
</g>
</g>
<path d="M182.231 118.013H149.121C149.01 118.013 148.922 117.924 148.922 117.814V111.236C148.922 111.125 149.01 111.037 149.121 111.037H182.231C182.341 111.037 182.429 111.125 182.429 111.236V117.814C182.429 117.924 182.341 118.013 182.231 118.013Z" fill="#D48200"/>
<path d="M182.231 117.674H149.121C149.01 117.674 148.922 117.586 148.922 117.475V110.131C148.922 110.02 149.01 109.932 149.121 109.932H182.231C182.341 109.932 182.429 110.02 182.429 110.131V117.475C182.429 117.586 182.341 117.674 182.231 117.674Z" fill="#FFC000"/>
<path opacity="0.15" d="M148.925 117.674H182.432V109.939H148.925V117.674Z" fill="#A20012"/>
<path opacity="0.21" d="M148.939 117.674H152.022V109.939H148.939V117.674Z" fill="#A20012"/>
<path opacity="0.25" d="M175.718 117.674H178.19V109.939H175.718V117.674Z" fill="#FFDE00"/>
<g opacity="0.6">
<g opacity="0.6">
<path opacity="0.6" d="M150.519 117.158C150.364 117.158 150.247 117.033 150.247 116.886V110.831C150.247 110.676 150.372 110.558 150.519 110.558C150.673 110.558 150.791 110.683 150.791 110.831V116.886C150.791 117.041 150.673 117.158 150.519 117.158Z" fill="#FFE600"/>
</g>
<g opacity="0.6">
<path opacity="0.6" d="M152.682 117.158C152.527 117.158 152.41 117.033 152.41 116.886V110.83C152.41 110.676 152.535 110.558 152.682 110.558C152.836 110.558 152.954 110.683 152.954 110.83V116.886C152.962 117.04 152.836 117.158 152.682 117.158Z" fill="#FFE600"/>
</g>
<g opacity="0.6">
<path opacity="0.6" d="M154.852 117.158C154.698 117.158 154.58 117.033 154.58 116.886V110.83C154.58 110.676 154.705 110.558 154.852 110.558C155.007 110.558 155.125 110.683 155.125 110.83V116.886C155.125 117.04 155 117.158 154.852 117.158Z" fill="#FFE600"/>
</g>
<g opacity="0.6">
<path opacity="0.6" d="M157.016 117.158C156.861 117.158 156.744 117.033 156.744 116.886V110.83C156.744 110.676 156.869 110.558 157.016 110.558C157.17 110.558 157.288 110.683 157.288 110.83V116.886C157.288 117.04 157.17 117.158 157.016 117.158Z" fill="#FFE600"/>
</g>
<g opacity="0.6">
<path opacity="0.6" d="M159.179 117.158C159.024 117.158 158.907 117.033 158.907 116.886V110.83C158.907 110.676 159.032 110.558 159.179 110.558C159.334 110.558 159.451 110.683 159.451 110.83V116.886C159.459 117.04 159.334 117.158 159.179 117.158Z" fill="#FFE600"/>
</g>
<g opacity="0.6">
<path opacity="0.6" d="M161.349 117.158C161.195 117.158 161.077 117.033 161.077 116.886V110.83C161.077 110.676 161.202 110.558 161.349 110.558C161.504 110.558 161.622 110.683 161.622 110.83V116.886C161.622 117.04 161.497 117.158 161.349 117.158Z" fill="#FFE600"/>
</g>
<g opacity="0.6">
<path opacity="0.6" d="M163.512 117.158C163.358 117.158 163.24 117.033 163.24 116.886V110.83C163.24 110.676 163.365 110.558 163.512 110.558C163.667 110.558 163.785 110.683 163.785 110.83V116.886C163.785 117.04 163.66 117.158 163.512 117.158Z" fill="#FFE600"/>
</g>
<g opacity="0.6">
<path opacity="0.6" d="M165.676 117.158C165.521 117.158 165.403 117.033 165.403 116.886V110.83C165.403 110.676 165.528 110.558 165.676 110.558C165.83 110.558 165.948 110.683 165.948 110.83V116.886C165.955 117.04 165.83 117.158 165.676 117.158Z" fill="#FFE600"/>
</g>
<g opacity="0.6">
<path opacity="0.6" d="M167.839 117.158C167.685 117.158 167.567 117.033 167.567 116.886V110.83C167.567 110.676 167.692 110.558 167.839 110.558C167.994 110.558 168.111 110.683 168.111 110.83V116.886C168.119 117.04 167.994 117.158 167.839 117.158Z" fill="#FFE600"/>
</g>
<g opacity="0.6">
<path opacity="0.6" d="M170.01 117.158C169.855 117.158 169.737 117.033 169.737 116.886V110.83C169.737 110.676 169.862 110.558 170.01 110.558C170.164 110.558 170.282 110.683 170.282 110.83V116.886C170.282 117.04 170.157 117.158 170.01 117.158Z" fill="#FFE600"/>
</g>
<g opacity="0.6">
<path opacity="0.6" d="M172.173 117.158C172.018 117.158 171.9 117.033 171.9 116.886V110.83C171.9 110.676 172.025 110.558 172.173 110.558C172.327 110.558 172.445 110.683 172.445 110.83V116.886C172.445 117.04 172.327 117.158 172.173 117.158Z" fill="#FFE600"/>
</g>
<g opacity="0.6">
<path opacity="0.6" d="M174.336 117.158C174.182 117.158 174.064 117.033 174.064 116.886V110.83C174.064 110.676 174.189 110.558 174.336 110.558C174.491 110.558 174.608 110.683 174.608 110.83V116.886C174.616 117.04 174.491 117.158 174.336 117.158Z" fill="#FFE600"/>
</g>
<g opacity="0.6">
<path opacity="0.6" d="M176.507 117.158C176.352 117.158 176.234 117.033 176.234 116.886V110.83C176.234 110.676 176.359 110.558 176.507 110.558C176.661 110.558 176.779 110.683 176.779 110.83V116.886C176.779 117.04 176.654 117.158 176.507 117.158Z" fill="#FFE600"/>
</g>
<g opacity="0.6">
<path opacity="0.6" d="M178.67 117.158C178.515 117.158 178.397 117.033 178.397 116.886V110.83C178.397 110.676 178.523 110.558 178.67 110.558C178.824 110.558 178.942 110.683 178.942 110.83V116.886C178.942 117.04 178.824 117.158 178.67 117.158Z" fill="#FFE600"/>
</g>
<g opacity="0.6">
<path opacity="0.6" d="M180.833 117.158C180.679 117.158 180.561 117.033 180.561 116.886V110.83C180.561 110.676 180.686 110.558 180.833 110.558C180.98 110.558 181.106 110.683 181.106 110.83V116.886C181.113 117.04 180.988 117.158 180.833 117.158Z" fill="#FFE600"/>
</g>
</g>
<path d="M147.038 118.013H113.928C113.817 118.013 113.729 117.924 113.729 117.814V111.236C113.729 111.125 113.817 111.037 113.928 111.037H147.038C147.148 111.037 147.236 111.125 147.236 111.236V117.814C147.236 117.924 147.148 118.013 147.038 118.013Z" fill="#D48200"/>
<path d="M147.039 117.674H113.929C113.819 117.674 113.73 117.586 113.73 117.475V110.131C113.73 110.02 113.819 109.932 113.929 109.932H147.039C147.15 109.932 147.238 110.02 147.238 110.131V117.475C147.238 117.586 147.15 117.674 147.039 117.674Z" fill="#FFC000"/>
<path d="M113.727 117.674H129.362V109.939H113.727V117.674Z" fill="#FFAF00"/>
<path opacity="0.21" d="M113.725 117.674H115.866V109.939H113.725V117.674Z" fill="#A20012"/>
<path d="M140.519 117.674H142.991V109.939H140.519V117.674Z" fill="#FFDE00"/>
<g opacity="0.6">
<g opacity="0.6">
<path opacity="0.6" d="M115.326 117.158C115.171 117.158 115.054 117.033 115.054 116.886V110.831C115.054 110.676 115.179 110.558 115.326 110.558C115.48 110.558 115.598 110.683 115.598 110.831V116.886C115.598 117.041 115.473 117.158 115.326 117.158Z" fill="#FFE600"/>
</g>
<g opacity="0.6">
<path opacity="0.6" d="M117.489 117.158C117.335 117.158 117.217 117.033 117.217 116.886V110.83C117.217 110.676 117.342 110.558 117.489 110.558C117.644 110.558 117.761 110.683 117.761 110.83V116.886C117.761 117.04 117.636 117.158 117.489 117.158Z" fill="#FFE600"/>
</g>
<g opacity="0.6">
<path opacity="0.6" d="M119.653 117.158C119.498 117.158 119.38 117.033 119.38 116.886V110.83C119.38 110.676 119.505 110.558 119.653 110.558C119.807 110.558 119.925 110.683 119.925 110.83V116.886C119.932 117.04 119.807 117.158 119.653 117.158Z" fill="#FFE600"/>
</g>
<g opacity="0.6">
<path opacity="0.6" d="M121.823 117.158C121.668 117.158 121.551 117.033 121.551 116.886V110.83C121.551 110.676 121.676 110.558 121.823 110.558C121.978 110.558 122.095 110.683 122.095 110.83V116.886C122.095 117.04 121.97 117.158 121.823 117.158Z" fill="#FFE600"/>
</g>
<g opacity="0.6">
<path opacity="0.6" d="M123.986 117.158C123.832 117.158 123.714 117.033 123.714 116.886V110.83C123.714 110.676 123.839 110.558 123.986 110.558C124.141 110.558 124.258 110.683 124.258 110.83V116.886C124.258 117.04 124.133 117.158 123.986 117.158Z" fill="#FFE600"/>
</g>
<g opacity="0.6">
<path opacity="0.6" d="M126.149 117.158C125.995 117.158 125.877 117.033 125.877 116.886V110.83C125.877 110.676 126.002 110.558 126.149 110.558C126.304 110.558 126.421 110.683 126.421 110.83V116.886C126.421 117.04 126.304 117.158 126.149 117.158Z" fill="#FFE600"/>
</g>
<g opacity="0.6">
<path opacity="0.6" d="M128.312 117.158C128.158 117.158 128.04 117.033 128.04 116.886V110.83C128.04 110.676 128.165 110.558 128.312 110.558C128.467 110.558 128.585 110.683 128.585 110.83V116.886C128.592 117.04 128.467 117.158 128.312 117.158Z" fill="#FFE600"/>
</g>
<g opacity="0.6">
<path opacity="0.6" d="M130.483 117.158C130.328 117.158 130.21 117.033 130.21 116.886V110.83C130.21 110.676 130.336 110.558 130.483 110.558C130.637 110.558 130.755 110.683 130.755 110.83V116.886C130.755 117.04 130.63 117.158 130.483 117.158Z" fill="#FFE600"/>
</g>
<g opacity="0.6">
<path opacity="0.6" d="M132.646 117.158C132.492 117.158 132.374 117.033 132.374 116.886V110.83C132.374 110.676 132.499 110.558 132.646 110.558C132.801 110.558 132.919 110.683 132.919 110.83V116.886C132.919 117.04 132.801 117.158 132.646 117.158Z" fill="#FFE600"/>
</g>
<g opacity="0.6">
<path opacity="0.6" d="M134.809 117.158C134.655 117.158 134.537 117.033 134.537 116.886V110.83C134.537 110.676 134.662 110.558 134.809 110.558C134.964 110.558 135.082 110.683 135.082 110.83V116.886C135.089 117.04 134.964 117.158 134.809 117.158Z" fill="#FFE600"/>
</g>
<g opacity="0.6">
<path opacity="0.6" d="M136.98 117.158C136.826 117.158 136.708 117.033 136.708 116.886V110.83C136.708 110.676 136.833 110.558 136.98 110.558C137.135 110.558 137.252 110.683 137.252 110.83V116.886C137.252 117.04 137.127 117.158 136.98 117.158Z" fill="#FFE600"/>
</g>
<g opacity="0.6">
<path opacity="0.6" d="M139.143 117.158C138.989 117.158 138.871 117.033 138.871 116.886V110.83C138.871 110.676 138.996 110.558 139.143 110.558C139.298 110.558 139.416 110.683 139.416 110.83V116.886C139.416 117.04 139.298 117.158 139.143 117.158Z" fill="#FFE600"/>
</g>
<g opacity="0.6">
<path opacity="0.6" d="M141.306 117.158C141.151 117.158 141.034 117.033 141.034 116.886V110.83C141.034 110.676 141.159 110.558 141.306 110.558C141.46 110.558 141.578 110.683 141.578 110.83V116.886C141.586 117.04 141.46 117.158 141.306 117.158Z" fill="#FFE600"/>
</g>
<g opacity="0.6">
<path opacity="0.6" d="M143.477 117.158C143.322 117.158 143.205 117.033 143.205 116.886V110.83C143.205 110.676 143.33 110.558 143.477 110.558C143.631 110.558 143.749 110.683 143.749 110.83V116.886C143.749 117.04 143.624 117.158 143.477 117.158Z" fill="#FFE600"/>
</g>
<g opacity="0.6">
<path opacity="0.6" d="M145.64 117.158C145.485 117.158 145.368 117.033 145.368 116.886V110.83C145.368 110.676 145.493 110.558 145.64 110.558C145.794 110.558 145.912 110.683 145.912 110.83V116.886C145.912 117.04 145.787 117.158 145.64 117.158Z" fill="#FFE600"/>
</g>
</g>
<path d="M143.477 109.887H110.367C110.256 109.887 110.168 109.799 110.168 109.689V103.11C110.168 103 110.256 102.911 110.367 102.911H143.477C143.587 102.911 143.675 103 143.675 103.11V109.689C143.675 109.799 143.587 109.887 143.477 109.887Z" fill="#D48200"/>
<path d="M143.477 109.549H110.367C110.256 109.549 110.168 109.46 110.168 109.35V102.005C110.168 101.895 110.256 101.806 110.367 101.806H143.477C143.587 101.806 143.675 101.895 143.675 102.005V109.35C143.675 109.468 143.587 109.549 143.477 109.549Z" fill="#FFC000"/>
<path d="M110.172 109.555H126.977V101.82H110.172V109.555Z" fill="#FFAF00"/>
<path opacity="0.21" d="M110.169 109.555H112.311V101.82H110.169V109.555Z" fill="#A20012"/>
<path d="M136.964 109.555H139.436V101.82H136.964V109.555Z" fill="#FFDE00"/>
<g opacity="0.6">
<g opacity="0.6">
<path opacity="0.6" d="M111.764 109.04C111.61 109.04 111.492 108.915 111.492 108.768V102.713C111.492 102.558 111.617 102.44 111.764 102.44C111.919 102.44 112.037 102.565 112.037 102.713V108.768C112.037 108.915 111.919 109.04 111.764 109.04Z" fill="#FFE600"/>
</g>
<g opacity="0.6">
<path opacity="0.6" d="M113.928 109.04C113.773 109.04 113.655 108.915 113.655 108.768V102.712C113.655 102.558 113.78 102.44 113.928 102.44C114.082 102.44 114.2 102.565 114.2 102.712V108.768C114.207 108.915 114.082 109.04 113.928 109.04Z" fill="#FFE600"/>
</g>
<g opacity="0.6">
<path opacity="0.6" d="M116.098 109.04C115.943 109.04 115.826 108.915 115.826 108.768V102.712C115.826 102.558 115.951 102.44 116.098 102.44C116.252 102.44 116.37 102.565 116.37 102.712V108.768C116.37 108.915 116.245 109.04 116.098 109.04Z" fill="#FFE600"/>
</g>
<g opacity="0.6">
<path opacity="0.6" d="M118.261 109.04C118.107 109.04 117.989 108.915 117.989 108.768V102.712C117.989 102.558 118.114 102.44 118.261 102.44C118.416 102.44 118.534 102.565 118.534 102.712V108.768C118.534 108.915 118.416 109.04 118.261 109.04Z" fill="#FFE600"/>
</g>
<g opacity="0.6">
<path opacity="0.6" d="M120.425 109.04C120.27 109.04 120.152 108.915 120.152 108.768V102.712C120.152 102.558 120.277 102.44 120.425 102.44C120.579 102.44 120.697 102.565 120.697 102.712V108.768C120.704 108.915 120.579 109.04 120.425 109.04Z" fill="#FFE600"/>
</g>
<g opacity="0.6">
<path opacity="0.6" d="M122.595 109.04C122.44 109.04 122.323 108.915 122.323 108.768V102.712C122.323 102.558 122.448 102.44 122.595 102.44C122.75 102.44 122.867 102.565 122.867 102.712V108.768C122.867 108.915 122.742 109.04 122.595 109.04Z" fill="#FFE600"/>
</g>
<g opacity="0.6">
<path opacity="0.6" d="M124.758 109.04C124.604 109.04 124.486 108.915 124.486 108.768V102.712C124.486 102.558 124.611 102.44 124.758 102.44C124.913 102.44 125.03 102.565 125.03 102.712V108.768C125.03 108.915 124.905 109.04 124.758 109.04Z" fill="#FFE600"/>
</g>
<g opacity="0.6">
<path opacity="0.6" d="M126.921 109.04C126.767 109.04 126.649 108.915 126.649 108.768V102.712C126.649 102.558 126.774 102.44 126.921 102.44C127.076 102.44 127.193 102.565 127.193 102.712V108.768C127.201 108.915 127.076 109.04 126.921 109.04Z" fill="#FFE600"/>
</g>
<g opacity="0.6">
<path opacity="0.6" d="M129.085 109.04C128.93 109.04 128.812 108.915 128.812 108.768V102.712C128.812 102.558 128.938 102.44 129.085 102.44C129.239 102.44 129.357 102.565 129.357 102.712V108.768C129.364 108.915 129.239 109.04 129.085 109.04Z" fill="#FFE600"/>
</g>
<g opacity="0.6">
<path opacity="0.6" d="M131.255 109.04C131.101 109.04 130.983 108.915 130.983 108.768V102.712C130.983 102.558 131.108 102.44 131.255 102.44C131.41 102.44 131.527 102.565 131.527 102.712V108.768C131.527 108.915 131.402 109.04 131.255 109.04Z" fill="#FFE600"/>
</g>
<g opacity="0.6">
<path opacity="0.6" d="M133.418 109.04C133.264 109.04 133.146 108.915 133.146 108.768V102.712C133.146 102.558 133.271 102.44 133.418 102.44C133.573 102.44 133.69 102.565 133.69 102.712V108.768C133.69 108.915 133.573 109.04 133.418 109.04Z" fill="#FFE600"/>
</g>
<g opacity="0.6">
<path opacity="0.6" d="M135.582 109.04C135.427 109.04 135.31 108.915 135.31 108.768V102.712C135.31 102.558 135.435 102.44 135.582 102.44C135.736 102.44 135.854 102.565 135.854 102.712V108.768C135.861 108.915 135.736 109.04 135.582 109.04Z" fill="#FFE600"/>
</g>
<g opacity="0.6">
<path opacity="0.6" d="M137.752 109.04C137.598 109.04 137.48 108.915 137.48 108.768V102.712C137.48 102.558 137.605 102.44 137.752 102.44C137.907 102.44 138.024 102.565 138.024 102.712V108.768C138.024 108.915 137.899 109.04 137.752 109.04Z" fill="#FFE600"/>
</g>
<g opacity="0.6">
<path opacity="0.6" d="M139.915 109.04C139.761 109.04 139.643 108.915 139.643 108.768V102.712C139.643 102.558 139.768 102.44 139.915 102.44C140.07 102.44 140.188 102.565 140.188 102.712V108.768C140.188 108.915 140.07 109.04 139.915 109.04Z" fill="#FFE600"/>
</g>
<g opacity="0.6">
<path opacity="0.6" d="M142.078 109.04C141.924 109.04 141.806 108.915 141.806 108.768V102.712C141.806 102.558 141.931 102.44 142.078 102.44C142.233 102.44 142.351 102.565 142.351 102.712V108.768C142.358 108.915 142.233 109.04 142.078 109.04Z" fill="#FFE600"/>
</g>
</g>
<path d="M184.07 109.887H150.96C150.85 109.887 150.761 109.799 150.761 109.689V103.11C150.761 103 150.85 102.911 150.96 102.911H184.07C184.18 102.911 184.269 103 184.269 103.11V109.689C184.269 109.799 184.18 109.887 184.07 109.887Z" fill="#D48200"/>
<path d="M184.07 109.549H150.96C150.85 109.549 150.761 109.46 150.761 109.35V102.005C150.761 101.895 150.85 101.806 150.96 101.806H184.07C184.18 101.806 184.269 101.895 184.269 102.005V109.35C184.269 109.468 184.18 109.549 184.07 109.549Z" fill="#FFC000"/>
<path d="M150.766 109.555H167.578V101.82H150.766V109.555Z" fill="#FFAF00"/>
<path opacity="0.21" d="M150.765 109.555H152.906V101.82H150.765V109.555Z" fill="#A20012"/>
<path d="M177.551 109.555H180.023V101.82H177.551V109.555Z" fill="#FFDE00"/>
<g opacity="0.6">
<g opacity="0.6">
<path opacity="0.6" d="M152.358 109.04C152.203 109.04 152.085 108.915 152.085 108.768V102.713C152.085 102.558 152.211 102.44 152.358 102.44C152.512 102.44 152.63 102.565 152.63 102.713V108.768C152.63 108.915 152.512 109.04 152.358 109.04Z" fill="#FFE600"/>
</g>
<g opacity="0.6">
<path opacity="0.6" d="M154.521 109.04C154.366 109.04 154.249 108.915 154.249 108.768V102.712C154.249 102.558 154.374 102.44 154.521 102.44C154.675 102.44 154.793 102.565 154.793 102.712V108.768C154.8 108.915 154.675 109.04 154.521 109.04Z" fill="#FFE600"/>
</g>
<g opacity="0.6">
<path opacity="0.6" d="M156.691 109.04C156.537 109.04 156.419 108.915 156.419 108.768V102.712C156.419 102.558 156.544 102.44 156.691 102.44C156.846 102.44 156.963 102.565 156.963 102.712V108.768C156.963 108.915 156.838 109.04 156.691 109.04Z" fill="#FFE600"/>
</g>
<g opacity="0.6">
<path opacity="0.6" d="M158.855 109.04C158.7 109.04 158.583 108.915 158.583 108.768V102.712C158.583 102.558 158.708 102.44 158.855 102.44C159.009 102.44 159.127 102.565 159.127 102.712V108.768C159.127 108.915 159.009 109.04 158.855 109.04Z" fill="#FFE600"/>
</g>
<g opacity="0.6">
<path opacity="0.6" d="M161.018 109.04C160.863 109.04 160.746 108.915 160.746 108.768V102.712C160.746 102.558 160.871 102.44 161.018 102.44C161.172 102.44 161.29 102.565 161.29 102.712V108.768C161.297 108.915 161.172 109.04 161.018 109.04Z" fill="#FFE600"/>
</g>
<g opacity="0.6">
<path opacity="0.6" d="M163.188 109.04C163.034 109.04 162.916 108.915 162.916 108.768V102.712C162.916 102.558 163.041 102.44 163.188 102.44C163.343 102.44 163.461 102.565 163.461 102.712V108.768C163.461 108.915 163.335 109.04 163.188 109.04Z" fill="#FFE600"/>
</g>
<g opacity="0.6">
<path opacity="0.6" d="M165.351 109.04C165.197 109.04 165.079 108.915 165.079 108.768V102.712C165.079 102.558 165.204 102.44 165.351 102.44C165.506 102.44 165.624 102.565 165.624 102.712V108.768C165.624 108.915 165.506 109.04 165.351 109.04Z" fill="#FFE600"/>
</g>
<g opacity="0.6">
<path opacity="0.6" d="M167.514 109.04C167.36 109.04 167.242 108.915 167.242 108.768V102.712C167.242 102.558 167.367 102.44 167.514 102.44C167.669 102.44 167.787 102.565 167.787 102.712V108.768C167.794 108.915 167.669 109.04 167.514 109.04Z" fill="#FFE600"/>
</g>
<g opacity="0.6">
<path opacity="0.6" d="M169.685 109.04C169.531 109.04 169.413 108.915 169.413 108.768V102.712C169.413 102.558 169.538 102.44 169.685 102.44C169.832 102.44 169.958 102.565 169.958 102.712V108.768C169.958 108.915 169.832 109.04 169.685 109.04Z" fill="#FFE600"/>
</g>
<g opacity="0.6">
<path opacity="0.6" d="M171.848 109.04C171.694 109.04 171.576 108.915 171.576 108.768V102.712C171.576 102.558 171.701 102.44 171.848 102.44C172.003 102.44 172.121 102.565 172.121 102.712V108.768C172.121 108.915 171.996 109.04 171.848 109.04Z" fill="#FFE600"/>
</g>
<g opacity="0.6">
<path opacity="0.6" d="M174.012 109.04C173.857 109.04 173.74 108.915 173.74 108.768V102.712C173.74 102.558 173.865 102.44 174.012 102.44C174.166 102.44 174.284 102.565 174.284 102.712V108.768C174.292 108.915 174.166 109.04 174.012 109.04Z" fill="#FFE600"/>
</g>
<g opacity="0.6">
<path opacity="0.6" d="M176.175 109.04C176.021 109.04 175.903 108.915 175.903 108.768V102.712C175.903 102.558 176.028 102.44 176.175 102.44C176.33 102.44 176.447 102.565 176.447 102.712V108.768C176.455 108.915 176.33 109.04 176.175 109.04Z" fill="#FFE600"/>
</g>
<g opacity="0.6">
<path opacity="0.6" d="M178.345 109.04C178.191 109.04 178.073 108.915 178.073 108.768V102.712C178.073 102.558 178.198 102.44 178.345 102.44C178.5 102.44 178.618 102.565 178.618 102.712V108.768C178.618 108.915 178.493 109.04 178.345 109.04Z" fill="#FFE600"/>
</g>
<g opacity="0.6">
<path opacity="0.6" d="M180.509 109.04C180.354 109.04 180.236 108.915 180.236 108.768V102.712C180.236 102.558 180.361 102.44 180.509 102.44C180.663 102.44 180.781 102.565 180.781 102.712V108.768C180.781 108.915 180.663 109.04 180.509 109.04Z" fill="#FFE600"/>
</g>
<g opacity="0.6">
<path opacity="0.6" d="M182.672 109.04C182.518 109.04 182.4 108.915 182.4 108.768V102.712C182.4 102.558 182.525 102.44 182.672 102.44C182.827 102.44 182.944 102.565 182.944 102.712V108.768C182.952 108.915 182.827 109.04 182.672 109.04Z" fill="#FFE600"/>
</g>
</g>
<path d="M184.07 101.902H150.96C150.85 101.902 150.761 101.814 150.761 101.703V95.1248C150.761 95.0143 150.85 94.9259 150.96 94.9259H184.07C184.18 94.9259 184.269 95.0143 184.269 95.1248V101.703C184.269 101.814 184.18 101.902 184.07 101.902Z" fill="#D48200"/>
<path d="M184.07 101.571H150.96C150.85 101.571 150.761 101.482 150.761 101.372V94.0272C150.761 93.9167 150.85 93.8283 150.96 93.8283H184.07C184.18 93.8283 184.269 93.9167 184.269 94.0272V101.372C184.269 101.482 184.18 101.571 184.07 101.571Z" fill="#FABC00"/>
<path d="M150.763 101.565H167.303V93.8302H150.763V101.565Z" fill="#FFAF00"/>
<path opacity="0.11" d="M150.765 101.565H184.272V93.8302H150.765V101.565Z" fill="#A20012"/>
<path opacity="0.59" d="M177.551 101.565H180.023V93.8302H177.551V101.565Z" fill="#FFDE00"/>
<g opacity="0.6">
<g opacity="0.6">
<path opacity="0.6" d="M152.358 101.055C152.203 101.055 152.085 100.93 152.085 100.783V94.7272C152.085 94.5725 152.211 94.4546 152.358 94.4546C152.512 94.4546 152.63 94.5799 152.63 94.7272V100.783C152.63 100.93 152.512 101.055 152.358 101.055Z" fill="#FFE600"/>
</g>
<g opacity="0.6">
<path opacity="0.6" d="M154.521 101.055C154.366 101.055 154.249 100.93 154.249 100.782V94.727C154.249 94.5723 154.374 94.4545 154.521 94.4545C154.675 94.4545 154.793 94.5797 154.793 94.727V100.782C154.8 100.93 154.675 101.055 154.521 101.055Z" fill="#FFE600"/>
</g>
<g opacity="0.6">
<path opacity="0.6" d="M156.691 101.055C156.537 101.055 156.419 100.93 156.419 100.782V94.727C156.419 94.5723 156.544 94.4545 156.691 94.4545C156.846 94.4545 156.963 94.5797 156.963 94.727V100.782C156.963 100.93 156.838 101.055 156.691 101.055Z" fill="#FFE600"/>
</g>
<g opacity="0.6">
<path opacity="0.6" d="M158.855 101.055C158.7 101.055 158.583 100.93 158.583 100.782V94.727C158.583 94.5723 158.708 94.4545 158.855 94.4545C159.009 94.4545 159.127 94.5797 159.127 94.727V100.782C159.127 100.93 159.009 101.055 158.855 101.055Z" fill="#FFE600"/>
</g>
<g opacity="0.6">
<path opacity="0.6" d="M161.018 101.055C160.863 101.055 160.746 100.93 160.746 100.782V94.727C160.746 94.5723 160.871 94.4545 161.018 94.4545C161.172 94.4545 161.29 94.5797 161.29 94.727V100.782C161.297 100.93 161.172 101.055 161.018 101.055Z" fill="#FFE600"/>
</g>
<g opacity="0.6">
<path opacity="0.6" d="M163.188 101.055C163.034 101.055 162.916 100.93 162.916 100.782V94.727C162.916 94.5723 163.041 94.4545 163.188 94.4545C163.343 94.4545 163.461 94.5797 163.461 94.727V100.782C163.461 100.93 163.335 101.055 163.188 101.055Z" fill="#FFE600"/>
</g>
<g opacity="0.6">
<path opacity="0.6" d="M165.351 101.055C165.197 101.055 165.079 100.93 165.079 100.782V94.727C165.079 94.5723 165.204 94.4545 165.351 94.4545C165.506 94.4545 165.624 94.5797 165.624 94.727V100.782C165.624 100.93 165.506 101.055 165.351 101.055Z" fill="#FFE600"/>
</g>
<g opacity="0.6">
<path opacity="0.6" d="M167.514 101.055C167.36 101.055 167.242 100.93 167.242 100.782V94.727C167.242 94.5723 167.367 94.4545 167.514 94.4545C167.669 94.4545 167.787 94.5797 167.787 94.727V100.782C167.794 100.93 167.669 101.055 167.514 101.055Z" fill="#FFE600"/>
</g>
<g opacity="0.6">
<path opacity="0.6" d="M169.685 101.055C169.531 101.055 169.413 100.93 169.413 100.782V94.727C169.413 94.5723 169.538 94.4545 169.685 94.4545C169.832 94.4545 169.958 94.5797 169.958 94.727V100.782C169.958 100.93 169.832 101.055 169.685 101.055Z" fill="#FFE600"/>
</g>
<g opacity="0.6">
<path opacity="0.6" d="M171.848 101.055C171.694 101.055 171.576 100.93 171.576 100.782V94.727C171.576 94.5723 171.701 94.4545 171.848 94.4545C172.003 94.4545 172.121 94.5797 172.121 94.727V100.782C172.121 100.93 171.996 101.055 171.848 101.055Z" fill="#FFE600"/>
</g>
<g opacity="0.6">
<path opacity="0.6" d="M174.012 101.055C173.857 101.055 173.74 100.93 173.74 100.782V94.727C173.74 94.5723 173.865 94.4545 174.012 94.4545C174.166 94.4545 174.284 94.5797 174.284 94.727V100.782C174.292 100.93 174.166 101.055 174.012 101.055Z" fill="#FFE600"/>
</g>
<g opacity="0.6">
<path opacity="0.6" d="M176.175 101.055C176.021 101.055 175.903 100.93 175.903 100.782V94.727C175.903 94.5723 176.028 94.4545 176.175 94.4545C176.33 94.4545 176.447 94.5797 176.447 94.727V100.782C176.455 100.93 176.33 101.055 176.175 101.055Z" fill="#FFE600"/>
</g>
<g opacity="0.6">
<path opacity="0.6" d="M178.345 101.055C178.191 101.055 178.073 100.93 178.073 100.782V94.727C178.073 94.5723 178.198 94.4545 178.345 94.4545C178.5 94.4545 178.618 94.5797 178.618 94.727V100.782C178.618 100.93 178.493 101.055 178.345 101.055Z" fill="#FFE600"/>
</g>
<g opacity="0.6">
<path opacity="0.6" d="M180.509 101.055C180.354 101.055 180.236 100.93 180.236 100.782V94.727C180.236 94.5723 180.361 94.4545 180.509 94.4545C180.663 94.4545 180.781 94.5797 180.781 94.727V100.782C180.781 100.93 180.663 101.055 180.509 101.055Z" fill="#FFE600"/>
</g>
<g opacity="0.6">
<path opacity="0.6" d="M182.672 101.055C182.518 101.055 182.4 100.93 182.4 100.782V94.727C182.4 94.5723 182.525 94.4545 182.672 94.4545C182.827 94.4545 182.944 94.5797 182.944 94.727V100.782C182.952 100.93 182.827 101.055 182.672 101.055Z" fill="#FFE600"/>
</g>
</g>
<path d="M186.02 93.8282H152.91C152.8 93.8282 152.711 93.7398 152.711 93.6293V87.0509C152.711 86.9404 152.8 86.8521 152.91 86.8521H186.02C186.131 86.8521 186.219 86.9404 186.219 87.0509V93.6293C186.219 93.7398 186.131 93.8282 186.02 93.8282Z" fill="#D48200"/>
<path d="M186.02 93.4894H152.91C152.8 93.4894 152.711 93.401 152.711 93.2905V85.946C152.711 85.8355 152.8 85.7471 152.91 85.7471H186.02C186.131 85.7471 186.219 85.8355 186.219 85.946V93.2905C186.219 93.401 186.131 93.4894 186.02 93.4894Z" fill="#FFC000"/>
<path d="M152.715 93.4949H169.41V85.76H152.715V93.4949Z" fill="#FFAF00"/>
<path opacity="0.21" d="M152.713 93.4949H154.854V85.76H152.713V93.4949Z" fill="#A20012"/>
<path opacity="0.21" d="M150.764 101.616H152.905V93.8814H150.764V101.616Z" fill="#A20012"/>
<path d="M179.508 93.4949H181.98V85.76H179.508V93.4949Z" fill="#FFE745"/>
<g opacity="0.6">
<g opacity="0.6">
<path opacity="0.6" d="M154.308 92.9813C154.153 92.9813 154.036 92.856 154.036 92.7087V86.6534C154.036 86.4987 154.161 86.3808 154.308 86.3808C154.462 86.3808 154.58 86.506 154.58 86.6534V92.7087C154.58 92.856 154.462 92.9813 154.308 92.9813Z" fill="#FFE600"/>
</g>
<g opacity="0.6">
<path opacity="0.6" d="M156.471 92.9811C156.316 92.9811 156.199 92.8559 156.199 92.7085V86.6532C156.199 86.4985 156.324 86.3806 156.471 86.3806C156.618 86.3806 156.743 86.5059 156.743 86.6532V92.7085C156.751 92.8559 156.625 92.9811 156.471 92.9811Z" fill="#FFE600"/>
</g>
<g opacity="0.6">
<path opacity="0.6" d="M158.642 92.9811C158.487 92.9811 158.37 92.8559 158.37 92.7085V86.6532C158.37 86.4985 158.495 86.3806 158.642 86.3806C158.796 86.3806 158.914 86.5059 158.914 86.6532V92.7085C158.914 92.8559 158.789 92.9811 158.642 92.9811Z" fill="#FFE600"/>
</g>
<g opacity="0.6">
<path opacity="0.6" d="M160.805 92.9811C160.65 92.9811 160.533 92.8559 160.533 92.7085V86.6532C160.533 86.4985 160.658 86.3806 160.805 86.3806C160.959 86.3806 161.077 86.5059 161.077 86.6532V92.7085C161.077 92.8559 160.959 92.9811 160.805 92.9811Z" fill="#FFE600"/>
</g>
<g opacity="0.6">
<path opacity="0.6" d="M162.968 92.9811C162.814 92.9811 162.696 92.8559 162.696 92.7085V86.6532C162.696 86.4985 162.821 86.3806 162.968 86.3806C163.123 86.3806 163.24 86.5059 163.24 86.6532V92.7085C163.248 92.8559 163.123 92.9811 162.968 92.9811Z" fill="#FFE600"/>
</g>
<g opacity="0.6">
<path opacity="0.6" d="M165.138 92.9811C164.984 92.9811 164.866 92.8559 164.866 92.7085V86.6532C164.866 86.4985 164.991 86.3806 165.138 86.3806C165.293 86.3806 165.411 86.5059 165.411 86.6532V92.7085C165.411 92.8559 165.286 92.9811 165.138 92.9811Z" fill="#FFE600"/>
</g>
<g opacity="0.6">
<path opacity="0.6" d="M167.302 92.9811C167.147 92.9811 167.029 92.8559 167.029 92.7085V86.6532C167.029 86.4985 167.154 86.3806 167.302 86.3806C167.456 86.3806 167.574 86.5059 167.574 86.6532V92.7085C167.574 92.8559 167.449 92.9811 167.302 92.9811Z" fill="#FFE600"/>
</g>
<g opacity="0.6">
<path opacity="0.6" d="M169.465 92.9811C169.31 92.9811 169.192 92.8559 169.192 92.7085V86.6532C169.192 86.4985 169.317 86.3806 169.465 86.3806C169.619 86.3806 169.737 86.5059 169.737 86.6532V92.7085C169.744 92.8559 169.619 92.9811 169.465 92.9811Z" fill="#FFE600"/>
</g>
<g opacity="0.6">
<path opacity="0.6" d="M171.628 92.9811C171.474 92.9811 171.356 92.8559 171.356 92.7085V86.6532C171.356 86.4985 171.481 86.3806 171.628 86.3806C171.783 86.3806 171.9 86.5059 171.9 86.6532V92.7085C171.908 92.8559 171.783 92.9811 171.628 92.9811Z" fill="#FFE600"/>
</g>
<g opacity="0.6">
<path opacity="0.6" d="M173.799 92.9811C173.644 92.9811 173.526 92.8559 173.526 92.7085V86.6532C173.526 86.4985 173.651 86.3806 173.799 86.3806C173.953 86.3806 174.071 86.5059 174.071 86.6532V92.7085C174.071 92.8559 173.946 92.9811 173.799 92.9811Z" fill="#FFE600"/>
</g>
<g opacity="0.6">
<path opacity="0.6" d="M175.962 92.9811C175.807 92.9811 175.689 92.8559 175.689 92.7085V86.6532C175.689 86.4985 175.815 86.3806 175.962 86.3806C176.116 86.3806 176.234 86.5059 176.234 86.6532V92.7085C176.234 92.8559 176.116 92.9811 175.962 92.9811Z" fill="#FFE600"/>
</g>
<g opacity="0.6">
<path opacity="0.6" d="M178.125 92.9811C177.971 92.9811 177.853 92.8559 177.853 92.7085V86.6532C177.853 86.4985 177.978 86.3806 178.125 86.3806C178.28 86.3806 178.398 86.5059 178.398 86.6532V92.7085C178.405 92.8559 178.28 92.9811 178.125 92.9811Z" fill="#FFE600"/>
</g>
<g opacity="0.6">
<path opacity="0.6" d="M180.296 92.9811C180.141 92.9811 180.023 92.8559 180.023 92.7085V86.6532C180.023 86.4985 180.149 86.3806 180.296 86.3806C180.45 86.3806 180.568 86.5059 180.568 86.6532V92.7085C180.568 92.8559 180.443 92.9811 180.296 92.9811Z" fill="#FFE600"/>
</g>
<g opacity="0.6">
<path opacity="0.6" d="M182.459 92.9811C182.304 92.9811 182.187 92.8559 182.187 92.7085V86.6532C182.187 86.4985 182.312 86.3806 182.459 86.3806C182.613 86.3806 182.731 86.5059 182.731 86.6532V92.7085C182.731 92.8559 182.613 92.9811 182.459 92.9811Z" fill="#FFE600"/>
</g>
<g opacity="0.6">
<path opacity="0.6" d="M184.622 92.9811C184.467 92.9811 184.35 92.8559 184.35 92.7085V86.6532C184.35 86.4985 184.475 86.3806 184.622 86.3806C184.776 86.3806 184.894 86.5059 184.894 86.6532V92.7085C184.901 92.8559 184.776 92.9811 184.622 92.9811Z" fill="#FFE600"/>
</g>
</g>
<path opacity="0.21" d="M143.735 109.549V101.932H140.519L135.126 109.549H143.735Z" fill="#A20012"/>
<path opacity="0.21" d="M147.252 117.615V110.175C147.252 110.079 147.171 109.998 147.075 109.998H144.037L146.148 117.622H147.252V117.615Z" fill="#A20012"/>
<path opacity="0.21" d="M154.3 125.696V118.072H146.464L149.224 125.696H154.3Z" fill="#A20012"/>
<path opacity="0.21" d="M118.681 125.696V118.072H113.729L115.598 125.696H118.681Z" fill="#A20012"/>
<path opacity="0.21" d="M174.785 125.696L176.506 118.072H159.922V125.696H174.785Z" fill="#A20012"/>
<path opacity="0.21" d="M152.836 85.7545L141.248 101.106L148.186 100.9L151.085 93.8356L152.534 90.8006L152.836 85.7545Z" fill="#A20012"/>
<path d="M175.689 102.138C180.464 102.138 184.335 102.065 184.335 101.976C184.335 101.886 180.464 101.814 175.689 101.814C170.915 101.814 167.044 101.886 167.044 101.976C167.044 102.065 170.915 102.138 175.689 102.138Z" fill="white"/>
<path d="M185.828 118.337C189.981 118.337 193.348 118.264 193.348 118.175C193.348 118.085 189.981 118.013 185.828 118.013C181.675 118.013 178.309 118.085 178.309 118.175C178.309 118.264 181.675 118.337 185.828 118.337Z" fill="white"/>
<path d="M177.639 85.9976C182.414 85.9976 186.284 85.925 186.284 85.8355C186.284 85.746 182.414 85.6734 177.639 85.6734C172.864 85.6734 168.994 85.746 168.994 85.8355C168.994 85.925 172.864 85.9976 177.639 85.9976Z" fill="white"/>
<path d="M144.132 109.998C144.132 109.91 141.027 109.836 137.194 109.836C133.36 109.836 130.255 109.91 130.255 109.998C130.255 110.086 133.36 110.16 137.194 110.16C141.027 110.16 144.132 110.086 144.132 109.998Z" fill="white"/>
<path d="M100.316 118.285C106.265 118.285 111.088 118.213 111.088 118.123C111.088 118.034 106.265 117.961 100.316 117.961C94.3671 117.961 89.5444 118.034 89.5444 118.123C89.5444 118.213 94.3671 118.285 100.316 118.285Z" fill="white"/>
<path d="M136.958 102.094C140.79 102.094 143.896 102.021 143.896 101.932C143.896 101.842 140.79 101.769 136.958 101.769C133.126 101.769 130.02 101.842 130.02 101.932C130.02 102.021 133.126 102.094 136.958 102.094Z" fill="white"/>
<path d="M140.563 118.285C144.046 118.285 146.869 118.213 146.869 118.123C146.869 118.034 144.046 117.961 140.563 117.961C137.081 117.961 134.258 118.034 134.258 118.123C134.258 118.213 137.081 118.285 140.563 118.285Z" fill="white"/>
<path d="M68.788 104.355L47.7006 122.889C44.9855 125.276 40.9167 125.276 38.2017 122.889L17.1142 104.355C15.5544 102.985 14.6641 101.011 14.6641 98.9407V66.2698C14.6641 62.6823 17.3055 59.6399 20.852 59.1316L41.9394 56.1408C42.609 56.045 43.2933 56.045 43.9628 56.1408L65.0429 59.1316C68.5894 59.6325 71.2308 62.6749 71.2308 66.2698V98.948C71.2382 101.018 70.3405 102.992 68.788 104.355Z" fill="#F0F0F0"/>
<path d="M61.1948 86.8841C61.615 76.7953 53.7867 68.2757 43.7099 67.8551C33.6331 67.4344 25.1237 75.2721 24.7036 85.3609C24.2835 95.4497 32.1117 103.969 42.1885 104.39C52.2653 104.811 60.7747 96.9729 61.1948 86.8841Z" fill="#468B96"/>
<path d="M63.8655 101.998L46.7954 117.578C44.5954 119.589 41.3065 119.589 39.1065 117.578L22.0364 101.998C20.7782 100.849 20.0571 99.1911 20.0571 97.4452V69.9825C20.0571 66.9622 22.1909 64.406 25.0678 63.9861L42.1379 61.4741C42.6824 61.3931 43.2342 61.3931 43.7713 61.4741L60.8414 63.9861C63.7183 64.406 65.8521 66.9696 65.8521 69.9825V97.4452C65.8447 99.1837 65.1237 100.849 63.8655 101.998Z" fill="#355357"/>
<path d="M62.2908 101.047L46.5083 115.508C44.4776 117.372 41.4315 117.372 39.4007 115.508L23.6182 101.047C22.4557 99.9793 21.7861 98.4397 21.7861 96.8191V71.3233C21.7861 68.524 23.758 66.1519 26.4215 65.7542L42.1967 63.4263C42.697 63.3526 43.2047 63.3526 43.7124 63.4263L59.4949 65.7615C62.151 66.152 64.1229 68.5314 64.1229 71.3307V96.8264C64.1229 98.4397 63.4534 99.9793 62.2908 101.047Z" fill="#003545"/>
<g opacity="0.5">
<path opacity="0.26" d="M71.238 53.4814H42.9546V124.687H71.238V53.4814Z" fill="#003545"/>
</g>
<path d="M41.7701 98.1377L30.5127 87.574L35.3173 83.0657L41.7701 89.121L54.7493 76.944L59.5539 81.4524L41.7701 98.1377Z" fill="#02A9CE"/>
<path d="M106.93 65.6554C115.197 57.3788 115.197 43.9599 106.93 35.6833C98.6632 27.4067 85.2602 27.4067 76.9936 35.6833C68.7269 43.9599 68.7269 57.3788 76.9936 65.6554C85.2602 73.932 98.6632 73.932 106.93 65.6554Z" fill="#02A9CE"/>
<path d="M90.3097 62.9475C89.6475 62.9475 89.0368 62.9181 88.4849 62.8591C87.9257 62.8002 87.3813 62.7192 86.8442 62.6013C86.307 62.4908 85.7773 62.3361 85.2549 62.1593C84.7325 61.9752 84.1585 61.7615 83.5479 61.5111C83.6361 60.6934 83.7907 59.8609 84.0114 59.0138C84.2248 58.174 84.497 57.2679 84.8134 56.3102C85.8803 56.767 86.8515 57.1058 87.7124 57.3195C88.5806 57.5331 89.4047 57.6436 90.2067 57.6436C91.3471 57.6436 92.2227 57.4521 92.8334 57.0764C93.4515 56.7007 93.7531 56.1113 93.7531 55.3158C93.7531 54.6086 93.4883 54.0708 92.9511 53.6951C92.414 53.3194 91.7592 52.9732 90.9866 52.6491L89.1766 51.8977C88.4923 51.603 87.8448 51.2715 87.2341 50.9032C86.6161 50.5422 86.0937 50.1002 85.6448 49.5845C85.2034 49.0689 84.8502 48.4648 84.5853 47.7724C84.3204 47.0799 84.1953 46.2549 84.1953 45.2972C84.1953 43.2935 84.7325 41.6876 85.8141 40.4942C86.8957 39.3008 88.3893 38.5273 90.3023 38.1884V35.1092C90.6629 34.9987 91.0307 34.925 91.3913 34.8882C91.7518 34.8514 92.0608 34.8366 92.311 34.8366C92.5612 34.8366 92.8776 34.8514 93.2528 34.8882C93.628 34.925 93.9886 34.9987 94.327 35.1092V38.0853C95.1217 38.1737 95.9237 38.3284 96.733 38.5273C97.5424 38.7336 98.4033 38.9914 99.3083 39.3155C99.1464 40.8404 98.6829 42.4611 97.9103 44.1701C97.1377 43.8312 96.3725 43.5439 95.622 43.3156C94.8715 43.0872 93.9003 42.9767 92.723 42.9767C92.4287 42.9767 92.1344 42.9915 91.8548 43.0283C91.5679 43.0651 91.3103 43.1462 91.0675 43.264C90.8247 43.3892 90.6334 43.5587 90.4863 43.7797C90.3391 43.9933 90.2655 44.288 90.2655 44.6489C90.2655 45.3119 90.501 45.8055 90.9645 46.137C91.4281 46.4685 91.9358 46.7337 92.4802 46.9399L94.3933 47.6545C95.1658 47.9492 95.8942 48.2807 96.5785 48.649C97.2628 49.0173 97.8661 49.4667 98.3885 50.0192C98.9109 50.5643 99.3303 51.242 99.632 52.0376C99.941 52.8332 100.096 53.813 100.096 54.9769C100.096 56.8259 99.6026 58.4097 98.6093 59.7283C97.616 61.047 96.1886 61.9752 94.327 62.4982V66.5351C93.9886 66.6456 93.628 66.7192 93.2528 66.7561C92.8776 66.7929 92.5612 66.8076 92.311 66.8076C92.0608 66.8076 91.7518 66.7929 91.3913 66.7561C91.0234 66.7192 90.6629 66.6456 90.3023 66.5351V62.9475H90.3097Z" fill="white"/>
</g>
<defs>
<clipPath id="clip0">
<rect width="194.82" height="149.033" fill="white"/>
</clipPath>
</defs>
</svg>
