<svg width="387" height="245" viewBox="0 0 387 245" fill="none" xmlns="http://www.w3.org/2000/svg">
<path opacity="0.5" fill-rule="evenodd" clip-rule="evenodd" d="M283.813 60.3447C271.597 25.2141 238.194 0 198.902 0C158.831 0 124.885 26.224 113.29 62.4462C105.824 60.4371 97.9745 59.3655 89.8743 59.3655C40.2381 59.3655 0 99.6036 0 149.24C0 198.876 40.2381 239.114 89.8743 239.114C108.921 239.114 126.585 233.189 141.121 223.081C156.744 236.208 176.9 244.114 198.902 244.114C218.69 244.114 236.985 237.719 251.831 226.883C265.131 234.658 280.608 239.114 297.126 239.114C346.762 239.114 387 198.876 387 149.24C387 99.6036 346.762 59.3655 297.126 59.3655C292.602 59.3655 288.157 59.6997 283.813 60.3447Z" fill="#DDEDFD"/>
</svg>
