<svg width="141" height="118" viewBox="0 0 141 118" fill="none" xmlns="http://www.w3.org/2000/svg">
<g clip-path="url(#clip0)">
<path d="M36.2486 75.894H0V94.3313H36.2486V75.894Z" fill="#7A8496"/>
<path d="M33.5457 78.4287H2.8418V91.6577H33.5457V78.4287Z" fill="#7A8496"/>
<path d="M34.7929 93.116H1.73242V77.4565H34.7929V93.116ZM3.74239 91.1022H32.7829V79.4357H3.74239V91.1022Z" fill="#596273"/>
<path d="M26.1287 85.2685C26.1287 89.6087 22.6286 93.1156 18.2968 93.1156C13.965 93.1156 10.4648 89.6087 10.4648 85.2685C10.4648 80.9283 13.965 77.4214 18.2968 77.4214C22.6286 77.4214 26.1287 80.963 26.1287 85.2685Z" fill="#596273"/>
<path d="M19.4401 84.8173H19.0589V81.5187H19.3708C20.1678 81.5187 20.8263 82.1785 20.8263 82.9771H22.1431C22.1431 81.4493 20.8956 80.1993 19.3708 80.1993H19.0589V79.1924H17.742V80.1993C16.1132 80.1993 14.7617 81.5535 14.7617 83.1854C14.7617 83.984 15.0736 84.7479 15.6281 85.3034C16.1826 85.859 16.945 86.1714 17.742 86.1714V89.47H17.5341C16.737 89.47 16.0786 88.8103 16.0786 88.0117H14.7617C14.7617 89.5395 16.0093 90.7894 17.5341 90.7894H17.742V91.7964H19.0589V90.7894H19.1628C20.8263 90.7894 22.1431 89.4353 22.1431 87.8034V87.4909C22.1431 86.7617 21.8659 86.102 21.3461 85.5812C20.8263 85.0604 20.1678 84.8173 19.4401 84.8173ZM16.5638 84.3659C16.2519 84.0534 16.0786 83.6368 16.0786 83.1854C16.0786 82.2826 16.8063 81.5187 17.742 81.5187V84.8173C17.2915 84.852 16.8756 84.6784 16.5638 84.3659ZM20.8263 87.8034C20.8263 88.7061 20.0639 89.47 19.1628 89.47H19.0589V86.1714H19.4747C19.8213 86.1714 20.1678 86.3103 20.4104 86.5534C20.653 86.7964 20.7916 87.1437 20.7916 87.4909V87.8034H20.8263Z" fill="#7A8496"/>
<path d="M31.5005 85.7895C31.5005 86.8312 30.6688 87.6645 29.6292 87.6645C28.5895 87.6645 27.7578 86.8312 27.7578 85.7895C27.7578 84.7479 28.5895 83.9146 29.6292 83.9146C30.6688 83.9146 31.5005 84.7479 31.5005 85.7895Z" fill="#15492A"/>
<path d="M8.80128 85.6855C8.80128 86.7272 7.96957 87.5605 6.92994 87.5605C5.8903 87.5605 5.05859 86.7272 5.05859 85.6855C5.05859 84.6439 5.8903 83.8105 6.92994 83.8105C7.96957 83.8105 8.80128 84.6439 8.80128 85.6855Z" fill="#596273"/>
<path d="M40.649 85.6157H4.26172V104.053H40.649V85.6157Z" fill="#F5F5F5"/>
<path d="M37.9813 88.1509H7.27734V101.38H37.9813V88.1509Z" fill="#F5F5F5"/>
<path d="M39.1937 102.838H6.16797V87.1782H39.2284V102.838H39.1937ZM8.14328 100.824H37.1838V89.1574H8.14328V100.824Z" fill="#02A9CE"/>
<path d="M30.5642 94.9907C30.5642 99.3309 27.0641 102.838 22.7323 102.838C18.4005 102.838 14.9004 99.3309 14.9004 94.9907C14.9004 90.6504 18.4005 87.1436 22.7323 87.1436C27.0641 87.1783 30.5642 90.6852 30.5642 94.9907Z" fill="#02A9CE"/>
<path d="M23.8771 94.5395H23.4959V91.2409H23.8078C24.6048 91.2409 25.2633 91.9006 25.2633 92.6992H26.5801C26.5801 91.1715 25.3326 89.9215 23.8078 89.9215H23.4959V88.9146H22.179V89.9215C20.5502 89.9215 19.1987 91.2756 19.1987 92.9075C19.1987 93.7061 19.5106 94.47 20.0651 95.0256C20.6196 95.5811 21.382 95.8936 22.1444 95.8936V99.1922H21.9364C21.1394 99.1922 20.4809 98.5325 20.4809 97.7339H19.1641C19.1641 99.2616 20.4116 100.512 21.9364 100.512H22.1444V101.519H23.4612V100.512H23.5652C25.2286 100.512 26.5455 99.1575 26.5455 97.5255V97.213C26.5455 96.4839 26.2682 95.8242 25.7484 95.3033C25.2633 94.7825 24.6048 94.5395 23.8771 94.5395ZM20.9661 94.0881C20.6542 93.7756 20.4809 93.3589 20.4809 92.9075C20.4809 92.0048 21.2087 91.2409 22.1444 91.2409V94.5395C21.6938 94.5742 21.278 94.4006 20.9661 94.0881ZM25.2286 97.5255C25.2286 98.4283 24.4662 99.1922 23.5652 99.1922H23.4612V95.8936H23.8771C24.2236 95.8936 24.5702 96.0325 24.8128 96.2755C25.0553 96.5186 25.194 96.8658 25.194 97.213V97.5255H25.2286Z" fill="#F5F5F5"/>
<path d="M35.9361 95.5117C35.9361 96.5534 35.1043 97.3867 34.0647 97.3867C33.0251 97.3867 32.1934 96.5534 32.1934 95.5117C32.1934 94.4701 33.0251 93.6367 34.0647 93.6367C35.0697 93.602 35.9361 94.4701 35.9361 95.5117Z" fill="#02A9CE"/>
<path d="M13.2017 95.4077C13.2017 96.4493 12.37 97.2827 11.3303 97.2827C10.2907 97.2827 9.45898 96.4493 9.45898 95.4077C9.45898 94.366 10.2907 93.5327 11.3303 93.5327C12.37 93.5327 13.2017 94.366 13.2017 95.4077Z" fill="#02A9CE"/>
<path d="M68.7533 27.0752H16.5982C13.9298 27.0752 11.7812 29.2279 11.7812 31.9015C11.7812 34.5751 13.9298 36.7278 16.5982 36.7278H68.7533C71.4217 36.7278 73.5703 34.5751 73.5703 31.9015C73.5703 29.2627 71.4217 27.0752 68.7533 27.0752Z" fill="white"/>
<path d="M68.7538 27.0752H55.9316V36.7278H68.7538C71.4222 36.7278 73.5708 34.5751 73.5708 31.9015C73.5708 29.2627 71.4222 27.0752 68.7538 27.0752Z" fill="#88807E"/>
<path d="M67.091 34.7488C66.8831 34.9571 66.5019 34.9571 66.2939 34.7488L65.289 33.7418C64.8731 34.0196 64.3879 34.1585 63.8681 34.1585C62.4126 34.1585 61.2344 32.978 61.2344 31.5544C61.2344 30.0961 62.4126 28.9155 63.8681 28.9155C65.3236 28.9155 66.4672 30.0961 66.4672 31.5544C66.4672 32.0752 66.3286 32.5613 66.0514 32.978L67.0563 33.9849C67.3336 34.1585 67.3336 34.5057 67.091 34.7488ZM63.9028 29.6794C62.8631 29.6794 62.0314 30.5127 62.0314 31.5544C62.0314 32.596 62.8631 33.4293 63.9028 33.4293C64.9424 33.4293 65.7741 32.596 65.7741 31.5544C65.7741 30.5127 64.9424 29.6794 63.9028 29.6794Z" fill="white"/>
<path d="M21.0441 34.3194C21.7124 34.3194 22.2417 34.5146 22.6321 34.905C23.0292 35.2887 23.2277 35.8545 23.2277 36.6022V39.6294H22.2748V36.7114C22.2748 36.2019 22.1524 35.8181 21.9076 35.56C21.6628 35.302 21.3121 35.1729 20.8555 35.1729C20.3394 35.1729 19.9325 35.3251 19.6347 35.6295C19.3369 35.9273 19.1881 36.3574 19.1881 36.9198V39.6294H18.2352V32.2648H19.1881V35.1134C19.3866 34.8619 19.6446 34.6667 19.9622 34.5278C20.2865 34.3888 20.6471 34.3194 21.0441 34.3194ZM27.9488 39.3217C27.8098 39.4408 27.6378 39.5334 27.4327 39.5996C27.2275 39.6592 27.0158 39.6889 26.7974 39.6889C26.2681 39.6889 25.8578 39.5467 25.5667 39.2622C25.2756 38.9776 25.13 38.5707 25.13 38.0413V35.1531H24.2367V34.369H25.13V33.2177H26.0828V34.369H27.5915V35.1531H26.0828V38.0016C26.0828 38.2862 26.1523 38.5045 26.2912 38.6567C26.4368 38.8089 26.6419 38.885 26.9066 38.885C27.1978 38.885 27.4459 38.8023 27.651 38.6369L27.9488 39.3217ZM31.9325 39.3217C31.7935 39.4408 31.6215 39.5334 31.4163 39.5996C31.2112 39.6592 30.9995 39.6889 30.7811 39.6889C30.2518 39.6889 29.8415 39.5467 29.5504 39.2622C29.2592 38.9776 29.1137 38.5707 29.1137 38.0413V35.1531H28.2204V34.369H29.1137V33.2177H30.0665V34.369H31.5751V35.1531H30.0665V38.0016C30.0665 38.2862 30.136 38.5045 30.2749 38.6567C30.4205 38.8089 30.6256 38.885 30.8903 38.885C31.1814 38.885 31.4296 38.8023 31.6347 38.6369L31.9325 39.3217ZM21.0242 46.3194C21.5337 46.3194 21.9903 46.4318 22.3939 46.6568C22.7976 46.8818 23.1119 47.1961 23.3368 47.5997C23.5684 48.0034 23.6842 48.4698 23.6842 48.9992C23.6842 49.5285 23.5684 49.9983 23.3368 50.4086C23.1119 50.8122 22.7976 51.1265 22.3939 51.3515C21.9903 51.5765 21.5337 51.6889 21.0242 51.6889C20.6471 51.6889 20.2997 51.6162 19.9821 51.4706C19.6711 51.325 19.4064 51.1133 19.1881 50.8354V53.5549H18.2352V46.369H19.1484V47.2027C19.3601 46.9116 19.6281 46.6932 19.9523 46.5476C20.2765 46.3955 20.6338 46.3194 21.0242 46.3194ZM20.9448 50.8552C21.2823 50.8552 21.5834 50.7791 21.848 50.6269C22.1193 50.4681 22.3311 50.2498 22.4833 49.9719C22.6421 49.6873 22.7215 49.3631 22.7215 48.9992C22.7215 48.6353 22.6421 48.3143 22.4833 48.0364C22.3311 47.7519 22.1193 47.5336 21.848 47.3814C21.5834 47.2292 21.2823 47.1531 20.9448 47.1531C20.614 47.1531 20.3129 47.2325 20.0416 47.3913C19.777 47.5435 19.5652 47.7585 19.4064 48.0364C19.2542 48.3143 19.1781 48.6353 19.1781 48.9992C19.1781 49.3631 19.2542 49.6873 19.4064 49.9719C19.5586 50.2498 19.7703 50.4681 20.0416 50.6269C20.3129 50.7791 20.614 50.8552 20.9448 50.8552ZM25.229 47.6791C25.0437 47.6791 24.8849 47.6163 24.7526 47.4905C24.6203 47.3582 24.5541 47.1928 24.5541 46.9943C24.5541 46.8024 24.6203 46.6436 24.7526 46.5179C24.8849 46.3855 25.0437 46.3194 25.229 46.3194C25.4143 46.3194 25.5698 46.3822 25.6955 46.5079C25.8212 46.6337 25.8841 46.7958 25.8841 46.9943C25.8841 47.1928 25.8179 47.3582 25.6856 47.4905C25.5598 47.6163 25.4077 47.6791 25.229 47.6791ZM25.229 51.6889C25.0437 51.6889 24.8849 51.6261 24.7526 51.5004C24.6203 51.368 24.5541 51.2026 24.5541 51.0041C24.5541 50.8122 24.6203 50.6534 24.7526 50.5277C24.8849 50.3953 25.0437 50.3292 25.229 50.3292C25.4143 50.3292 25.5698 50.392 25.6955 50.5178C25.8212 50.6435 25.8841 50.8056 25.8841 51.0041C25.8841 51.2026 25.8179 51.368 25.6856 51.5004C25.5598 51.6261 25.4077 51.6889 25.229 51.6889ZM29.8186 43.2723H30.6821L27.4068 52.6219H26.5433L29.8186 43.2723ZM32.6295 43.2723H33.493L30.2176 52.6219H29.3541L32.6295 43.2723ZM26.1953 58.369L24.2301 63.6294H23.317L21.7984 59.6394L20.26 63.6294H19.3469L17.3916 58.369H18.2948L19.8233 62.5575L21.4113 58.369H22.2153L23.7736 62.5773L25.3417 58.369H26.1953ZM35.0447 58.369L33.0795 63.6294H32.1664L30.6478 59.6394L29.1094 63.6294H28.1963L26.241 58.369H27.1442L28.6727 62.5575L30.2607 58.369H31.0647L32.623 62.5773L34.1912 58.369H35.0447ZM26.1953 70.369L24.2301 75.6294H23.317L21.7984 71.6394L20.26 75.6294H19.3469L17.3916 70.369H18.2948L19.8233 74.5575L21.4113 70.369H22.2153L23.7736 74.5773L25.3417 70.369H26.1953ZM27.0609 75.6889C26.8756 75.6889 26.7168 75.6261 26.5845 75.5004C26.4522 75.368 26.386 75.2026 26.386 75.0041C26.386 74.8122 26.4522 74.6534 26.5845 74.5277C26.7168 74.3953 26.8756 74.3292 27.0609 74.3292C27.2462 74.3292 27.4017 74.392 27.5274 74.5178C27.6531 74.6435 27.716 74.8056 27.716 75.0041C27.716 75.2026 27.6498 75.368 27.5175 75.5004C27.3918 75.6261 27.2396 75.6889 27.0609 75.6889Z" fill="white"/>
<path d="M17.5703 33.082H17.8822V32.0751C17.8822 32.0056 17.8822 31.9709 17.9169 31.9362C17.9862 31.7626 18.1248 31.6237 18.3327 31.6237C18.6099 31.6237 18.7139 31.8667 18.7139 32.1098V33.082H19.0258V32.0751C19.0258 31.4848 18.6793 31.3459 18.4367 31.3459C18.3327 31.3459 18.2287 31.3806 18.1248 31.4154C18.0208 31.4501 17.9515 31.5542 17.9169 31.6237V30.582H17.605V33.082H17.5703Z" stroke="#1D1D1B" stroke-miterlimit="10"/>
<path d="M19.5453 30.9986V31.4153H19.3027V31.6584H19.5453V32.5611C19.5453 32.7694 19.58 32.9083 19.6493 32.9778C19.7186 33.0472 19.8226 33.1167 19.9612 33.1167C20.0651 33.1167 20.1691 33.1167 20.2384 33.0819V32.8389C20.2038 32.8389 20.1344 32.8736 20.0651 32.8736C19.8919 32.8736 19.8226 32.7694 19.8226 32.5611V31.6584H20.2731V31.4153H19.8226V30.9292L19.5453 30.9986Z" stroke="#1D1D1B" stroke-miterlimit="10"/>
<path d="M20.6898 30.9986V31.4153H20.4473V31.6584H20.6898V32.5611C20.6898 32.7694 20.7245 32.9083 20.7938 32.9778C20.8631 33.0472 20.9671 33.1167 21.1057 33.1167C21.2097 33.1167 21.3136 33.1167 21.3829 33.0819V32.8389C21.3483 32.8389 21.279 32.8736 21.2097 32.8736C21.0364 32.8736 20.9671 32.7694 20.9671 32.5611V31.6584H21.4176V31.4153H20.9671V30.9292L20.6898 30.9986Z" stroke="#1D1D1B" stroke-miterlimit="10"/>
<path d="M22.0409 32.1095C22.0409 32.0748 22.0409 32.0401 22.0756 31.9706C22.1449 31.7276 22.3181 31.5887 22.5261 31.5887C22.838 31.5887 23.0112 31.8665 23.0112 32.2137C23.0112 32.5956 22.838 32.8734 22.4914 32.8734C22.2835 32.8734 22.0756 32.7345 22.0409 32.5262C22.0409 32.4915 22.0409 32.4567 22.0409 32.3873V32.1095V32.1095ZM21.7637 33.7414H22.0756V32.8387C22.1795 33.0123 22.3528 33.1165 22.5954 33.1165C22.9766 33.1165 23.3578 32.804 23.3578 32.2137C23.3578 31.6929 23.0459 31.3804 22.6647 31.3804C22.3875 31.3804 22.2142 31.4845 22.0756 31.6929V31.4151H21.7983C21.7983 31.5887 21.7983 31.7623 21.7983 31.9706V33.7414H21.7637Z" stroke="#1D1D1B" stroke-miterlimit="10"/>
<path d="M23.8427 33.1168C23.9813 33.1168 24.0506 33.0126 24.0506 32.9084C24.0506 32.7696 23.9813 32.7001 23.8427 32.7001C23.7041 32.7001 23.6348 32.8043 23.6348 32.9084C23.6348 33.0126 23.7387 33.1168 23.8427 33.1168ZM23.8427 31.9015C23.9813 31.9015 24.0506 31.7974 24.0506 31.6932C24.0506 31.5543 23.9813 31.4849 23.8427 31.4849C23.7041 31.4849 23.6348 31.589 23.6348 31.6932C23.6348 31.7974 23.7387 31.9015 23.8427 31.9015Z" stroke="#1D1D1B" stroke-miterlimit="10"/>
<path d="M24.3969 33.2207L25.3672 30.7207H25.1246L24.1543 33.2207H24.3969Z" stroke="#1D1D1B" stroke-miterlimit="10"/>
<path d="M25.5746 33.2207L26.5449 30.7207H26.3024L25.332 33.2207H25.5746Z" stroke="#1D1D1B" stroke-miterlimit="10"/>
<path d="M26.5801 31.415L27.0652 33.0817H27.3771L27.6544 32.2831C27.7237 32.1095 27.7583 31.9359 27.793 31.7275C27.8276 31.9359 27.897 32.0748 27.9316 32.2831L28.1742 33.0817H28.4514L28.9712 31.415H28.6594L28.4168 32.2484C28.3475 32.4567 28.3128 32.6303 28.2782 32.8039C28.2435 32.6303 28.2088 32.4567 28.1395 32.2484L27.897 31.415H27.6544L27.3771 32.2831C27.3078 32.4567 27.2732 32.6303 27.2385 32.8039C27.2039 32.6303 27.1692 32.4567 27.0999 32.2831L26.892 31.4498H26.5801V31.415Z" stroke="#1D1D1B" stroke-miterlimit="10"/>
<path d="M29.1797 31.415L29.6649 33.0817H29.9421L30.2193 32.2831C30.2886 32.1095 30.3233 31.9359 30.3579 31.7275C30.3926 31.9359 30.4619 32.0748 30.4966 32.2831L30.7391 33.0817H31.0164L31.5362 31.415H31.2243L30.9817 32.2484C30.9124 32.4567 30.8778 32.6303 30.8431 32.8039C30.8085 32.6303 30.7738 32.4567 30.7045 32.2484L30.4966 31.415H30.254L29.9767 32.2831C29.9074 32.4567 29.8728 32.6303 29.8381 32.8039C29.8035 32.6303 29.7688 32.4567 29.6995 32.2831L29.4916 31.4498H29.1797V31.415Z" stroke="#1D1D1B" stroke-miterlimit="10"/>
<path d="M31.7441 31.415L32.2293 33.0817H32.5065L32.7838 32.2831C32.8531 32.1095 32.8877 31.9359 32.9224 31.7275C32.957 31.9359 33.0264 32.0748 33.061 32.2831L33.3036 33.0817H33.6155L34.1353 31.415H33.8234L33.6155 32.2484C33.5462 32.4567 33.5115 32.6303 33.4769 32.8039C33.4422 32.6303 33.4076 32.4567 33.3382 32.2484L33.0957 31.415H32.8531L32.5758 32.2831C32.5065 32.4567 32.4719 32.6303 32.4372 32.8039C32.4026 32.6303 32.3679 32.4567 32.2986 32.2831L32.0907 31.4498H31.7441V31.415Z" stroke="#1D1D1B" stroke-miterlimit="10"/>
<path d="M34.4462 33.1164C34.5848 33.1164 34.6541 33.0122 34.6541 32.908C34.6541 32.7691 34.5848 32.6997 34.4462 32.6997C34.3076 32.6997 34.2383 32.8039 34.2383 32.908C34.2383 33.0122 34.3422 33.1164 34.4462 33.1164Z" stroke="#1D1D1B" stroke-miterlimit="10"/>
<path d="M114.186 97.0738H113.146V94.9211C113.146 91.4142 115.988 88.567 119.488 88.567H134.008C136.919 88.567 139.311 86.1712 139.311 83.2546V62.0396C139.311 59.123 136.919 56.7272 134.008 56.7272H119.558V55.6855H134.008C137.509 55.6855 140.35 58.5327 140.35 62.0396V83.2893C140.35 86.7962 137.509 89.6434 134.008 89.6434H119.488C116.577 89.6434 114.186 92.0391 114.186 94.9558V97.0738Z" fill="#02A9CE"/>
<path d="M125.658 22.1444L124.93 21.3805C125.658 20.5819 126.247 19.6444 126.697 18.6375L127.702 18.95C128.361 19.1583 129.089 18.7764 129.297 18.1167C129.504 17.457 129.123 16.7278 128.465 16.5195L127.46 16.207C127.668 15.0959 127.702 14.0195 127.598 12.9431L128.638 12.7001C129.331 12.5612 129.747 11.8668 129.608 11.1723C129.47 10.4779 128.777 10.0612 128.084 10.2001L127.009 10.4432C126.628 9.43625 126.108 8.46405 125.45 7.59601L126.282 6.83213C126.801 6.34602 126.836 5.54743 126.351 5.0266C125.866 4.50578 125.069 4.47105 124.549 4.95716L123.682 5.75576C122.885 5.09604 121.95 4.5405 120.945 4.08912L121.326 2.87386C121.534 2.21415 121.153 1.48499 120.494 1.27666C119.836 1.06833 119.108 1.45027 118.9 2.10998L118.519 3.32524C117.479 3.15163 116.405 3.11691 115.4 3.2558L115.088 1.90165C114.95 1.20722 114.256 0.790556 113.563 0.929443C112.87 1.06833 112.454 1.76276 112.593 2.4572L112.905 3.84606C111.935 4.19328 111.034 4.67938 110.202 5.30437L109.197 4.228C108.712 3.70718 107.915 3.67246 107.395 4.15856C106.875 4.64466 106.84 5.44326 107.326 5.96409L108.331 7.07518C107.672 7.83906 107.152 8.7071 106.736 9.64458L105.281 9.1932C104.623 8.98487 103.895 9.36681 103.687 10.0265C103.479 10.6862 103.86 11.4154 104.519 11.6237L105.974 12.0751C105.766 13.082 105.731 14.1237 105.835 15.0959L104.657 15.3737C103.756 15.582 103.063 16.45 103.583 17.2139C103.929 17.7347 104.588 18.0125 105.212 17.8736L106.355 17.6306C106.667 18.6028 107.152 19.5403 107.741 20.3736L106.702 21.3458C106.182 21.8319 106.147 22.6305 106.632 23.1513C107.118 23.6721 107.915 23.7069 108.435 23.2208L109.439 22.2833C110.202 22.9777 111.068 23.568 112.039 24.0194L111.657 25.2693C111.449 25.9291 111.831 26.6582 112.489 26.8665C113.148 27.0749 113.875 26.6929 114.083 26.0332L114.464 24.818C115.539 25.061 116.613 25.0957 117.653 25.0263L117.895 26.1721C118.034 26.8665 118.727 27.2832 119.42 27.1443C120.113 27.0054 120.529 26.311 120.39 25.6166L120.148 24.5055C121.187 24.1582 122.158 23.6721 123.024 23.0472L123.752 23.8457C124.237 24.3666 125.034 24.4013 125.554 23.9152C126.108 23.4638 126.108 22.6652 125.658 22.1444ZM111.311 18.7417C108.816 15.7556 109.232 11.3459 112.212 8.84599C115.192 6.34602 119.593 6.76268 122.088 9.74875C124.584 12.7348 124.168 17.1445 121.187 19.6444C118.242 22.1444 113.806 21.7277 111.311 18.7417Z" fill="#02A9CE"/>
<path d="M79.6016 87.7338V79.8867H67.2646H66.6408H54.3038V87.7338C54.3038 92.0393 51.0809 95.5462 46.957 96.067V96.1364H66.6755H67.2992H86.983V96.067C82.8245 95.5809 79.6016 92.0393 79.6016 87.7338Z" fill="#596273"/>
<path d="M121.43 80.9284C121.43 83.1853 119.593 85.0603 117.306 85.0603H16.5653C14.3128 85.0603 12.4414 83.22 12.4414 80.9284V25.2349C12.4414 22.9779 14.2781 21.1377 16.5653 21.1377H117.306C119.559 21.1377 121.43 22.9779 121.43 25.2349V80.9284Z" fill="#DDF6FF"/>
<path d="M121.43 70.5119C121.43 72.7688 119.593 74.6438 117.306 74.6438H16.5653C14.3128 74.6438 12.4414 72.8035 12.4414 70.5119V14.8183C12.4414 12.5614 14.2781 10.7212 16.5653 10.7212H117.306C119.559 10.7212 121.43 12.5614 121.43 14.8183V70.5119Z" fill="#596273"/>
<path d="M116.37 15.3735H17.5352V69.6782H116.37V15.3735Z" fill="#DDF6FF"/>
<path d="M94.1571 99.5389C94.1571 100.893 93.0828 101.969 91.7313 101.969H42.1407C40.7891 101.969 39.7148 100.893 39.7148 99.5389V98.5667C39.7148 97.2126 40.7891 96.1362 42.1407 96.1362H91.766C93.1175 96.1362 94.1918 97.2126 94.1918 98.5667V99.5389H94.1571Z" fill="#DDF6FF"/>
<path d="M116.508 15.3042H66.7441V69.6436H116.508V15.3042Z" fill="#C1CFD3"/>
<path d="M33.6504 35.8247H51.3589L51.0123 58.9146H37.3238L33.6504 48.637V35.8247Z" fill="#EFC094"/>
<path d="M33.6504 35.8247L37.3238 37.7691L36.9426 43.3246L33.6504 42.8038V35.8247Z" fill="#EEB483"/>
<path d="M51.3584 35.8247L47.6504 37.7691L48.0662 43.3246L51.3584 42.8038V35.8247Z" fill="#EEB483"/>
<path d="M52.8826 40.5815H32.0898V63.6715H52.8826V40.5815Z" fill="#EEB483"/>
<path d="M32.0898 40.5815L37.3227 37.769V40.5815H32.0898Z" fill="#596273"/>
<path d="M52.8832 40.5815L47.6504 37.769V40.5815H52.8832Z" fill="#596273"/>
<path d="M38.7445 43.2207C38.7445 43.6721 38.398 44.0193 37.9474 44.0193C37.4969 44.0193 37.1504 43.6721 37.1504 43.2207C37.1504 42.7693 37.4969 42.4221 37.9474 42.4221C38.398 42.3874 38.7445 42.7693 38.7445 43.2207Z" fill="#596273"/>
<path d="M47.8246 43.2207C47.8246 43.6721 47.478 44.0193 47.0275 44.0193C46.577 44.0193 46.2305 43.6721 46.2305 43.2207C46.2305 42.7693 46.577 42.4221 47.0275 42.4221C47.4434 42.3874 47.8246 42.7693 47.8246 43.2207Z" fill="#596273"/>
<path d="M42.4531 49.54C39.6808 49.54 37.4629 47.2831 37.4629 44.5401V43.4637C37.4629 43.1859 37.7055 42.9429 37.9827 42.9429C38.2599 42.9429 38.5025 43.1512 38.5025 43.4637V44.5401C38.5025 46.7623 40.3046 48.5331 42.4878 48.5331C44.7057 48.5331 46.4731 46.7275 46.4731 44.5401V43.4637C46.4731 43.1859 46.7157 42.9429 46.9929 42.9429C47.2701 42.9429 47.4781 43.1512 47.4781 43.4637V44.5401C47.4434 47.2831 45.1909 49.54 42.4531 49.54Z" fill="#F5F5F5"/>
<path d="M122.505 108.671C122.505 113.497 118.589 117.421 113.772 117.421C108.955 117.421 105.039 113.497 105.039 108.671V98.0462C105.039 96.5532 106.252 95.3379 107.742 95.3379H119.871C121.361 95.3379 122.574 96.5532 122.574 98.0462V108.671H122.505Z" fill="#DDF6FF"/>
<path d="M113.252 95.3726H107.707C106.217 95.3726 105.004 96.5878 105.004 98.0808V102.456H113.252V95.3726Z" fill="#596273"/>
<path d="M119.836 95.3726H114.291V102.456H122.539V98.0808C122.504 96.5531 121.326 95.3726 119.836 95.3726Z" fill="#596273"/>
<path d="M114.811 103.046C114.811 103.636 114.326 104.122 113.736 104.122C113.147 104.122 112.662 103.636 112.662 103.046V100.581C112.662 99.9905 113.147 99.5044 113.736 99.5044C114.326 99.5044 114.811 99.9905 114.811 100.581V103.046Z" fill="#FD6F32"/>
<path d="M112.663 40.547C112.663 43.9151 109.926 46.6581 106.564 46.6581C103.203 46.6581 100.465 43.9151 100.465 40.547C100.465 37.179 103.203 34.436 106.564 34.436C109.96 34.436 112.663 37.179 112.663 40.547Z" fill="#FD6F32"/>
<path d="M107.256 40.0955H106.978V37.9428H107.186C107.706 37.9428 108.157 38.3595 108.157 38.915H109.023C109.023 37.9081 108.191 37.0748 107.186 37.0748H106.978V36.415H106.112V37.0748C105.038 37.0748 104.137 37.9775 104.137 39.0539C104.137 39.5747 104.345 40.0608 104.726 40.4428C105.107 40.8247 105.592 40.9983 106.112 40.9983V43.1511H105.973C105.454 43.1511 105.003 42.7344 105.003 42.1788H104.137C104.137 43.1858 104.968 44.0191 105.973 44.0191H106.112V44.6788H106.978V44.0191H107.048C108.122 44.0191 109.023 43.1163 109.023 42.04V41.8316C109.023 41.3455 108.85 40.9289 108.503 40.5816C108.157 40.2692 107.741 40.0955 107.256 40.0955ZM105.35 39.8178C105.142 39.6094 105.038 39.3317 105.038 39.0539C105.038 38.4636 105.523 37.9775 106.112 37.9428V40.1303C105.835 40.1303 105.558 39.9914 105.35 39.8178ZM108.157 42.0747C108.157 42.665 107.671 43.1858 107.048 43.1858H106.978V40.9983H107.256C107.498 40.9983 107.706 41.1025 107.879 41.2414C108.053 41.415 108.157 41.6233 108.157 41.8664V42.0747Z" fill="#F5F5F5"/>
<path d="M58.9832 23.9502H26.2C24.5366 23.9502 23.1504 25.0266 23.1504 26.346C23.1504 27.6654 24.5019 28.7418 26.2 28.7418H59.0178C60.6813 28.7418 62.0674 27.6654 62.0674 26.346C62.0674 25.0266 60.6813 23.9502 58.9832 23.9502Z" fill="white"/>
<path d="M58.9832 23.9502H26.2C24.5366 23.9502 23.1504 25.0266 23.1504 26.346C23.1504 27.6654 24.5019 28.7418 26.2 28.7418H59.0178C60.6813 28.7418 62.0674 27.6654 62.0674 26.346C62.0674 25.0266 60.6813 23.9502 58.9832 23.9502Z" stroke="white" stroke-width="10" stroke-miterlimit="10"/>
<path d="M60.8418 27.8065L60.0332 28.6167L61.2339 29.8197L62.0426 29.0095L60.8418 27.8065Z" fill="#02A9CE"/>
<path d="M60.576 29.1583C60.7492 29.0542 60.8878 28.9153 61.0265 28.7764C61.1651 28.6375 61.269 28.4986 61.373 28.3597L60.8185 27.8042L60.0215 28.6028L60.576 29.1583Z" fill="#CCCCCC"/>
<g opacity="0.39">
<g opacity="0.39">
<path opacity="0.39" d="M60.1605 24.3665C61.1655 25.3735 61.1655 26.9707 60.1605 27.9776C59.1556 28.9845 57.5615 28.9845 56.5565 27.9776C55.5515 26.9707 55.5515 25.3735 56.5565 24.3665C57.5615 23.3596 59.1902 23.3596 60.1605 24.3665Z" fill="#98E2D9"/>
</g>
</g>
<path d="M60.6806 23.8805C59.3984 22.5958 57.3538 22.5958 56.1062 23.8805C54.824 25.1652 54.824 27.2138 56.1062 28.4638C57.3884 29.7485 59.433 29.7485 60.6806 28.4638C61.9282 27.2138 61.9282 25.1305 60.6806 23.8805ZM60.1608 27.9777C59.1558 28.9846 57.5617 28.9846 56.5567 27.9777C55.5517 26.9707 55.5517 25.3736 56.5567 24.3666C57.5617 23.3597 59.1558 23.3597 60.1608 24.3666C61.1658 25.3736 61.1658 26.9707 60.1608 27.9777Z" fill="#02A9CE"/>
<path d="M64.8743 31.4151C65.2209 31.7623 65.2209 32.3525 64.8743 32.6998C64.5278 33.047 63.9387 33.047 63.5921 32.6998L61.0623 30.1651C60.9584 30.0609 60.9584 29.8873 61.0623 29.7831L61.9634 28.8804C62.0673 28.7762 62.2406 28.7762 62.3446 28.8804L64.8743 31.4151Z" fill="#596273"/>
<path d="M83.4132 35.0957V34.9568C83.4132 34.8526 83.3439 34.7832 83.24 34.7832C83.136 34.7832 83.0667 34.8526 83.0667 34.9568V35.1304C83.0667 35.2346 82.9974 35.304 82.8934 35.304H82.7201C82.6162 35.304 82.5469 35.3735 82.5469 35.4776C82.5469 35.5818 82.6162 35.6512 82.7201 35.6512H82.8934C82.9974 35.6512 83.0667 35.7207 83.0667 35.8249V35.9985C83.0667 36.1026 83.136 36.1721 83.24 36.1721C83.3439 36.1721 83.4132 36.1026 83.4132 35.9985V35.8249C83.4132 35.7207 83.4825 35.6512 83.5865 35.6512H83.7598C83.8637 35.6512 83.933 35.5818 83.933 35.4776C83.933 35.3735 83.8637 35.304 83.7598 35.304H83.5865C83.4825 35.2693 83.4132 35.1999 83.4132 35.0957Z" fill="white"/>
<path d="M77.7659 41.9705V41.8664C77.7659 41.7969 77.7313 41.7622 77.662 41.7622C77.5926 41.7622 77.558 41.7969 77.558 41.8664V41.9705C77.558 42.04 77.5233 42.0747 77.454 42.0747H77.3501C77.2807 42.0747 77.2461 42.1094 77.2461 42.1789C77.2461 42.2483 77.2807 42.283 77.3501 42.283H77.454C77.5233 42.283 77.558 42.3178 77.558 42.3872V42.4914C77.558 42.5608 77.5926 42.5955 77.662 42.5955C77.7313 42.5955 77.7659 42.5608 77.7659 42.4914V42.3872C77.7659 42.3178 77.8006 42.283 77.8699 42.283H77.9738C78.0431 42.283 78.0778 42.2483 78.0778 42.1789C78.0778 42.1094 78.0431 42.0747 77.9738 42.0747H77.8699C77.8006 42.0747 77.7659 42.0053 77.7659 41.9705Z" fill="white"/>
<path d="M102.024 38.325V38.2209C102.024 38.1514 101.989 38.1167 101.92 38.1167C101.85 38.1167 101.816 38.1514 101.816 38.2209V38.325C101.816 38.3945 101.781 38.4292 101.712 38.4292H101.608C101.539 38.4292 101.504 38.4639 101.504 38.5334C101.504 38.6028 101.539 38.6375 101.608 38.6375H101.712C101.781 38.6375 101.816 38.6722 101.816 38.7417V38.8459C101.816 38.9153 101.85 38.95 101.92 38.95C101.989 38.95 102.024 38.9153 102.024 38.8459V38.7417C102.024 38.6722 102.058 38.6375 102.128 38.6375H102.232C102.301 38.6375 102.336 38.6028 102.336 38.5334C102.336 38.4639 102.301 38.4292 102.232 38.4292H102.128C102.093 38.4292 102.024 38.3945 102.024 38.325Z" fill="white"/>
<path d="M80.3983 48.8802V48.776C80.3983 48.7413 80.3636 48.7065 80.329 48.7065C80.2943 48.7065 80.2596 48.7413 80.2596 48.776V48.8802C80.2596 48.9149 80.225 48.9496 80.1903 48.9496H80.0517C80.0171 48.9496 79.9824 48.9843 79.9824 49.019C79.9824 49.0538 80.0171 49.0885 80.0517 49.0885H80.1557C80.1903 49.0885 80.225 49.1232 80.225 49.1579V49.2621C80.225 49.2968 80.2596 49.3315 80.2943 49.3315C80.329 49.3315 80.3636 49.2968 80.3636 49.2621V49.1579C80.3636 49.1232 80.3983 49.0885 80.4329 49.0885H80.5369C80.5715 49.0885 80.6062 49.0538 80.6062 49.019C80.6062 48.9843 80.5715 48.9496 80.5369 48.9496H80.4329C80.4329 48.9496 80.3983 48.9149 80.3983 48.8802Z" fill="white"/>
<path d="M104.379 44.3665V44.2623C104.379 44.2276 104.345 44.1929 104.31 44.1929C104.275 44.1929 104.241 44.2276 104.241 44.2623V44.3665C104.241 44.4012 104.206 44.4359 104.171 44.4359H104.067C104.033 44.4359 103.998 44.4706 103.998 44.5054C103.998 44.5401 104.033 44.5748 104.067 44.5748H104.171C104.206 44.5748 104.241 44.6095 104.241 44.6443V44.7484C104.241 44.7831 104.275 44.8179 104.31 44.8179C104.345 44.8179 104.379 44.7831 104.379 44.7484V44.6443C104.379 44.6095 104.414 44.5748 104.449 44.5748H104.553C104.587 44.5748 104.622 44.5401 104.622 44.5054C104.622 44.4706 104.587 44.4359 104.553 44.4359H104.449C104.414 44.4706 104.379 44.4359 104.379 44.3665Z" fill="white"/>
<path d="M82.2019 44.7832C82.2019 44.9568 82.0633 45.0957 81.89 45.0957C81.7167 45.0957 81.5781 44.9568 81.5781 44.7832C81.5781 44.6096 81.7167 44.4707 81.89 44.4707C82.0633 44.4707 82.2019 44.6096 82.2019 44.7832Z" fill="#03A8F4"/>
<path d="M105.593 36.2764C105.593 36.45 105.454 36.5889 105.281 36.5889C105.107 36.5889 104.969 36.45 104.969 36.2764C104.969 36.1028 105.107 35.9639 105.281 35.9639C105.454 35.9639 105.593 36.1028 105.593 36.2764Z" fill="#03A8F4"/>
<path d="M83.3797 40.7205C83.3797 40.8247 83.3104 40.8941 83.2065 40.8941C83.1025 40.8941 83.0332 40.8247 83.0332 40.7205C83.0332 40.6163 83.1025 40.5469 83.2065 40.5469C83.3104 40.5816 83.3797 40.651 83.3797 40.7205Z" fill="#28B5F5"/>
<path d="M79.8436 38.533C79.8436 38.6372 79.7396 38.7414 79.6357 38.7414C79.5317 38.7414 79.4277 38.6372 79.4277 38.533C79.4277 38.4289 79.5317 38.3247 79.6357 38.3247C79.7396 38.3247 79.8436 38.3942 79.8436 38.533Z" fill="#039AE5"/>
<path d="M101.504 42.6302C101.504 42.7344 101.4 42.8385 101.296 42.8385C101.192 42.8385 101.088 42.7344 101.088 42.6302C101.088 42.526 101.192 42.4219 101.296 42.4219C101.4 42.4219 101.504 42.4913 101.504 42.6302Z" fill="#039AE5"/>
<path d="M83.5878 51.5884C83.4492 51.5884 83.3105 51.7273 83.3105 51.8662C83.3105 52.005 83.4145 52.1439 83.5878 52.1439C83.7264 52.1439 83.865 52.005 83.865 51.8662C83.865 51.6925 83.7264 51.5884 83.5878 51.5884Z" fill="#03A8F4"/>
<path d="M78.0419 53.4287C77.8339 53.4287 77.6953 53.5676 77.6953 53.7759C77.6953 53.9843 77.8339 54.1231 78.0419 54.1231C78.2498 54.1231 78.3884 53.9843 78.3884 53.7759C78.3884 53.5676 78.2151 53.4287 78.0419 53.4287Z" fill="#B2E4FB"/>
<path d="M105.419 40.165C105.211 40.165 105.072 40.3039 105.072 40.5123C105.072 40.7206 105.211 40.8595 105.419 40.8595C105.627 40.8595 105.765 40.7206 105.765 40.5123C105.765 40.3039 105.592 40.165 105.419 40.165Z" fill="#B2E4FB"/>
<path d="M80.4331 32.5957C80.3638 32.5957 80.2945 32.6304 80.2252 32.6651C80.0519 32.7693 80.0172 32.9776 80.1558 33.1513C80.2252 33.2554 80.3291 33.2901 80.4331 33.2901C80.5024 33.2901 80.5717 33.2554 80.641 33.2207C80.8143 33.1165 80.8489 32.9082 80.7103 32.7346C80.641 32.6304 80.5371 32.5957 80.4331 32.5957Z" fill="#B2E4FB"/>
<path d="M109.127 27.0059H99.666V33.603H109.127V27.0059Z" fill="url(#paint0_linear)"/>
<path d="M99.6315 59.2617C99.4582 61.727 97.4482 63.6367 94.9531 63.6367C96.2353 63.6367 97.4136 63.0811 98.28 62.2478C99.0423 61.4839 99.5622 60.4423 99.6315 59.2617Z" fill="#E3F1FC"/>
<path d="M90.3102 27.0054C88.9933 27.0054 87.815 27.5262 86.9487 28.3943C86.0823 29.2623 85.5625 30.4429 85.5625 31.7623V57.0397H90.2409V58.8799C90.2409 60.1993 90.7607 61.3799 91.627 62.2479C92.4934 63.116 93.637 63.6368 94.9539 63.6368C96.2361 63.6368 97.4144 63.0812 98.2807 62.2479C99.0431 61.4841 99.5629 60.4077 99.6669 59.2619C99.6669 59.1577 99.6669 59.0188 99.6669 58.8799V31.7276C99.6669 29.0887 101.781 26.9707 104.415 26.9707H90.3102V27.0054Z" fill="white"/>
<path d="M94.9536 57.04H76.1016V63.6372H94.9536V57.04Z" fill="url(#paint1_linear)"/>
<path d="M91.385 38.3945H86.8105V38.8806H91.385V38.3945Z" fill="#546E7A"/>
<path d="M89.8948 39.9917H86.8105V40.4778H89.8948V39.9917Z" fill="#546E7A"/>
<path d="M90.8998 41.5889H86.8105V42.075H90.8998V41.5889Z" fill="#546E7A"/>
<path d="M92.078 43.1514H86.8105V43.6375H92.078V43.1514Z" fill="#546E7A"/>
<path d="M91.385 47.9082H86.8105V48.3943H91.385V47.9082Z" fill="#546E7A"/>
<path d="M88.4393 49.5054H86.8105V49.9915H88.4393V49.5054Z" fill="#546E7A"/>
<path d="M95.1623 44.7485H86.8105V45.2346H95.1623V44.7485Z" fill="#546E7A"/>
<path d="M90.6919 46.3457H86.8105V46.8318H90.6919V46.3457Z" fill="#546E7A"/>
<path d="M98.3846 38.3945H96.7559V38.8806H98.3846V38.3945Z" fill="#546E7A"/>
<path d="M98.3506 39.9917H97.207V40.4778H98.3506V39.9917Z" fill="#546E7A"/>
<path d="M98.3846 41.5889H96.7559V42.075H98.3846V41.5889Z" fill="#546E7A"/>
<path d="M98.3846 43.1514H96.7559V43.6375H98.3846V43.1514Z" fill="#546E7A"/>
<path d="M98.3506 47.9082H97.207V48.3943H98.3506V47.9082Z" fill="#546E7A"/>
<path d="M98.3846 49.5054H96.7559V49.9915H98.3846V49.5054Z" fill="#546E7A"/>
<path d="M98.3506 44.7485H97.207V45.2346H98.3506V44.7485Z" fill="#546E7A"/>
<path d="M98.3846 46.3457H96.7559V46.8318H98.3846V46.3457Z" fill="#546E7A"/>
<path d="M91.385 52.5957H86.8105V53.0818H91.385V52.5957Z" fill="#546E7A"/>
<path d="M88.4393 54.1582H86.8105V54.9568H88.4393V54.1582Z" fill="black"/>
<path d="M90.6919 50.998H86.8105V51.4842H90.6919V50.998Z" fill="#546E7A"/>
<path d="M98.3506 52.5957H97.207V53.0818H98.3506V52.5957Z" fill="#546E7A"/>
<path d="M98.3846 54.1582H96.7559V54.9568H98.3846V54.1582Z" fill="black"/>
<path d="M98.3846 50.998H96.7559V51.4842H98.3846V50.998Z" fill="#546E7A"/>
<path d="M95.8214 34.0542H89.6875V34.6445H95.8214V34.0542Z" fill="#37474F"/>
<path d="M94.6421 31.5889H90.8301V32.1791H94.6421V31.5889Z" fill="#37474F"/>
<path d="M96.9982 32.8042H88.5078V33.3945H96.9982V32.8042Z" fill="#37474F"/>
<path d="M88.9941 36.2764L89.2367 36.5194" stroke="#455A64" stroke-width="0.86" stroke-miterlimit="10" stroke-linecap="round"/>
<path d="M89.2367 36.2764L88.9941 36.5194" stroke="#455A64" stroke-width="0.86" stroke-miterlimit="10" stroke-linecap="round"/>
<path d="M96.2363 36.2764L96.4789 36.5194" stroke="#455A64" stroke-width="0.86" stroke-miterlimit="10" stroke-linecap="round"/>
<path d="M96.4789 36.2764L96.2363 36.5194" stroke="#455A64" stroke-width="0.86" stroke-miterlimit="10" stroke-linecap="round"/>
<path d="M95.127 36.2764L95.3695 36.5194" stroke="#455A64" stroke-width="0.86" stroke-miterlimit="10" stroke-linecap="round"/>
<path d="M95.3695 36.2764L95.127 36.5194" stroke="#455A64" stroke-width="0.86" stroke-miterlimit="10" stroke-linecap="round"/>
<path d="M94.5723 36.2764L94.8148 36.5194" stroke="#455A64" stroke-width="0.86" stroke-miterlimit="10" stroke-linecap="round"/>
<path d="M94.8148 36.2764L94.5723 36.5194" stroke="#455A64" stroke-width="0.86" stroke-miterlimit="10" stroke-linecap="round"/>
<path d="M94.0195 36.2764L94.2621 36.5194" stroke="#455A64" stroke-width="0.86" stroke-miterlimit="10" stroke-linecap="round"/>
<path d="M94.2621 36.2764L94.0195 36.5194" stroke="#455A64" stroke-width="0.86" stroke-miterlimit="10" stroke-linecap="round"/>
<path d="M93.4648 36.2764L93.7074 36.5194" stroke="#455A64" stroke-width="0.86" stroke-miterlimit="10" stroke-linecap="round"/>
<path d="M93.7074 36.2764L93.4648 36.5194" stroke="#455A64" stroke-width="0.86" stroke-miterlimit="10" stroke-linecap="round"/>
<path d="M92.9102 36.2764L93.1527 36.5194" stroke="#455A64" stroke-width="0.86" stroke-miterlimit="10" stroke-linecap="round"/>
<path d="M93.1527 36.2764L92.9102 36.5194" stroke="#455A64" stroke-width="0.86" stroke-miterlimit="10" stroke-linecap="round"/>
<path d="M95.6816 36.2764L95.9242 36.5194" stroke="#455A64" stroke-width="0.86" stroke-miterlimit="10" stroke-linecap="round"/>
<path d="M95.9242 36.2764L95.6816 36.5194" stroke="#455A64" stroke-width="0.86" stroke-miterlimit="10" stroke-linecap="round"/>
<path d="M91.7656 36.2764L92.0082 36.5194" stroke="#455A64" stroke-width="0.86" stroke-miterlimit="10" stroke-linecap="round"/>
<path d="M92.0082 36.2764L91.7656 36.5194" stroke="#455A64" stroke-width="0.86" stroke-miterlimit="10" stroke-linecap="round"/>
<path d="M91.2109 36.2764L91.4535 36.5194" stroke="#455A64" stroke-width="0.86" stroke-miterlimit="10" stroke-linecap="round"/>
<path d="M91.4535 36.2764L91.2109 36.5194" stroke="#455A64" stroke-width="0.86" stroke-miterlimit="10" stroke-linecap="round"/>
<path d="M90.1035 36.2764L90.3461 36.5194" stroke="#455A64" stroke-width="0.86" stroke-miterlimit="10" stroke-linecap="round"/>
<path d="M90.3461 36.2764L90.1035 36.5194" stroke="#455A64" stroke-width="0.86" stroke-miterlimit="10" stroke-linecap="round"/>
<path d="M89.5488 36.2764L89.7914 36.5194" stroke="#455A64" stroke-width="0.86" stroke-miterlimit="10" stroke-linecap="round"/>
<path d="M89.7914 36.2764L89.5488 36.5194" stroke="#455A64" stroke-width="0.86" stroke-miterlimit="10" stroke-linecap="round"/>
<path d="M90.6562 36.2764L90.8988 36.5194" stroke="#455A64" stroke-width="0.86" stroke-miterlimit="10" stroke-linecap="round"/>
<path d="M90.8988 36.2764L90.6562 36.5194" stroke="#455A64" stroke-width="0.86" stroke-miterlimit="10" stroke-linecap="round"/>
<path d="M92.3555 36.2764L92.5634 36.5194" stroke="#455A64" stroke-width="0.86" stroke-miterlimit="10" stroke-linecap="round"/>
<path d="M92.5634 36.2764L92.3555 36.5194" stroke="#455A64" stroke-width="0.86" stroke-miterlimit="10" stroke-linecap="round"/>
</g>
<defs>
<linearGradient id="paint0_linear" x1="104.398" y1="33.5281" x2="104.398" y2="26.9674" gradientUnits="userSpaceOnUse">
<stop stop-color="#E0F4FD"/>
<stop offset="0.3027" stop-color="#DCF3FD"/>
<stop offset="0.5891" stop-color="#D1EFFC"/>
<stop offset="0.868" stop-color="#BEE8FC"/>
<stop offset="1" stop-color="#B2E4FB"/>
</linearGradient>
<linearGradient id="paint1_linear" x1="85.5131" y1="58.8315" x2="85.5131" y2="63.6241" gradientUnits="userSpaceOnUse">
<stop stop-color="#E0F4FD"/>
<stop offset="0.3027" stop-color="#DCF3FD"/>
<stop offset="0.5891" stop-color="#D1EFFC"/>
<stop offset="0.868" stop-color="#BEE8FC"/>
<stop offset="1" stop-color="#B2E4FB"/>
</linearGradient>
<clipPath id="clip0">
<rect width="140.351" height="116.491" fill="white" transform="translate(0 0.929688)"/>
</clipPath>
</defs>
</svg>
