<svg width="127" height="113" viewBox="0 0 127 113" fill="none" xmlns="http://www.w3.org/2000/svg">
<g clip-path="url(#clip0)">
<path d="M117.504 108.803C117.504 110.74 115.881 112.316 113.884 112.316H44.3295C42.3326 112.316 40.709 110.74 40.709 108.803V21.8368C40.709 19.8995 42.3326 18.3237 44.3295 18.3237H113.884C115.881 18.3237 117.504 19.8995 117.504 21.8368V108.803Z" fill="#DDF6FF"/>
<path d="M114.817 108.803C114.817 110.74 113.194 112.316 111.197 112.316H41.6517C39.6549 112.316 38.0312 110.74 38.0312 108.803V21.8368C38.0312 19.8995 39.6549 18.3237 41.6517 18.3237H111.206C113.203 18.3237 114.827 19.8995 114.827 21.8368V108.803H114.817Z" fill="#596273"/>
<path d="M109.106 26.0083H44.0586V106.087H109.106V26.0083Z" fill="white"/>
<path d="M109.098 26.0083H111.001L109.098 50.6928V26.0083Z" fill="#DDF6FF"/>
<path d="M45.1406 106.096V108.525L111 109.498L109.096 71.6323V106.096H45.1406Z" fill="#292A4F"/>
<path d="M115.396 88.4554L112.105 90.0215L113.359 92.6212L116.65 91.0551L115.396 88.4554Z" fill="#A5BAC6"/>
<path d="M113.755 89.2369L112.105 90.022L113.359 92.6217L115.009 91.8366L113.755 89.2369Z" fill="#6DA5B5"/>
<path d="M112.504 93.0356L121.406 111.491C121.639 111.973 122.218 112.177 122.703 111.945L125.959 110.397C126.445 110.165 126.641 109.591 126.417 109.118L117.515 90.6626L112.504 93.0356Z" fill="#1D71B8"/>
<path d="M116.143 91.3115L125.464 110.629L125.968 110.388C126.453 110.156 126.649 109.581 126.425 109.109L117.524 90.6533L116.143 91.3115Z" fill="#02A9CE"/>
<path d="M123.933 110.202C123.448 110.434 122.869 110.23 122.636 109.748L114.191 92.229L112.512 93.0262L121.414 111.482C121.647 111.964 122.225 112.168 122.711 111.936L125.967 110.388C126.452 110.156 126.648 109.581 126.425 109.109L126.387 109.044L123.933 110.202Z" fill="#1D619D"/>
<path d="M102.416 65.7184C95.7067 68.9071 92.8794 76.8973 96.0893 83.5621C99.2992 90.2268 107.343 93.0354 114.052 89.8467C120.761 86.6581 123.588 78.6678 120.378 72.0031C117.159 65.3383 109.116 62.5204 102.416 65.7184ZM112.745 87.1401C107.539 89.615 101.296 87.4367 98.8047 82.2643C96.3133 77.092 98.5061 70.8907 103.713 68.4158C108.92 65.9409 115.162 68.1192 117.654 73.2915C120.145 78.4639 117.952 84.6651 112.745 87.1401Z" fill="#02A9CE"/>
<g opacity="0.4">
<g opacity="0.4">
<path opacity="0.4" d="M111.7 67.9893C117.14 69.8895 120.005 75.8219 118.083 81.226C116.161 86.6301 110.198 89.4758 104.758 87.5663C99.318 85.6661 96.4533 79.7336 98.3755 74.3296C100.288 68.9255 106.26 66.0797 111.7 67.9893Z" fill="#02A9CE"/>
</g>
</g>
<g opacity="0.4">
<g opacity="0.4">
<path opacity="0.4" d="M118.083 81.2261C116.161 86.6301 110.198 89.4759 104.758 87.5664C99.318 85.6661 96.4533 79.7337 98.3755 74.3296L118.083 81.2261Z" fill="#02A9CE"/>
</g>
</g>
<path d="M16.458 54.0293H0.203125V56.1242H16.458V54.0293Z" fill="#1F2232"/>
<path d="M12.8648 53.6401H3.79492V56.5044H12.8648V53.6401Z" fill="#888888"/>
<path d="M16.4578 54.0293H14.377V103.371H16.4578V54.0293Z" fill="#32384F"/>
<path d="M14.3768 84.9155H2.29297V87.3163H14.3768V84.9155Z" fill="#32384F"/>
<path d="M2.28397 54.0293H0.203125V103.371H2.28397V54.0293Z" fill="#4B5375"/>
<path d="M59.1762 107.653C59.1762 110.23 57.0767 112.316 54.4826 112.316C51.8886 112.316 49.7891 110.23 49.7891 107.653C49.7891 105.076 51.8886 102.991 54.4826 102.991C57.0767 102.991 59.1762 105.076 59.1762 107.653Z" fill="#363C54"/>
<path d="M57.1232 107.654C57.1232 109.1 55.9382 110.277 54.4825 110.277C53.0269 110.277 51.8418 109.1 51.8418 107.654C51.8418 106.208 53.0269 105.03 54.4825 105.03C55.9382 105.03 57.1232 106.208 57.1232 107.654Z" fill="#B4CAD8"/>
<path d="M56.4128 107.653C56.4128 108.71 55.5543 109.563 54.4906 109.563C53.4268 109.563 52.5684 108.71 52.5684 107.653C52.5684 106.597 53.4268 105.744 54.4906 105.744C55.545 105.734 56.4128 106.597 56.4128 107.653Z" fill="#DDF6FF"/>
<path d="M25.4809 107.653C25.4809 110.23 23.3814 112.316 20.7873 112.316C18.1933 112.316 16.0938 110.23 16.0938 107.653C16.0938 105.076 18.1933 102.991 20.7873 102.991C23.3814 102.991 25.4809 105.076 25.4809 107.653Z" fill="#363C54"/>
<path d="M23.4181 107.654C23.4181 109.1 22.2331 110.277 20.7774 110.277C19.3218 110.277 18.1367 109.1 18.1367 107.654C18.1367 106.208 19.3218 105.03 20.7774 105.03C22.2424 105.03 23.4181 106.208 23.4181 107.654Z" fill="#B4CAD8"/>
<path d="M22.7097 107.653C22.7097 108.71 21.8512 109.563 20.7874 109.563C19.7237 109.563 18.8652 108.71 18.8652 107.653C18.8652 106.597 19.7237 105.744 20.7874 105.744C21.8512 105.734 22.7097 106.597 22.7097 107.653Z" fill="#DDF6FF"/>
<path d="M44.1804 100.191H0.193359V106.56H44.1804V100.191Z" fill="#4B5375"/>
<path d="M61.0037 100.191H44.1797V106.56H61.0037V100.191Z" fill="#171927"/>
<path d="M12.8832 107.653C12.8832 110.23 10.7837 112.316 8.18966 112.316C5.5956 112.316 3.49609 110.23 3.49609 107.653C3.49609 105.076 5.5956 102.991 8.18966 102.991C10.7837 102.991 12.8832 105.076 12.8832 107.653Z" fill="#363C54"/>
<path d="M10.8303 107.654C10.8303 109.1 9.6452 110.277 8.18954 110.277C6.73388 110.277 5.54883 109.1 5.54883 107.654C5.54883 106.208 6.72455 105.03 8.18954 105.03C9.6452 105.03 10.8303 106.208 10.8303 107.654Z" fill="#B4CAD8"/>
<path d="M10.112 107.653C10.112 108.71 9.25355 109.563 8.18979 109.563C7.12604 109.563 6.26758 108.71 6.26758 107.653C6.26758 106.597 7.12604 105.744 8.18979 105.744C9.25355 105.734 10.112 106.597 10.112 107.653Z" fill="#DDF6FF"/>
<path d="M39.9711 107.653C39.9711 110.23 37.8716 112.316 35.2776 112.316C32.6835 112.316 30.584 110.23 30.584 107.653C30.584 105.076 32.6835 102.991 35.2776 102.991C37.8623 102.991 39.9711 105.076 39.9711 107.653Z" fill="#363C54"/>
<path d="M37.9103 107.654C37.9103 109.1 36.7253 110.277 35.2696 110.277C33.814 110.277 32.6289 109.1 32.6289 107.654C32.6289 106.208 33.814 105.03 35.2696 105.03C36.7346 105.03 37.9103 106.208 37.9103 107.654Z" fill="#B4CAD8"/>
<path d="M37.1999 107.653C37.1999 108.71 36.3414 109.563 35.2777 109.563C34.2139 109.563 33.3555 108.71 33.3555 107.653C33.3555 106.597 34.2139 105.744 35.2777 105.744C36.3321 105.734 37.1999 106.597 37.1999 107.653Z" fill="#DDF6FF"/>
<path d="M49.2468 78.7051H27.6172V100.192H49.2468V78.7051Z" fill="#EEB483"/>
<path d="M27.6172 100.192V78.7051H49.2468L27.6172 100.192Z" fill="#EFC094"/>
<path d="M40.6437 78.7051H36.2207V83.6828H40.6437V78.7051Z" fill="#F2DCC6"/>
<path d="M55.8452 78.7051H49.248V100.192H55.8452V78.7051Z" fill="#D99965"/>
<path d="M47.4926 94.6113H37.4336V98.5693H47.4926V94.6113Z" fill="#D99965"/>
<path d="M39.6913 96.2243L39.0568 95.3252L38.4316 96.2243H38.8142V97.244H39.2994V96.2243H39.6913Z" fill="#A36141"/>
<path d="M41.1288 96.2243L40.5037 95.3252L39.8691 96.2243H40.261V97.244H40.7463V96.2243H41.1288Z" fill="#A36141"/>
<path d="M41.1283 97.3828H38.4316V97.8926H41.1283V97.3828Z" fill="#A36141"/>
<path d="M42.8649 96.7153H42.6973V97.5959H42.8649V96.7153Z" fill="#A36141"/>
<path d="M42.8563 97.5962H42.7817H42.6977L42.1191 97.8928H42.7817H43.4348L42.8563 97.5962Z" fill="#A36141"/>
<path d="M42.043 95.3618V96.0848C42.043 96.4834 42.3696 96.8078 42.7708 96.8078C43.172 96.8078 43.4986 96.4834 43.4986 96.0848V95.3618H42.043Z" fill="#A36141"/>
<path d="M42.9025 95.3618H42.6133L42.4453 95.7789H42.6319L42.5853 96.4186L43.1172 95.5379H42.7999L42.9025 95.3618Z" fill="#D99965"/>
<path d="M46.494 96.2147C46.3727 95.779 45.9715 95.4639 45.4863 95.4639C45.0011 95.4639 44.5905 95.779 44.4785 96.2147H46.494Z" fill="#A36141"/>
<path d="M45.5336 97.4942C45.5336 97.5221 45.5057 97.5499 45.4777 97.5499C45.4498 97.5499 45.4219 97.5221 45.4219 97.4942V95.353C45.4219 95.3252 45.4498 95.2974 45.4777 95.2974C45.5057 95.2974 45.5336 95.3252 45.5336 95.353V97.4942Z" fill="#A36141"/>
<path d="M45.43 97.4941H45.542V97.6795C45.542 97.6795 45.542 97.8 45.6353 97.8093C45.6353 97.8093 45.7752 97.8371 45.7752 97.6888C45.7752 97.6888 45.7752 97.6424 45.8126 97.6424C45.8126 97.6424 45.8592 97.6332 45.8592 97.6888C45.8592 97.6888 45.8779 97.9113 45.6353 97.902C45.6353 97.902 45.4207 97.902 45.43 97.6888V97.4941Z" fill="#A36141"/>
<path d="M39.823 57.209H18.1934V78.6955H39.823V57.209Z" fill="#EEB483"/>
<path d="M18.1934 78.7048V57.209H39.8323L18.1934 78.7048Z" fill="#EFC094"/>
<path d="M31.2198 57.209H26.7969V62.1867H31.2198V57.209Z" fill="#F2DCC6"/>
<path d="M46.4291 57.209H39.832V78.6955H46.4291V57.209Z" fill="#D99965"/>
<path d="M38.0785 73.1245H28.0195V77.0826H38.0785V73.1245Z" fill="#D99965"/>
<path d="M30.268 74.7375L29.6428 73.8384L29.0176 74.7375H29.4002V75.7571H29.8854V74.7375H30.268Z" fill="#A36141"/>
<path d="M31.7148 74.7375L31.0803 73.8384L30.4551 74.7375H30.8377V75.7571H31.3322V74.7375H31.7148Z" fill="#A36141"/>
<path d="M31.7143 75.8965H29.0176V76.4063H31.7143V75.8965Z" fill="#A36141"/>
<path d="M33.4391 75.229H33.2715V76.1096H33.4391V75.229Z" fill="#A36141"/>
<path d="M33.431 76.1094H33.3563H33.2817L32.7031 76.406H33.3563H34.0188L33.431 76.1094Z" fill="#A36141"/>
<path d="M32.6289 73.8662V74.5892C32.6289 74.9878 32.9555 75.3122 33.3567 75.3122C33.758 75.3122 34.0846 74.9878 34.0846 74.5892V73.8662H32.6289Z" fill="#A36141"/>
<path d="M33.4861 73.8662H33.1875L33.0195 74.2926H33.2155L33.1688 74.9229L33.6914 74.0516H33.3741L33.4861 73.8662Z" fill="#D99965"/>
<path d="M37.08 74.7283C36.9587 74.2927 36.5574 73.9775 36.0722 73.9775C35.587 73.9775 35.1764 74.2927 35.0645 74.7283H37.08Z" fill="#A36141"/>
<path d="M36.1176 76.0074C36.1176 76.0352 36.0897 76.063 36.0617 76.063C36.0338 76.063 36.0059 76.0352 36.0059 76.0074V73.8662C36.0059 73.8384 36.0338 73.8105 36.0617 73.8105C36.0897 73.8105 36.1176 73.8384 36.1176 73.8662V76.0074Z" fill="#A36141"/>
<path d="M36.0059 76.0073H36.1178V76.1927C36.1178 76.1927 36.1178 76.3132 36.2111 76.3225C36.2111 76.3225 36.3511 76.3503 36.3511 76.202C36.3511 76.202 36.3511 76.1556 36.3884 76.1556C36.3884 76.1556 36.4351 76.1464 36.4351 76.202C36.4351 76.202 36.4538 76.4245 36.2111 76.4152C36.2111 76.4152 35.9965 76.4152 36.0152 76.202V76.0073H36.0059Z" fill="#A36141"/>
<path d="M29.698 78.7051H8.06836V100.192H29.698V78.7051Z" fill="#EEB483"/>
<path d="M8.06836 100.192V78.7051H29.7073L8.06836 100.192Z" fill="#EFC094"/>
<path d="M21.0948 78.7051H16.6719V83.6828H21.0948V78.7051Z" fill="#F2DCC6"/>
<path d="M36.3042 78.7051H29.707V100.192H36.3042V78.7051Z" fill="#D99965"/>
<path d="M27.9535 94.6113H17.8945V98.5693H27.9535V94.6113Z" fill="#D99965"/>
<path d="M20.1429 96.2243L19.5178 95.3252L18.8926 96.2243H19.2752V97.244H19.7604V96.2243H20.1429Z" fill="#A36141"/>
<path d="M21.5898 96.2243L20.9553 95.3252L20.3301 96.2243H20.7127V97.244H21.2072V96.2243H21.5898Z" fill="#A36141"/>
<path d="M21.5893 97.3828H18.8926V97.8926H21.5893V97.3828Z" fill="#A36141"/>
<path d="M23.316 96.7153H23.1484V97.5959H23.316V96.7153Z" fill="#A36141"/>
<path d="M23.306 97.5962H23.2313H23.1567L22.5781 97.8928H23.2313H23.8938L23.306 97.5962Z" fill="#A36141"/>
<path d="M22.5039 95.3618V96.0848C22.5039 96.4834 22.8305 96.8078 23.2317 96.8078C23.633 96.8078 23.9596 96.4834 23.9596 96.0848V95.3618H22.5039Z" fill="#A36141"/>
<path d="M23.363 95.3618H23.0644L22.8965 95.7789H23.0924L23.0458 96.4186L23.5683 95.5379H23.2511L23.363 95.3618Z" fill="#D99965"/>
<path d="M26.955 96.2147C26.8337 95.779 26.4324 95.4639 25.9472 95.4639C25.462 95.4639 25.0514 95.779 24.9395 96.2147H26.955Z" fill="#A36141"/>
<path d="M25.9945 97.4942C25.9945 97.5221 25.9666 97.5499 25.9387 97.5499C25.9107 97.5499 25.8828 97.5221 25.8828 97.4942V95.353C25.8828 95.3252 25.9107 95.2974 25.9387 95.2974C25.9666 95.2974 25.9945 95.3252 25.9945 95.353V97.4942Z" fill="#A36141"/>
<path d="M25.8812 97.4941H25.9931V97.6795C25.9931 97.6795 25.9931 97.8 26.0864 97.8093C26.0864 97.8093 26.2264 97.8371 26.2264 97.6888C26.2264 97.6888 26.2264 97.6424 26.2637 97.6424C26.2637 97.6424 26.3104 97.6332 26.3104 97.6888C26.3104 97.6888 26.329 97.9113 26.0864 97.902C26.0864 97.902 25.8718 97.902 25.8812 97.6888V97.4941Z" fill="#A36141"/>
<path d="M74.0122 18.9355V20.1406H71.6701V21.4198C71.9593 21.0768 72.3419 20.9007 72.7991 20.9007C73.3217 20.9007 73.7136 21.049 73.9842 21.3363C74.2548 21.6237 74.3854 22.1799 74.3854 23.0048V24.0801C74.3854 24.6084 74.3574 25.007 74.3108 25.2573C74.2641 25.5076 74.1522 25.7393 73.9842 25.9525C73.8162 26.1657 73.583 26.3233 73.2844 26.4438C72.9858 26.555 72.6125 26.6107 72.1833 26.6107C71.6981 26.6107 71.2688 26.5272 70.8956 26.3604C70.5223 26.1935 70.2611 25.9432 70.1024 25.6095C69.9438 25.2758 69.8691 24.7568 69.8691 24.0616V23.6537H71.754V24.1264C71.754 24.6084 71.7727 24.9607 71.81 25.1646C71.8474 25.3685 71.9593 25.4705 72.1646 25.4705C72.2579 25.4705 72.3326 25.4427 72.3886 25.3778C72.4446 25.3222 72.4819 25.2573 72.4819 25.1832C72.4912 25.1183 72.4912 24.8216 72.5005 24.2933V22.8009C72.5005 22.5228 72.4725 22.3282 72.4072 22.2262C72.3512 22.1242 72.2486 22.0686 72.1086 22.0686C72.0246 22.0686 71.95 22.0964 71.8847 22.152C71.8287 22.2077 71.7914 22.2633 71.7727 22.3189C71.754 22.3745 71.7447 22.5228 71.7447 22.736H69.8785L69.9625 18.9448H74.0122V18.9355Z" fill="#E30613"/>
<path d="M79.4794 21.4845V23.9965C79.4794 24.562 79.4514 24.9791 79.3861 25.2387C79.3208 25.4982 79.1901 25.7392 78.9942 25.9709C78.7982 26.1934 78.5649 26.3603 78.285 26.4622C78.0051 26.5642 77.6971 26.6105 77.3519 26.6105C76.904 26.6105 76.5214 26.5549 76.2228 26.4529C75.9242 26.351 75.6816 26.1841 75.5043 25.9709C75.327 25.7485 75.1964 25.5167 75.1217 25.2757C75.0471 25.0347 75.0098 24.6454 75.0098 24.1171V21.4938C75.0098 20.8079 75.0658 20.2888 75.1871 19.9458C75.3084 19.6028 75.5416 19.3248 75.9056 19.1208C76.2601 18.9169 76.6987 18.8057 77.2026 18.8057C77.6132 18.8057 77.9864 18.8798 78.313 19.0189C78.6396 19.1672 78.8822 19.334 79.0501 19.5472C79.2088 19.7511 79.3208 19.9922 79.3767 20.2517C79.4514 20.4927 79.4794 20.9098 79.4794 21.4845ZM77.5852 20.8449C77.5852 20.4464 77.5665 20.1961 77.5292 20.0941C77.4918 19.9922 77.3985 19.9458 77.2586 19.9458C77.1186 19.9458 77.0253 20.0014 76.9786 20.1034C76.932 20.2146 76.9133 20.4556 76.9133 20.8449V24.5156C76.9133 24.9513 76.932 25.2108 76.9786 25.3035C77.0253 25.3962 77.1093 25.4426 77.2492 25.4426C77.3892 25.4426 77.4825 25.387 77.5292 25.285C77.5758 25.183 77.5945 24.942 77.5945 24.5713V20.8449H77.5852Z" fill="#E30613"/>
<path d="M82.7748 20.2146V21.5031C82.7748 21.8368 82.7468 22.0963 82.6815 22.2632C82.6162 22.43 82.4762 22.5783 82.2709 22.7081C82.0563 22.8379 81.7857 22.8935 81.4405 22.8935C81.0392 22.8935 80.7406 22.8379 80.526 22.7174C80.3207 22.5968 80.1714 22.4578 80.1061 22.291C80.0315 22.1241 79.9941 21.8831 79.9941 21.5679V20.2146C79.9941 19.8438 80.0315 19.5657 80.1061 19.3896C80.1808 19.2135 80.3301 19.0652 80.5447 18.954C80.7593 18.8427 81.0299 18.7871 81.3565 18.7871C81.7111 18.7871 82.0003 18.852 82.2243 18.9725C82.4482 19.093 82.5975 19.2413 82.6722 19.4174C82.7375 19.5936 82.7748 19.8624 82.7748 20.2146ZM81.5804 19.8902C81.5804 19.6955 81.5711 19.5657 81.5524 19.5194C81.5338 19.473 81.4778 19.4452 81.3845 19.4452C81.3005 19.4452 81.2445 19.473 81.2165 19.5194C81.1885 19.5657 81.1792 19.6862 81.1792 19.8809V21.7719C81.1792 21.9851 81.1885 22.1148 81.2165 22.1612C81.2352 22.2075 81.3005 22.2261 81.3938 22.2261C81.4778 22.2261 81.5244 22.1983 81.5524 22.1519C81.5711 22.1056 81.5898 21.9851 81.5898 21.7997V19.8902H81.5804ZM84.977 18.7871L82.019 26.592H81.3005L84.2678 18.7871H84.977ZM86.2833 23.8482V25.1459C86.2833 25.4796 86.2553 25.7299 86.19 25.906C86.1247 26.0729 85.9847 26.2212 85.7794 26.351C85.5648 26.4807 85.2942 26.5364 84.949 26.5364C84.5571 26.5364 84.2491 26.4715 84.0439 26.351C83.8292 26.2305 83.6893 26.0822 83.6146 25.9153C83.54 25.7485 83.5026 25.5075 83.5026 25.2016V23.8482C83.5026 23.4774 83.54 23.2086 83.6146 23.0325C83.6893 22.8564 83.8386 22.7081 84.0532 22.5968C84.2678 22.4856 84.5384 22.43 84.865 22.43C85.2196 22.43 85.5088 22.4949 85.7328 22.6154C85.9567 22.7359 86.0967 22.8842 86.1714 23.0603C86.246 23.2272 86.2833 23.496 86.2833 23.8482ZM85.0889 23.5238C85.0889 23.3291 85.0796 23.1994 85.0609 23.153C85.0423 23.1067 84.9863 23.0789 84.893 23.0789C84.809 23.0789 84.753 23.1067 84.7344 23.153C84.7157 23.1994 84.697 23.3291 84.697 23.5238V25.4148C84.697 25.628 84.7064 25.7577 84.7344 25.8041C84.753 25.8504 84.809 25.869 84.9023 25.869C84.9863 25.869 85.0423 25.8412 85.0609 25.7948C85.0796 25.7485 85.0983 25.628 85.0983 25.4426V23.5238H85.0889Z" fill="#E30613"/>
<path d="M104.703 46.1416H48.1562V51.7033H104.703V46.1416Z" fill="#1D71B8"/>
<path d="M101.903 2.84375H50.9551V48.9129H101.903V2.84375Z" fill="#02A9CE"/>
<path d="M101.903 3.89124V0.0351562L99.0665 2.8438L96.2392 0.0351562L93.4118 2.8438L90.5751 0.0351562L87.7478 2.8438L84.9205 0.0351562L82.0838 2.8438L79.2565 0.0351562L76.4291 2.8438L73.5925 0.0351562L70.7651 2.8438L67.9378 0.0351562L65.1011 2.8438L62.2738 0.0351562L59.4464 2.8438L56.6098 0.0351562L53.7824 2.8438L50.9551 0.0351562V3.89124H101.903Z" fill="#02A9CE"/>
<path d="M94.8307 22.2354H86.1621V23.6258H94.8307V22.2354Z" fill="white"/>
<path d="M94.8307 29.1875H86.1621V30.5779H94.8307V29.1875Z" fill="white"/>
<path d="M94.8307 36.1489H86.1621V37.5393H94.8307V36.1489Z" fill="white"/>
<path d="M77.8949 22.2354H58.0195V23.6258H77.8949V22.2354Z" fill="white"/>
<path d="M72.2869 29.1875H58.0195V30.5779H72.2869V29.1875Z" fill="white"/>
<path d="M75.0955 36.1489H58.0195V37.5393H75.0955V36.1489Z" fill="white"/>
<path d="M58.2246 73.3656L60.3894 71.3542C61.2572 72.1977 62.181 72.6612 63.3568 72.6612C64.6724 72.6612 65.5216 71.9011 65.5216 70.9834C65.5216 70.2419 64.9337 69.6579 63.674 69.6579C63.0675 69.6579 62.4143 69.8711 61.9198 70.1677L60.1655 68.9534L62.1344 62.9746H70.3271L69.562 65.7925H64.1312L63.562 67.4981C64.0753 67.322 64.5885 67.2478 65.139 67.2478C67.4251 67.2478 68.9741 68.5733 68.9741 70.6682C68.9741 73.3842 66.7253 75.5347 63.2448 75.5347C61.1919 75.5532 59.1857 74.5336 58.2246 73.3656Z" fill="#FD6F32"/>
<path d="M70.3633 70.5666C70.3633 66.6549 73.0786 62.7432 77.231 62.7432C80.3383 62.7432 82.2138 64.9122 82.2138 67.7487C82.2138 71.6789 79.4985 75.5721 75.3275 75.5721C72.2388 75.5721 70.3633 73.4215 70.3633 70.5666ZM78.7147 67.9433C78.7147 66.4787 77.9682 65.7743 76.9231 65.7743C75.0289 65.7743 73.8531 68.379 73.8531 70.3904C73.8531 71.8365 74.581 72.5595 75.626 72.5595C77.5296 72.5595 78.7147 69.9548 78.7147 67.9433Z" fill="#FD6F32"/>
<path d="M90.994 63.1786H92.4776L85.2087 70.5107H83.7344L90.994 63.1786ZM83.8463 65.3477C83.8463 64.2168 84.7048 63.0767 85.9832 63.0767C87.1029 63.0767 87.7468 63.8089 87.7468 64.7822C87.7468 65.9131 86.8883 67.0532 85.6193 67.0532C84.4902 67.0532 83.8463 66.3302 83.8463 65.3477ZM86.5244 64.8286C86.5244 64.4393 86.3004 64.1705 85.9365 64.1705C85.4233 64.1705 85.0781 64.7544 85.0781 65.2921C85.0781 65.6814 85.302 65.9502 85.6659 65.9502C86.1885 65.9502 86.5244 65.3755 86.5244 64.8286ZM88.4559 68.9071C88.4559 67.7763 89.3144 66.6361 90.5928 66.6361C91.7125 66.6361 92.3563 67.3591 92.3563 68.3417C92.3563 69.4726 91.5072 70.6127 90.2195 70.6127C89.0998 70.6127 88.4559 69.8804 88.4559 68.9071ZM91.134 68.3973C91.134 68.008 90.9007 67.7392 90.5461 67.7392C90.0236 67.7392 89.6783 68.3139 89.6783 68.8608C89.6783 69.2501 89.9116 69.5189 90.2662 69.5189C90.798 69.5096 91.134 68.9257 91.134 68.3973Z" fill="#FD6F32"/>
<path d="M64.9644 81.9855C66.1073 81.9855 66.6252 83.0131 66.6252 83.8839C66.6252 84.7721 66.0716 85.7475 64.893 85.7475H62.2858V81.9855H64.9644ZM60 92H62.2858V87.7329H65.0002C67.7324 87.7329 68.911 85.8345 68.911 83.8839C68.911 81.9332 67.7324 80 65.0002 80H60V92Z" fill="#FD6F32"/>
<path d="M78.0564 92H80.4672L75.8599 80H73.3955L68.7882 92H71.2169L72.3419 89.0914H76.9313L78.0564 92ZM74.6277 82.5602L76.1813 87.1408H73.1098L74.6277 82.5602Z" fill="#FD6F32"/>
<path d="M86.2499 92V86.566L91 80H88.2678L85.0712 84.6154L81.9104 80H79.1961L83.9105 86.5312V92H86.2499Z" fill="#FD6F32"/>
</g>
<defs>
<clipPath id="clip0">
<rect width="126.316" height="112.281" fill="white" transform="translate(0.193359 0.0351562)"/>
</clipPath>
</defs>
</svg>
