<svg width="200" height="86" viewBox="0 0 200 86" fill="none" xmlns="http://www.w3.org/2000/svg">
<path d="M17.509 19.935C17.1006 19.787 17.3234 20.5269 16.9149 20.6378C16.5065 20.7488 16.0237 20.9707 16.3579 21.0447C16.6921 21.1557 17.3976 21.0077 17.4719 20.8598C17.5462 20.7118 17.6204 19.972 17.509 19.935Z" fill="#02A9CE"/>
<path d="M14.4649 20.9704C13.9821 20.9334 13.4994 20.9704 13.4251 21.1554C13.3509 21.3403 13.8707 21.4883 14.1678 21.4883C14.502 21.4883 15.1333 21.2663 14.9847 21.1924C14.8733 21.1554 14.4649 20.9704 14.4649 20.9704Z" fill="#02A9CE"/>
<path d="M17.0631 16.9019C16.9146 16.9758 17.3602 17.2718 17.5087 17.2718C17.6572 17.2718 17.9543 16.7539 17.6201 16.7539C17.323 16.7539 17.4716 16.7539 17.0631 16.9019Z" fill="#02A9CE"/>
<path d="M18.4758 13.0544C18.4758 13.0544 18.4758 13.0544 18.6986 13.2763C18.9214 13.4982 19.3298 13.6092 19.7011 13.6462C20.0725 13.6832 20.0725 13.4243 19.7754 13.1283C19.5155 12.8324 19.4041 12.9064 19.1813 12.8324C18.9585 12.7954 18.9214 12.4995 18.253 12.4995C17.6217 12.4995 17.696 12.1296 17.6217 11.9446C17.5474 11.7597 18.2158 11.3898 18.4015 11.4268C18.55 11.4638 19.1442 11.3158 19.1442 11.3158C19.1442 11.3158 20.1839 10.8349 20.2953 10.9459C20.4067 11.0569 21.0008 10.8349 21.2979 10.761C21.5949 10.65 21.7435 10.1691 21.7435 10.1691C21.7435 10.1691 22.1148 10.3171 22.3005 10.539C22.4861 10.761 22.9317 10.539 23.0431 10.539C23.1545 10.539 23.8229 10.687 23.8229 10.687C23.8229 10.687 24.4542 10.576 24.7884 10.539C25.1226 10.502 26.0137 10.9089 26.3479 10.9829C26.6821 11.0939 28.3531 10.65 28.5017 10.65C28.6502 10.65 29.2072 11.4638 29.727 11.3528C30.2469 11.2048 30.4697 11.4638 30.6182 11.5008C30.7296 11.5378 30.841 11.5378 31.0638 11.8337C31.2495 12.1296 31.4723 11.8707 31.7322 11.6857C31.9921 11.5008 31.955 11.3158 31.955 11.3158C31.955 11.3158 31.955 11.3158 32.1778 11.2788C32.4006 11.2418 32.5863 11.3898 33.2547 11.4268C33.9231 11.4638 33.7745 11.2788 34.2573 11.0939C34.74 10.9089 35.2227 11.3158 35.3712 11.2788C35.5198 11.2418 35.7426 10.8719 35.854 11.0569C35.9654 11.2418 36.1882 11.6117 36.1882 11.6117C36.1882 11.6117 36.708 11.1309 36.8566 11.1309C37.0051 11.1309 37.9334 11.2048 38.1933 11.1678C38.4533 11.1309 39.1217 11.2048 39.3445 11.4638C39.5673 11.6857 40.1614 11.6487 40.4956 11.8707C40.8298 12.0926 41.1268 11.6857 40.9783 11.5747C40.8298 11.4638 40.4213 11.0939 40.4213 11.0939C40.4213 11.0939 39.8272 10.2431 39.7529 10.0951C39.6787 9.94716 39.5673 9.94716 39.3816 10.3171C39.2331 10.687 38.6389 10.687 37.9334 10.724C37.265 10.761 37.7106 10.3541 36.9308 10.3171C36.1882 10.2801 36.4481 9.94716 36.708 9.94716C36.9308 9.94716 37.1165 9.3923 37.1908 9.05939C37.265 8.72647 37.5621 8.76346 38.1191 8.83744C38.6761 8.87443 38.8246 8.72647 39.3816 8.83744C39.9386 8.94842 39.9015 8.54152 40.4584 8.6155C41.0154 8.65249 40.7555 8.76346 41.0526 8.98541C41.3868 9.20735 41.5724 9.17036 42.018 9.3923C42.4636 9.61424 42.278 9.61425 42.5008 9.68823C42.6864 9.72522 43.3919 9.57725 43.7633 9.54026C44.1717 9.50327 44.4688 9.42929 44.6916 9.72522C44.8773 10.0211 44.8401 10.3171 45.1372 10.576C45.3971 10.7979 44.9887 9.72522 44.9887 9.35531C44.9887 8.98541 45.5457 9.31832 45.917 9.31832C46.2883 9.31832 46.6596 9.17036 46.7339 9.35531C46.8082 9.54026 46.2141 9.83619 46.5854 10.2431C46.9567 10.65 47.1795 10.7979 47.5137 10.7979C47.8479 10.7979 48.5534 10.9089 48.2192 11.3898C47.885 11.9077 47.0681 11.8707 46.771 11.8707C46.474 11.8707 46.0284 12.0556 46.1398 12.3515C46.2512 12.6475 46.8824 12.4995 47.328 12.4995C47.7736 12.4995 49.1104 12.6475 49.4817 12.4995C49.8531 12.3515 49.7788 11.7967 49.3703 11.6487C48.9619 11.5008 49.2961 11.2418 49.7045 11.3158C50.113 11.4268 50.4843 11.1678 50.4101 11.3158C50.3358 11.4638 50.4472 11.7967 50.4472 12.1666C50.4472 12.5365 50.5586 12.7584 50.8557 12.6845C51.1527 12.5735 51.0785 12.2776 51.3755 12.2406C51.6726 12.2036 51.5983 11.6487 51.4127 11.2418C51.2641 10.8349 51.1527 10.576 51.1899 10.3541C51.227 10.1321 51.6726 10.0581 51.8954 10.3171C52.1182 10.539 52.4524 11.0199 52.4524 11.0199C52.4524 11.0199 52.9351 11.3528 53.0836 11.7227C53.2322 12.0926 53.2693 12.0186 53.6035 11.7597C53.9377 11.5378 54.012 11.5747 54.2719 11.7967C54.569 12.0186 54.3462 12.4995 54.3462 12.6475C54.3462 12.7954 54.7546 12.6475 54.8289 12.3515C54.9032 12.0556 55.2374 12.0556 55.423 11.9816C55.6087 11.8707 55.6087 11.3158 55.6087 11.3158C55.6087 11.3158 55.0888 11.1678 54.569 11.2048C54.0491 11.2418 53.9006 11.1678 53.4921 10.8349C53.0836 10.502 53.3436 10.2801 53.1208 9.94716C52.9351 9.61424 53.752 9.42929 54.2719 9.13337C54.7918 8.83745 55.3116 9.0224 55.2002 9.72522C55.0888 10.428 55.0146 10.3171 55.6087 10.2061C56.2028 10.0581 55.5715 9.46628 55.8315 9.3923C56.1285 9.35531 56.8341 9.20735 57.0569 9.24434C57.2797 9.28133 58.6164 9.09638 58.9135 9.09638C59.2477 9.09638 59.7304 9.42929 60.1018 9.65124C60.4731 9.87318 61.4014 10.2061 61.6613 10.3541C61.8841 10.502 63.5551 10.761 63.7408 10.8349C63.8893 10.8719 63.8893 11.4268 64.075 11.9077C64.2235 12.3885 64.6691 12.0556 64.8176 12.0556C64.9662 12.0556 65.5232 12.3885 65.7088 12.6105C65.8574 12.8324 67.0456 13.0174 67.0456 13.0174C67.0456 13.0174 66.7857 13.4243 66.6372 13.5722C66.5258 13.7202 66.2287 13.7942 66.0059 13.9791C65.7831 14.1641 65.486 13.9421 65.1518 13.6832C64.8176 13.4613 64.2606 13.3133 64.1493 13.3873C64.0378 13.4983 64.1121 13.6832 64.1864 13.7942C64.2606 13.9421 64.7805 14.1271 65.1147 14.386C65.4489 14.6819 65.3375 14.9409 65.3746 15.3108C65.4118 15.6807 65.0404 15.1628 64.6691 15.0888C64.2606 14.9779 64.2235 15.4587 64.2235 15.4587C64.2235 15.4587 63.7037 15.4218 63.4809 15.4218C63.2581 15.4218 63.4809 15.4218 63.0353 15.0519C62.5897 14.6819 62.6639 15.2738 62.4411 15.0888C62.2183 14.9039 61.9584 14.608 61.847 14.7189C61.7356 14.8299 61.3271 14.312 61.1044 14.349C60.8816 14.386 59.9161 14.2011 59.6562 14.312C59.4334 14.423 59.2106 14.423 59.0249 14.497C58.8392 14.608 58.7278 13.8312 58.8764 13.6092C58.9878 13.3873 59.2848 13.3133 59.8047 13.4613C60.3246 13.6092 60.3617 13.4613 60.4731 13.2393C60.5845 13.0174 60.6959 12.7584 61.2529 12.5735C61.8099 12.3885 61.2157 12.2406 61.0672 12.1666C60.9187 12.0556 60.6959 11.8707 60.5845 12.1666C60.4731 12.4625 60.176 12.7584 60.176 12.7584C60.176 12.7584 59.8418 12.7584 59.4334 12.7214C58.9878 12.6845 59.322 12.4995 59.5076 12.3885C59.6933 12.2776 59.9532 11.7227 59.7304 11.5747C59.5448 11.4268 59.4334 11.3528 59.0992 11.4268C58.7278 11.5378 58.9878 11.0939 58.7278 10.9459C58.505 10.7979 58.5793 11.0569 58.5793 11.2418C58.5793 11.4268 58.208 11.3898 58.208 11.3898C58.208 11.3898 57.651 11.2788 57.4653 11.3898C57.2797 11.5008 56.9083 11.6857 57.0197 11.7967C57.1311 11.9446 57.5396 11.9446 57.651 12.3515C57.7624 12.7584 57.1311 12.8694 57.0197 12.9064C56.9083 12.9434 56.4256 13.1283 56.4256 13.1283C56.4256 13.1283 55.9429 12.9804 55.5344 12.9804C55.126 12.9804 55.0145 13.0174 55.0888 13.2023C55.1631 13.3873 55.3487 13.3133 55.4973 13.3133C55.6087 13.3133 55.6087 13.5352 55.98 13.4613C56.3513 13.3503 56.2771 13.2393 56.5741 13.6092C56.9083 13.9791 57.2054 13.9421 57.7253 14.2751C58.2451 14.608 57.651 14.9779 57.3539 14.9779C57.094 14.9779 57.094 14.6819 56.9083 14.423C56.7598 14.1271 56.1285 14.46 56.1285 14.46C56.1285 14.46 55.6087 14.7929 55.3488 14.7929C55.0888 14.7929 54.866 14.7559 55.2374 14.423C55.6087 14.0901 54.7918 14.0531 54.7918 13.5722C54.7918 13.0914 54.569 14.386 54.569 14.608C54.569 14.8299 54.309 14.312 53.6406 14.423C52.9722 14.534 53.0836 14.7929 52.1925 15.4587C51.3013 16.1246 51.5612 15.9766 51.6355 16.5685C51.7097 17.1603 51.4869 17.2713 51.8583 17.3823C52.2296 17.4932 52.0811 18.1591 52.3781 18.1221C52.6752 18.0851 52.8608 17.8261 53.4178 18.1591C53.9748 18.492 54.2348 18.566 54.9403 18.7139C55.6087 18.8619 55.9429 18.7879 56.3142 18.6769C56.6855 18.566 57.0197 19.0468 57.0197 19.3797C57.0197 19.7127 57.2425 19.7496 57.2054 20.1935C57.1683 20.6004 57.651 19.8236 57.651 19.8236C57.651 19.8236 57.8367 20.5264 57.6881 20.6374C57.5396 20.7484 57.7253 21.1553 57.9109 21.1183C58.0966 21.0813 58.3936 21.2663 58.6164 21.0073C58.8392 20.7854 58.505 20.0826 58.505 19.7866C58.505 19.4907 58.2822 19.3797 58.1337 19.0838C58.0223 18.7879 58.4679 18.7509 58.6164 19.0468C58.765 19.3428 59.062 19.0838 59.322 18.8619C59.619 18.6399 59.619 18.196 59.619 18.196C59.619 18.196 59.1363 17.4562 58.8021 17.2713C58.4308 17.0863 58.6164 17.0493 58.9506 16.9384C59.322 16.8274 58.9506 16.7164 59.0249 16.1986C59.0992 15.6807 59.0992 15.3478 59.2848 15.3478C59.4705 15.3478 60.2132 15.1998 60.8073 15.2368C61.4014 15.2738 61.6985 15.7917 62.0698 15.8287C62.4783 15.8656 63.1095 15.9766 63.2209 16.1986C63.3323 16.4205 62.5154 16.5685 62.8125 16.9384C63.0724 17.3083 63.4066 17.1603 63.6665 17.3083C63.9636 17.4562 64.2607 17.3453 64.632 16.7904C65.0033 16.2355 65.1518 16.1986 65.2632 16.2725C65.3746 16.3835 66.1544 17.3823 66.3401 17.6412C66.5258 17.8631 66.7486 18.566 66.7857 18.7879C66.8228 19.0098 67.6026 18.8619 67.7511 18.8619C67.8997 18.8619 68.4938 19.3797 68.5681 19.6757C68.6423 19.9716 68.7909 20.0456 69.3107 20.1935C69.8306 20.3415 69.3107 20.8594 69.1993 21.1183C69.0879 21.4142 69.0137 21.4882 68.828 21.8211C68.6795 22.154 68.828 21.8211 69.0137 21.9691C69.1993 22.117 69.2736 22.302 69.6078 22.191C69.942 22.0801 70.0905 22.191 70.2019 22.4869C70.3133 22.7829 70.499 23.0048 70.6104 23.2268C70.7218 23.4487 70.6104 23.8186 70.4618 23.5967C70.3133 23.3747 69.7935 23.4857 69.7935 23.4857C69.7935 23.4857 69.5707 23.7816 69.4593 23.6337C69.385 23.4857 69.2365 23.3007 68.9394 23.4117C68.6795 23.5227 68.3824 23.4117 68.0482 23.4487C67.714 23.4857 67.6026 23.2637 67.8254 23.0788C68.0111 22.8938 68.0482 22.191 68.4567 21.8951C68.8651 21.5992 68.7537 21.1923 68.4567 21.1923C68.1596 21.1923 68.0482 21.5992 67.8997 21.7101C67.7511 21.8211 67.1941 21.5252 66.9342 21.7841C66.6743 22.0061 66.1916 22.191 66.4886 22.302C66.7486 22.413 66.0802 22.7829 65.8574 22.7829C65.6346 22.7829 65.7088 22.191 65.7088 21.9321C65.7088 21.7101 65.3746 22.0801 65.3746 22.0801C65.3746 22.0801 64.7434 21.6732 64.4834 21.9321C64.2606 22.228 63.3695 22.0801 63.1095 22.376C62.8125 22.6719 62.7011 23.3747 62.7011 23.3747C62.7011 23.3747 62.9239 23.2268 63.4066 23.0788C63.8893 22.9308 63.8522 22.9678 64.2235 22.7459C64.632 22.5239 65.0033 22.413 65.3004 22.8569C65.5603 23.2637 65.189 23.5227 65.189 23.5227C65.189 23.5227 65.3375 23.8556 65.5232 23.9296C65.6717 24.0405 65.7088 23.8186 66.0059 23.6337C66.2658 23.4487 66.1544 24.0036 66.2287 24.1885C66.303 24.3735 66.6 24.3735 66.7486 24.1515C66.8971 23.9296 67.0085 23.7446 67.157 23.8556C67.2684 24.0036 67.3798 24.3365 67.5283 24.6694C67.6397 25.0023 66.7114 25.0763 66.5258 25.1503C66.3772 25.1873 65.5974 25.3722 65.486 25.4462C65.3746 25.4832 64.9662 25.9271 64.6691 25.9271C64.3349 25.9271 64.372 25.3722 64.3349 25.0393C64.2978 24.7064 63.8893 25.0763 63.8522 25.2242C63.8151 25.3722 63.4437 25.3352 63.1838 25.3722C62.9239 25.4092 62.4411 25.7421 62.4411 26.112C62.4411 26.4819 62.9981 26.8888 62.8867 27.0738C62.7753 27.2587 61.847 27.1847 61.5871 27.1108C61.3271 26.9998 60.9187 27.2587 61.0301 27.4437C61.1415 27.6286 61.0672 27.9246 60.8073 27.8506C60.5102 27.8136 60.4731 28.1465 60.6216 28.3684C60.733 28.5904 60.2503 29.0713 60.1389 28.8863C60.0275 28.7014 59.7676 28.5904 59.7676 28.8863C59.7676 29.1822 59.9904 29.5521 60.2503 29.922C60.4731 30.2919 59.5819 30.3659 59.2848 30.6619C58.9878 30.9578 58.3936 31.9195 57.9852 32.1045C57.5767 32.2894 57.2425 32.8813 57.4653 33.1032C57.651 33.3252 57.9109 34.3239 58.0223 34.6568C58.1337 34.9897 57.9852 35.9145 57.6139 35.8775C57.2425 35.8405 57.4653 35.2857 57.094 35.1377C56.7227 34.9897 56.537 34.139 56.4627 33.5841C56.3885 33.0292 56.3142 33.3622 56.0543 33.5471C55.8315 33.7321 55.5715 33.1772 55.4601 33.0292C55.3487 32.8813 54.7546 33.2882 54.2719 33.2512C53.7892 33.2142 53.5664 33.2882 53.5664 33.4361C53.5664 33.5841 53.4921 33.991 53.0465 33.7321C52.6009 33.4361 52.5266 33.4361 52.0811 33.4361C51.6355 33.4361 51.2641 33.3992 51.1527 33.5841C51.0785 33.7691 50.6329 34.176 50.3729 34.2869C50.0759 34.3979 49.5931 34.8418 49.8159 34.9528C50.0387 35.0637 50.0387 35.6926 49.8902 36.0625C49.7417 36.4324 49.7788 37.0982 49.8531 37.764C49.9273 38.4299 50.4101 38.8368 50.8557 39.2437C51.3013 39.6505 51.4498 39.7985 51.8954 39.4286C52.341 39.0587 52.4895 39.2806 52.6009 39.3176C52.7123 39.3546 53.0465 39.0957 52.9351 38.6518C52.8237 38.2449 53.0836 37.838 53.455 37.912C53.8263 37.949 54.3462 37.764 54.6061 37.801C54.9032 37.838 55.0517 38.7258 54.6061 39.0957C54.1605 39.4656 54.4204 40.0205 54.309 40.4643C54.2348 40.8712 53.8634 40.9822 54.309 40.9822C54.7546 40.9822 54.6432 41.0932 54.9031 41.1302C55.1631 41.1672 55.4601 40.8342 55.7201 40.7973C55.98 40.7603 56.7227 41.5001 56.6113 41.87C56.4999 42.2399 56.3885 42.9057 56.4256 43.4976C56.4627 44.0894 56.6113 44.1634 56.6855 44.3483C56.7598 44.5333 57.094 44.9402 57.4282 44.7552C57.7995 44.5703 58.1337 44.4223 58.2451 44.2374C58.3565 44.0524 59.1363 44.5703 59.0249 44.7183C58.9506 44.8662 59.2848 45.0142 59.5448 44.8662C59.7676 44.7183 59.9161 44.4963 60.1389 44.1264C60.3617 43.7565 60.7702 43.4236 60.9558 43.3866C61.1415 43.3496 61.6242 42.7947 61.9584 42.8687C62.2926 42.9797 61.847 43.4236 61.8099 43.7195C61.7727 44.0154 61.8099 44.7922 61.9584 44.8292C62.1069 44.8662 62.0327 44.2744 62.2183 43.8305C62.404 43.4236 62.8125 43.1646 62.9981 43.1646C63.1838 43.1646 63.3695 44.1634 63.6294 43.8675C63.9264 43.5715 64.4463 43.6455 64.5948 43.9045C64.7062 44.2004 64.8176 44.3114 64.8176 44.3114C64.8176 44.3114 65.0033 44.1264 65.0033 43.9045C65.0033 43.6825 65.6346 43.4236 66.043 43.7195C66.4515 44.0154 66.2658 44.0894 66.4886 44.1264C66.6743 44.1634 66.8971 43.5346 67.0085 43.4606C67.1199 43.4236 67.0085 44.2004 66.7114 44.6443C66.4515 45.0512 66.9342 44.9402 66.9342 44.9402C66.9342 44.9402 66.9342 44.9402 67.0456 45.0882C67.157 45.2361 67.5655 44.9402 67.714 45.2361C67.8625 45.532 68.1596 45.606 68.3824 46.1239C68.6052 46.6418 68.9023 46.1979 69.385 46.0869C69.8677 45.9759 70.5361 46.6787 71.0188 47.3076C71.5016 47.8994 71.4273 48.3803 71.7244 48.3803C72.0586 48.3803 72.1328 48.8982 72.1328 49.0831C72.1328 49.2681 71.4273 49.675 71.0188 49.7859C70.6104 49.8969 70.6104 50.3408 71.2416 50.1928C71.8729 50.0449 71.613 49.7859 71.9843 49.638C72.3928 49.49 72.7641 49.8229 72.4299 50.3778C72.0586 50.9327 71.353 50.9696 71.9843 51.0806C72.6156 51.1916 72.2814 50.9697 72.6156 50.4148C72.9869 49.8599 72.9498 50.0449 73.1726 50.0449C73.3954 50.0449 73.9152 50.1928 74.138 50.3778C74.3237 50.5628 74.8435 50.8587 75.1777 51.0806C75.5119 51.3026 75.8833 51.2286 76.1432 51.1176C76.366 51.0066 77.0715 51.4135 77.2943 51.7834C77.5171 52.1533 78.1484 52.1903 78.4083 52.3383C78.7053 52.4863 79.1138 53.0411 79.1509 53.522C79.1881 54.0029 78.7054 54.9646 78.6682 55.2236C78.6311 55.4455 77.9998 56.2963 77.4057 56.8511C76.8116 57.406 77.1829 58.0718 77.22 58.3308C77.2572 58.6267 76.8116 59.6254 76.923 59.8844C77.0344 60.1063 76.7744 60.6242 76.5145 60.9571C76.2917 61.29 76.1061 61.8818 75.9575 62.1778C75.809 62.4737 75.2891 62.3627 74.8064 62.5107C74.3237 62.6587 74.1009 62.8066 74.1009 62.8066C74.1009 62.8066 73.284 63.2875 72.8012 63.6574C72.3185 64.0273 72.9497 64.6931 72.727 65.211C72.5042 65.7289 72.2814 65.248 72.0586 65.8768C71.8358 66.4687 71.6501 66.3947 71.4644 66.5427C71.2788 66.6906 71.1302 67.0605 71.0931 67.4304C71.056 67.8003 70.6475 68.1702 70.1276 68.7251C69.6078 69.28 69.2736 69.206 68.7537 69.021C68.1967 68.8361 68.271 67.2455 68.1967 67.4674C68.1225 67.6894 67.8254 68.5032 67.9368 68.6511C68.0111 68.7991 68.5681 69.3539 68.7537 69.4649C68.9394 69.6129 68.9023 69.8348 68.7537 70.0568C68.6052 70.2787 68.1596 71.1295 68.0111 71.1665C67.8625 71.2035 66.6372 71.3884 66.3772 71.2774C66.1544 71.1295 66.0059 71.6104 66.043 71.8693C66.0802 72.1652 66.2658 72.4611 65.8574 72.3872C65.4118 72.2762 64.8176 71.9803 64.8176 72.2022C64.8176 72.4241 64.929 72.942 65.189 72.942C65.4118 72.942 65.6717 72.7571 65.5603 73.09C65.4489 73.4229 65.1147 73.6818 64.9662 73.8298C64.8176 73.9778 64.5948 74.4216 64.2235 74.7545C63.8151 75.0875 63.8151 75.2724 63.8893 75.4204C63.9636 75.5684 64.5577 75.4574 64.6691 75.5683C64.7805 75.6793 64.5577 76.3082 64.4092 76.4561C64.2607 76.6041 63.5923 77.2329 63.2952 77.4549C62.9981 77.6398 62.9981 78.1947 63.1095 78.4906C63.1838 78.7865 63.8151 79.4893 64.1864 79.6003C64.5577 79.7483 65.3004 79.7113 65.2261 79.8223C65.1518 79.9702 64.2606 80.1182 64.1493 80.1552C64.0378 80.1922 63.4066 80.3771 63.0724 80.3771C62.7382 80.3771 62.1441 80.0072 62.0327 80.0072C61.9213 80.0072 62.1069 79.8223 62.5154 79.4524C62.9239 79.0824 62.3669 78.6385 62.2926 79.1564C62.2183 79.6743 62.0698 79.8223 61.847 79.8223C61.6613 79.8223 61.4014 79.4893 61.29 79.3414C61.1786 79.1934 60.6588 79.0455 60.733 78.4906C60.8073 77.9357 60.5102 77.9727 60.2503 77.7508C60.0275 77.5288 60.5845 77.3439 60.4731 77.085C60.3988 76.863 60.0275 76.974 59.9904 76.6781C59.9532 76.3451 60.3246 75.8643 60.3617 75.7533C60.3988 75.6053 60.1389 75.3464 60.0646 75.0875C60.0275 74.8655 60.2132 74.6066 60.5102 74.2367C60.7702 73.8668 60.993 73.3859 60.993 73.2379C60.993 73.09 60.8073 72.5721 60.8073 72.2022C60.8073 71.8323 60.993 71.6843 61.1044 71.1665C61.1786 70.6486 60.8073 70.8336 60.8073 70.4267C60.8073 70.0198 61.2157 70.1307 61.1415 69.7238C61.0672 69.3169 61.3271 69.021 61.4757 68.7251C61.5871 68.4292 61.6985 67.9853 61.8841 67.6524C62.0327 67.3195 61.7356 66.5796 61.7356 66.4317C61.7356 66.2837 62.2555 66.0988 62.0327 65.8398C61.8099 65.5439 62.2555 65.4699 62.4783 65.248C62.7011 65.026 62.2926 64.2123 62.4411 63.3615C62.5525 62.5107 62.6639 61.0681 62.6639 60.9201C62.6639 60.7721 62.7011 60.2173 62.5154 59.8474C62.3297 59.4775 62.0698 59.1815 61.8099 59.0336C61.5499 58.8856 61.1786 58.4787 60.9558 58.4417C60.7702 58.4047 59.5448 57.9978 59.5448 57.332C59.5448 56.6662 59.0992 56.1483 59.0249 55.6674C58.9506 55.1866 58.3565 54.1878 58.3194 53.7069C58.2822 53.2261 57.4282 53.1151 57.3168 52.5972C57.2054 52.0794 57.5025 51.7464 57.5767 51.4135C57.651 51.0806 57.5025 50.3408 57.4653 50.1189C57.4282 49.8969 57.8367 49.1201 58.0594 48.9722C58.2822 48.8242 58.7278 48.3433 58.8764 48.3433C59.0249 48.3433 58.9878 47.8255 59.1734 47.3076C59.322 46.7897 59.0992 46.0869 58.9878 46.0129C58.8764 45.9019 58.765 45.3101 58.5422 45.1251C58.3565 44.9402 57.9481 45.0142 57.9481 45.0142C57.9481 45.0142 58.0223 45.4211 57.651 45.68C57.2797 45.9019 57.2054 45.643 57.094 45.4951C56.9826 45.3471 56.537 45.3101 56.3513 45.0882C56.1657 44.8662 55.8315 44.5333 55.6087 44.3853C55.3859 44.2374 54.7918 44.1264 54.8289 43.5715C54.866 43.0167 54.5318 42.6468 54.3833 42.5728C54.2348 42.4618 53.9006 42.2399 53.7149 42.3878C53.5292 42.5358 53.1579 42.0919 52.898 42.1659C52.638 42.2029 52.0811 41.611 51.8583 41.3521C51.6726 41.1302 51.4869 40.7973 51.1527 40.7973C50.7814 40.7973 50.7443 40.9452 50.5215 41.2781C50.2987 41.611 49.9273 41.0562 49.8159 40.9082C49.7045 40.7603 49.1104 41.0192 48.6648 41.0192C48.2192 41.0192 48.0336 40.1314 47.9964 39.9465C47.9222 39.2437 46.7339 39.2437 46.4368 39.0587C46.1398 38.8737 45.8799 38.1709 45.9913 37.986C46.1027 37.801 45.8056 37.1722 45.8056 37.1722C45.8056 37.1722 45.2486 36.4324 45.0629 36.4324C44.8773 36.4324 44.246 35.1377 43.8747 34.7308C43.5033 34.3609 42.6864 33.5101 42.5379 33.1032C42.3894 32.6963 42.3522 32.0305 41.9438 32.3634C41.5353 32.6963 41.8695 33.0292 42.278 33.3992C42.6864 33.7691 42.6122 34.139 43.1692 34.6568C43.7261 35.1747 43.5033 35.6926 43.7261 35.9145C43.9489 36.1364 44.803 36.7283 44.4317 37.0982C44.0603 37.4681 43.7261 36.6173 43.5405 36.5803C43.392 36.5433 43.0206 36.4324 43.0578 36.1734C43.0949 35.8775 42.7236 35.6556 42.4636 35.2487C42.2037 34.8418 42.0552 35.0637 41.721 35.0637C41.3496 35.0637 41.6838 34.5459 41.8695 34.3239C42.0552 34.102 41.6838 33.7691 41.4239 33.6581C41.2011 33.5471 40.8669 32.4744 40.5327 31.8455C40.1985 31.1797 39.9757 30.8468 39.6044 30.9208C39.2331 30.9578 38.6389 30.6249 38.4161 30.4399C38.1933 30.255 38.2676 29.2192 37.8591 28.7383C37.4507 28.2575 37.1165 27.3697 37.1536 26.8518C37.1908 26.334 37.3022 25.0393 37.3022 24.7064C37.3022 24.3735 37.0051 23.7446 37.0051 23.6337C37.0051 23.4857 36.9308 23.0788 36.7452 23.0418C36.5966 23.0048 36.0768 22.5239 35.7054 22.5239C35.3341 22.5239 35.1856 21.8581 35.297 21.5252C35.4084 21.1923 34.9628 20.6374 34.7771 20.6374C34.5914 20.6374 34.2573 20.0456 34.1459 19.7127C34.0345 19.3797 33.7003 19.3797 33.7745 19.5647C33.8488 19.7496 33.7374 20.0826 33.9231 20.1565C34.1087 20.2675 34.2944 21.0073 34.1087 21.0813C33.9602 21.1923 33.5889 20.7854 33.1804 20.5634C32.7719 20.3415 32.9576 19.3797 32.9576 19.1578C32.9576 18.9359 32.4006 18.6769 32.1778 18.6769C31.955 18.6769 31.6951 18.7139 31.6579 18.1221C31.6208 17.5302 30.9153 17.1973 30.6554 17.1973C30.4326 17.1973 29.0958 16.7534 28.6873 16.7534C28.2789 16.7534 27.6847 16.1616 27.4248 16.3835C27.202 16.5685 26.7564 16.0506 26.4965 16.0506C26.2365 16.0506 26.3851 16.6794 25.9395 17.0124C25.4939 17.3453 25.234 16.7164 24.974 16.9384C24.7512 17.1603 24.1571 17.4192 24.3428 16.8274C24.5284 16.2725 24.5284 16.1616 24.2314 16.3095C23.8972 16.4575 23.8229 16.8274 23.8229 17.0493C23.8229 17.2713 23.2659 17.6412 23.2659 17.6412C23.2659 17.6412 23.7858 17.6782 23.9714 17.6412C24.1571 17.6042 24.0086 18.1591 23.8229 18.307C23.6372 18.455 23.3402 18.8249 23.0431 18.7139C22.7089 18.6029 22.6718 18.307 22.4861 18.233C22.3005 18.196 22.0777 18.8249 21.335 19.2688C20.6295 19.6757 20.5181 19.0838 20.2581 19.2318C19.9982 19.3797 18.9956 19.7866 18.6243 19.8236C18.253 19.8606 18.3272 19.3058 18.55 19.3058C18.7357 19.3058 19.5155 18.8989 19.7011 18.7509C19.8868 18.6029 20.778 18.233 21.0008 18.0851C21.2236 17.9371 21.6321 17.7152 21.4835 17.4192C21.335 17.1233 20.8151 17.5672 20.8151 17.5672C20.8151 17.5672 20.4067 17.1603 20.2953 17.0493C20.1839 16.9384 19.9239 17.4192 19.9239 17.4192C19.9239 17.4192 19.4041 17.3083 19.5155 16.8274C19.6269 16.3095 19.2556 16.3095 19.1442 16.5315C19.0699 16.7534 18.4015 17.1233 18.3644 16.9014C18.3272 16.6794 17.7331 16.1986 17.5846 15.8287C17.436 15.4587 17.7331 15.4218 18.1044 15.0888C18.4758 14.7559 18.9956 14.6819 19.4041 14.7189C19.8497 14.7559 20.1096 14.1641 19.9611 14.1271C19.8125 14.0901 19.5155 14.0161 19.2927 14.2751C19.0699 14.497 18.4386 14.46 18.4386 14.46C18.4386 14.46 17.5474 14.46 17.2132 14.1641C16.8419 13.8682 16.6562 13.4613 16.6562 13.4613C16.6562 13.4613 17.3618 13.1283 17.9188 13.0914L18.4758 13.0544ZM54.9031 26.9998C55.3116 27.0368 55.3116 26.4079 55.2745 26.186C55.2373 26.001 55.2373 25.1873 55.3859 25.0763C55.5344 24.9283 55.7572 24.5214 56.1657 24.4844C56.6113 24.4474 56.8712 24.8174 56.8341 25.2242C56.7969 25.6311 56.9083 26.075 57.0569 26.075C57.2054 26.075 57.6881 25.7421 57.5396 25.4832C57.3911 25.1873 57.651 24.2625 57.651 24.5954C57.651 24.9283 57.9852 25.1503 58.1708 25.1133C58.3565 25.0763 57.9852 24.2255 57.6881 24.1885C57.3911 24.1515 56.8712 24.1515 56.7227 24.1885C56.6113 24.2255 55.9429 23.9666 55.6087 24.0036C55.2745 24.0405 54.8289 24.1885 54.6432 24.5584C54.4947 24.9283 54.6432 25.6311 54.6061 25.9271C54.6061 26.149 54.5318 26.9628 54.9031 26.9998ZM57.1311 26.9998C57.2054 27.2217 57.651 27.0368 57.8738 26.7778C58.0966 26.4819 58.6164 26.4079 58.8021 26.186C58.9506 25.9641 59.062 26.001 59.4705 25.8161C59.879 25.6311 60.176 25.5942 60.0275 25.3352C59.879 25.1133 59.0249 25.3352 58.9135 25.2242C58.8021 25.1133 57.9481 26.26 57.9481 26.26C57.9481 26.26 57.2425 26.5929 57.2054 26.7409C57.1683 26.8518 56.9826 26.7039 57.1311 26.9998ZM52.9722 23.3747C52.9722 23.6337 53.3807 23.6706 53.6035 23.5227C53.8263 23.3747 54.1976 23.3007 54.3462 23.2268C54.4947 23.1898 54.4204 23.4487 54.7918 23.4487C55.1631 23.4487 55.5715 23.5967 55.7201 23.5597C55.8315 23.5227 56.2028 22.9678 55.9057 22.8938C55.6087 22.8569 55.2002 22.5239 54.9403 22.228C54.7175 21.9321 54.1605 22.5979 53.6406 22.8199C53.1208 23.1158 52.9722 23.0048 52.9722 23.3747ZM36.6709 21.8581C36.3367 21.7471 36.7823 22.413 37.0051 22.5609C37.1908 22.7089 37.5992 22.7089 37.6363 22.9308C37.6735 23.1528 37.7849 23.7446 38.0077 23.6706C38.1933 23.6337 38.1933 23.1158 38.0448 22.9308C37.8963 22.7459 37.3022 22.191 37.1536 22.191C37.0422 22.191 36.7823 21.8951 36.6709 21.8581Z" fill="#02A9CE"/>
<path d="M56.3127 15.4217C56.2013 15.5697 56.7954 15.7546 56.9068 15.5697C57.0182 15.3847 56.5726 15.0888 56.3127 15.4217Z" fill="#02A9CE"/>
<path d="M57.8732 15.7179C57.4647 15.8658 57.836 16.1988 58.096 16.0878C58.3559 15.9398 58.2445 15.5699 57.8732 15.7179Z" fill="#02A9CE"/>
<path d="M38.0817 8.09762C38.0445 8.28258 38.3044 8.28258 38.6758 8.28258C39.01 8.28258 39.567 8.28258 39.7526 8.17161C39.9012 8.06063 40.7181 7.87568 40.681 8.13462C40.6438 8.43054 41.0152 8.83743 41.2008 8.80044C41.3865 8.72646 41.7578 8.31957 41.9435 8.50452C42.1291 8.65248 42.1663 9.02239 42.3519 9.13336C42.5376 9.24433 43.0575 9.24433 43.2803 9.13336C43.5031 9.02239 44.1715 9.02239 44.4685 9.09637C44.7656 9.17035 45.6196 9.3553 45.6939 9.17035C45.7682 8.9854 46.0281 8.94841 46.0281 8.76345C46.0652 8.5785 46.1766 7.98665 46.1766 7.98665C46.1766 7.98665 46.0281 7.65374 45.7682 7.8017C45.5082 7.94966 45.434 8.06063 45.174 7.98665C44.9512 7.91267 44.9512 7.43179 44.5056 7.50577C44.0972 7.61675 43.9858 7.87568 43.8744 7.98665C43.7259 8.09762 43.4659 8.2086 43.3545 8.13462C43.2431 8.06063 42.649 7.65374 42.649 7.65374C42.649 7.65374 41.3865 7.57976 41.3122 7.39481C41.2751 7.20985 41.0523 6.91393 40.4582 6.95092C39.864 7.0249 38.8614 7.4318 38.7129 7.4318C38.5644 7.4318 38.8986 7.8017 38.6758 7.8017C38.4158 7.83869 38.1559 7.8017 38.0817 8.09762Z" fill="#02A9CE"/>
<path d="M42.5749 6.80365C42.2778 6.91462 42.3521 7.28453 42.5377 7.28453C42.7605 7.28453 43.2804 7.06258 43.4289 7.21055C43.5774 7.35851 43.9859 7.24754 43.9488 7.09957C43.9116 6.95161 44.0973 6.32277 43.8002 6.28578C43.5032 6.24879 43.0576 6.6187 42.5749 6.80365Z" fill="#02A9CE"/>
<path d="M46.1754 6.39668C46.1383 6.61863 46.3982 6.80358 46.6953 6.80358C47.0295 6.80358 47.6979 6.61863 47.7721 6.76659C47.8093 6.91455 47.735 7.06251 48.1063 7.0995C48.4777 7.17348 48.6262 7.21048 48.849 7.21048C49.0718 7.21048 48.9975 6.80358 48.8119 6.50766C48.6262 6.21173 48.6633 6.24872 48.2177 6.10076C47.735 5.9528 47.2523 5.9528 46.9552 5.98979C46.5839 6.06377 46.2497 5.9528 46.1754 6.39668Z" fill="#02A9CE"/>
<path d="M46.6971 7.83872C46.5115 8.06067 46.6971 8.68951 46.6229 8.7265C46.5486 8.80048 46.66 9.05941 46.8457 9.02242C47.0685 8.94844 47.1799 8.35659 47.3284 8.35659C47.4769 8.35659 48.2939 8.13465 48.4424 8.46756C48.5909 8.80048 48.5909 8.65252 48.9622 8.68951C49.3336 8.7265 49.6306 8.24562 49.6678 8.09765C49.7049 7.94969 49.4821 7.61678 48.9622 7.69076C48.4424 7.76474 46.9199 7.61678 46.6971 7.83872Z" fill="#02A9CE"/>
<path d="M47.6611 9.5034C47.4754 9.65136 47.5868 10.0952 47.8839 10.1322C48.1809 10.1692 48.6637 9.9103 48.7379 10.0952C48.7751 10.2802 48.9607 11.131 49.4435 10.8351C49.9262 10.5391 49.8891 10.3172 50.0376 10.2802C50.1861 10.2432 50.0005 9.57738 49.8148 9.39243C49.592 9.24447 48.9236 9.31845 48.7379 9.42942C48.5151 9.54039 47.9581 9.28146 47.6611 9.5034Z" fill="#02A9CE"/>
<path d="M50.6688 9.76243C50.7059 9.83641 50.8916 10.0214 51.2629 9.94738C51.5971 9.8734 52.117 9.83641 52.3398 9.79942C52.5626 9.76243 52.6369 9.28155 52.3769 9.28155C52.117 9.24456 51.8942 8.98563 51.6714 9.05961C51.4115 9.13359 50.5945 9.54048 50.6688 9.76243Z" fill="#02A9CE"/>
<path d="M50.5953 8.46784C50.4839 8.80076 51.6721 8.98571 51.5236 8.57881C51.3751 8.20891 50.7438 8.09794 50.5953 8.46784Z" fill="#02A9CE"/>
<path d="M50.817 6.87738C50.4828 6.76641 49.9258 6.65544 49.9258 6.58146C49.9258 6.47049 49.7773 7.02534 50.0743 7.17331C50.3714 7.32127 50.8541 7.6172 51.1883 7.76516C51.5225 7.91312 52.1909 7.95011 52.4137 8.24603C52.6365 8.54196 53.342 8.80089 53.342 8.80089L54.1961 8.91186C54.1961 8.91186 54.7902 8.7639 55.3843 8.80089C55.9785 8.87487 56.9068 8.94885 57.3895 8.91186C57.9094 8.87487 57.9836 8.68992 58.0208 8.57895C58.0579 8.46798 57.0925 8.20904 56.8697 8.24603C56.6469 8.28302 55.2729 8.28302 54.8645 8.24603C54.456 8.20904 53.9733 8.20904 53.6391 8.24603C53.3049 8.28302 53.0821 7.9871 52.8593 7.83914C52.6365 7.69118 52.0795 7.17331 51.7825 7.13632C51.4111 7.06234 51.4854 7.06234 50.817 6.87738Z" fill="#02A9CE"/>
<path d="M84.0524 13.3505C83.941 13.5724 83.7182 13.5724 83.941 14.0163C84.1638 14.4602 84.3124 14.7191 84.498 14.6821C84.6837 14.6451 85.3149 14.6081 85.3892 14.8671C85.4635 15.126 85.6863 15.3479 86.1319 15.163C86.5775 15.015 86.9488 14.9041 87.0602 14.7191C87.1716 14.5341 87.8771 14.4972 87.8771 14.4972C87.8771 14.4972 88.4712 13.9793 88.2484 13.7573C88.0257 13.5354 87.5429 13.3874 87.283 13.3505C87.0602 13.3135 86.8003 13.5724 86.2804 13.5724C85.7605 13.5724 85.3892 13.8313 85.2036 13.5724C85.0179 13.3135 84.1638 13.2025 84.0524 13.3505Z" fill="#02A9CE"/>
<path d="M61.4764 7.17308C61.7734 7.43201 61.922 7.28405 62.2933 7.35803C62.6646 7.469 62.9617 8.13483 63.1473 8.2458C63.333 8.35677 63.5929 8.2458 63.7415 8.06085C63.8529 7.8759 64.0385 7.21007 64.0385 7.21007C64.0385 7.21007 64.0385 7.83891 64.3356 7.94988C64.6327 8.06085 65.3382 7.83891 65.561 7.8759C65.7466 7.91289 66.8978 8.09784 67.1948 8.28279C67.4919 8.46774 68.2717 8.57872 68.4945 8.98561C68.7173 9.39251 68.7544 10.7981 68.8658 10.9461C68.9772 11.0941 69.3857 10.4652 69.4971 10.2803C69.6085 10.1323 70.0912 10.2063 70.2769 10.4282C70.4625 10.6502 70.8338 11.1681 70.7967 11.39C70.7596 11.6119 70.6853 11.9449 70.5368 11.8339C70.3883 11.7229 70.1655 11.7229 70.2397 11.501C70.3511 11.242 70.3883 10.7242 70.2026 10.7242C70.0169 10.7242 69.8313 10.7242 69.8313 10.7242C69.8313 10.7242 69.4599 10.6132 69.2371 11.0571C68.9772 11.538 69.2 11.9818 69.3485 11.9818C69.5342 11.9818 69.9055 11.9818 69.9055 12.0928C69.9055 12.2038 69.4971 12.6107 69.5342 12.7956C69.5713 13.0176 69.8684 13.7574 69.9798 13.9054C70.0912 14.0533 70.5739 14.2013 70.7225 14.2383C70.871 14.2753 70.3883 14.3122 70.4997 14.5342C70.611 14.7561 70.7967 15.274 71.0938 15.422C71.3537 15.5329 72.0964 16.1248 72.2078 16.3467C72.3192 16.6057 72.8762 16.1618 73.0247 16.1248C73.1361 16.0878 73.1361 16.7906 73.4703 16.8276C73.8045 16.8646 73.9159 16.7536 74.2129 16.4947C74.51 16.1988 74.4357 15.8289 74.4729 15.5699C74.51 15.274 74.4729 15.0891 74.7699 15.163C75.067 15.274 75.2527 15.0891 75.2155 14.7931C75.1784 14.4972 74.9185 14.0903 75.4383 14.0163C75.9582 13.9054 76.2181 13.5354 76.5152 13.5354C76.8123 13.5354 77.7034 13.6834 77.8148 13.5354C77.9262 13.3875 78.3347 12.4627 78.5946 12.4257C78.8546 12.3887 79.5601 12.5367 80.1913 12.4257C80.8226 12.3148 81.491 11.8339 81.7138 11.8709C81.9366 11.9079 82.4564 11.9079 82.3079 11.7229C82.1223 11.538 81.8995 11.0941 81.5281 11.0941C81.1568 11.0941 81.1197 10.1323 81.1939 10.1323C81.3053 10.1323 82.1594 10.5022 82.1594 10.7981C82.1223 11.0941 82.3079 11.501 82.7906 11.39C83.2734 11.279 83.1991 10.7981 83.0877 10.6872C82.9763 10.5762 82.902 10.2433 82.8278 10.0213C82.7164 9.79941 82.4936 9.13358 83.0134 9.0596C83.5333 8.98561 84.4988 9.72542 84.4616 9.20755C84.4245 8.68969 84.4616 8.17182 84.6102 7.91289C84.7587 7.61696 85.0558 7.43201 84.9072 7.35803C84.7216 7.24706 84.5359 7.469 84.3502 7.02512C84.1646 6.54424 84.4988 6.21132 84.6844 6.02637C84.8701 5.84142 85.9098 4.62073 86.4668 4.43578C87.0238 4.25083 87.3951 3.54801 87.0238 3.36305C86.6525 3.21509 85.8727 2.91917 85.3528 3.43703C84.833 3.9549 84.5359 4.39879 83.9789 4.25083C83.3848 4.10286 83.3105 3.25208 82.9763 2.84519C82.4936 2.21635 82.7906 0.995661 82.2708 1.10663C81.7509 1.2176 81.7509 1.2176 81.7509 1.2176C81.7509 1.2176 81.1568 1.10663 80.7855 1.18061C80.3027 1.29158 79.9685 1.66149 79.7086 1.58751C79.1516 1.43955 78.6689 1.77246 78.5575 1.80945C77.3692 2.10537 76.4038 1.69848 76.2553 1.66149C76.1067 1.6245 77.0722 1.80945 77.852 1.66149C78.4461 1.55052 79.4116 1.32857 79.8571 1.2176C80.3399 1.10663 79.9685 0.884687 79.7829 0.884687C79.1516 0.810706 78.2233 0.514782 77.5178 0.477792C76.9236 0.440801 76.5523 0.662744 75.9953 0.662744C75.2527 0.699735 74.3615 0.625753 73.8045 1.06964C73.2846 1.43954 72.6534 1.47654 72.5791 1.55052C72.282 1.92042 72.0221 2.84519 71.7622 2.62324C71.5022 2.36431 71.4651 1.73547 71.0938 1.9944C70.7596 2.25334 71.0566 2.88217 70.7596 3.28907C70.4625 3.73296 69.6456 3.65898 69.3857 3.51102C69.1257 3.36305 68.9029 3.21509 67.9375 3.28907C66.972 3.36305 65.8952 3.73296 66.118 4.10286C66.3408 4.47277 65.6724 4.69471 65.5238 4.50976C65.3382 4.32481 64.5955 4.7317 64.6327 5.10161C64.6698 5.47151 64.5213 5.9154 64.1128 5.80443C63.7043 5.69346 63.4073 6.02637 63.3701 6.3223C63.333 6.61822 62.4418 6.84016 62.3675 6.84016C62.219 6.84016 61.0308 6.80317 61.4764 7.17308Z" fill="#02A9CE"/>
<path d="M56.0531 37.4682C56.016 37.949 56.4245 37.8011 56.9072 37.8011C57.3899 37.8011 58.2068 37.6901 58.3925 37.949C58.541 38.171 59.2837 38.5409 59.4694 38.7628C59.655 38.9478 60.2863 38.9848 60.3605 38.7998C60.3977 38.6149 59.915 38.097 59.655 38.134C59.3951 38.171 58.7638 37.8011 58.4668 37.4682C58.1326 37.1353 57.5384 37.1353 57.3156 37.1353C56.9815 37.1353 56.0531 37.4682 56.0531 37.4682Z" fill="#02A9CE"/>
<path d="M58.9488 36.1738C58.5775 36.2107 58.6889 36.7286 59.0974 36.6546C59.543 36.5437 59.283 36.1368 58.9488 36.1738Z" fill="#02A9CE"/>
<path d="M59.1342 40.0575C58.7629 40.1315 58.8372 40.9822 59.2828 40.8343C59.7284 40.6493 59.5056 39.9835 59.1342 40.0575Z" fill="#02A9CE"/>
<path d="M64.4098 39.5399C64.0384 39.6139 64.1498 40.4647 64.5583 40.3167C65.0039 40.1317 64.744 39.4659 64.4098 39.5399Z" fill="#02A9CE"/>
<path d="M60.7695 39.7248C60.7695 39.7248 61.2151 39.8357 61.4751 39.8357C61.7721 39.8357 61.9207 40.0207 62.1434 40.1686C62.3662 40.3166 62.8118 39.9837 62.9604 39.9837C63.1089 39.9837 63.3317 40.5385 63.3688 39.9467C63.406 39.3548 62.8861 39.0589 62.589 38.948C62.2549 38.837 61.9207 38.948 61.6607 38.9849C61.4379 39.0219 60.7695 39.7248 60.7695 39.7248Z" fill="#02A9CE"/>
<path d="M94.0775 30.551C94.226 30.4401 94.8573 30.2181 95.2286 30.0332C95.6 29.8482 96.7511 29.3673 96.8996 29.3673C97.0481 29.3673 99.0533 29.4043 99.3133 29.2564C99.6103 29.1084 100.65 28.9235 100.984 29.9592C101.318 30.9949 100.613 30.588 100.316 30.773C99.9816 30.9579 100.427 31.3648 100.576 31.3648C100.724 31.3648 101.281 31.9567 101.578 31.9567C101.875 31.9567 102.544 32.2896 102.544 32.2896C102.544 32.2896 103.212 32.8814 103.584 32.8814C103.955 32.8814 104.549 33.6212 104.957 33.1404C105.366 32.6595 105.552 31.6977 105.96 31.8087C106.369 31.9197 106.777 32.2896 107.297 32.2896C107.817 32.2896 108.782 32.1786 108.931 32.4376C109.079 32.6595 107.854 33.4733 107.928 33.6582C108.002 33.8432 108.151 33.8062 108.559 33.2513C108.968 32.6965 109.562 32.6965 110.045 32.5485C110.527 32.4006 110.75 33.2883 110.824 33.5843C110.899 33.8802 111.27 34.398 111.53 34.9899C111.827 35.5817 112.087 36.4325 112.421 37.0984C112.755 37.7642 112.384 39.0589 112.718 39.5027C113.052 39.9096 113.869 40.2795 114.055 40.8714C114.241 41.4263 114.723 41.9811 114.909 42.0551C115.058 42.0921 115.726 43.1648 115.8 43.4607C115.837 43.7567 115.577 44.3485 116.209 44.3855C116.84 44.4225 117.397 44.0526 117.62 43.9786C117.805 43.8676 119.365 43.1648 119.551 43.4607C119.736 43.7567 119.291 44.9773 119.216 45.2733C119.179 45.6062 118.028 47.1968 117.991 47.6037C117.954 48.0106 117.286 48.7874 116.84 48.8613C116.394 48.9723 115.503 50.267 115.169 50.6739C114.835 51.0808 114.315 52.0425 114.092 52.1165C113.869 52.2275 113.684 53.4482 113.795 53.6331C113.906 53.8181 113.944 54.6689 114.315 55.0388C114.686 55.4087 114.798 55.7046 114.649 56.0375C114.501 56.3704 114.723 57.1102 114.649 57.7391C114.575 58.3309 113.906 58.9598 113.721 59.1447C113.572 59.3297 112.792 59.8475 112.495 60.3284C112.161 60.8093 111.901 61.2162 111.976 61.4381C112.05 61.6601 112.384 62.8438 112.347 63.1397C112.31 63.4356 111.27 63.5836 110.936 63.7685C110.602 63.9535 111.084 64.5453 111.159 64.9522C111.233 65.3221 110.602 65.951 110.342 66.2469C110.045 66.5798 109.302 67.6895 108.782 68.1334C108.262 68.5403 107.52 68.4663 107 68.4293C106.48 68.3923 105.626 68.8362 105.44 69.0582C105.255 69.2801 104.957 69.2431 104.549 69.0212C104.141 68.7992 104.103 68.4663 104.066 67.9485C104.029 67.4306 103.918 67.0977 103.918 67.0977C103.918 67.0977 103.806 66.3209 103.435 65.914C103.064 65.5441 102.952 65.1002 102.767 64.8413C102.581 64.5453 103.138 63.7685 103.101 63.2507C103.064 62.7328 102.358 62.1409 102.172 61.808C101.987 61.4751 101.578 60.5873 101.43 60.2544C101.281 59.9215 101.058 59.2557 101.096 58.3309C101.133 57.4062 101.541 56.8513 101.875 56.5554C102.21 56.2595 102.061 55.9265 101.801 55.3717C101.504 54.8168 101.838 53.8551 101.615 53.5591C101.393 53.2262 101.021 51.4137 100.576 51.1178C100.13 50.8218 99.6846 50.8218 99.9074 50.193C100.13 49.5272 99.9074 48.8983 100.316 48.4545C100.724 48.0476 100.502 47.7516 100.093 47.4557C99.6474 47.1598 99.8331 47.0488 99.4618 47.3447C99.0905 47.6777 98.6077 47.8626 98.3478 47.5297C98.0507 47.1968 98.1621 46.6789 97.6423 46.309C97.1224 45.9391 96.3055 46.0501 96.0827 46.161C95.897 46.272 95.4886 47.0488 94.9316 47.1598C94.3746 47.2708 93.9661 47.1228 93.4091 47.1228C92.8521 47.1228 92.3694 47.1598 92.2951 47.4927C92.2209 47.8256 92.1095 48.0106 91.7381 47.6776C91.3668 47.3447 90.6613 46.6049 90.6613 46.6049C90.6613 46.6049 89.9929 45.3103 89.8072 44.7554C89.6216 44.2005 88.916 44.1636 88.1734 43.7567C87.4307 43.3498 87.8392 42.8689 87.7649 42.388C87.6906 41.9071 87.2822 41.7222 87.4679 41.6852C87.6535 41.6482 87.6164 41.3153 88.062 40.6494C88.5076 39.9836 88.2105 39.2808 88.1362 38.9109C88.062 38.541 87.6535 37.9861 88.062 37.3573C88.4704 36.7654 88.6932 35.2858 89.0274 34.9159C89.3616 34.546 90.2899 34.1761 90.7355 33.9172C91.1811 33.6952 90.8841 33.0664 91.144 32.3636C91.3668 31.6608 91.7381 31.3278 91.8495 31.3278C91.9609 31.3278 92.4065 30.847 92.8893 30.551C93.1121 30.3661 93.929 30.662 94.0775 30.551ZM111.456 49.7861C111.344 49.6012 110.676 49.6381 110.527 49.8971C110.416 50.119 110.305 51.1917 110.639 51.3027C111.047 51.3767 111.679 50.156 111.456 49.7861Z" fill="#02A9CE"/>
<path d="M118.696 56.7037C118.213 56.5187 118.139 57.2955 117.73 57.8134C117.322 58.3312 116.913 58.7381 116.728 58.7011C116.579 58.6642 115.688 59.0341 115.985 59.7369C116.245 60.4397 116.208 61.1425 115.948 61.4754C115.651 61.8083 116.171 62.7331 116.097 63.251C116.022 63.7688 116.208 64.1018 116.765 64.1018C117.322 64.1018 117.508 63.8798 117.768 63.251C117.99 62.6591 118.027 62.0303 118.287 61.5124C118.51 60.9946 118.733 59.9218 118.844 59.6259C118.956 59.33 119.216 58.4422 119.179 57.9243C119.141 57.4805 118.993 56.8146 118.696 56.7037Z" fill="#02A9CE"/>
<path d="M133.142 44.6814C132.882 44.8293 132.622 47.0858 133.104 47.2707C133.587 47.4557 133.921 45.8651 133.736 45.6431C133.587 45.3842 133.513 44.4964 133.142 44.6814Z" fill="#02A9CE"/>
<path d="M99.6492 27.2222C99.2779 27.2222 99.0922 27.925 99.315 28.1469C99.5378 28.3689 99.7977 28.3319 99.9834 27.999C100.206 27.703 99.872 27.2222 99.6492 27.2222Z" fill="#02A9CE"/>
<path d="M96.6408 27.9614C96.5294 28.1463 96.975 28.1833 97.0493 27.9983C97.1236 27.8504 96.9008 27.4805 96.6408 27.9614Z" fill="#02A9CE"/>
<path d="M101.356 28.7752C101.208 28.8862 101.579 29.1821 101.802 29.2931C101.988 29.4041 102.173 29.663 102.322 29.7C102.47 29.737 102.99 29.7 102.842 29.2191C102.693 28.7382 102.322 28.7382 102.21 28.7382C102.099 28.7752 101.579 28.6273 101.356 28.7752Z" fill="#02A9CE"/>
<path d="M91.8494 19.3063C91.478 19.3803 91.4409 19.8242 91.2181 19.8242C90.9953 19.8242 90.6983 19.9351 90.7725 20.2311C90.8468 20.564 90.9953 20.7859 90.7725 20.9339C90.5497 21.0819 90.8097 21.6367 91.1438 21.6737C91.478 21.7107 91.8122 21.4518 92.1093 21.3038C92.4064 21.1558 92.7777 20.8969 92.7777 20.453C92.7777 20.0461 92.7034 19.6392 92.5549 19.4543C92.3692 19.3063 92.1093 19.2693 91.8494 19.3063Z" fill="#02A9CE"/>
<path d="M92.2957 17.9003C91.9615 18.0113 92.11 18.4922 92.2585 18.7511C92.4071 18.9731 92.7041 19.4909 93.0755 19.6759C93.4839 19.8608 94.3008 20.0458 94.0038 20.2307C93.6696 20.4157 92.7784 21.3405 92.7041 21.6364C92.6299 21.9323 93.7438 21.7843 93.7438 21.7843C93.7438 21.7843 93.521 22.1173 93.7067 22.1912C93.8924 22.3022 94.0409 21.8583 94.338 21.8583C94.6722 21.8583 95.3034 22.0803 95.6005 22.0803C95.9347 22.0803 96.4174 21.5624 96.3803 21.2295C96.3432 20.8966 95.9347 20.3787 95.6005 20.1937C95.2292 20.0088 94.8578 19.158 94.5979 18.9731C94.3751 18.7881 95.4891 18.1593 95.192 17.8264C94.895 17.4934 94.078 17.7154 93.7438 17.4564C93.4097 17.2345 93.1497 17.4934 92.9641 17.7894C92.7784 18.1593 92.5556 17.8264 92.2957 17.9003Z" fill="#02A9CE"/>
<path d="M94.9329 24.4111C94.8958 24.0042 94.116 23.5973 93.5962 23.5233C93.0763 23.4124 93.1506 23.1534 93.7076 23.1164C94.2645 23.0795 94.2274 22.8205 94.7101 22.7465C95.1929 22.6356 95.6756 22.5246 96.0098 22.4506C96.3811 22.4136 96.3811 22.0437 96.3811 21.7478C96.3811 21.4519 97.3837 21.3779 97.3837 21.3779C97.3837 21.3779 97.9407 20.786 98.2749 20.4901C98.6091 20.1942 99.1661 20.2682 99.5746 20.3791C100.02 20.5271 99.5374 20.0462 99.3889 19.8243C99.2404 19.6023 99.3518 19.0845 99.4632 18.7886C99.5746 18.4926 100.28 18.3817 100.503 18.4556C100.689 18.5666 100.503 18.9735 100.54 19.3434C100.577 19.7133 100.911 19.9353 100.911 19.9353L101.246 19.8983C101.246 19.8983 101.246 19.8983 101.765 19.8983C102.285 19.8983 102.322 19.8983 102.694 19.7503C103.102 19.6023 103.399 19.7873 103.548 19.6763C103.696 19.5654 104.142 19.5654 104.736 19.8243C105.33 20.0462 104.996 19.4174 105.144 19.0105C105.256 18.6406 105.516 17.9748 105.887 18.0118C106.296 18.0487 106.593 18.3447 106.927 18.1227C107.261 17.9008 106.333 17.5679 106.333 17.4199C106.333 17.2719 107.075 17.2719 107.781 17.235C108.449 17.198 108.858 17.235 109.192 17.124C109.526 17.013 108.969 16.3842 108.821 16.3842C108.709 16.3842 107.892 16.4951 107.521 16.4212C107.113 16.3842 106.704 16.7171 106.333 16.7911C105.961 16.902 105.887 16.2362 105.701 15.9403C105.516 15.6444 105.404 15.1635 105.924 14.8676C106.444 14.5716 107.372 13.9798 107.521 13.6839C107.67 13.3879 106.89 13.4619 106.147 13.4989C105.404 13.5359 106.258 13.7948 105.553 14.6086C104.847 15.4594 104.476 14.9046 103.919 15.4594C103.362 16.0143 103.771 16.0513 104.29 16.2732C104.81 16.4582 104.365 17.013 104.253 17.161C104.142 17.3089 103.548 17.8268 103.622 18.1967C103.696 18.5666 103.214 18.7886 103.214 18.7886C103.214 18.7886 101.728 19.1585 101.468 19.1954C101.208 19.2324 101.097 18.9735 101.208 18.6776C101.283 18.3817 100.874 17.7528 100.837 17.3089C100.8 16.902 100.206 17.4939 100.169 17.7898C100.132 18.0857 99.3889 18.1227 98.9433 17.9378C98.4977 17.7528 98.2749 17.05 98.3492 16.902C98.4234 16.7541 98.1264 16.0513 98.1264 15.8663C98.1264 15.6814 99.0547 14.3127 99.7973 14.1277C100.54 13.9428 101.468 13.4619 101.951 13.018C102.471 12.5372 102.694 11.9823 102.879 11.8343C103.028 11.6864 105.776 10.1328 106.778 9.94782C107.781 9.76287 109.972 10.9096 110.306 10.9836C110.677 11.0945 110.863 11.2055 111.754 11.5754C112.645 11.9453 113.462 11.5384 114.019 11.6494C114.576 11.7604 114.873 12.3522 115.208 12.5372C115.579 12.7221 115.208 12.8701 114.316 13.203C113.425 13.5359 112.831 13.4249 112.385 13.24C111.903 13.055 111.643 13.055 111.977 13.3509C112.348 13.6469 112.2 13.7578 112.237 14.2017C112.274 14.6086 112.831 14.2387 112.942 14.1647C113.054 14.0538 113.054 13.8688 113.499 14.2017C113.945 14.5346 114.094 14.3497 114.279 14.3127C114.465 14.2757 114.316 13.7578 114.428 13.5729C114.539 13.3879 115.022 13.3879 115.133 13.277C115.245 13.166 115.542 13.055 115.764 12.981C115.987 12.9441 115.95 13.3879 116.21 13.5359C116.433 13.6839 116.321 12.9441 116.247 12.7591C116.173 12.5741 116.099 12.0563 116.21 11.9083C116.321 11.7604 117.176 11.6864 117.361 11.8713C117.547 12.0563 117.027 12.6111 117.176 12.9441C117.287 13.277 117.584 12.7591 117.77 12.4632C117.955 12.1673 118.401 12.4632 119.106 12.3152C119.812 12.1673 119.663 11.7234 120.406 11.9823C121.149 12.2782 120.963 12.2782 121.186 11.9823C121.409 11.6864 121.854 12.0193 122.3 11.8343C122.745 11.6494 122.745 11.8343 123.043 12.0193C123.377 12.2042 123.748 11.6494 123.934 11.4644C124.082 11.2795 124.714 11.2795 125.048 11.3165C125.382 11.3535 125.753 11.6124 126.087 11.6124C126.422 11.6124 126.904 11.9083 126.904 11.9083C126.904 11.9083 127.573 12.2042 127.758 12.0193C127.907 11.8343 127.721 11.6124 127.127 11.2795C126.533 10.9466 126.756 10.3917 127.127 10.3547C127.499 10.3177 127.461 10.0588 127.721 9.87384C128.018 9.68889 128.353 8.98607 128.687 9.13403C129.021 9.28199 129.281 9.54093 129.689 9.79986C130.098 10.0218 129.726 10.3547 129.652 10.6137C129.578 10.8356 129.726 11.7234 129.838 11.8713C129.949 12.0193 129.726 12.5372 129.392 12.7591C129.058 12.981 128.65 13.4989 128.761 13.6099C128.872 13.7209 129.838 13.203 129.838 13.203C129.838 13.203 130.432 12.3522 130.729 12.1303C130.989 11.9083 131.286 11.9083 131.36 12.1673C131.435 12.4632 131.88 12.5372 132.289 12.3522C132.697 12.1673 132.289 12.0193 132.252 11.6124C132.214 11.2055 131.583 11.4274 131.212 11.5014C130.84 11.6124 130.581 12.0193 130.469 12.0193C130.358 12.0193 130.358 11.7234 130.432 11.3165C130.506 10.9096 130.283 10.6506 130.283 10.4287C130.283 10.2068 130.395 10.2068 130.692 9.72588C130.952 9.245 130.952 10.0588 131.026 10.4657C131.063 10.8726 131.36 10.6876 131.583 10.6506C131.806 10.6136 131.695 10.0588 131.917 9.76287C132.103 9.46694 132.549 9.42995 132.957 9.87384C133.366 10.2807 133.328 10.1698 133.811 10.3547C134.294 10.5397 134.331 10.5767 134.368 11.0205C134.405 11.4274 134.739 11.5014 134.925 11.3535C135.111 11.2055 134.962 10.6506 134.851 10.4657C134.739 10.2807 133.774 9.94782 133.44 9.61491C133.106 9.28199 133.588 9.28199 133.96 9.28199C134.331 9.28199 134.999 9.31898 134.999 9.31898C134.999 9.31898 135.742 9.13403 136.15 8.80111C136.559 8.4682 136.819 8.4682 137.227 8.28325C137.636 8.09829 138.267 8.0983 138.676 8.17228C139.084 8.28325 139.344 7.98732 139.752 7.80237C140.161 7.61742 140.681 6.39673 140.718 7.58043C140.718 7.72839 141.832 7.95033 141.98 7.91334C142.129 7.87635 142.537 7.80237 143.131 7.43247C144.283 6.72965 143.28 6.39673 143.726 7.06256C143.874 7.2845 144.357 6.87761 145.211 7.2845C146.028 7.6914 145.211 7.2845 145.434 7.58043C145.656 7.87635 145.805 7.54344 146.362 7.43247C146.919 7.32149 147.29 7.43247 147.625 7.46946C147.996 7.50645 148.776 7.50645 149.147 7.80237C149.518 8.0983 148.924 8.69014 148.701 8.8751C148.516 9.06005 149.036 9.20801 149.184 9.17102C149.333 9.13403 150.669 9.17102 151.264 9.28199C151.858 9.39296 152.118 9.68889 152.378 9.68889C152.675 9.68889 153.083 9.54092 153.269 9.35597C153.417 9.17102 154.42 9.06005 154.754 9.02306C155.088 8.98607 155.942 9.02306 156.054 9.13403C156.165 9.245 156.277 9.68889 156.277 10.0588C156.277 10.4287 156.648 10.7616 156.908 10.7986C157.205 10.8356 157.688 10.2437 157.91 10.1328C158.096 10.0218 158.356 10.5397 158.467 10.4287C158.579 10.2807 159.581 10.4657 159.99 10.2437C160.398 10.0218 160.621 10.2437 160.807 10.1328C160.992 10.0218 161.327 9.54093 161.327 9.31898C161.327 9.13403 161.475 8.98607 161.327 8.72713C161.178 8.43121 160.621 8.61616 160.027 8.43121C159.433 8.24626 160.064 7.2845 160.213 7.76538C160.324 8.06131 160.844 7.76538 161.252 7.87635C161.661 7.98732 161.475 7.72839 161.698 7.72839C161.884 7.72839 162.626 7.95033 162.998 7.95033C163.406 7.95033 163.703 8.4682 163.703 8.4682C163.703 8.4682 162.589 8.8381 162.366 8.8381C162.144 8.8381 162.292 9.20801 162.478 9.20801C162.663 9.20801 162.96 9.35597 163.22 9.57791C163.517 9.79986 164.743 9.57791 164.891 9.57791C165.04 9.57791 165.523 9.79986 166.005 10.1328C166.488 10.4657 166.785 10.6137 166.785 10.6137C166.785 10.6137 167.454 10.6136 168.122 10.5027C168.79 10.3917 169.681 10.3917 169.83 10.5397C169.979 10.6876 170.424 10.8356 170.758 11.1315C171.093 11.4644 171.315 11.3165 171.761 11.2795C172.207 11.2425 172.652 11.1315 173.023 11.1315C173.432 11.1315 174.732 11.0945 174.954 11.5014C175.177 11.9083 175.474 11.8343 175.474 11.8343C175.474 11.8343 175.846 11.0945 175.994 10.9466C176.143 10.7986 176.662 11.0575 176.997 11.2425C177.331 11.4274 178.853 11.2425 179.262 11.3535C179.67 11.4644 180.227 11.9083 179.893 12.2782C179.559 12.6481 180.116 13.314 180.004 13.6839C179.893 14.0538 179.559 14.0908 179.262 14.2017C178.928 14.3127 179.596 14.7566 179.856 15.0895C180.153 15.4224 179.707 15.4964 179.41 15.3854C179.113 15.2375 178.408 15.4224 177.517 15.7183C176.588 16.0143 176.254 16.5691 175.289 16.6061C174.323 16.6431 174.732 16.5691 173.543 16.5691C172.355 16.5691 172.392 16.939 172.132 17.4199C171.909 17.9008 172.244 17.7898 172.132 18.1597C172.021 18.5296 171.798 18.9735 171.798 19.2694C171.798 19.6023 171.093 19.6393 170.833 19.9353C170.61 20.2312 170.201 20.934 169.533 21.4149C168.865 21.9327 168.382 22.7095 168.382 22.7095C168.382 22.7095 168.493 21.8958 168.827 21.3409C169.162 20.786 168.456 19.9723 168.419 19.3804C168.382 18.7886 168.605 18.5666 169.013 18.0118C169.422 17.4569 170.35 17.2719 170.758 16.976C171.167 16.6801 172.801 15.3854 172.801 15.3854C172.801 15.3854 172.466 15.6074 172.095 15.7923C171.687 15.9773 171.204 16.3472 170.907 16.3472C170.573 16.3472 170.721 15.9773 170.684 15.6074C170.647 15.2375 169.904 15.4964 169.607 15.9033C169.347 16.2732 168.827 16.4951 168.27 16.976C167.713 17.4569 167.862 17.3829 167.528 17.4569C167.156 17.4939 166.562 17.235 166.302 16.976C166.005 16.7541 165.745 17.161 164.854 17.198C163.963 17.235 162.998 17.087 162.589 17.161C162.181 17.198 161.215 18.5666 160.584 18.7886C159.99 19.0105 159.247 19.4544 159.433 19.7873C159.618 20.1202 159.99 19.4914 160.138 19.4914C160.287 19.4914 160.027 20.1572 160.361 20.1572C160.732 20.1572 160.918 19.9353 161.289 19.8613C161.661 19.8243 161.921 20.1942 161.995 20.7121C162.069 21.2299 161.846 21.6368 161.661 22.3027C161.512 22.9685 161.252 23.5973 160.621 24.1892C159.99 24.744 158.95 25.7798 158.764 26.0757C158.579 26.3716 157.836 26.1127 157.725 25.9277C157.613 25.7428 157.242 26.3346 156.982 26.4826C156.685 26.6305 156.425 26.8895 156.425 27.2964C156.425 27.6663 155.645 27.6663 155.645 27.8882C155.645 28.1102 156.128 28.776 156.314 29.1089C156.499 29.4418 156.277 30.4776 155.905 30.6995C155.534 30.9214 155.385 31.2174 154.903 30.8845C154.42 30.5515 154.828 30.3666 155.014 29.8487C155.2 29.3309 154.828 29.0349 154.717 28.924C154.643 28.776 154.308 29.2199 154.16 29.2569C154.011 29.2939 154.011 28.85 154.123 28.5541C154.234 28.2581 154.049 27.6663 153.937 27.6293C153.826 27.5923 153.046 28.3321 152.749 28.2951C152.415 28.2581 152.712 27.4073 152.823 27.1854C152.935 26.9635 152.6 27.1484 152.34 27.3704C152.118 27.5923 151.598 28.1102 151.375 28.0732C151.189 28.0362 150.781 28.4431 151.078 28.739C151.412 29.0349 151.523 29.2569 151.709 29.2939C151.895 29.3309 152.415 29.1829 152.637 29.1459C152.823 29.1089 153.232 29.4788 152.823 29.8857C152.415 30.2926 151.598 30.3666 151.746 30.6255C151.895 30.9214 152.303 31.3283 152.637 31.9942C152.972 32.66 152.823 33.3628 152.897 33.8807C152.972 34.3986 151.746 35.4713 151.375 35.8042C151.004 36.1371 150.669 36.9139 150.075 37.2838C149.481 37.6537 148.219 37.9866 147.996 37.8387C147.81 37.6907 147.253 38.0606 147.29 38.5785C147.327 39.0964 147.625 39.0594 147.625 39.1703C147.625 39.3183 147.216 39.8731 147.068 40.0951C146.919 40.317 146.362 40.0951 146.436 39.3923C146.511 38.6895 146.919 38.3935 146.882 38.0976C146.845 37.7647 146.473 37.5797 146.251 37.8757C146.028 38.1716 145.248 38.9484 145.248 38.9484C145.248 38.9484 145.545 39.7992 145.879 40.1321C146.251 40.465 146.473 40.9089 146.956 41.6117C147.439 42.3145 147.068 42.9064 146.956 43.4242C146.845 43.9421 146.436 43.9421 146.102 44.0161C145.768 44.1271 145.694 44.238 145.582 44.534C145.471 44.8299 144.877 46.1615 144.802 45.9396C144.728 45.7177 144.208 44.1271 144.208 44.1271C144.208 44.1271 143.837 43.2763 143.317 42.8694C142.797 42.4625 142.612 42.2775 142.612 42.6844C142.612 43.0913 142.277 43.9051 142.277 44.1641C142.277 44.46 141.572 43.3133 141.572 42.8694C141.572 42.3885 141.46 41.6117 141.498 40.8719C141.535 40.1321 140.681 40.8349 140.681 40.8349C140.681 40.8349 140.012 42.4995 139.789 42.4995C139.604 42.4995 139.789 40.9459 139.827 40.391C139.864 39.8362 139.641 39.3183 139.492 39.1333C139.381 38.9484 138.713 38.2086 138.564 37.6907C138.453 37.1728 138.193 37.3578 137.97 37.6537C137.747 37.9496 137.821 37.9496 136.856 37.9496C135.891 37.9496 135.928 38.6525 135.445 39.0594C134.962 39.4663 134.554 40.28 133.997 40.539C133.44 40.8349 133.217 41.0938 133.217 41.4268C133.217 41.7597 133.44 42.8324 133.328 43.3133C133.217 43.7941 132.92 44.201 132.623 44.6819C132.363 45.1628 132.103 45.9026 131.88 45.9026C131.657 45.9026 131.546 45.2368 131.546 44.8299C131.546 44.423 130.878 43.4242 130.729 43.0913C130.581 42.7584 129.986 41.3158 129.986 41.3158C129.986 41.3158 129.504 39.7622 129.541 39.3553C129.578 38.9484 129.578 37.7647 129.578 37.7647C129.578 37.7647 128.947 38.5045 128.65 38.4675C128.353 38.4305 128.093 37.9127 128.13 37.2838C128.167 36.692 127.647 36.729 127.387 36.618C127.127 36.507 126.756 35.6932 126.57 35.6932C126.385 35.6932 126.236 35.6932 126.087 35.9891C125.939 36.2851 125.085 36.2111 124.899 36.2111C124.714 36.2111 123.525 36.1741 123.154 36.0261C122.783 35.8782 122.411 35.0274 122.188 34.9534C122.003 34.8424 121.409 35.4713 121.149 35.3603C120.926 35.2493 120.443 34.8055 119.923 34.5095C119.404 34.2136 119.255 33.5848 119.032 33.1409C118.847 32.734 118.141 33.3628 118.252 33.8437C118.327 34.3246 119.218 34.9164 119.218 35.2493C119.218 35.5823 119.366 35.6562 119.812 36.1001C120.258 36.507 119.886 36.7659 120.183 36.8399C120.48 36.9509 120.852 36.47 121.26 36.2481C121.669 36.0261 121.632 35.6932 121.817 35.6932C122.003 35.6932 121.966 36.2851 122.3 36.3591C122.634 36.396 123.451 36.9509 123.637 37.3578C123.822 37.7277 123.451 37.9496 123.265 38.2826C123.117 38.6155 122.634 39.5402 122.226 39.9101C121.817 40.28 121.409 40.7979 120.777 40.9459C120.183 41.0938 120.109 41.4637 119.626 41.5007C119.144 41.5377 117.844 42.3145 117.621 42.4255C117.435 42.5735 116.359 42.9434 116.024 42.7954C115.69 42.6474 115.579 41.7227 115.467 41.0199C115.356 40.317 115.208 39.9471 115.059 39.6512C114.948 39.3553 114.205 38.6155 114.056 38.4675C113.908 38.3195 113.499 37.2098 113.462 36.729C113.425 36.2481 112.98 36.433 112.905 35.9152C112.831 35.3973 112.385 34.6945 112.311 34.3616C112.237 34.0286 111.42 34.3986 111.123 34.4725C110.789 34.5095 110.195 34.1766 110.269 33.4368C110.343 32.697 110.677 32.697 111.049 32.697C111.457 32.697 111.271 32.475 111.68 31.9942C112.088 31.5133 112.2 30.5885 112.237 29.9967C112.274 29.4048 111.94 29.6638 111.643 29.7747C111.309 29.8857 110.863 29.9967 110.677 29.9597C110.529 29.9227 109.898 29.6638 109.749 29.8117C109.638 29.9597 108.969 29.8487 108.784 29.6268C108.635 29.4048 107.818 29.1089 107.744 28.924C107.67 28.739 107.744 27.6293 107.595 27.3334C107.447 27.0374 107.075 27.3704 106.89 27.5553C106.704 27.7403 106.147 27.8882 106.296 28.0362C106.444 28.1842 106.964 28.4431 106.927 28.813C106.89 29.1829 106.518 29.2939 106.333 29.4788C106.147 29.6638 105.404 30.4036 105.293 30.1816C105.182 29.9597 105.107 28.4431 104.996 28.2581C104.885 28.0732 104.513 27.5923 104.402 27.1854C104.29 26.7785 103.845 26.6305 103.585 26.2976C103.325 25.9647 102.508 25.4469 102.211 25.0769C101.877 24.707 101.32 24.4111 101.283 24.892C101.246 25.3729 101.84 25.4468 102.062 25.9277C102.285 26.4086 102.805 26.6675 103.102 26.8155C103.362 26.9635 104.142 27.5553 104.142 27.5553C104.142 27.5553 103.808 27.7033 103.548 27.6663C103.288 27.6293 103.696 28.665 103.659 28.9979C103.622 29.3309 103.139 28.887 103.065 28.5171C102.991 28.1472 102.731 27.7033 102.582 27.5923C102.434 27.4443 101.394 27.0744 101.246 27.0005C101.097 26.8895 100.429 26.4086 100.317 25.9647C100.243 25.5578 99.6488 25.4838 99.4632 25.5948C99.3146 25.7058 98.7205 26.1867 98.4234 26.1867C98.1635 26.1867 97.7179 25.9647 97.3837 25.8907C97.0495 25.8537 97.0124 26.4826 96.901 26.8895C96.7896 27.2594 96.2697 27.0005 95.9727 27.2964C95.6756 27.6293 95.23 27.9622 95.3414 28.2211C95.4528 28.5171 95.6756 28.5171 95.3043 28.739C94.9329 28.9609 94.7473 29.4418 94.3759 29.4788C94.0046 29.5158 93.559 29.7008 93.3362 29.5898C93.1506 29.4418 92.9649 30.0707 92.8535 30.1816C92.7421 30.3296 92.5193 29.7747 92.3336 29.5158C92.148 29.2939 91.6281 29.4788 91.4424 29.4048C91.2939 29.3678 91.1082 28.924 90.9226 28.739C90.7369 28.5541 90.7741 28.1472 90.9226 27.9992C91.0711 27.8512 91.2568 27.6293 91.1082 27.1854C90.9968 26.7785 90.9226 25.8168 91.2939 25.6318C91.7024 25.4469 92.6307 25.6318 93.1134 25.6318C93.5962 25.6318 94.4131 25.8168 94.5616 25.5208C94.8958 25.2989 94.9701 24.855 94.9329 24.4111ZM109.935 16.1992C109.786 16.6431 110.863 17.013 111.049 16.6801C111.234 16.3102 110.12 15.5334 109.935 16.1992ZM108.561 27.5183C108.635 27.7033 109.043 27.2224 109.341 27.2224C109.675 27.2224 110.38 27.3704 110.566 27.0374C110.752 26.7045 111.383 26.6675 111.903 26.7415C112.423 26.8525 112.868 27.2594 113.202 27.2964C113.574 27.3334 114.502 27.2594 114.836 27.1484C115.17 27.0374 115.059 26.4086 114.576 26.0757C114.056 25.7428 113.611 25.2249 113.128 25.04C112.645 24.855 112.497 24.67 112.757 24.5591C113.054 24.4481 113.388 24.0782 112.98 24.0782C112.571 24.0782 112.237 24.2262 112.2 24.4481C112.163 24.67 111.903 24.966 111.754 25.04C111.606 25.1509 111.197 25.5208 111.086 25.2249C110.974 24.929 110.529 24.1152 110.343 24.0412C110.157 24.0042 109.823 24.0412 109.6 24.5221C109.378 25.003 109.081 25.4469 108.858 25.6318C108.635 25.8168 108.301 26.3716 108.524 26.4826C108.821 26.6675 108.561 27.5183 108.561 27.5183ZM117.695 24.2262C117.213 24.5961 117.064 25.1139 117.25 25.4469C117.435 25.7798 117.992 26.8155 118.29 26.8895C118.549 27.0005 119.552 27.1854 119.181 27.5923C118.772 27.9992 118.698 28.1472 118.327 28.1102C117.955 28.0732 118.141 29.2199 118.401 29.3309C118.698 29.4418 119.515 29.7377 119.775 29.8117C120.035 29.8487 120.963 29.7008 120.926 29.4418C120.889 29.1459 120.74 28.0362 120.406 27.7403C120.072 27.4443 120.852 27.1854 120.629 26.9265C120.443 26.7045 120.146 26.7785 119.998 26.5196C119.849 26.2236 119.775 25.9647 119.515 25.7798C119.292 25.5948 119.069 25.9647 119.106 25.4469C119.144 24.929 119.701 24.5961 119.923 24.892C120.146 25.1879 120.889 25.04 121.037 24.892C121.186 24.744 120.703 24.3371 120.592 24.0412C120.48 23.7453 119.663 23.5233 119.552 23.6343C119.441 23.7453 119.106 24.0042 118.809 24.2262C118.549 24.4851 117.918 24.0412 117.695 24.2262Z" fill="#02A9CE"/>
<path d="M122.261 10.9825C121.964 11.3154 121.333 11.2044 120.924 10.9455C120.479 10.6496 119.959 10.6126 119.736 10.5386C119.513 10.4276 119.773 9.87276 120.07 9.76179C120.367 9.61383 121.11 9.20693 121.667 8.91101C122.224 8.61508 122.373 8.06022 122.781 8.06022C123.189 8.06022 125.083 7.57935 125.343 7.69032C125.566 7.80129 126.717 7.87527 126.977 7.50537C127.2 7.13546 128.054 7.3574 127.868 7.69032C127.683 8.02323 126.94 8.76304 126.494 8.61508C126.012 8.46712 124.675 8.50411 124.081 8.61508C123.486 8.72605 122.93 9.13295 122.41 9.46586C121.89 9.79878 122.001 10.1687 122.224 10.2057C122.298 10.2427 122.484 10.7235 122.261 10.9825Z" fill="#02A9CE"/>
<path d="M162.477 20.3052C162.254 20.3791 161.549 20.1942 161.809 20.86C162.031 21.5258 162.106 21.9697 162.031 22.4876C161.994 23.0055 162.031 24.0782 162.106 24.2261C162.18 24.3741 162.514 24.707 162.7 24.5961C162.886 24.4851 162.626 23.5603 162.626 23.3754C162.626 23.1904 162.923 22.8945 163.071 22.8575C163.22 22.8205 163.071 22.0067 162.886 21.6738C162.7 21.3409 162.403 21.1559 162.551 21.1189C162.7 21.082 162.923 20.712 162.774 20.6011C162.7 20.5271 162.774 20.1942 162.477 20.3052Z" fill="#02A9CE"/>
<path d="M162.104 25.0769C161.807 25.1509 161.695 25.6317 161.695 25.7797C161.695 25.9277 160.581 26.1866 160.953 26.5935C161.324 26.9634 161.658 26.7045 162.215 26.6305C162.772 26.5935 163.292 26.4085 163.292 26.4085C163.292 26.4085 164.109 26.4455 163.998 26.0016C163.886 25.5208 162.995 25.4838 162.847 25.5208C162.698 25.5577 162.401 24.9659 162.104 25.0769Z" fill="#02A9CE"/>
<path d="M161.178 26.8893C160.881 27.1113 161.067 27.9251 160.807 28.4799C160.584 29.0348 160.361 29.5526 160.212 29.5526C160.064 29.5526 159.21 29.9225 158.987 30.2185C158.764 30.5144 157.613 29.9965 157.428 30.2185C157.279 30.4404 156.945 30.7363 156.759 30.9213C156.573 31.1062 156.016 30.9583 156.128 31.5131C156.239 32.068 156.536 32.5859 156.759 32.5859C156.982 32.5859 157.316 32.4009 157.316 31.883C157.316 31.3652 157.873 31.883 158.133 31.8461C158.43 31.8091 158.579 31.4761 158.69 31.1062C158.801 30.7363 158.542 31.2912 159.024 31.4392C159.507 31.5871 159.656 31.2172 159.656 31.0693C159.656 30.9213 160.547 30.6993 160.695 30.5514C160.844 30.4034 161.475 30.1815 161.549 29.9965C161.586 29.8116 161.549 28.7388 161.735 28.6279C161.921 28.5169 162.218 28.5169 161.883 27.8881C161.586 27.2222 161.586 26.6304 161.178 26.8893Z" fill="#02A9CE"/>
<path d="M152.413 36.1364C151.819 36.2474 151.448 37.727 151.931 37.69C152.413 37.616 152.933 36.0254 152.413 36.1364Z" fill="#02A9CE"/>
<path d="M176.959 69.2434C176.81 69.3544 176.959 69.8352 177.107 70.0202C177.256 70.2051 177.33 70.871 177.293 71.0559C177.256 71.2409 176.587 71.4628 176.884 71.7217C177.219 71.9437 177.813 71.7217 177.739 72.0177C177.664 72.3136 177.33 72.6835 177.701 72.7575C178.073 72.8685 178.184 72.4246 178.333 72.0917C178.481 71.7587 178.63 71.4998 178.89 71.2779C179.15 71.0929 178.89 70.686 178.741 70.686C178.593 70.686 178.518 70.908 178.147 70.686C177.776 70.4641 177.85 70.538 177.627 70.0942C177.404 69.6133 177.367 69.0214 176.959 69.2434Z" fill="#02A9CE"/>
<path d="M176.663 72.2392C176.588 72.4611 176.254 72.5351 176.031 72.7571C175.809 72.979 176.031 73.09 175.363 73.5709C174.695 74.0517 173.84 74.5696 173.692 74.9765C173.543 75.3834 173.84 75.6423 174.472 75.6793C175.103 75.7163 174.954 75.8643 175.4 75.3094C175.846 74.7546 176.217 74.4216 176.737 73.9408C177.257 73.4599 177.257 72.7571 177.257 72.7571C177.257 72.7571 176.7 72.1282 176.663 72.2392Z" fill="#02A9CE"/>
<path d="M163.368 72.6094C162.922 73.1273 163.813 73.1273 163.702 73.6452C163.591 74.163 164.296 73.9781 164.482 73.8671C164.668 73.7561 165.15 72.6834 165.076 72.4245C165.002 72.1285 164.185 72.9054 163.999 72.8314C163.813 72.8314 163.368 72.6094 163.368 72.6094Z" fill="#02A9CE"/>
<path d="M160.471 68.9844C160.471 68.5035 160.249 69.5023 160.063 69.0954C159.914 68.6885 160.212 67.9857 159.84 68.2446C159.432 68.5405 159.246 68.7625 159.209 68.9844C159.172 69.2063 158.466 69.3173 158.503 69.0954C158.541 68.8734 158.838 68.3186 158.541 68.0596C158.243 67.8377 157.798 67.7267 157.427 67.5788C157.055 67.4308 157.464 66.9869 156.498 67.2088C155.533 67.4308 155.199 67.7267 155.199 67.7267C155.199 67.7267 154.307 67.3938 154.047 67.7637C153.75 68.1336 153.602 69.3173 153.602 69.3173C153.602 69.3173 152.265 68.8734 152.005 68.9104C151.782 68.9474 151.374 69.3173 151.003 69.4653C150.631 69.6132 150.037 69.7612 149.814 69.5023C149.591 69.2803 149.183 68.8364 149.294 68.5775C149.406 68.2816 150.297 67.9117 149.963 67.4678C149.629 66.9869 149.443 66.9129 149.406 66.617C149.369 66.3211 149.517 66.2101 149.034 65.6183C148.552 65.0634 148.663 64.3976 148.886 64.3236C149.072 64.2126 148.218 63.6578 148.069 63.4358C147.921 63.2139 148.44 62.3631 148.775 62.1411C149.109 61.9192 150.037 61.0314 150.334 61.0314C150.594 61.0314 151.04 61.1794 151.337 60.9205C151.597 60.6985 152.451 60.7725 152.451 60.5875C152.451 60.4026 152.228 58.886 152.414 58.664C152.599 58.4421 153.75 58.96 153.862 58.775C153.973 58.5901 154.196 57.7763 154.419 57.6653C154.642 57.5173 154.864 57.1844 155.199 57.6653C155.57 58.1462 155.904 58.3311 156.09 57.8502C156.238 57.3694 156.127 57.5173 156.498 57.1104C156.87 56.7035 156.461 56.0007 156.832 56.4076C157.204 56.8145 157.427 57.1474 157.427 57.1474C157.427 57.1474 157.389 56.2227 157.612 56.2227C157.835 56.2227 158.095 56.7035 158.206 56.7035C158.318 56.7035 159.395 56.4076 159.58 56.7405C159.766 57.0734 159.023 57.9612 159.32 58.2941C159.58 58.627 160.137 58.812 160.546 59.1079C160.954 59.4039 161.437 60.0327 161.623 59.4778C161.808 58.923 162.217 58.0722 161.957 57.6653C161.697 57.2584 162.031 55.8898 162.142 55.7788C162.254 55.6678 162.477 56.8515 162.848 57.3694C163.256 57.8872 163.628 58.2571 163.851 58.812C164.036 59.3669 164.073 60.3656 164.445 60.6985C164.816 61.0314 166.19 60.9944 166.153 61.4383C166.116 61.8452 166.301 62.696 166.71 63.4728C167.155 64.2866 168.009 66.1361 168.009 66.8759C168.009 67.6157 166.71 68.4665 166.376 69.0214C166.004 69.5762 165.893 70.3161 165.744 70.612C165.596 70.9079 165.67 70.8339 165.076 71.0189C164.482 71.2038 164.036 71.7587 163.888 71.5737C163.739 71.3888 163.182 71.0559 162.996 71.2778C162.848 71.4998 162.625 72.0176 162.365 71.4628C162.068 70.9079 161.437 70.9819 161.325 70.9079C161.214 70.7969 161.214 70.538 161.214 70.0571C161.214 69.5762 160.694 69.5393 160.657 69.3913C160.583 69.2433 160.471 69.1324 160.471 68.9844Z" fill="#02A9CE"/>
<path d="M178.777 59.8103C179.297 60.0322 180.226 58.9595 179.854 58.8115C179.52 58.6636 178.777 59.8103 178.777 59.8103Z" fill="#02A9CE"/>
<path d="M173.727 62.1409C173.653 62.5847 173.17 62.3628 172.947 61.9559C172.724 61.549 172.242 61.2161 172.947 61.401C173.653 61.586 173.764 61.9189 173.727 62.1409Z" fill="#02A9CE"/>
<path d="M140.234 46.9008C139.751 47.0118 140.939 48.0105 141.051 48.1585C141.162 48.3065 142.239 49.3792 142.239 49.897C142.239 50.4149 142.573 52.0055 142.796 52.1905C142.982 52.3754 144.356 52.7083 144.504 53.0782C144.653 53.4481 145.024 53.5591 145.024 53.0412C145.024 52.5234 145.098 51.9315 145.284 51.6356C145.47 51.3397 145.395 50.9328 145.098 50.9698C144.764 51.0068 144.504 50.3779 143.984 49.934C143.465 49.5271 143.056 49.2312 142.61 48.6394C142.128 48.0475 141.534 47.6406 141.237 47.3447C140.902 46.9748 140.42 46.8268 140.234 46.9008Z" fill="#02A9CE"/>
<path d="M141.756 44.4229C141.421 44.4598 141.421 45.1627 141.607 45.4216C141.756 45.6435 142.09 45.5326 142.276 46.3464C142.461 47.1971 142.87 48.0479 143.018 48.3438C143.167 48.6768 143.872 49.1207 144.095 49.3796C144.318 49.6015 144.689 49.2686 144.541 49.0097C144.392 48.7138 144.058 48.3069 144.021 47.9739C143.984 47.641 143.798 47.1232 143.464 46.5683C143.13 46.0134 142.87 45.8655 142.684 45.4956C142.498 45.1257 141.756 44.4229 141.756 44.4229Z" fill="#02A9CE"/>
<path d="M145.097 53.2633C144.8 53.7072 145.171 54.0031 145.283 54.1141C145.394 54.225 145.84 54.299 146.248 54.262C146.657 54.225 147.214 54.0771 146.768 53.7812C146.323 53.4852 145.803 53.7812 145.654 53.4112C145.506 53.0044 145.283 53.0044 145.097 53.2633Z" fill="#02A9CE"/>
<path d="M147.438 53.6328C147.14 53.7808 146.732 53.8548 147.029 54.1877C147.363 54.5206 147.549 54.6685 148.032 54.5946C148.514 54.5576 149.22 54.8905 149.257 54.5946C149.294 54.2986 148.811 53.8917 148.626 53.8917C148.403 53.8917 147.438 53.6328 147.438 53.6328Z" fill="#02A9CE"/>
<path d="M151.299 55.1865C151.224 55.5934 151.893 55.7783 151.93 55.3344C152.004 54.8536 151.41 54.7796 151.299 55.1865Z" fill="#02A9CE"/>
<path d="M153.416 55.4826C153.491 56.0005 154.307 55.1867 154.307 55.1867C154.307 55.1867 154.939 55.0757 154.939 54.7798C154.939 54.4469 154.307 54.04 154.047 54.4099C153.825 54.7798 153.379 55.1867 153.416 55.4826Z" fill="#02A9CE"/>
<path d="M151.671 50.2671C151.448 50.3781 151.485 50.6 151.411 51.0439C151.337 51.5248 150.965 51.8577 151.299 52.0796C151.634 52.3016 152.228 51.2658 152.376 51.5988C152.525 51.9317 152.339 52.0796 152.599 52.4865C152.859 52.8934 153.379 52.8564 153.379 52.8564C153.379 52.8564 153.342 51.7467 152.896 51.4508C152.451 51.1549 152.191 50.8589 152.711 50.9329C153.23 51.0439 153.49 50.785 153.379 50.526C153.268 50.2301 152.488 50.3781 152.265 50.4151C152.042 50.489 151.671 50.2671 151.671 50.2671Z" fill="#02A9CE"/>
<path d="M151.894 49.3051C151.634 49.638 151.82 49.9709 152.266 49.8969C152.711 49.8599 153.602 49.712 153.825 49.712C154.011 49.712 154.308 49.1201 154.159 49.1201C154.011 49.1201 152.897 49.3421 152.785 49.416C152.637 49.453 151.894 49.3051 151.894 49.3051Z" fill="#02A9CE"/>
<path d="M155.98 48.6764C155.608 48.4914 154.94 50.23 155.423 50.3779C155.905 50.4889 156.24 48.7873 155.98 48.6764Z" fill="#02A9CE"/>
<path d="M150.52 46.1981C150.52 45.8652 149.889 46.3091 149.852 46.605C149.815 46.9379 150.297 47.1968 149.518 47.1968C148.775 47.1968 148.738 47.8996 148.552 48.0476C148.404 48.1956 148.218 48.2326 147.921 48.3435C147.587 48.4545 147.512 48.8244 147.438 49.0464C147.364 49.2683 146.807 48.6395 146.658 48.8244C146.51 49.0094 146.621 49.8971 146.881 50.6369C147.178 51.3768 147.884 51.8576 148.069 51.8576C148.255 51.8576 148.664 51.8576 148.961 51.9686C149.22 52.0796 150.149 52.1536 150.112 51.7467C150.075 51.3398 150 50.6739 150.409 50.267C150.817 49.8601 151.189 49.6012 151.003 49.0094C150.817 48.4175 150.409 48.0106 150.669 47.7517C150.966 47.4558 151.263 47.3818 151.263 47.1598C151.263 46.8269 150.594 47.7147 150.52 46.1981Z" fill="#02A9CE"/>
<path d="M152.451 39.5767C152.191 39.5767 152.488 40.0945 152.08 40.4274C151.671 40.7604 151.226 40.9083 151.486 41.4632C151.708 42.018 152.562 42.4619 152.377 42.6839C152.191 42.9058 151.597 43.3867 151.486 43.7936C151.411 44.2005 152.451 43.1278 152.711 42.7209C152.971 42.314 153.528 42.5359 153.676 42.314C153.788 42.092 153.788 42.092 153.788 42.092C153.788 42.092 153.342 41.981 153.008 41.8701C152.637 41.7221 152.228 42.24 152.414 41.5002C152.6 40.7604 153.194 40.9083 153.082 40.3165C152.971 39.7246 152.6 39.5767 152.451 39.5767Z" fill="#02A9CE"/>
<path d="M152.821 43.6456C152.672 43.7196 152.338 44.5334 152.784 44.5334C153.229 44.5334 153.972 44.6813 153.824 44.4224C153.675 44.2005 153.267 43.4606 152.821 43.6456Z" fill="#02A9CE"/>
<path d="M154.123 42.9434C153.974 42.9434 153.454 43.9421 154.16 43.8681C154.903 43.8311 154.68 43.0173 154.123 42.9434Z" fill="#02A9CE"/>
<path d="M154.27 44.6812C153.713 45.5319 153.75 45.347 153.342 45.162C152.933 44.9771 152.302 45.5689 152.413 45.8279C152.525 46.0498 153.416 45.7909 153.602 46.1978C153.787 46.6047 153.787 46.6786 154.196 46.5677C154.604 46.4567 154.976 45.8279 154.864 45.4949C154.79 45.162 154.27 44.6812 154.27 44.6812Z" fill="#02A9CE"/>
<path d="M156.98 50.1933C156.683 50.5632 156.534 50.5632 157.203 50.7112C157.871 50.8591 158.094 50.8591 157.797 51.229C157.5 51.599 157.314 52.0798 157.574 52.1168C157.797 52.1538 158.539 51.9319 158.614 52.1168C158.688 52.3018 158.465 52.3388 159.245 52.4867C160.025 52.6347 160.21 52.9676 160.359 53.1526C160.507 53.3375 160.99 53.9663 160.693 53.9663C160.359 53.9663 160.025 54.4472 160.247 54.4842C160.47 54.5212 161.213 54.3363 161.25 54.4842C161.287 54.6322 161.696 55.5199 162.067 55.483C162.475 55.446 162.698 54.5952 162.884 54.3732C163.07 54.1513 163.886 54.0033 163.961 54.4102C164.035 54.8171 164.295 55.261 164.74 55.5199C165.223 55.8159 165.78 56.0748 165.817 55.8529C165.854 55.6309 165.595 54.7431 165.26 54.5952C164.926 54.4472 164.369 53.6704 164.369 53.3375C164.369 53.0046 163.886 52.9306 163.664 52.6717C163.441 52.4497 163.218 51.7839 162.624 51.6359C162.03 51.488 161.881 51.266 161.25 50.8961C160.619 50.5262 159.171 50.5262 159.133 50.7482C159.096 50.9701 159.133 50.7482 158.651 50.5632C158.168 50.3783 157.834 50.5632 157.685 50.2303C157.611 49.8974 157.314 49.7864 156.98 50.1933Z" fill="#02A9CE"/>
<path d="M133.142 38.6519H66.6738V85.9997H133.142V38.6519Z" fill="#EEB483"/>
<path fill-rule="evenodd" clip-rule="evenodd" d="M65.8578 67.912L55.015 67.7271L49.8535 79.638L63.0357 80.0819L65.8578 67.912Z" fill="#F9D3B4"/>
<path fill-rule="evenodd" clip-rule="evenodd" d="M78.1856 57.7019L68.0483 64.8411C66.7486 65.7658 62.7011 70.5376 63.5181 71.9063C64.335 73.2749 68.7909 71.3514 70.0906 70.3897L75.2149 65.174C79.151 62.0298 80.0051 57.443 78.1856 57.7019Z" fill="#F7CAA7"/>
<path fill-rule="evenodd" clip-rule="evenodd" d="M90.291 69.2803C84.2755 69.8351 83.0129 69.9461 77.3687 70.316C77.0345 70.353 77.0345 70.7229 77.4801 70.6489L93.373 71.1298C94.4499 71.0558 95.601 71.4257 95.6753 72.5354C95.7495 73.6082 94.5984 74.274 93.4844 74.348C88.063 74.6809 82.7159 74.348 77.2945 74.6809C77.0717 74.6809 77.0345 75.1248 77.2202 75.1248L91.5535 76.0125C92.6304 76.0865 93.9672 76.2715 94.0043 77.3812C94.0786 78.4539 92.4447 78.8978 91.3307 78.8978C86.5777 78.8978 81.8618 78.8238 77.1088 78.8238C76.7003 78.7868 76.5147 79.2677 77.1459 79.3417L87.3946 81.0063C89.4741 81.4871 89.7711 81.968 89.5855 82.6708C89.0656 84.7793 80.9706 82.7078 76.329 82.5599L68.4197 83.1887C65.5233 83.2257 61.8101 81.7091 60.3247 80.4884C55.9431 76.9003 58.6166 70.242 61.1788 68.5775C63.1468 67.2828 65.3005 67.1718 67.8627 65.0264L89.9197 65.9881C93.633 65.9141 93.2616 69.0213 90.291 69.2803Z" fill="#F9D3B4"/>
<path fill-rule="evenodd" clip-rule="evenodd" d="M56.6486 81.5237L0.912109 80.0441L2.65736 64.582L57.2056 66.7645L56.6486 81.5237Z" fill="#FD6F32"/>
<path fill-rule="evenodd" clip-rule="evenodd" d="M135.035 67.9486L145.878 67.7637L151.039 79.6746L137.857 80.1185L135.035 67.9486Z" fill="#F9D3B4"/>
<path fill-rule="evenodd" clip-rule="evenodd" d="M122.708 57.739L132.845 64.8782C134.145 65.8029 138.193 70.5747 137.376 71.9434C136.559 73.312 132.103 71.3885 130.803 70.4268L125.679 65.2111C121.743 62.0669 120.889 57.4801 122.708 57.739Z" fill="#F7CAA7"/>
<path fill-rule="evenodd" clip-rule="evenodd" d="M110.603 69.3173C116.618 69.8721 117.881 69.9831 123.525 70.353C123.859 70.39 123.859 70.7599 123.414 70.6859L107.075 70.9449C105.998 70.8709 104.847 71.2408 104.773 72.3505C104.699 73.4232 105.85 74.089 106.964 74.163C112.385 74.4959 118.141 74.385 123.562 74.6809C123.785 74.6809 123.822 75.1248 123.636 75.1248L109.897 76.0125C108.82 76.0865 107.484 76.2715 107.447 77.3812C107.372 78.4539 109.006 78.8978 110.12 78.8978C114.873 78.8978 118.995 78.8238 123.711 78.8238C124.119 78.7868 124.305 79.2677 123.674 79.3417L113.425 81.0063C111.345 81.4871 111.048 81.968 111.234 82.6708C111.754 84.7793 119.849 82.7078 124.491 82.5599L132.4 83.1887C135.296 83.2257 139.009 81.7091 140.495 80.4884C144.876 76.9003 142.203 70.242 139.641 68.5775C137.673 67.2828 135.519 67.1718 132.957 65.0264L110.9 65.9881C107.261 65.9511 107.632 69.0583 110.603 69.3173Z" fill="#F9D3B4"/>
<path fill-rule="evenodd" clip-rule="evenodd" d="M144.244 81.5613L199.981 80.0817L198.236 64.6196L143.688 66.8021L144.244 81.5613Z" fill="#1D619D"/>
<path fill-rule="evenodd" clip-rule="evenodd" d="M143.947 74.3482L144.244 81.5613L199.981 80.0817L199.127 72.3877L143.947 74.3482Z" fill="#E6E6E6"/>
<path d="M134.145 32.6221H65.6348V42.2396H134.145V32.6221Z" fill="#EFC094"/>
<path d="M105.777 32.5117H93.5977V64.4345H105.777V32.5117Z" fill="#F2DCC6"/>
<path d="M105.777 42.2402H93.5977V64.4345H105.777V42.2402Z" fill="#F2DCC6"/>
<path d="M133.142 42.2402H66.6738V43.3869H133.142V42.2402Z" fill="#EFEFEF"/>
<path fill-rule="evenodd" clip-rule="evenodd" d="M1.76617 72.3135L0.912109 80.0445L56.6486 81.5241L56.9457 73.6451L1.76617 72.3135Z" fill="#E6E6E6"/>
<g opacity="0.61">
<g opacity="0.61">
<g opacity="0.61">
<path opacity="0.61" d="M113.052 49.0834C113.052 49.3423 112.829 49.5643 112.569 49.5643H108.596C108.336 49.5643 108.113 49.3423 108.113 49.0834V45.1254C108.113 44.8665 108.336 44.6445 108.596 44.6445H112.569C112.829 44.6445 113.052 44.8665 113.052 45.1254V49.0834Z" fill="white"/>
<path opacity="0.61" d="M112.532 49.638H108.559C108.262 49.638 108.002 49.3791 108.002 49.0832V45.1252C108.002 44.8292 108.262 44.5703 108.559 44.5703H112.532C112.829 44.5703 113.089 44.8292 113.089 45.1252V49.0832C113.089 49.3791 112.866 49.638 112.532 49.638ZM108.559 44.6813C108.336 44.6813 108.113 44.8662 108.113 45.1252V49.0832C108.113 49.3051 108.299 49.527 108.559 49.527H112.532C112.755 49.527 112.978 49.3421 112.978 49.0832V45.1252C112.978 44.9032 112.792 44.6813 112.532 44.6813H108.559Z" fill="black"/>
</g>
<g opacity="0.61">
<path opacity="0.61" d="M112.348 48.3066H108.746V48.8985H112.348V48.3066Z" fill="black"/>
<g opacity="0.61">
<g opacity="0.61">
<path opacity="0.61" d="M110.159 46.272H109.564V48.0845H110.159V46.272Z" fill="black"/>
<path opacity="0.61" d="M109.266 46.3093L109.86 45.3105L110.454 46.3093H109.266Z" fill="black"/>
</g>
<g opacity="0.61">
<path opacity="0.61" d="M111.53 46.272H110.936V48.0845H111.53V46.272Z" fill="black"/>
<path opacity="0.61" d="M110.639 46.3093L111.233 45.3105L111.827 46.3093H110.639Z" fill="black"/>
</g>
</g>
</g>
</g>
<g opacity="0.61">
<g opacity="0.61">
<path opacity="0.61" d="M124.525 49.0834C124.525 49.3423 124.302 49.5643 124.042 49.5643H120.069C119.809 49.5643 119.586 49.3423 119.586 49.0834V45.1254C119.586 44.8665 119.809 44.6445 120.069 44.6445H124.042C124.302 44.6445 124.525 44.8665 124.525 45.1254V49.0834Z" fill="white"/>
<path opacity="0.61" d="M124.005 49.638H120.032C119.735 49.638 119.475 49.3791 119.475 49.0832V45.1252C119.475 44.8292 119.735 44.5703 120.032 44.5703H124.005C124.302 44.5703 124.562 44.8292 124.562 45.1252V49.0832C124.599 49.3791 124.339 49.638 124.005 49.638ZM120.032 44.6813C119.809 44.6813 119.586 44.8662 119.586 45.1252V49.0832C119.586 49.3051 119.772 49.527 120.032 49.527H124.005C124.228 49.527 124.45 49.3421 124.45 49.0832V45.1252C124.45 44.9032 124.265 44.6813 124.005 44.6813H120.032Z" fill="black"/>
</g>
<g opacity="0.61">
<path opacity="0.61" d="M121.07 45.6426V46.9742C121.07 47.3441 121.442 47.6401 121.924 47.6771V48.4169H121.553C121.405 48.4169 121.293 48.4909 121.293 48.5648H122.816C122.816 48.4909 122.704 48.4169 122.556 48.4169H122.184V47.6771C122.667 47.6401 123.038 47.3441 123.038 46.9742V45.6426H121.07Z" fill="black"/>
<path opacity="0.61" d="M121.813 45.6055L121.553 46.0494H121.738L121.59 46.5302L121.961 45.9754H121.813L122.035 45.6055H121.813Z" fill="white"/>
</g>
</g>
<g opacity="0.61">
<g opacity="0.61">
<path opacity="0.61" d="M118.771 49.0834C118.771 49.3423 118.548 49.5643 118.288 49.5643H114.315C114.055 49.5643 113.832 49.3423 113.832 49.0834V45.1254C113.832 44.8665 114.055 44.6445 114.315 44.6445H118.288C118.548 44.6445 118.771 44.8665 118.771 45.1254V49.0834Z" fill="white"/>
<path opacity="0.61" d="M118.288 49.638H114.315C114.018 49.638 113.758 49.3791 113.758 49.0832V45.1252C113.758 44.8292 114.018 44.5703 114.315 44.5703H118.288C118.585 44.5703 118.845 44.8292 118.845 45.1252V49.0832C118.845 49.3791 118.585 49.638 118.288 49.638ZM114.315 44.6813C114.092 44.6813 113.869 44.8662 113.869 45.1252V49.0832C113.869 49.3051 114.055 49.527 114.315 49.527H118.288C118.511 49.527 118.734 49.3421 118.734 49.0832V45.1252C118.734 44.9032 118.548 44.6813 118.288 44.6813H114.315Z" fill="black"/>
</g>
<g opacity="0.61">
<g opacity="0.61">
<path opacity="0.61" d="M114.86 46.8351L114.545 47.1489L115.49 48.0905L115.805 47.7767L114.86 46.8351Z" fill="black"/>
<g opacity="0.61">
<path opacity="0.61" d="M114.908 45.7905H114.537V47.1222H114.908V45.7905Z" fill="black"/>
<path opacity="0.61" d="M114.723 45.6064C114.834 45.6064 114.908 45.6804 114.908 45.7914C114.908 45.9024 114.834 45.9764 114.723 45.9764C114.611 45.9764 114.537 45.9024 114.537 45.7914C114.537 45.6804 114.611 45.6064 114.723 45.6064Z" fill="black"/>
</g>
<g opacity="0.61">
<path opacity="0.61" d="M114.872 46.827C114.798 46.901 114.798 47.0119 114.872 47.0859L115.838 48.0477L116.097 47.7887L115.132 46.827C115.058 46.753 114.946 46.753 114.872 46.827Z" fill="black"/>
<path opacity="0.61" d="M115.801 48.0846L114.836 47.1228C114.799 47.0858 114.762 47.0489 114.762 46.9749C114.762 46.9009 114.799 46.8639 114.836 46.8269C114.873 46.7899 114.91 46.7529 114.985 46.7529C115.059 46.7529 115.096 46.7899 115.133 46.8269L116.099 47.7887L115.801 48.0846ZM114.985 46.7899C114.947 46.7899 114.91 46.7899 114.873 46.8269C114.836 46.8639 114.836 46.9009 114.836 46.9379C114.836 46.9749 114.836 47.0119 114.873 47.0489L115.801 47.9736L116.024 47.7517L115.096 46.8269C115.096 46.7899 115.022 46.7899 114.985 46.7899Z" fill="white"/>
</g>
<path opacity="0.61" d="M115.311 47.2262L115.049 47.4878L115.679 48.1155L115.942 47.854L115.311 47.2262Z" fill="black"/>
<path opacity="0.61" d="M116.061 47.7886H115.207V48.6024H116.061V47.7886Z" fill="black"/>
</g>
<g opacity="0.61">
<path opacity="0.61" d="M117.713 46.8284L116.768 47.77L117.083 48.0839L118.028 47.1423L117.713 46.8284Z" fill="black"/>
<g opacity="0.61">
<path opacity="0.61" d="M118.028 45.79H117.656V47.1217H118.028V45.79Z" fill="black"/>
<path opacity="0.61" d="M117.842 45.606C117.731 45.606 117.656 45.6799 117.656 45.7909C117.656 45.9019 117.731 45.9759 117.842 45.9759C117.953 45.9759 118.028 45.9019 118.028 45.7909C118.028 45.6799 117.953 45.606 117.842 45.606Z" fill="black"/>
</g>
<g opacity="0.61">
<path opacity="0.61" d="M117.731 46.8265C117.806 46.9005 117.806 47.0114 117.731 47.0854L116.766 48.0472L116.506 47.7882L117.471 46.8265C117.546 46.7525 117.657 46.7525 117.731 46.8265Z" fill="black"/>
<path opacity="0.61" d="M116.766 48.0841L116.469 47.7882L117.434 46.8264C117.471 46.7894 117.508 46.7524 117.583 46.7524C117.657 46.7524 117.694 46.7894 117.731 46.8264C117.768 46.8634 117.806 46.9004 117.806 46.9744C117.806 47.0114 117.768 47.0854 117.731 47.1223L116.766 48.0841ZM116.543 47.7882L116.766 48.0101L117.694 47.0854C117.731 47.0484 117.731 47.0114 117.731 46.9744C117.731 46.9374 117.731 46.9004 117.694 46.8634C117.62 46.7894 117.508 46.7894 117.471 46.8634L116.543 47.7882Z" fill="white"/>
</g>
<path opacity="0.61" d="M117.269 47.2131L116.639 47.8408L116.901 48.1024L117.531 47.4746L117.269 47.2131Z" fill="black"/>
<path opacity="0.61" d="M117.397 47.7881H116.543V48.6019H117.397V47.7881Z" fill="black"/>
</g>
<g opacity="0.61">
<path opacity="0.61" d="M117.213 46.8269L116.359 47.2337V46.383L117.213 45.9761V46.8269Z" fill="black"/>
<path opacity="0.61" d="M115.469 46.8269L116.323 47.2337V46.383L115.469 45.9761V46.8269Z" fill="black"/>
<path opacity="0.61" d="M117.177 45.9766L116.323 46.3465L115.506 45.9766L116.323 45.6807L117.177 45.9766Z" fill="black"/>
</g>
</g>
</g>
<g opacity="0.61">
<g opacity="0.61">
<path opacity="0.61" d="M130.28 49.0834C130.28 49.3423 130.058 49.5643 129.798 49.5643H125.825C125.565 49.5643 125.342 49.3423 125.342 49.0834V45.1254C125.342 44.8665 125.565 44.6445 125.825 44.6445H129.761C130.021 44.6445 130.243 44.8665 130.243 45.1254V49.0834H130.28Z" fill="white"/>
<path opacity="0.61" d="M129.761 49.638H125.787C125.49 49.638 125.23 49.3791 125.23 49.0832V45.1252C125.23 44.8292 125.49 44.5703 125.787 44.5703H129.761C130.058 44.5703 130.318 44.8292 130.318 45.1252V49.0832C130.318 49.3791 130.095 49.638 129.761 49.638ZM125.787 44.6813C125.565 44.6813 125.342 44.8662 125.342 45.1252V49.0832C125.342 49.3051 125.528 49.527 125.787 49.527H129.761C129.983 49.527 130.206 49.3421 130.206 49.0832V45.1252C130.206 44.9032 130.021 44.6813 129.761 44.6813H125.787Z" fill="black"/>
</g>
<g opacity="0.61">
<path opacity="0.61" d="M127.758 45.791C127.721 45.791 127.721 45.791 127.721 45.8279V45.9384H127.795V45.8279C127.795 45.8279 127.795 45.791 127.758 45.791Z" fill="black"/>
<g opacity="0.61">
<path opacity="0.61" d="M127.757 45.8652C126.94 45.8652 126.272 46.4571 126.234 47.2339H126.977H127.72H128.462H129.242C129.242 46.4941 128.574 45.8652 127.757 45.8652Z" fill="black"/>
<g opacity="0.61">
<path opacity="0.61" d="M126.234 47.2697H126.977C126.569 46.9749 126.234 47.2697 126.234 47.2697Z" fill="white"/>
<path opacity="0.61" d="M127.756 47.2697C127.348 46.9749 127.014 47.2697 127.014 47.2697H127.756H128.499C128.128 47.0117 127.793 47.2329 127.756 47.2697Z" fill="white"/>
<path opacity="0.61" d="M128.5 47.2697H129.243C128.834 46.9749 128.5 47.2697 128.5 47.2697Z" fill="white"/>
</g>
<path opacity="0.61" d="M126.977 47.2339C126.977 47.2339 126.866 46.1612 127.757 45.8652C126.903 46.1612 127.014 47.2339 126.977 47.2339Z" fill="white"/>
<path opacity="0.61" d="M128.538 47.2339C128.5 47.2339 128.612 46.1612 127.758 45.8652C128.612 46.1612 128.538 47.2339 128.538 47.2339Z" fill="white"/>
<g opacity="0.61">
<path opacity="0.61" d="M127.795 47.0117H127.721V48.7133H127.795V47.0117Z" fill="black"/>
<path opacity="0.61" d="M127.944 48.9358C127.795 48.9358 127.721 48.8248 127.721 48.7139V48.5659H128.166V48.7139C128.166 48.8618 128.055 48.9358 127.944 48.9358ZM127.795 48.6399V48.7139C127.795 48.7879 127.869 48.8618 127.944 48.8618C128.018 48.8618 128.092 48.7879 128.092 48.7139V48.6399H127.795Z" fill="black"/>
<path opacity="0.61" d="M128.092 48.5659H127.795V48.6765H128.092V48.5659Z" fill="white"/>
</g>
<path opacity="0.61" d="M127.795 45.9019H127.758V47.2705H127.795V45.9019Z" fill="white"/>
</g>
</g>
</g>
</g>
</svg>
