<svg width="160" height="135" viewBox="0 0 160 135" fill="none" xmlns="http://www.w3.org/2000/svg">
<path d="M25.5954 122.462C24.3824 121.001 22.3202 122.583 22.1989 123.314C21.9563 124.409 23.5332 124.775 24.3824 124.653C25.3528 124.531 26.4445 123.436 25.5954 122.462Z" fill="black"/>
<path d="M24.746 122.949C24.2608 122.34 23.2903 122.949 23.2903 123.314C23.169 123.801 23.8969 124.044 24.2608 123.922C24.6247 123.922 25.1099 123.314 24.746 122.949Z" fill="#B7B7B7"/>
<path d="M28.0212 124.653C26.8082 123.192 24.746 124.775 24.6247 125.505C24.3821 126.601 25.959 126.966 26.8082 126.844C27.7786 126.601 28.749 125.505 28.0212 124.653Z" fill="black"/>
<path d="M27.1722 125.14C26.687 124.531 25.7166 125.14 25.7166 125.505C25.5953 125.992 26.3231 126.235 26.687 126.114C27.0509 125.992 27.5362 125.505 27.1722 125.14Z" fill="#B7B7B7"/>
<path d="M30.3259 126.722C29.1128 125.261 27.0507 126.844 26.9294 127.574C26.6868 128.67 28.2637 129.035 29.1128 128.913C30.0833 128.792 31.175 127.696 30.3259 126.722Z" fill="black"/>
<path d="M29.4769 127.209C28.9917 126.601 28.0213 127.209 28.0213 127.574C27.9 128.061 28.6278 128.305 28.9917 128.183C29.3556 128.183 29.8409 127.696 29.4769 127.209Z" fill="#B7B7B7"/>
<path d="M32.7522 128.913C31.5391 127.453 29.4769 129.035 29.3556 129.766C29.113 130.861 30.69 131.226 31.5391 131.105C32.5095 130.983 33.48 129.887 32.7522 128.913Z" fill="black"/>
<path d="M31.9032 129.4C31.418 128.792 30.4476 129.4 30.4476 129.766C30.3263 130.252 31.0541 130.496 31.418 130.374C31.7819 130.374 32.2671 129.887 31.9032 129.4Z" fill="#B7B7B7"/>
<path d="M33.7225 129.887C33.7225 129.035 33.8438 127.818 33.116 127.209C32.1455 126.114 30.9325 125.261 29.8408 124.288C28.8703 123.436 27.8999 122.462 26.8082 121.61C26.5656 121.366 26.2016 121.244 25.959 121.123C25.959 120.879 25.7164 120.514 25.3525 120.636C24.6247 120.757 23.8969 120.879 23.169 121.123C22.6838 121.244 22.5625 121.853 22.9264 122.218C26.2016 124.896 29.4769 127.696 32.6308 130.496C33.116 130.739 33.8438 130.496 33.7225 129.887Z" fill="#00B2A7"/>
<path d="M35.7848 123.436C35.5422 122.827 35.1783 122.34 34.8144 121.731C34.4505 121.366 33.7227 120.757 33.7227 120.149C33.6014 119.54 34.5718 118.931 34.9357 118.445C35.4209 117.836 36.0275 117.227 36.5127 116.619C36.7553 116.375 36.7553 115.888 36.5127 115.645C35.4209 114.549 34.3292 113.575 33.2375 112.48C32.8735 112.114 32.5096 112.358 32.267 112.601C32.1457 112.601 32.1457 112.723 32.0244 112.723C29.9623 114.671 28.0214 116.619 26.0805 118.81C25.474 119.418 24.6249 120.27 25.1101 121.244C25.3527 121.731 25.8379 122.096 26.2018 122.34C26.8083 122.827 27.2936 123.314 27.9001 123.801C28.9918 124.653 30.0836 125.627 31.1753 126.479C31.9031 127.087 32.9949 128.305 34.0866 128.061C36.1488 127.818 36.5127 125.018 35.7848 123.436Z" fill="#FF0000"/>
<path d="M61.9867 95.9243C65.0193 93.3679 72.9041 60.8656 73.9958 59.5266C69.5076 58.3093 64.898 55.6312 60.2885 54.6573C59.318 58.0658 53.9807 85.0902 53.1315 88.2552C50.3415 91.1767 47.4303 94.0983 44.6403 97.0198C41.1224 100.672 37.4833 104.324 34.0868 108.097C33.2377 108.95 32.5099 109.923 31.782 110.897C31.1755 111.749 30.0838 112.723 29.9625 113.819C29.8412 115.036 30.8116 115.766 31.6607 116.497C32.5099 117.227 33.4803 118.201 34.4507 118.566C35.4212 118.931 36.2703 118.566 37.1194 117.958C38.0898 117.227 39.1816 116.375 40.152 115.523C42.0929 113.94 44.0337 112.358 45.8533 110.775C51.4333 106.271 56.7707 101.28 61.9867 95.9243Z" fill="#02A9CE"/>
<path d="M34.6934 121.488C33.8442 121.853 33.2377 122.34 32.5099 122.827C31.9034 123.436 32.8738 124.288 33.4803 123.679C33.9655 123.192 34.4508 122.827 35.0573 122.583C35.7851 122.462 35.4212 121.244 34.6934 121.488Z" fill="#F3D300"/>
<path d="M34.0866 119.54C33.1162 119.54 32.267 119.662 31.2966 119.905C30.4475 120.149 30.9327 121.366 31.6605 121.123C32.5096 120.879 33.2375 120.879 34.0866 120.879C34.9357 120.879 34.8144 119.662 34.0866 119.54Z" fill="#F3D300"/>
<path d="M91.8274 131.592C90.0078 131.348 89.5226 133.904 89.8865 134.513C90.493 135.487 91.9487 134.757 92.4339 134.026C93.0404 133.296 93.0404 131.713 91.8274 131.592Z" fill="black"/>
<path d="M91.5848 132.565C90.7356 132.444 90.493 133.539 90.7357 133.904C90.9783 134.391 91.5848 134.026 91.8274 133.661C92.07 133.296 92.07 132.565 91.5848 132.565Z" fill="#B7B7B7"/>
<path d="M95.1023 131.592C93.2827 131.348 92.7975 133.904 93.1614 134.513C93.7679 135.487 95.2236 134.757 95.7088 134.026C96.194 133.296 96.194 131.713 95.1023 131.592Z" fill="black"/>
<path d="M94.7386 132.565C93.8895 132.444 93.6469 133.539 93.8895 133.904C94.1321 134.391 94.7386 134.026 94.9812 133.661C95.2238 133.296 95.2238 132.565 94.7386 132.565Z" fill="#B7B7B7"/>
<path d="M98.2566 131.592C96.437 131.348 95.9518 133.904 96.3157 134.513C96.9222 135.487 98.3779 134.757 98.8631 134.026C99.3483 133.296 99.4696 131.713 98.2566 131.592Z" fill="black"/>
<path d="M97.8924 132.565C97.0433 132.444 96.8007 133.539 97.0433 133.904C97.2859 134.391 97.8924 134.026 98.135 133.661C98.4989 133.296 98.4989 132.565 97.8924 132.565Z" fill="#B7B7B7"/>
<path d="M101.41 131.592C99.5908 131.348 99.1056 133.904 99.4695 134.513C100.076 135.487 101.532 134.757 102.017 134.026C102.623 133.296 102.623 131.713 101.41 131.592Z" fill="black"/>
<path d="M101.168 132.565C100.319 132.444 100.076 133.539 100.319 133.904C100.561 134.391 101.168 134.026 101.41 133.661C101.653 133.296 101.653 132.565 101.168 132.565Z" fill="#B7B7B7"/>
<path d="M102.866 131.592C102.259 130.983 101.532 130.009 100.561 130.009C99.1055 129.887 97.6499 130.009 96.1942 130.009C94.8599 130.009 93.5256 130.009 92.1912 130.009C91.8273 130.009 91.5847 130.131 91.2208 130.253C90.9782 130.009 90.6143 130.009 90.3716 130.253C89.8864 130.861 89.4012 131.47 89.0373 132.078C88.7947 132.444 89.0373 133.052 89.6438 133.052C93.8895 132.809 98.1351 132.687 102.381 132.687C102.987 132.687 103.23 131.957 102.866 131.592Z" fill="#00B2A7"/>
<path d="M100.076 125.383C99.4696 125.14 98.8631 124.896 98.2566 124.775C97.7714 124.653 96.8009 124.775 96.437 124.409C95.9518 124.044 96.1944 122.949 96.1944 122.34C96.1944 121.488 96.1944 120.757 96.1944 119.905C96.1944 119.54 95.9518 119.297 95.5879 119.297C94.1323 119.297 92.5553 119.175 91.0997 119.175C90.6144 119.175 90.4931 119.54 90.4931 119.905C90.4931 120.027 90.4931 120.027 90.3718 120.149C90.1292 122.949 90.0079 125.748 90.0079 128.67C90.0079 129.522 89.8866 130.739 90.9784 131.105C91.4636 131.226 92.0701 131.226 92.5553 131.226C93.2831 131.226 94.0109 131.226 94.8601 131.226C96.1944 131.226 97.6501 131.105 98.9844 130.983C99.9549 130.861 101.532 131.105 102.138 130.131C103.23 128.427 101.653 126.114 100.076 125.383Z" fill="#FF0000"/>
<path d="M101.046 87.5248C101.531 83.6294 86.975 57.2137 86.8537 55.5095C82.7294 57.5789 77.5133 58.7962 73.5103 61.1091C75.0872 64.2741 87.9454 84.8467 89.4011 87.7682C89.2798 91.7854 89.1585 95.9242 89.0372 99.9414C88.9159 105.054 88.6733 110.167 88.6733 115.28C88.6733 116.497 88.6733 117.714 88.7946 118.931C88.9159 120.027 88.7946 121.488 89.4011 122.34C90.1289 123.314 91.3419 123.192 92.4337 123.192C93.5254 123.07 94.8598 123.314 95.9515 122.827C96.9219 122.462 97.2858 121.488 97.5285 120.514C97.7711 119.297 98.0137 117.958 98.135 116.74C98.4989 114.306 98.8628 111.871 99.2267 109.436C100.076 102.133 100.682 94.8287 101.046 87.5248Z" fill="#02A9CE"/>
<path d="M93.7681 21.6682C89.2798 18.9901 84.4277 17.0424 79.2116 15.9468C73.7529 14.7295 68.2942 14.7295 62.7143 15.0947C57.1343 15.5816 51.5543 16.5555 45.9743 17.4076C40.0304 18.3814 34.2078 19.1118 28.2639 19.7205C21.9561 20.3291 15.6483 20.8161 9.21918 21.1813C8.73397 20.6943 8.12745 20.9378 7.76354 21.303C7.52093 21.5465 7.27832 22.0334 7.27832 22.3986C7.39962 22.8855 7.76354 23.129 8.12745 23.2507C10.0683 26.0505 12.2518 29.2155 12.3731 32.7457C12.4944 36.1542 10.1896 38.8323 9.7044 42.119C9.21918 45.0406 10.6748 47.4752 12.737 49.4229C14.6779 51.2489 17.2253 52.7097 18.8022 55.0226C19.8939 56.6051 20.2579 58.6745 20.2579 60.6222C20.2579 62.8134 20.0152 65.0045 19.4087 67.074C19.1661 67.9261 19.7726 68.6565 20.6218 68.5347C26.3231 67.8043 31.5391 65.3697 36.5126 62.5699C41.4861 59.7701 46.2169 56.8485 51.0691 53.8052C60.6521 47.9621 70.2351 41.8756 79.2116 35.1804C84.3064 31.4067 89.1585 27.5113 93.8894 23.2507C94.2533 22.8855 94.3746 22.0334 93.7681 21.6682Z" fill="#A60000"/>
<path d="M95.9516 19.8422C90.493 15.825 84.6704 12.1731 78.1199 10.2254C74.7234 9.25156 71.3269 8.76463 67.8091 8.88636C63.9274 9.0081 60.167 9.73848 56.4065 10.7123C52.5248 11.6862 48.7644 12.9035 44.8826 13.7556C41.1222 14.7295 37.3618 15.3381 33.6014 15.7033C26.0805 16.4337 18.5597 16.0685 11.1601 14.6077C9.34057 14.2425 6.91449 13.147 5.58014 14.8512C4.97362 15.5816 4.60971 16.4337 4.2458 17.2858C3.76058 18.1379 3.39667 19.1118 3.03276 19.9639C1.57711 23.7376 0.485374 27.633 0.000157816 31.6501C-0.121146 32.137 0.36407 32.8674 0.97059 32.8674C7.52101 32.7457 13.9501 32.624 20.5005 31.8936C26.8083 31.1632 32.9949 29.5807 38.9387 27.3895C44.7613 25.1984 50.4626 22.642 56.4065 20.816C62.2291 18.9901 68.173 18.1379 74.2382 18.6249C81.1525 19.1118 87.9456 20.816 94.6173 22.642C95.4664 22.8855 96.0729 22.1551 96.0729 21.5464C96.4369 21.0595 96.5582 20.3291 95.9516 19.8422Z" fill="#FF0000"/>
<path d="M16.2547 18.8684C16.8612 18.7466 17.3464 18.5032 17.2251 18.3814C17.2251 18.138 15.6481 18.138 13.7073 17.8945C11.7664 17.6511 10.3108 17.2859 10.1895 17.5293C10.1895 17.6511 10.4321 17.8945 11.1599 18.138C11.7664 18.3814 12.6155 18.6249 13.7073 18.7466C14.6777 18.9901 15.6481 18.9901 16.2547 18.8684Z" fill="#FF6557"/>
<path d="M18.9232 22.3986C17.225 22.3986 15.8906 22.3986 15.8906 22.642C15.8906 22.7638 16.1332 23.0072 16.7398 23.1289C17.3463 23.2507 18.0741 23.3724 18.9232 23.3724C19.7724 23.3724 20.6215 23.2507 21.1067 23.1289C21.7132 23.0072 21.9558 22.7638 21.9558 22.642C21.9558 22.3986 20.6215 22.3986 18.9232 22.3986Z" fill="#FF6557"/>
<path d="M26.6869 19.2335C25.7165 19.3553 24.8673 19.7205 24.9886 19.9639C24.9886 20.2074 25.8378 20.3291 26.9295 20.2074C27.8999 20.0857 28.7491 19.7205 28.6278 19.477C28.5065 19.1118 27.6573 18.9901 26.6869 19.2335Z" fill="#FF6557"/>
<path d="M36.3911 22.3985C34.6929 22.642 33.3585 23.1289 33.4798 23.3724C33.4798 23.6159 34.9355 23.6159 36.5124 23.3724C38.2107 23.1289 39.545 22.642 39.4237 22.3985C39.4237 22.1551 37.9681 22.1551 36.3911 22.3985Z" fill="#FF6557"/>
<path d="M43.9123 16.0685C42.6992 16.312 41.8501 16.7989 41.8501 17.0424C41.8501 17.2858 42.9418 17.2858 44.0336 17.0424C45.2466 16.7989 46.0957 16.312 46.0957 16.0685C46.0957 15.8251 45.1253 15.8251 43.9123 16.0685Z" fill="#FF6557"/>
<path d="M54.3439 13.9991C53.2522 14.1208 52.2817 14.486 52.2817 14.8512C52.2817 15.0947 53.2522 15.2164 54.4652 14.9729C55.5569 14.8512 56.5274 14.486 56.5274 14.1208C56.5274 13.9991 55.5569 13.8774 54.3439 13.9991Z" fill="#FF6557"/>
<path d="M7.03567 25.807C7.03567 25.5636 6.55045 25.3201 5.82263 25.1984C5.0948 25.1984 4.48828 25.3201 4.48828 25.5636C4.48828 25.807 4.9735 26.0505 5.70132 26.1722C6.42914 26.1722 7.03567 26.0505 7.03567 25.807Z" fill="#FF6557"/>
<path d="M8.00608 27.5113C7.39956 27.5113 7.03564 27.7548 7.03564 27.9982C7.03564 28.2417 7.52086 28.4851 8.12738 28.4851C8.7339 28.4851 9.09781 28.2417 9.09781 27.9982C9.09781 27.633 8.6126 27.5113 8.00608 27.5113Z" fill="#FF6557"/>
<path d="M4.12431 28.4851C3.7604 28.4851 3.39648 28.7286 3.39648 28.972C3.39648 29.2155 3.7604 29.459 4.12431 29.459C4.48822 29.459 4.85213 29.2155 4.85213 28.972C4.85213 28.7286 4.48822 28.4851 4.12431 28.4851Z" fill="#FF6557"/>
<path d="M159.637 30.4328C159.394 30.3111 159.273 30.3111 159.03 30.1894C159.273 29.7025 159.394 29.0938 159.151 28.7286C158.909 28.3634 158.545 28.1199 158.302 27.8765C158.06 27.633 157.696 27.3896 157.453 27.1461C156.847 26.6592 156.24 26.1723 155.633 25.8071C155.027 25.4419 154.42 24.7115 153.693 25.1984C153.329 25.4419 153.086 25.6853 152.843 25.9288C152.48 26.1722 150.66 27.633 150.175 27.8765C149.69 28.1199 146.536 28.9721 145.808 29.0938C145.323 29.0938 145.687 32.9892 146.293 32.9892C147.142 33.1109 150.175 31.8936 150.417 32.1371C150.66 32.3805 150.781 32.7457 151.145 32.8675C151.752 33.2327 152.48 33.4761 153.207 33.4761C154.057 33.5979 154.784 33.4761 155.512 33.1109C156.24 32.7457 157.089 32.5023 157.938 32.3805C158.787 32.2588 159.758 32.1371 160.122 31.285C160.122 31.1632 160.122 30.6763 159.637 30.4328Z" fill="#FDB186"/>
<path d="M156.361 28.8503C156.361 28.8503 156.24 28.8503 156.118 28.8503C155.997 28.8503 155.633 28.7286 155.391 28.8503C155.269 28.8503 155.269 28.8503 155.148 28.972C155.027 28.972 155.027 29.0938 154.905 29.0938C154.784 29.2155 154.663 29.3372 154.541 29.5807C154.42 29.8242 154.541 29.9459 154.541 30.1893C154.541 30.3111 154.663 30.3111 154.784 30.4328C154.905 30.5545 154.905 30.5545 155.027 30.5545C155.269 30.6763 155.512 30.6763 155.754 30.6763C155.997 30.6763 156.24 30.6763 156.482 30.6763C156.968 30.6763 157.331 30.6763 157.695 30.5545C158.302 30.4328 158.787 30.4328 158.787 30.4328C158.787 30.5545 158.423 30.6763 157.695 30.9197C157.331 31.0415 156.968 31.0415 156.482 31.0415C156.24 31.0415 155.997 31.0415 155.754 31.0415C155.512 31.0415 155.269 31.0415 155.027 30.9197C154.905 30.9197 154.784 30.798 154.663 30.6763C154.541 30.5545 154.42 30.4328 154.42 30.3111C154.299 30.1893 154.299 29.9459 154.299 29.8242C154.299 29.5807 154.299 29.459 154.42 29.3372C154.663 28.7286 155.148 28.4851 155.512 28.4851C155.754 28.4851 155.876 28.4851 155.997 28.6068C156.118 28.6068 156.24 28.7286 156.361 28.7286C156.361 28.7286 156.361 28.7286 156.361 28.8503Z" fill="#DB804A"/>
<path d="M147.87 32.2588C148.234 31.5284 148.234 30.798 148.355 29.9459C148.355 29.459 148.476 28.7286 148.112 28.2417C147.87 27.9982 147.627 27.7547 147.263 27.7547C139.864 28.6069 132.343 28.9721 124.822 28.8503C120.455 28.8503 116.209 28.6069 111.842 28.2417C109.659 27.9982 107.597 27.8765 105.413 27.633C103.351 27.3895 101.289 27.0244 99.2268 27.0244C97.286 27.0244 95.4664 27.5113 93.8895 28.7286C92.4338 29.8242 91.4634 31.4067 91.4634 33.3544C91.4634 35.1803 92.4338 36.7629 93.8895 37.8584C95.5877 39.1975 101.168 40.6583 116.816 40.78C125.792 40.78 139.742 36.1542 147.142 33.3544C147.385 32.9892 147.627 32.7457 147.87 32.2588Z" fill="black"/>
<path d="M98.6201 42.4843C100.318 39.9279 102.138 37.4933 103.351 34.5717C103.836 33.2327 104.2 31.8936 103.957 30.4329C103.715 29.0938 102.987 27.8765 102.138 26.7809C99.9544 23.9811 96.5579 21.9117 93.5253 20.2074C93.2827 20.0857 93.0401 19.964 92.6762 20.0857C89.8862 19.1119 86.8536 19.7205 84.6701 21.1813C83.0932 22.2769 81.8801 23.6159 80.7884 25.0767C79.6967 26.5375 78.6049 28.12 77.5132 29.7025C75.2084 32.9892 73.1463 36.276 71.2054 39.8062C70.7202 40.6583 70.3563 41.5104 69.9923 42.3625C69.6284 43.2146 69.0219 44.1885 69.1432 45.1623C69.2645 46.2579 70.1137 46.8666 70.9628 47.597C71.8119 48.3274 72.7823 48.936 73.6315 49.5447C77.6345 52.4662 81.7588 55.266 86.0045 57.8224C86.7323 58.3093 87.824 58.3093 88.3093 57.5789C91.7058 52.588 95.2236 47.4752 98.6201 42.4843Z" fill="#151515"/>
<path d="M100.804 22.1551C100.804 21.303 100.076 20.6943 99.712 20.0857C98.7416 18.5032 97.7712 16.7989 97.0433 14.973C96.8007 14.486 96.3155 14.6078 95.9516 14.973C95.709 14.973 95.4664 15.0947 95.3451 15.4599C93.8894 18.2597 92.3125 20.9378 90.8568 23.7376C90.6142 24.2245 90.8568 24.5897 91.0994 24.8332C92.6764 25.9288 94.3747 26.9026 96.0729 27.633C96.8007 27.8765 97.5286 28.2417 98.1351 27.3895C98.7416 26.5374 99.1055 25.5636 99.5907 24.7115C100.076 23.8593 100.804 23.0072 100.804 22.1551Z" fill="#FDB186"/>
<path d="M110.265 0.365226C110.023 -0.121699 108.931 3.2194e-05 108.446 0.365226C106.869 1.58254 105.535 2.92158 104.2 4.26063C103.958 4.50409 104.2 4.99102 104.564 4.86928C106.384 4.38236 108.688 4.01717 109.78 2.31293C110.144 1.94773 110.508 1.09561 110.265 0.365226Z" fill="#00897E"/>
<path d="M105.656 8.39947C105.049 7.30388 104.443 6.2083 102.987 6.08657C100.44 5.84311 97.4069 6.81696 95.5874 8.76466C93.8891 10.5906 94.3743 12.9035 95.2234 14.973C94.7382 14.973 94.253 15.2164 94.0104 15.7033C93.6465 16.312 94.0104 17.4076 94.253 18.0162C94.8595 19.2336 96.3152 19.7205 97.4069 18.9901C97.6495 19.3553 97.8921 19.7205 98.1347 20.0857C98.9839 21.1813 99.9543 22.0334 101.167 22.3986C103.472 23.0072 107.354 22.0334 108.809 20.2074C109.659 19.1118 108.931 17.7728 108.688 16.4337C108.567 15.4599 108.082 13.9991 108.082 13.9991C111.721 12.2949 107.718 11.0776 105.656 8.39947Z" fill="#FDB186"/>
<path d="M103.473 10.2254C102.502 10.5906 103.109 12.0514 104.079 11.6862C104.928 11.321 104.322 9.86022 103.473 10.2254Z" fill="black"/>
<path d="M103.594 16.4337C104.928 16.9206 106.262 17.2858 107.839 17.0424L107.597 18.5031C105.777 18.5031 104.564 17.651 103.594 16.4337Z" fill="white"/>
<path d="M99.2263 6.45179C96.0724 5.59967 92.9185 7.06044 90.6137 9.37334C90.4924 9.49507 90.4924 9.49507 90.4924 9.6168C90.4924 9.73853 90.3711 9.73853 90.4924 9.86026C90.735 11.0776 91.5841 11.9297 92.4333 12.7818C92.4333 13.5122 92.5546 14.2426 92.5546 14.973C92.5546 15.0947 92.6759 15.2164 92.7972 15.3382C92.7972 15.4599 92.7972 15.5816 92.7972 15.7034C92.7972 16.1903 93.4037 16.1903 93.525 15.8251C93.525 16.312 94.3741 16.312 94.2528 15.8251C94.3741 15.8251 94.3741 15.8251 94.4954 15.7034C94.6167 15.5816 94.6167 15.4599 94.738 15.4599C94.8593 15.4599 94.9806 15.4599 95.1019 15.3382C95.9511 15.3382 96.315 15.8251 96.8002 16.4338C97.1641 16.7989 97.528 16.9207 98.0132 16.7989C98.2559 16.7989 98.3772 16.5555 98.2559 16.312C97.6493 14.7295 97.2854 13.147 97.2854 11.5645C98.1345 10.1037 98.9837 8.64295 99.7115 7.06044C99.9541 6.57352 99.4689 6.20833 99.2263 6.45179Z" fill="#671400"/>
<path d="M108.082 4.38231C108.082 4.13885 107.961 4.01712 107.718 4.01712C107.961 3.65192 107.597 3.28673 107.233 3.40846C104.322 5.23443 100.804 5.47789 97.7711 6.57347C97.4072 6.6952 97.4072 7.30386 97.8924 7.30386H98.0137L98.135 7.42559C99.8333 8.03425 101.653 7.79079 103.351 7.42559C105.049 7.0604 106.869 6.6952 108.203 5.59962C108.446 5.35616 108.203 4.99097 107.839 4.99097C107.961 4.7475 108.082 4.62577 108.082 4.38231Z" fill="#671400"/>
<path d="M93.5253 10.7124C93.5253 10.5907 93.404 10.5907 93.404 10.5907C93.404 10.3472 93.1614 10.2255 92.9188 10.3472C92.5549 10.5907 92.0697 10.8341 91.7057 11.1993C91.3418 11.4428 91.4631 11.9297 91.7057 12.2949C91.9484 12.6601 92.3123 12.7818 92.6762 12.5384C93.0401 12.2949 93.404 11.9297 93.7679 11.5645C94.0105 11.1993 93.7679 10.8341 93.5253 10.7124Z" fill="#00B2A7"/>
<path d="M103.23 3.65196C102.623 2.79984 101.895 2.19118 101.046 1.58252C100.318 1.0956 99.4692 0.608675 98.6201 0.365212C96.5579 -0.121713 94.3745 1.0956 92.6762 2.19118C91.4632 3.0433 90.2501 4.86927 90.0075 6.45178C89.6436 8.76467 90.7353 10.8341 90.8566 10.8341C90.9779 10.7124 91.8271 10.2254 92.4336 10.4689C93.0401 10.7124 93.1614 11.9297 93.6466 11.6862C94.1318 11.4428 99.5905 6.33005 103.108 4.62581C103.351 4.50408 103.472 4.01715 103.23 3.65196Z" fill="#02A9CE"/>
<path d="M109.901 0.121737C108.931 -0.608651 105.413 1.82597 102.381 2.67809C101.168 3.04329 97.6497 8.03427 97.8923 8.03427C98.2562 8.03427 101.046 7.18215 102.259 6.81696C103.351 6.57349 104.685 6.33003 105.656 5.72138C106.505 5.23445 106.99 4.38233 107.475 3.53021C107.961 2.43463 108.931 0.608662 109.416 0.3652C109.538 0.3652 109.78 0.3652 110.023 0.486931C110.265 0.730394 110.265 1.21732 110.387 0.973856C110.387 0.730394 110.387 0.3652 109.901 0.121737Z" fill="#02A9CE"/>
<path d="M91.8271 35.5455C92.191 30.1894 92.5549 24.8332 91.5844 19.5987C91.3418 18.3814 89.5223 18.8684 89.7649 19.9639C90.614 25.0766 90.3714 30.3111 90.0075 35.4238C89.8862 36.7629 91.8271 36.7629 91.8271 35.5455Z" fill="#02A9CE"/>
<path d="M100.076 39.5627C102.017 35.0586 102.623 30.0676 101.774 25.3201C101.532 23.9811 99.4695 24.3463 99.5908 25.6853C100.319 29.8242 99.8334 34.0848 98.3777 37.9802C98.1351 37.8584 97.8925 37.615 97.6499 37.4932C96.5582 36.7629 95.3451 36.1542 94.0108 35.5455C93.6469 35.3021 93.283 35.0586 92.9191 34.9369C92.1912 34.45 91.4634 33.963 90.7356 33.5978C90.0078 33.1109 89.1586 32.5023 88.3095 32.1371C86.126 31.2849 84.913 33.8413 83.8213 35.3021C82.6082 36.8846 81.5165 38.4671 80.3034 39.9279C78.12 42.7277 76.0578 45.6492 73.8743 48.4491C73.2678 52.7097 71.5696 56.6051 70.5991 60.7439C71.2056 61.1091 80.6674 65.0045 84.7917 65.7349C85.2769 64.761 85.6408 63.9089 86.0047 62.9351C86.4899 61.8395 86.8539 60.7439 87.3391 59.6483C89.5225 57.2137 91.5847 54.9008 93.6469 52.3445C95.1025 50.5185 96.5582 48.5708 97.7712 46.6231C98.3777 45.6492 98.863 44.5537 99.4695 43.5798C99.9547 42.4842 100.683 41.2669 100.197 40.0496C100.319 39.8061 100.197 39.6844 100.076 39.5627Z" fill="#02A9CE"/>
<path d="M103.351 25.6853C102.866 24.8332 102.138 24.7115 101.167 24.3463C100.682 24.1028 100.318 23.8594 100.076 24.1028C99.1053 25.1984 97.1644 25.5636 96.194 25.3201C94.9809 24.9549 94.2531 23.6159 93.8892 22.3986C93.5253 21.303 93.5253 19.8422 92.6762 18.8684C91.827 17.8945 90.614 17.8945 89.5223 17.4076C89.401 17.4076 89.2796 17.2859 89.2796 17.2859C88.3092 16.5555 86.3684 17.1641 87.2175 18.138C88.1879 19.2336 89.401 21.303 90.1288 22.6421C90.8566 23.9811 91.827 25.0767 92.9188 26.0505C94.0105 27.0244 95.2235 28.3634 96.6792 28.4852C98.1348 28.6069 99.7118 27.7548 101.167 27.5113C102.623 27.2678 104.564 27.7548 104.928 27.633C105.413 27.3896 103.715 26.294 103.351 25.6853Z" fill="#FF0000"/>
<path d="M92.6763 38.7105C92.4337 38.1019 91.9485 37.7367 91.4632 37.3715C90.978 37.0063 90.6141 36.6411 90.1289 36.1542L87.3389 33.8413C85.5193 32.2588 83.6998 30.6763 81.8802 29.2155C78.2411 26.1722 74.7233 23.0072 71.0842 19.9639C70.235 19.2335 69.2646 18.5032 68.2942 18.0162C67.2024 17.4076 66.1107 17.1641 64.8977 16.9206C62.7142 16.5555 60.2881 16.6772 58.1046 16.7989C57.0129 16.9206 55.9212 17.0424 54.9507 17.7728C54.1016 18.5032 53.3738 19.5987 52.7673 20.5726C51.4329 22.5203 49.9773 24.468 48.6429 26.5374C45.9742 30.4328 43.1842 34.45 40.6369 38.4671C40.2729 39.0757 40.0303 40.0496 40.273 40.6582C40.1516 41.0234 40.273 41.5104 40.5156 41.7538C44.1547 45.0406 47.7938 48.2056 51.4329 51.2489C53.2525 52.8314 55.072 54.2921 57.0129 55.7529C58.7112 57.2137 60.5307 58.6745 62.4716 59.8918C64.4124 61.1091 66.4746 61.7178 68.7794 61.596C71.0842 61.4743 73.5103 60.9874 75.815 60.7439C76.9068 60.6222 78.2411 60.6222 79.2115 59.7701C79.6968 59.4049 79.9394 58.7962 80.3033 58.3093C80.6672 57.8224 81.0311 57.3354 81.395 56.8485C82.7294 54.9008 84.185 52.9531 85.5193 50.8837C86.8537 48.936 88.3093 46.8665 89.6437 44.9188C90.3715 43.945 90.978 42.9711 91.7059 41.9973C92.1911 41.1452 93.1615 40.0496 92.6763 38.7105Z" fill="#F3D300"/>
<path d="M91.827 39.3192C89.037 39.0757 86.247 38.954 83.3357 38.7105C81.8801 38.5888 80.5457 38.4671 79.0901 38.3453C78.4836 38.3453 77.9984 38.1019 77.3918 37.7367C76.7853 37.3715 76.3001 37.0063 75.8149 36.5194C71.4479 33.2326 67.4449 29.459 63.8058 25.5635C61.7436 23.2507 59.6814 20.9378 57.6193 18.6249C57.1341 18.0162 56.1636 18.8683 56.6488 19.3553C60.288 23.6158 64.0484 27.7547 68.0514 31.6501C70.1136 33.5978 72.1758 35.4238 74.3592 37.0063C74.9658 37.3715 75.451 37.8584 76.0575 38.2236C76.3001 38.4671 76.664 38.7105 76.9066 38.8323C73.5101 43.8232 70.1136 48.936 66.9597 54.0487C65.9893 55.5094 65.1401 56.9702 64.1697 58.5527C63.8058 59.1614 64.7762 59.8918 65.1401 59.2831C68.4153 54.0487 71.8119 48.8142 75.2084 43.5798C76.1788 42.119 77.1492 40.78 77.9984 39.3192C78.4836 39.4409 79.0901 39.4409 79.5753 39.4409L81.7588 39.5626C85.034 39.8061 88.1879 40.0496 91.4631 40.293C92.5548 40.5365 92.5548 39.3192 91.827 39.3192Z" fill="#B19100"/>
<path d="M76.6643 56.8485C77.0282 56.1181 77.0282 55.1443 76.3004 54.6574C75.6939 54.2922 74.6021 54.2922 74.1169 55.0226C72.9039 57.092 71.8122 59.2831 70.5991 61.4743C71.8122 61.3526 73.1465 61.1091 74.3595 60.9874C75.2087 59.5266 75.9365 58.1876 76.6643 56.8485Z" fill="#FFE95E"/>
<path d="M82.4871 45.8927L84.7919 42.3625C85.641 41.1452 86.854 39.8061 86.1262 38.2236C85.8836 37.615 85.2771 37.128 84.9132 36.7628C84.4279 36.2759 83.9427 35.789 83.4575 35.3021C82.4871 34.3282 81.5166 33.2326 80.4249 32.2588C76.5432 28.3634 72.6614 24.3463 68.7797 20.4509C67.688 19.3553 66.4749 18.138 65.3832 17.0424C65.2619 17.0424 65.1406 17.0424 64.898 16.9206C63.4423 16.6772 62.108 16.6772 60.6523 16.6772C67.9306 23.8593 75.2088 31.1632 82.2445 38.4671C82.4871 38.7105 82.851 39.0757 83.0936 39.3192L82.9723 39.4409C82.7297 39.6844 82.6084 40.0496 82.3658 40.2931C81.5166 41.5104 80.6675 42.8494 79.8184 44.0667C79.3332 44.7971 79.5758 45.771 80.1823 46.2579C81.0314 46.7448 82.0019 46.5013 82.4871 45.8927Z" fill="#FFE95E"/>
<path d="M73.1465 42.119C73.1465 41.9973 73.2678 41.8755 73.2678 41.7538C73.5104 41.2669 73.3891 40.6582 73.0252 40.1713C70.7204 37.7367 68.1731 35.5455 65.3831 33.7195C64.6552 33.2326 63.8061 33.4761 63.1996 34.0847C62.5931 34.8151 62.1079 35.5455 61.6226 36.2759C61.38 36.6411 61.1374 37.0063 60.8948 37.3715C60.5309 37.8584 60.167 38.3453 60.167 38.954C60.0457 40.1713 61.1374 40.9017 62.1079 41.5103C62.8357 41.9973 63.5635 42.6059 64.2913 43.0929C65.0191 43.5798 65.747 44.0667 66.4748 44.5536C66.8387 44.7971 67.2026 45.0406 67.5665 45.284C68.0518 45.6492 68.537 45.8927 69.1435 46.0144C70.2352 46.0144 71.0844 45.0406 71.8122 44.3102C72.2974 43.8232 72.6613 42.9711 73.1465 42.119Z" fill="#FFE95E"/>
<path d="M71.5694 42.119C68.9007 39.8061 66.232 37.615 63.5633 35.3021C63.3207 35.0586 63.0781 35.5455 63.3207 35.789C65.9894 38.1019 68.6581 40.2931 71.3268 42.6059C71.5694 42.7277 71.812 42.3625 71.5694 42.119Z" fill="black"/>
<path d="M70.4778 43.2146C67.8091 41.1452 65.1404 39.1975 62.4718 37.2498C62.2292 37.0063 61.8652 37.4932 62.2292 37.7367C65.0191 39.6844 67.6878 41.6321 70.2352 43.7015C70.4778 43.8233 70.7204 43.4581 70.4778 43.2146Z" fill="black"/>
<path d="M68.9009 44.1885C66.7174 42.606 64.6552 41.1452 62.4718 39.5627C62.2292 39.3192 61.8652 39.8062 62.2292 40.0496C64.4126 41.6321 66.4748 43.0929 68.6583 44.6754C68.9009 44.7971 69.1435 44.4319 68.9009 44.1885Z" fill="black"/>
<path d="M65.2616 50.8837C65.6255 51.0054 65.8681 50.8837 66.1107 50.6402C66.4747 50.3967 66.7173 50.0315 66.9599 49.6663C66.9599 49.6663 66.9599 49.5446 66.9599 49.4229C66.7173 49.3012 66.596 49.0577 66.3533 48.936C66.3533 49.1794 66.4747 49.4229 66.4747 49.6663C66.4747 49.6663 66.4747 49.6663 66.3533 49.6663C66.232 49.6663 65.9894 49.5446 65.8681 49.5446C65.8681 49.6663 65.9894 49.7881 65.9894 50.0315V50.1533C65.7468 50.1533 65.6255 50.275 65.5042 50.275C65.3829 50.275 65.3829 50.1533 65.5042 50.1533C65.6255 50.1533 65.8681 50.0315 65.9894 50.0315C65.9894 49.9098 65.8681 49.7881 65.8681 49.5446V49.4229C66.1107 49.4229 66.232 49.4229 66.4747 49.4229C66.4747 49.1794 66.3533 48.936 66.3533 48.6925C66.232 48.5708 66.232 48.5708 66.1107 48.449H65.9894C65.8681 48.5708 65.6255 48.6925 65.5042 48.936L65.3829 49.0577C65.2616 49.1794 65.1403 49.4229 65.019 49.5446V49.6663C65.019 49.7881 65.019 49.7881 65.019 49.9098C65.019 50.0315 65.019 50.275 65.1403 50.3967C64.8977 50.6402 64.6551 50.8837 64.5338 51.1271C64.4125 51.0054 64.2912 51.0054 64.2912 50.8837C64.1699 50.7619 64.0486 51.0054 64.1699 51.1271C64.5338 51.3706 64.7764 51.614 65.1403 51.8575C65.2616 51.9792 65.3829 51.7358 65.2616 51.614C65.1403 51.4923 65.019 51.3706 64.8977 51.3706C64.7764 51.3706 65.019 51.1271 65.2616 50.8837Z" fill="#B19100"/>
<path d="M63.5635 48.3273C63.8061 47.9621 63.6848 47.4751 63.6848 47.1099C63.5635 46.7448 63.4422 46.5013 63.0783 46.2578C63.0783 46.2578 63.0783 46.1361 63.1996 46.1361C63.3209 46.0144 63.0783 45.7709 62.957 46.0144C62.957 46.0144 62.957 46.1361 62.8357 46.1361C62.7144 46.0144 62.4718 45.8926 62.3505 45.7709C62.2292 45.6492 61.9866 45.6492 61.8652 45.6492C61.7439 45.6492 61.5013 45.6492 61.38 45.6492C61.1374 45.6492 60.8948 45.7709 60.7735 45.8926V46.0144C61.0161 46.1361 61.0161 46.3796 61.0161 46.5013C61.0161 46.5013 61.0161 46.623 61.1374 46.623C61.38 46.623 61.5013 46.7448 61.6226 46.8665C61.7439 46.9882 61.7439 46.9882 61.7439 47.1099V47.2317C61.6226 47.4751 61.38 47.7186 61.2587 47.8403C61.1374 47.9621 61.0161 48.0838 60.8948 48.2055C60.7735 48.2055 60.7735 48.3273 60.6522 48.2055C60.6522 48.0838 60.6522 48.0838 60.6522 47.9621C60.7735 47.8403 60.5309 47.5969 60.4096 47.8403C60.2883 48.0838 60.167 48.3273 60.4096 48.449C60.7735 48.5707 61.0161 48.2055 61.2587 47.9621C61.5013 47.7186 61.7439 47.4751 61.8652 47.1099C62.1079 47.2317 62.2292 47.3534 62.2292 47.5969C62.2292 47.5969 62.2292 47.5969 62.3505 47.5969C62.7144 47.5969 62.957 47.7186 63.0783 47.9621C63.5635 48.449 63.5635 48.449 63.5635 48.3273Z" fill="#B19100"/>
<path d="M58.2263 46.0144C58.3476 45.8926 58.3476 45.7709 58.3476 45.7709C57.6198 45.1622 56.892 44.5536 56.1641 44.0667C56.1641 44.0667 56.0428 44.0666 55.9215 44.1884C55.9215 44.1884 55.9215 44.1884 55.8002 44.3101L55.6789 44.4318C55.5576 44.5536 55.5576 44.6753 55.5576 44.6753C56.1641 45.4057 57.0133 45.7709 57.6198 46.5013C57.6198 46.5013 57.7411 46.5013 57.8624 46.3795C58.105 46.1361 58.2263 46.0144 58.2263 46.0144Z" fill="#B19100"/>
<path d="M59.8034 44.1884C59.8034 43.945 59.8034 43.5798 59.5608 43.458L59.4395 43.3363C59.3182 43.3363 59.0756 43.3363 58.8329 43.3363C58.5903 43.3363 58.5903 43.8232 58.8329 43.8232H58.9542C58.5903 44.1884 58.3477 44.5536 57.9838 44.9188C57.7412 45.1623 58.1051 45.4057 58.3477 45.1623C58.7116 44.7971 58.9543 44.4319 59.3182 44.0667C59.3182 44.1884 59.3182 44.1884 59.3182 44.3102C59.3182 44.5536 59.8034 44.5536 59.8034 44.1884Z" fill="#B19100"/>
<path d="M58.4689 43.2145C58.4689 42.9711 58.4689 42.6059 58.2263 42.4842L58.105 42.3624C57.9837 42.3624 57.7411 42.3624 57.4985 42.3624C57.2559 42.3624 57.2559 42.8494 57.4985 42.8494H57.6198C57.2559 43.2145 57.0133 43.5797 56.6493 43.9449C56.4067 44.1884 56.7706 44.4319 57.0133 44.1884C57.3772 43.8232 57.6198 43.458 57.9837 43.0928C57.9837 43.2146 57.9837 43.2145 57.9837 43.3363C58.105 43.5797 58.5902 43.458 58.4689 43.2145Z" fill="#B19100"/>
<path d="M60.4096 44.3102C60.5309 44.1884 60.7735 43.945 60.7735 43.7015C60.7735 43.458 60.4096 43.3363 60.2883 43.2146C60.0457 42.9711 59.803 42.7277 59.5604 42.4842C59.0752 41.9973 58.4687 41.5103 57.9835 41.1451H57.8622H57.7409C57.2557 41.3886 56.8918 41.8755 56.5278 42.3625C56.1639 42.8494 55.8 43.2146 55.4361 43.7015C55.1935 43.945 54.7083 44.4319 54.9509 44.7971C55.0722 45.0405 55.4361 45.1623 55.5574 45.4057C55.8 45.6492 56.0426 45.7709 56.2852 46.0144C56.7704 46.3796 57.2557 46.7448 57.7409 47.11C58.2261 47.3534 58.4687 46.8665 58.7113 46.5013C59.0752 46.0144 59.4391 45.5275 59.9244 45.0405C60.0457 44.7971 60.2883 44.5536 60.4096 44.3102ZM60.0457 44.5536C59.6817 44.9188 59.4391 45.284 59.0752 45.6492C58.9539 45.8927 58.7113 46.0144 58.59 46.2579C58.4687 46.3796 58.2261 46.7448 57.9835 46.8665C57.8622 46.8665 57.7409 46.7448 57.6196 46.7448C57.4983 46.6231 57.377 46.623 57.377 46.5013C57.1344 46.3796 56.8918 46.1361 56.7704 46.0144C56.4065 45.6492 56.0426 45.4057 55.5574 45.0405C55.4361 44.9188 54.9509 44.6753 55.0722 44.4319C55.1935 44.1884 55.3148 43.945 55.5574 43.8232C55.9213 43.3363 56.2852 42.9711 56.6491 42.4842C57.0131 42.119 57.377 41.6321 57.7409 41.3886C58.4687 41.9973 59.3178 42.7276 60.0457 43.3363C60.167 43.458 60.5309 43.7015 60.5309 43.945C60.5309 44.0667 60.4096 44.1884 60.2883 44.1884C60.167 44.3102 60.167 44.4319 60.0457 44.5536Z" fill="#B19100"/>
<path d="M64.6551 47.9621C64.7764 47.8404 64.8977 47.5969 65.019 47.4752C65.1403 47.3535 65.2616 47.2317 65.2616 46.9883C65.2616 46.8665 65.1403 46.7448 65.019 46.6231C64.7764 46.5013 64.6551 46.2579 64.4125 46.1361C63.5634 45.4058 62.5929 44.6754 61.6225 44.0667C61.5012 44.0667 61.3799 44.0667 61.5012 44.1884C60.6521 45.284 59.803 46.3796 58.9538 47.5969V47.7186C59.1964 48.0838 59.5603 48.3273 59.803 48.6925C60.1669 49.0577 60.5308 49.3012 61.016 49.6663C61.3799 49.9098 61.7438 50.275 62.229 50.5185C62.5929 50.6402 62.8356 50.3967 63.0782 50.275C63.5634 49.5446 64.0486 48.6925 64.6551 47.9621ZM63.0782 49.5446C62.9569 49.6663 62.7142 49.9098 62.5929 50.0315C62.4716 50.0315 62.4716 50.1533 62.3503 50.1533C62.229 50.275 62.1077 50.275 61.8651 50.1533C61.5012 50.0315 61.1373 49.6663 60.8947 49.4229C60.5308 49.1794 60.1669 48.8142 59.803 48.5708C59.439 48.3273 59.0751 47.9621 58.8325 47.5969C59.6816 46.5013 60.4095 45.4058 61.3799 44.3102C62.1077 44.7971 62.7143 45.284 63.3208 45.7709C63.6847 46.0144 64.0486 46.2579 64.2912 46.5013C64.4125 46.6231 64.6551 46.7448 64.7764 46.9883C64.8977 47.11 64.5338 47.4752 64.5338 47.5969C64.1699 48.3273 63.6847 48.936 63.0782 49.5446Z" fill="#B19100"/>
<path d="M66.232 51.9792C66.8386 51.1271 67.5664 50.3967 68.1729 49.5446V49.4229C67.4451 48.8142 66.5959 48.2055 65.8681 47.5969H65.7468L65.6255 47.7186C65.019 48.449 64.5338 49.1794 63.9273 49.7881C63.6846 50.1532 63.3207 50.5184 63.0781 50.8836C62.9568 51.1271 62.5929 51.3706 62.8355 51.614C62.9568 51.7358 63.1994 51.8575 63.3207 51.9792C63.442 52.1009 63.6846 52.2227 63.8059 52.3444C64.1699 52.5879 64.5338 52.9531 64.8977 53.1965C65.1403 53.44 65.2616 53.3183 65.3829 53.0748C65.7468 52.7096 65.9894 52.3444 66.232 51.9792ZM65.019 52.9531C64.8977 52.8313 64.7764 52.8313 64.6551 52.7096C64.4125 52.5879 64.2912 52.4661 64.0486 52.2227C63.8059 52.1009 63.6846 51.9792 63.442 51.7358C63.3207 51.614 62.8355 51.3706 62.8355 51.1271C62.8355 51.0054 62.9568 50.8836 63.0781 50.8836C63.1994 50.7619 63.1994 50.6402 63.3207 50.5184C63.442 50.275 63.5633 50.1532 63.8059 49.9098C64.4125 49.0577 65.019 48.3273 65.7468 47.4752C66.4746 48.0838 67.2025 48.5707 67.809 49.1794C67.2025 49.9098 66.5959 50.7619 65.9894 51.4923C65.6255 51.8575 65.3829 52.2227 65.019 52.5879C65.1403 53.0748 65.1403 53.0748 65.019 52.9531Z" fill="#B19100"/>
<path d="M54.9507 54.2922C54.9507 54.2922 50.8264 51.2489 51.4329 48.936C52.1607 46.2579 53.2525 43.7015 54.5868 41.3886C55.7999 39.0757 57.3768 36.7629 59.439 35.0586C63.0781 31.8936 67.809 29.7024 72.5398 28.2417C74.8446 27.5113 77.2707 27.1461 79.5754 27.0244C82.0015 26.9026 84.5489 27.0244 86.975 26.4157C88.0667 26.1722 89.1585 25.6853 89.6437 24.468C90.1289 23.4941 90.1289 22.3986 89.765 21.303C89.1585 18.9901 86.975 17.5293 84.7915 16.7989C80.5459 15.4599 75.815 15.8251 71.5694 17.0424C67.2024 18.2597 63.0781 20.4509 59.3177 23.0072C57.1342 24.3463 55.1933 25.9288 53.4951 27.8765C51.6755 29.9459 50.4625 32.2588 49.3707 34.6934C46.9447 40.5365 43.0629 48.3273 47.4299 52.3445C51.6755 56.6051 54.9507 54.2922 54.9507 54.2922Z" fill="black"/>
<path d="M97.8927 124.775C97.5287 125.505 97.2861 126.357 97.2861 127.209C97.2861 128.061 98.4992 128.061 98.4992 127.209C98.4992 126.601 98.7418 125.992 98.9844 125.383C99.3483 124.653 98.2566 124.044 97.8927 124.775Z" fill="#F3D300"/>
<path d="M96.194 123.801C95.4662 124.409 94.8597 125.14 94.3745 125.87C93.8893 126.601 94.981 127.209 95.4662 126.479C95.9514 125.748 96.4367 125.14 97.0432 124.653C97.6497 124.166 96.8006 123.192 96.194 123.801Z" fill="#F3D300"/>
</svg>
