<svg width="80" height="54" viewBox="0 0 80 54" fill="none" xmlns="http://www.w3.org/2000/svg">
    <path d="M80 0.333252H0V53.6672H80V0.333252Z" fill="#F0F0F0"/>
    <path d="M45 0.332764H35V21.9993H0V31.9993H35V53.6659H45V31.9993H80V21.9993H45V0.332764Z" fill="#D80027"/>
    <path d="M61.5286 36.2747L79.9997 46.5365V36.2747H61.5286Z" fill="#0052B4"/>
    <path d="M48.6951 36.2747L79.9994 53.6659V48.7481L57.5474 36.2747H48.6951Z" fill="#0052B4"/>
    <path d="M71.661 53.6659L48.6951 40.9059V53.6659H71.661Z" fill="#0052B4"/>
    <path d="M48.6951 36.2747L79.9994 53.6659V48.7481L57.5474 36.2747H48.6951Z" fill="#F0F0F0"/>
    <path d="M48.6951 36.2747L79.9994 53.6659V48.7481L57.5474 36.2747H48.6951Z" fill="#D80027"/>
    <path d="M14.1158 36.2744L0 44.1166V36.2744H14.1158Z" fill="#0052B4"/>
    <path d="M31.3042 38.486V53.6658H3.98279L31.3042 38.486Z" fill="#0052B4"/>
    <path d="M22.452 36.2747L0 48.7481V53.6659L31.3044 36.2747H22.452Z" fill="#D80027"/>
    <path d="M18.4711 17.724L0 7.46216V17.724H18.4711Z" fill="#0052B4"/>
    <path d="M31.3044 17.724L0 0.332764V5.25058L22.452 17.724H31.3044Z" fill="#0052B4"/>
    <path d="M8.33826 0.332764L31.3042 13.0928V0.332764H8.33826Z" fill="#0052B4"/>
    <path d="M31.3044 17.724L0 0.332764V5.25058L22.452 17.724H31.3044Z" fill="#F0F0F0"/>
    <path d="M31.3044 17.724L0 0.332764V5.25058L22.452 17.724H31.3044Z" fill="#D80027"/>
    <path d="M65.8839 17.7244L79.9997 9.8822V17.7244H65.8839Z" fill="#0052B4"/>
    <path d="M48.6951 15.5128V0.333008H76.0165L48.6951 15.5128Z" fill="#0052B4"/>
    <path d="M57.5474 17.724L79.9994 5.25058V0.332764L48.6951 17.724H57.5474Z" fill="#D80027"/>
</svg>
