<svg width="80" height="54" viewBox="0 0 80 54" fill="none" xmlns="http://www.w3.org/2000/svg">
    <path d="M80 0H0V60H80V0Z" fill="#ED2939"/>
    <path d="M80 30H0V60H80V30Z" fill="white"/>
    <path d="M27.4386 15C27.4386 17.992 26.3821 20.8614 24.5015 22.9771C22.621 25.0927 20.0704 26.2813 17.4108 26.2813C14.7513 26.2813 12.2007 25.0927 10.3201 22.9771C8.43955 20.8614 7.38306 17.992 7.38306 15C7.38306 12.008 8.43955 9.1386 10.3201 7.02295C12.2007 4.90731 14.7513 3.71875 17.4108 3.71875C20.0704 3.71875 22.621 4.90731 24.5015 7.02295C26.3821 9.1386 27.4386 12.008 27.4386 15Z" fill="white"/>
    <path d="M30.5895 14.9999C30.5895 17.8275 29.5911 20.5392 27.8139 22.5385C26.0367 24.5379 23.6263 25.6611 21.1129 25.6611C18.5996 25.6611 16.1892 24.5379 14.412 22.5385C12.6348 20.5392 11.6364 17.8275 11.6364 14.9999C11.6364 12.1724 12.6348 9.46073 14.412 7.46138C16.1892 5.46203 18.5996 4.33881 21.1129 4.33881C23.6263 4.33881 26.0367 5.46203 27.8139 7.46138C29.5911 9.46073 30.5895 12.1724 30.5895 14.9999Z" fill="#ED2939"/>
    <path d="M18.6517 15.2722L17.2895 14.0966L15.9276 15.2728L16.4519 13.377L15.0853 12.2085L16.7716 12.2125L17.2889 10.3141L17.8068 12.2123L19.493 12.2076L18.1268 13.3767L18.6517 15.2722Z" fill="white"/>
</svg>
