<svg width="80" height="54" viewBox="0 0 80 54" fill="none" xmlns="http://www.w3.org/2000/svg">
	<path d="M80 0.332886H0V53.6668H80V0.332886Z" fill="#F0F0F0"/>
	<path d="M80 6.99902H0V13.6651H80V6.99902Z" fill="#D80027"/>
	<path d="M80 20.3329H0V26.999H80V20.3329Z" fill="#D80027"/>
	<path d="M80 33.6652H0V40.3313H80V33.6652Z" fill="#D80027"/>
	<path d="M80 46.999H0V53.6651H80V46.999Z" fill="#D80027"/>
	<path d="M40 0.332886H0V29.0512H40V0.332886Z" fill="#2E52B2"/>
	<path d="M15.5969 12.0974L14.9526 14.0793H12.8689L14.555 15.3035L13.9108 17.2852L15.5969 16.061L17.2819 17.2852L16.6378 15.3035L18.3239 14.0793H16.24L15.5969 12.0974Z" fill="#F0F0F0"/>
	<path d="M16.24 21.2312L15.5969 19.2495L14.9526 21.2312H12.8689L14.555 22.4556L13.9108 24.4373L15.5969 23.2129L17.2819 24.4373L16.6378 22.4556L18.3239 21.2312H16.24Z" fill="#F0F0F0"/>
	<path d="M7.43387 21.2312L6.79059 19.2495L6.14637 21.2312H4.06262L5.74872 22.4556L5.1045 24.4373L6.79059 23.2129L8.47575 24.4373L7.83168 22.4556L9.51747 21.2312H7.43387Z" fill="#F0F0F0"/>
	<path d="M6.79059 12.0974L6.14637 14.0793H4.06262L5.74872 15.3035L5.1045 17.2852L6.79059 16.061L8.47575 17.2852L7.83168 15.3035L9.51747 14.0793H7.43387L6.79059 12.0974Z" fill="#F0F0F0"/>
	<path d="M15.5969 4.94531L14.9526 6.92734H12.8689L14.555 8.15171L13.9108 10.1334L15.5969 8.90906L17.2819 10.1334L16.6378 8.15171L18.3239 6.92734H16.24L15.5969 4.94531Z" fill="#F0F0F0"/>
	<path d="M6.79059 4.94531L6.14637 6.92734H4.06262L5.74872 8.15171L5.1045 10.1334L6.79059 8.90906L8.47575 10.1334L7.83168 8.15171L9.51747 6.92734H7.43387L6.79059 4.94531Z" fill="#F0F0F0"/>
	<path d="M24.404 12.0974L23.7599 14.0793H21.6761L23.3621 15.3035L22.7182 17.2852L24.404 16.061L26.0893 17.2852L25.4451 15.3035L27.1311 14.0793H25.0474L24.404 12.0974Z" fill="#F0F0F0"/>
	<path d="M25.0474 21.2312L24.404 19.2495L23.7599 21.2312H21.6761L23.3621 22.4556L22.7182 24.4373L24.404 23.2129L26.0893 24.4373L25.4451 22.4556L27.1311 21.2312H25.0474Z" fill="#F0F0F0"/>
	<path d="M33.8536 21.2312L33.2104 19.2495L32.5661 21.2312H30.4825L32.1683 22.4556L31.5243 24.4373L33.2104 23.2129L34.8955 24.4373L34.2513 22.4556L35.9374 21.2312H33.8536Z" fill="#F0F0F0"/>
	<path d="M33.2104 12.0974L32.5661 14.0793H30.4825L32.1683 15.3035L31.5243 17.2852L33.2104 16.061L34.8955 17.2852L34.2513 15.3035L35.9374 14.0793H33.8536L33.2104 12.0974Z" fill="#F0F0F0"/>
	<path d="M24.404 4.94531L23.7599 6.92734H21.6761L23.3621 8.15171L22.7182 10.1334L24.404 8.90906L26.0893 10.1334L25.4451 8.15171L27.1311 6.92734H25.0474L24.404 4.94531Z" fill="#F0F0F0"/>
	<path d="M33.2104 4.94531L32.5661 6.92734H30.4825L32.1683 8.15171L31.5243 10.1334L33.2104 8.90906L34.8955 10.1334L34.2513 8.15171L35.9374 6.92734H33.8536L33.2104 4.94531Z" fill="#F0F0F0"/>
</svg>
